<svg width="1384" height="1008" viewBox="0 0 1384 1008" version="1.1" xmlns="http://www.w3.org/2000/svg" xmlns:xlink="http://www.w3.org/1999/xlink">
<g id="Canvas" fill="none">
<g id="Union">
<path fill-rule="evenodd" clip-rule="evenodd" d="M 622.76 34.4196C 622.76 49.6385 613.339 63.3948 599.024 65.6994L 677.372 630.232C 678.033 632.111 678.392 634.11 678.392 636.163C 678.392 636.548 678.38 636.931 678.355 637.31L 682.985 670.677L 683.022 670.674L 659.34 254.345L 659.181 254.345C 647.466 254.345 637.969 244.131 637.969 231.532C 637.969 218.933 647.466 208.719 659.181 208.719C 670.896 208.719 680.393 218.933 680.393 231.532C 680.393 243.348 672.04 253.066 661.338 254.229L 685.021 670.583L 685.196 670.583C 686.82 670.583 688.405 670.734 689.936 671.023L 743.721 376.508C 734.834 374.257 729.021 364.808 729.021 354.402C 729.021 342.466 737.87 334.391 749.033 334.391C 760.196 334.391 769.245 342.466 769.245 354.402C 769.245 355.227 769.196 356.046 769.101 356.856L 812.895 181.404C 794.9 177.102 784.854 162.555 784.854 144.282C 784.854 122.399 802.594 103.059 824.477 103.059C 846.36 103.059 860.097 122.399 860.097 144.282C 860.097 166.165 845.289 182.704 824.477 182.704C 821.068 182.704 817.858 182.402 814.853 181.825L 738.468 487.842C 740.166 487.346 741.964 487.078 743.83 487.078C 752.006 487.078 759.001 492.233 761.861 499.093L 899.618 150.43C 893.536 147.684 884.893 137.309 884.635 124.959C 884.346 111.094 896.948 95.7582 911.49 95.4545C 929.938 95.4545 937.008 109.995 937.297 123.86C 937.586 137.725 924.534 154.488 901.721 151.086C 901.656 151.076 901.59 151.065 901.524 151.053L 762.821 502.11C 763.097 503.34 763.241 504.605 763.241 505.889C 763.241 511.896 760.071 517.728 755.198 521.404L 695.41 672.729C 698.201 673.969 700.715 675.705 702.851 677.826L 1016.37 379.349C 1012.95 375.481 1010.98 370.458 1010.98 365.008C 1010.98 352.962 1021.6 339.394 1035.2 339.394C 1044.12 339.394 1051.84 342.84 1055.71 350.185L 1151.54 260.917C 1146.53 255.051 1143.66 247.38 1143.66 239.385C 1143.66 222.476 1162.89 204.116 1181.68 204.116C 1200.47 204.116 1211.3 219.625 1211.3 236.535C 1211.3 253.445 1194.07 271.755 1175.28 271.755C 1166.14 271.755 1158.41 268.098 1152.89 262.397L 1056.59 352.098C 1058 355.623 1058.62 359.914 1058.21 365.008C 1057.26 377.017 1042 387.021 1034.2 387.021C 1029.72 387.021 1025.68 385.942 1022.27 384.065L 704.703 679.879C 706.374 681.947 707.729 684.288 708.698 686.828L 1248.57 511.594C 1248.02 509.722 1247.72 507.748 1247.72 505.689C 1247.72 491.321 1262.18 477.272 1277.54 477.272C 1292.9 477.272 1305.55 487.719 1305.55 502.086C 1305.55 516.454 1292.9 530.303 1277.54 530.303C 1265.13 530.303 1253.32 523.621 1249.23 513.484L 712.033 687.849L 971.876 623.518C 971.67 622.158 971.562 620.704 971.562 619.153C 971.562 609.096 981.163 598.542 991.773 598.542C 1005.18 598.542 1012.19 609.096 1012.19 619.153C 1012.19 629.211 1002.38 639.765 991.773 639.765C 982.852 639.765 974.643 635.52 972.257 625.485L 709.788 690.467C 709.81 690.564 709.83 690.661 709.851 690.758L 1018.3 659.017C 1018.09 657.364 1017.99 655.681 1017.99 653.973C 1017.99 629.99 1041.14 610.949 1064.02 610.949C 1086.89 610.949 1105.44 629.99 1105.44 653.973C 1105.44 659.455 1104.36 664.679 1102.41 669.476L 1248.12 660.854L 1248.12 660.777C 1248.12 634.762 1268.73 622.555 1289.95 622.555C 1311.17 622.555 1329.57 638.965 1329.57 659.576C 1329.57 679.139 1314.16 696.661 1289.95 698.198C 1265.62 699.743 1249.31 681.692 1248.18 662.855L 1101.51 671.534C 1094.43 686.618 1078.7 696.998 1061.81 696.998C 1046.68 696.998 1032.4 688.67 1024.46 676.093L 710.368 694.678C 710.396 695.181 710.41 695.687 710.41 696.197C 710.41 696.493 710.406 696.787 710.398 697.078L 1172.75 772.806C 1176.73 764.414 1185.06 760.634 1194.69 760.634C 1206.83 760.634 1216.42 769.08 1218.2 780.25L 1313.52 795.862C 1316.12 777.582 1330.92 770.24 1348.58 770.24C 1367.48 770.24 1384 782.246 1384 803.859C 1384 822.87 1368.68 835.477 1349.78 835.477C 1330.88 835.477 1312.16 823.27 1313.16 799.856C 1313.19 799.175 1313.23 798.507 1313.29 797.852L 1218.44 782.317C 1218.48 782.888 1218.5 783.465 1218.5 784.047C 1218.5 797.044 1208.17 808.661 1194.69 808.661C 1181.21 808.661 1170.28 798.125 1170.28 785.128C 1170.28 784 1170.32 782.914 1170.42 781.869L 709.806 702.112C 709.459 703.744 708.967 705.292 708.341 706.745L 1247.16 974.996C 1252.76 965.697 1263.28 961.045 1273.14 961.749C 1290.7 963.004 1308.36 973.556 1308.36 993.167C 1308.36 1004.22 1297.55 1022.38 1276.74 1022.38C 1261.13 1022.38 1242.52 1005.97 1243.12 989.164C 1243.29 984.451 1244.4 980.301 1246.19 976.749L 707.469 708.547C 707.193 709.06 706.898 709.558 706.587 710.042L 825.539 816.419C 829.166 812.207 834.429 809.462 840.286 809.462C 851.227 809.462 860.097 819.043 860.097 829.874C 860.097 840.705 851.227 849.485 840.286 849.485L 840.137 849.484L 990.572 1001.9C 994.219 998.215 999.382 995.768 1006.18 995.768C 1017.23 995.768 1030.77 1008.58 1029.8 1020.38C 1028.55 1035.52 1015.74 1042.41 1008.84 1043.75L 1085.7 1127.28C 1094.83 1129.02 1104.23 1133.46 1111.03 1140.68C 1121.44 1136.83 1137.46 1139.25 1146.46 1152.06C 1158.43 1169.07 1149.26 1188.48 1139.66 1193.88C 1128.5 1200.16 1117.04 1199.59 1109.26 1191.84C 1107.08 1194.3 1104.65 1196.48 1102.06 1198.31C 1089.43 1204.89 1065.28 1203.41 1052.37 1185.06C 1040.8 1168.61 1042.05 1148.39 1055.75 1135L 701.076 715.843C 699.895 716.69 698.619 717.426 697.255 718.039L 734.827 802.827C 739.794 800.909 745.191 799.856 750.834 799.856C 775.37 799.856 795.26 819.746 795.26 844.282C 795.26 864.901 781.213 882.239 762.166 887.249L 917.097 1273.76C 919.927 1272.69 922.917 1272.13 925.935 1272.13C 943.287 1272.13 957.353 1288.99 957.353 1306.35C 957.353 1317.55 949.349 1335.36 929.137 1335.36C 907.725 1335.36 898.92 1318.69 898.92 1301.34C 898.92 1288.62 906.021 1278.85 915.253 1274.54L 760.199 887.718C 757.179 888.366 754.047 888.707 750.834 888.707C 733.006 888.707 717.63 878.206 710.556 863.051L 751.816 1160.32C 752.086 1160.3 752.359 1160.28 752.635 1160.26C 769.045 1159.26 778.05 1173.07 778.05 1183.87C 778.05 1197.91 769.645 1210.49 753.836 1209.29C 738.027 1208.09 731.023 1196.08 731.023 1185.28C 731.023 1175.68 735.626 1162.89 749.83 1160.57L 688.7 720.137C 688.41 720.157 688.117 720.174 687.822 720.186L 723.015 1332.16C 723.149 1332.16 723.283 1332.16 723.418 1332.16C 741.654 1332.16 755.637 1343.37 755.637 1366.98C 755.637 1385.22 744.03 1402 723.418 1402C 705.182 1402 692.8 1383.21 692.8 1364.98C 692.8 1347.56 704.103 1333.47 721.015 1332.25L 685.819 720.201C 684.579 720.169 683.357 720.061 682.16 719.882L 637.242 960.498C 637.715 962.261 637.969 964.093 637.969 965.951C 637.969 970.444 636.487 974.592 633.987 977.932L 578.031 1277.68C 594.384 1281.23 605.95 1296.79 605.95 1314.35C 605.35 1341.37 587.332 1356.57 567.328 1356.57C 547.324 1356.57 532.708 1338.96 533.508 1314.35C 533.508 1294.35 550.926 1276.93 570.93 1276.93C 572.681 1276.93 574.395 1277.06 576.063 1277.32L 631.425 980.753C 627.87 983.989 623.144 985.963 617.957 985.963C 610.989 985.963 604.853 982.401 601.269 977L 569.277 1081.2C 581.821 1085.36 596.747 1096.56 596.747 1124.04C 596.747 1135.09 586.739 1166.67 553.122 1164.86C 539.598 1164.14 517.209 1152.23 513.755 1132.72L 477.267 1225.72C 486.112 1230.06 491.884 1240.14 491.884 1250.71C 491.884 1264.75 478.305 1278.93 464.268 1278.93C 450.232 1278.93 441.055 1264.75 441.055 1250.71C 441.055 1236.68 453.634 1223.5 467.67 1223.5C 470.421 1223.5 473.024 1224 475.43 1224.92L 513.314 1128.36C 513.275 1126.96 513.333 1125.51 513.499 1124.04C 515.333 1107.7 521.19 1097.16 528.199 1090.42L 674.465 717.592C 672.14 716.516 670.009 715.131 668.148 713.477L 626.214 752.206L 381.131 985.952C 382.343 988.66 383.021 991.754 383.021 995.168C 383.021 1008.21 373.124 1019.58 361.409 1019.58C 357.201 1019.58 352.969 1018.42 349.274 1016.34L 226.796 1133.15C 230.425 1136.87 232.935 1142.11 232.935 1149.46C 232.935 1171.89 217.126 1189.08 199.315 1189.08C 176.769 1189.08 166.896 1177.87 166.896 1160.06C 166.896 1137.63 187.508 1124.24 202.317 1124.24C 206.857 1124.24 217.836 1125.35 225.334 1131.78L 347.517 1015.25C 341.832 1011.38 337.795 1005.16 337.795 997.569C 337.795 984.528 349.694 973.756 361.409 973.756C 367.383 973.756 372.884 975.932 376.841 979.795L 624.847 750.745L 666.088 711.411C 664.304 709.389 662.873 707.068 661.89 704.502L 150.978 869.286C 151.182 870.397 151.287 871.537 151.287 872.698C 151.287 884.413 148.486 901.114 124.072 901.114C 105.861 901.114 99.2574 890.617 99.2574 878.902C 99.2574 878.753 99.2597 878.604 99.2644 878.454C 98.6658 878.485 98.0631 878.501 97.4563 878.501C 75.0205 878.501 56.8329 864.002 56.8329 844.882C 56.8329 822.269 75.0205 804.459 97.4563 804.459C 117.036 804.459 132.466 815.045 136.077 830.448L 660.703 700.125C 660.684 700.012 660.665 699.898 660.648 699.783L 543.872 710.638C 543.9 711.09 543.914 711.546 543.914 712.007C 543.914 722.727 536.156 731.418 525.104 731.418C 514.052 731.418 506.293 722.727 506.293 712.007C 506.293 710.173 506.52 708.399 506.951 706.718L 394.628 712.781C 394.56 723.765 388.147 733.819 373.416 733.819C 358.607 733.819 353.404 723.659 353.404 712.607C 353.404 701.555 362.364 692.595 373.416 692.595C 383.853 692.595 393.494 700.585 394.535 710.782L 507.591 704.679C 510.238 697.591 516.724 692.595 525.104 692.595C 532.735 692.595 538.795 696.738 541.816 702.832L 660.383 696.432L 660.382 696.197C 660.382 694.892 660.473 693.609 660.649 692.356L 598.055 681.428L 273.251 630.084C 271.398 639.776 264.961 646.088 251.746 646.969C 238.938 647.823 227.932 637.341 227.932 625.957C 227.932 622.93 228.441 619.899 229.502 617.081L 63.6387 588.123C 60.4674 600.416 50.4129 610.548 31.4182 610.548C 16.6096 610.548 0 596.572 0 579.331C 0 567.724 12.2981 550.314 31.4182 550.314C 50.5382 550.314 64.6374 564.891 64.6374 582.132C 64.5271 583.491 64.3427 584.84 64.0818 586.169L 230.312 615.192C 233.639 608.329 240.559 603.144 251.746 603.144C 262.482 603.144 272.701 611.381 273.716 622.77L 598.381 679.453L 661.237 689.389C 661.631 687.861 662.156 686.389 662.8 684.989L 239.229 471.836C 235.526 480.004 227.21 484.076 216.324 484.076C 204.118 484.076 191.711 474.024 191.711 458.662C 191.711 443.299 204.918 436.449 216.325 436.449C 231.245 436.449 241.34 445.701 241.34 461.063C 241.34 464.394 240.865 467.362 239.97 469.969L 663.707 683.205C 664.327 682.095 665.025 681.039 665.795 680.045L 372.108 421.923C 364.752 430.253 354.006 435.649 341.397 435.649C 317.414 435.649 297.572 414.128 297.572 392.024C 297.572 369.92 314.413 350.6 338.396 350.6C 340.455 350.6 342.487 350.757 344.482 351.059L 305.496 311.552C 294.053 309.319 284.952 300.94 283.551 289.314L 236.786 241.924C 231.378 246.937 223.61 249.956 213.724 250.707C 198.715 251.846 179.304 235.476 179.304 216.688C 179.304 197.899 190.71 182.668 213.724 182.668C 236.857 182.668 245.742 206.918 245.742 218.925C 245.742 227.883 243.149 235.169 238.201 240.509L 283.364 286.275L 283.364 286.163C 283.364 271.906 288.967 260.349 308.378 260.349C 322.193 260.349 333.393 271.906 333.393 286.163C 333.393 293.42 330.492 299.976 325.821 304.666L 455.556 445.295C 456.517 435.162 464.849 426.443 476.275 426.443C 488.433 426.443 497.611 439.872 497.087 448.256C 496.695 454.527 493.808 460.713 488.468 464.252L 641.368 640.399C 640.849 638.714 640.57 636.953 640.57 635.162C 640.57 626.845 646.6 620.124 654.65 618.145L 496.217 219.617C 493.679 220.594 490.939 221.126 488.082 221.126C 474.93 221.126 464.268 209.837 464.268 195.912C 464.268 181.986 474.93 170.697 488.082 170.697C 501.234 170.697 511.896 181.986 511.896 195.912C 511.896 206.068 506.225 214.822 498.052 218.817L 656.649 617.759C 657.607 617.623 658.586 617.552 659.581 617.552C 665.745 617.552 671.217 620.602 674.648 625.161L 597.037 65.9421C 596.285 66.0054 595.52 66.0377 594.744 66.0377C 578.055 66.0377 562.325 51.1081 562.325 34.4196C 562.325 17.7312 575.854 0 592.543 0C 609.231 0 622.76 17.7312 622.76 34.4196ZM 308.725 311.976L 347.965 351.739C 364.748 355.768 378.243 369.959 381.738 385.964L 632.903 640.484L 472.56 466.678C 463.192 464.574 455.955 457.073 455.487 448.172L 324.355 306.028C 320.104 309.673 314.665 311.892 308.725 311.976ZM 667.342 678.234L 382.331 389.414C 382.522 390.942 382.621 392.482 382.621 394.025C 382.621 403.81 379.242 413.088 373.396 420.391L 667.084 678.513C 667.169 678.419 667.255 678.326 667.342 678.234ZM 475.739 467.173L 668.984 676.644C 669.21 676.445 669.439 676.25 669.672 676.059L 486.706 465.275C 484.208 466.537 481.263 467.267 477.876 467.267C 477.157 467.267 476.444 467.235 475.739 467.173ZM 736.201 488.663L 767.744 362.291C 764.502 370.669 756.439 377.015 747.832 377.015C 747.102 377.015 746.386 376.969 745.687 376.881L 695.483 651.789L 728.916 517.847C 726.223 514.444 724.619 510.212 724.619 505.889C 724.619 498.466 729.347 491.647 736.201 488.663ZM 273.561 628.107L 475.376 660.009L 273.798 624.815C 273.795 625.193 273.782 625.574 273.758 625.957C 273.713 626.689 273.648 627.405 273.561 628.107ZM 697.031 663.179L 752.334 523.208C 749.766 524.533 746.88 525.3 743.83 525.3C 742.073 525.3 740.377 525.045 738.768 524.577L 697.031 663.179ZM 693.548 667.804L 736.878 523.913C 734.487 522.926 732.336 521.456 730.528 519.654L 693.548 667.804ZM 1017.76 380.787C 1018.61 381.583 1019.52 382.317 1020.5 382.98L 786.641 600.819L 1017.76 380.787ZM 669.943 651.197C 673.147 649.169 675.664 646.228 677.09 642.76L 681 670.929C 679.994 671.097 679.012 671.325 678.058 671.61L 669.943 651.197ZM 659.581 654.173C 662.036 654.173 664.382 653.723 666.532 652.904L 675.259 672.635C 673.854 673.252 672.522 673.996 671.276 674.854L 651.783 652.397C 654.171 653.53 656.813 654.173 659.581 654.173ZM 710.149 700.14C 710.196 699.792 710.237 699.44 710.271 699.085L 1171.96 774.704C 1171.38 776.285 1170.94 778.009 1170.66 779.879L 710.149 700.14ZM 704.83 712.398C 705.031 712.164 705.227 711.925 705.418 711.682L 824.304 817.999C 821.954 821.32 820.542 825.341 820.477 829.565L 704.83 712.398ZM 702.646 714.601C 702.761 714.5 702.875 714.399 702.988 714.296L 983.769 1019.46C 983.821 1030.42 995.388 1043.8 1006.35 1043.99L 1082.52 1126.78C 1074.07 1125.74 1066.13 1127.05 1061.01 1130.65C 1059.67 1131.59 1058.4 1132.59 1057.22 1133.64L 702.646 714.601ZM 690.691 719.922L 706.969 837.204C 709.054 824.18 716.8 813.046 727.605 806.406L 692.782 719.532C 692.1 719.689 691.403 719.819 690.691 719.922ZM 694.726 719.003L 729.352 805.386C 730.529 804.735 731.738 804.135 732.977 803.591L 695.394 718.78C 695.173 718.857 694.951 718.932 694.726 719.003ZM 677.066 718.638C 676.813 718.551 676.561 718.46 676.311 718.366L 531.448 1087.62C 540.551 1080.59 550.771 1079.02 556.522 1079.02C 559.262 1079.02 563.116 1079.42 567.363 1080.62L 599.91 974.608C 598.651 971.989 597.946 969.052 597.946 965.951C 597.946 958.436 602.089 951.333 608.216 947.556L 671.691 740.811L 677.066 718.638ZM 661.118 702.084C 661.163 702.258 661.21 702.431 661.258 702.603L 150.513 867.334C 148.363 860.047 141.938 854.286 133.745 852.265C 135.77 847.429 136.879 842.362 136.879 837.478C 136.879 835.744 136.739 834.054 136.469 832.412L 661.118 702.084ZM 1023.31 674.157C 1021.04 670.12 1019.42 665.693 1018.6 660.998L 711.356 692.615L 1023.31 674.157ZM 820.665 832.605C 821.861 841.1 828.554 847.853 837.072 849.228L 989.231 1003.39C 986.133 1007.18 984.393 1011.95 983.909 1016.65L 730.669 741.425L 820.665 832.605ZM 679.99 720.596L 635.893 956.822C 633.505 951.756 629.239 947.652 624.055 945.801L 673.622 741.338L 679.99 720.596ZM 663.835 773.218L 622.134 945.231C 620.787 944.909 619.39 944.739 617.957 944.739C 615.401 944.739 612.956 945.283 610.709 946.255L 663.835 773.218ZM 542.657 704.79C 543.108 706.019 543.443 707.31 543.654 708.648L 644.023 699.319L 542.657 704.79ZM 534.576 836.84L 380.182 984.093C 379.599 983.084 378.935 982.139 378.201 981.262L 534.576 836.84Z" fill="#F1F7FE"/>
</g>
</g>
</svg>

