<svg width="197" height="30" viewBox="0 0 197 30" version="1.1" xmlns="http://www.w3.org/2000/svg" xmlns:xlink="http://www.w3.org/1999/xlink">
<title>logo</title>
<desc>Created using Figma</desc>
<g id="Canvas" transform="translate(572 651)">
<g id="logo">
<g id="Group 27">
<g id="Union">
<use xlink:href="#path0_fill" transform="translate(-572 -628)"/>
<use xlink:href="#path1_fill" transform="translate(-572 -628)"/>
</g>
<g id="Union">
<use xlink:href="#path2_fill" transform="translate(-572 -651)"/>
<use xlink:href="#path3_fill" transform="translate(-572 -651)"/>
</g>
<g id="Subtract">
<use xlink:href="#path4_fill" transform="translate(-572 -651)"/>
</g>
<g id="Subtract">
<use xlink:href="#path5_fill" transform="translate(-567 -641)"/>
<use xlink:href="#path6_fill" transform="translate(-567 -641)"/>
</g>
</g>
<g id="SMARTJEX">
<use xlink:href="#path7_fill" transform="translate(-528.04 -644.04)"/>
<use xlink:href="#path8_fill" transform="translate(-528.04 -644.04)"/>
<use xlink:href="#path9_fill" transform="translate(-528.04 -644.04)"/>
<use xlink:href="#path10_fill" transform="translate(-528.04 -644.04)"/>
<use xlink:href="#path11_fill" transform="translate(-528.04 -644.04)"/>
<use xlink:href="#path12_fill" transform="translate(-528.04 -644.04)"/>
<use xlink:href="#path13_fill" transform="translate(-528.04 -644.04)"/>
<use xlink:href="#path14_fill" transform="translate(-528.04 -644.04)"/>
</g>
<g id="&#206;&#178;">
<use xlink:href="#path15_fill" transform="translate(-382.75 -647.531)"/>
</g>
</g>
</g>
<defs>
<path id="path0_fill" d="M 4 0L 0 0L 0 7L 4 7L 4 0Z"/>
<path id="path1_fill" d="M 32 0L 28 0L 28 7L 32 7L 32 0Z"/>
<path id="path2_fill" d="M 11.0769 0L 0 0L 0 2L 11.0769 2L 11.0769 0Z"/>
<path id="path3_fill" d="M 32 0L 20.9231 0L 20.9231 2L 32 2L 32 0Z"/>
<path id="path4_fill" fill-rule="evenodd" d="M 18 0L 14 0L 14 5L 0 5L 0 20L 14 20L 14 23L 6 23L 6 30L 26 30L 26 23L 18 23L 18 20L 32 20L 32 5L 18 5L 18 0ZM 3 8L 12 8L 12 17L 3 17L 3 8ZM 20 8L 29 8L 29 17L 20 17L 20 8Z"/>
<path id="path5_fill" d="M 0 0L 5 0L 5 5L 0 5L 0 0Z"/>
<path id="path6_fill" d="M 17 0L 22 0L 22 5L 17 5L 17 0Z"/>
<path id="path7_fill" d="M 6.12 17.328C 4.712 17.328 3.512 17.072 2.52 16.56C 1.544 16.048 0.704 15.36 0 14.496L 1.872 12.744C 2.464 13.464 3.112 14.008 3.816 14.376C 4.536 14.744 5.352 14.928 6.264 14.928C 7.336 14.928 8.144 14.688 8.688 14.208C 9.232 13.728 9.504 13.08 9.504 12.264C 9.504 11.608 9.312 11.088 8.928 10.704C 8.544 10.32 7.864 10.032 6.888 9.84L 5.4 9.576C 3.768 9.272 2.544 8.736 1.728 7.968C 0.912 7.2 0.504 6.144 0.504 4.8C 0.504 4.064 0.64 3.4 0.912 2.808C 1.2 2.2 1.592 1.696 2.088 1.296C 2.6 0.88 3.216 0.56 3.936 0.336C 4.656 0.112 5.464 0 6.36 0C 7.624 0 8.72 0.224 9.648 0.671999C 10.576 1.104 11.368 1.736 12.024 2.568L 10.128 4.248C 9.696 3.688 9.168 3.24 8.544 2.904C 7.92 2.568 7.144 2.4 6.216 2.4C 5.256 2.4 4.512 2.592 3.984 2.976C 3.456 3.36 3.192 3.92 3.192 4.656C 3.192 5.36 3.408 5.888 3.84 6.24C 4.272 6.576 4.944 6.832 5.856 7.008L 7.344 7.32C 9.024 7.64 10.248 8.184 11.016 8.952C 11.8 9.72 12.192 10.776 12.192 12.12C 12.192 12.904 12.056 13.616 11.784 14.256C 11.512 14.896 11.112 15.448 10.584 15.912C 10.072 16.36 9.44 16.712 8.688 16.968C 7.936 17.208 7.08 17.328 6.12 17.328Z"/>
<path id="path8_fill" d="M 31.1437 4.224L 31.0238 4.224L 29.7038 6.936L 26.0317 13.632L 22.3598 6.936L 21.0397 4.224L 20.9198 4.224L 20.9198 17.04L 18.3277 17.04L 18.3277 0.287999L 21.5438 0.287999L 26.0317 8.808L 26.1758 8.808L 30.6637 0.287999L 33.7357 0.287999L 33.7357 17.04L 31.1437 17.04L 31.1437 4.224Z"/>
<path id="path9_fill" d="M 51.4586 17.04L 49.9466 12.504L 43.6826 12.504L 42.2186 17.04L 39.4586 17.04L 45.1706 0.287999L 48.5786 0.287999L 54.2906 17.04L 51.4586 17.04ZM 46.8746 2.784L 46.7546 2.784L 44.3306 10.176L 49.2746 10.176L 46.8746 2.784Z"/>
<path id="path10_fill" d="M 62.7173 17.04L 60.0053 17.04L 60.0053 0.287999L 67.2293 0.287999C 68.7333 0.287999 69.9173 0.744 70.7813 1.656C 71.6453 2.552 72.0773 3.776 72.0773 5.328C 72.0773 6.528 71.7972 7.528 71.2373 8.328C 70.6933 9.112 69.8853 9.664 68.8133 9.984L 72.4373 17.04L 69.4133 17.04L 66.0533 10.272L 62.7173 10.272L 62.7173 17.04ZM 67.0373 7.992C 67.7253 7.992 68.2613 7.816 68.6453 7.464C 69.0293 7.096 69.2213 6.576 69.2213 5.904L 69.2213 4.752C 69.2213 4.08 69.0293 3.568 68.6453 3.216C 68.2613 2.848 67.7253 2.664 67.0373 2.664L 62.7173 2.664L 62.7173 7.992L 67.0373 7.992Z"/>
<path id="path11_fill" d="M 84.5878 2.688L 84.5878 17.04L 81.8758 17.04L 81.8758 2.688L 76.8838 2.688L 76.8838 0.287999L 89.5798 0.287999L 89.5798 2.688L 84.5878 2.688Z"/>
<path id="path12_fill" d="M 102.855 0.287999L 102.855 12.48C 102.855 13.216 102.735 13.88 102.495 14.472C 102.255 15.064 101.911 15.576 101.463 16.008C 101.031 16.424 100.495 16.752 99.8554 16.992C 99.2314 17.216 98.5354 17.328 97.7674 17.328C 96.3114 17.328 95.1594 16.944 94.3114 16.176C 93.4794 15.392 92.9514 14.376 92.7274 13.128L 95.2234 12.576C 95.3674 13.296 95.6394 13.864 96.0394 14.28C 96.4554 14.696 97.0314 14.904 97.7674 14.904C 98.4874 14.904 99.0634 14.68 99.4954 14.232C 99.9274 13.784 100.143 13.104 100.143 12.192L 100.143 2.544L 94.6714 2.544L 94.6714 0.287999L 102.855 0.287999Z"/>
<path id="path13_fill" d="M 110.253 17.04L 110.253 0.287999L 120.981 0.287999L 120.981 2.688L 112.965 2.688L 112.965 7.344L 120.237 7.344L 120.237 9.744L 112.965 9.744L 112.965 14.64L 120.981 14.64L 120.981 17.04L 110.253 17.04Z"/>
<path id="path14_fill" d="M 140.128 17.04L 136.936 17.04L 132.88 10.368L 132.808 10.368L 128.8 17.04L 125.8 17.04L 131.224 8.472L 125.992 0.287999L 129.184 0.287999L 133 6.528L 133.048 6.528L 136.912 0.287999L 139.912 0.287999L 134.632 8.448L 140.128 17.04Z"/>
<path id="path15_fill" d="M 3.47656 0C 4.48177 0 5.28906 0.286458 5.89844 0.859375C 6.51302 1.42708 6.82031 2.16406 6.82031 3.07031C 6.82031 3.54427 6.69271 3.97917 6.4375 4.375C 6.18229 4.77083 5.82552 5.08854 5.36719 5.32812C 6.00781 5.5625 6.4974 5.9349 6.83594 6.44531C 7.17969 6.95052 7.35156 7.54167 7.35156 8.21875C 7.35156 9.28646 7.02604 10.1328 6.375 10.7578C 5.72917 11.3776 4.8724 11.6875 3.80469 11.6875C 2.86198 11.6875 2.07812 11.4401 1.45312 10.9453L 1.45312 14.5312L 0 14.5312L 0 3.14844C 0 2.58594 0.158854 2.0599 0.476562 1.57031C 0.794271 1.08073 1.22135 0.697917 1.75781 0.421875C 2.29948 0.140625 2.8724 0 3.47656 0ZM 5.375 3.03906C 5.375 2.50781 5.19792 2.06771 4.84375 1.71875C 4.48958 1.36458 4.03385 1.1875 3.47656 1.1875C 2.91406 1.1875 2.4375 1.3724 2.04688 1.74219C 1.65625 2.11198 1.45833 2.57552 1.45312 3.13281L 1.45312 9.60938C 1.68229 9.88021 1.98438 10.099 2.35938 10.2656C 2.73438 10.4271 3.16667 10.5078 3.65625 10.5078C 4.35417 10.5078 4.90365 10.2995 5.30469 9.88281C 5.70573 9.46615 5.90625 8.92188 5.90625 8.25C 5.90625 7.63542 5.72396 7.11458 5.35938 6.6875C 4.99479 6.25521 4.52865 6.03125 3.96094 6.01562L 2.78906 6.01562L 2.78906 4.82812L 3.45312 4.82812C 4.07812 4.82812 4.55469 4.67448 4.88281 4.36719C 5.21094 4.05469 5.375 3.61198 5.375 3.03906Z"/>
</defs>
</svg>
