<svg xmlns="http://www.w3.org/2000/svg" width="300" height="300" viewBox="0 0 300 300" version="1.1">
	<path d="M 0 150.003 L 0 300.006 150.250 299.753 L 300.500 299.500 300.753 149.750 L 301.007 -0 150.503 -0 L 0 0 0 150.003 M 0.487 150.500 C 0.487 233, 0.605 266.602, 0.750 225.172 C 0.894 183.741, 0.894 116.241, 0.750 75.172 C 0.605 34.102, 0.487 68, 0.487 150.500 M 83.275 90.478 C 65.427 95.493, 51.128 109.109, 44.921 127 C 41.629 136.487, 41.600 153.744, 44.858 163.266 C 57.358 199.790, 102.815 212.152, 132.715 187.158 C 135.072 185.188, 137 183.092, 137 182.501 C 137 181.909, 134.837 179.295, 132.194 176.691 L 127.388 171.958 125.002 174.498 C 110.370 190.073, 82.350 189.305, 67.624 172.926 C 48.998 152.210, 55.224 118.653, 79.807 107.261 C 94.875 100.278, 110.239 102.417, 122.494 113.203 L 127.163 117.313 132.208 112.268 L 137.253 107.223 132.984 103.362 C 121.884 93.322, 113.405 89.827, 99 89.355 C 91.850 89.120, 86.833 89.478, 83.275 90.478 M 189.209 90.556 C 176.544 93.965, 173.811 96.004, 149.221 120.383 C 136.418 133.077, 126.068 144.004, 126.221 144.665 C 126.375 145.326, 136.248 155.753, 148.163 167.836 C 164.766 184.674, 171.305 190.627, 176.163 193.327 C 191.992 202.127, 210.098 202.625, 227 194.728 C 235.753 190.638, 247.459 178.986, 251.843 170 C 267.546 137.815, 250.354 99.360, 216.297 90.489 C 209.191 88.638, 196.214 88.670, 189.209 90.556 M 193.500 104.346 C 184.085 106.798, 179.818 109.917, 162.750 126.828 C 153.537 135.955, 146 143.908, 146 144.500 C 146 146.083, 178.898 178.310, 183 180.745 C 200.313 191.024, 224.393 185.370, 236.163 168.263 C 248.163 150.822, 244.455 125.102, 228.076 112.154 C 218.642 104.697, 204.455 101.493, 193.500 104.346 " stroke="none" fill="black" fill-rule="evenodd"/>
</svg>