<svg xmlns="http://www.w3.org/2000/svg" width="300" height="300" viewBox="0 0 300 300" version="1.1">
	<path d="M 0 150.003 L 0 300.006 150.250 299.753 L 300.500 299.500 300.753 149.750 L 301.007 -0 150.503 -0 L 0 0 0 150.003 M 0.487 150.500 C 0.487 233, 0.605 266.602, 0.750 225.172 C 0.894 183.741, 0.894 116.241, 0.750 75.172 C 0.605 34.102, 0.487 68, 0.487 150.500 M 121.408 105.500 C 121.214 106.050, 121.156 124.500, 121.278 146.500 L 121.500 186.500 126.750 186.802 L 132 187.105 132 171.495 C 132 162.855, 132.525 153.803, 133.175 151.221 C 134.735 145.023, 141.993 137.617, 148.125 135.966 C 158.160 133.264, 168.755 137.325, 173.723 145.777 C 176.415 150.355, 176.515 151.052, 177 168.500 L 177.500 186.500 182.827 186.805 L 188.154 187.110 187.827 167.805 C 187.507 148.919, 187.439 148.385, 184.716 143.216 C 174.966 124.710, 153.018 118.755, 136.250 130.066 L 132 132.932 132 118.615 L 132 104.298 126.880 104.399 C 124.064 104.454, 121.602 104.950, 121.408 105.500 " stroke="none" fill="black" fill-rule="evenodd"/>
</svg>