<svg xmlns="http://www.w3.org/2000/svg" width="300" height="300" viewBox="0 0 300 300" version="1.1">
	<path d="M 0 150.003 L 0 300.006 150.250 299.753 L 300.500 299.500 300.753 149.750 L 301.007 -0 150.503 -0 L 0 0 0 150.003 M 0.487 150.500 C 0.487 233, 0.605 266.602, 0.750 225.172 C 0.894 183.741, 0.894 116.241, 0.750 75.172 C 0.605 34.102, 0.487 68, 0.487 150.500 M 66.500 99.409 C 49.838 103.538, 39.003 117.875, 38.999 135.799 C 38.998 140.624, 34.145 150.654, 29.872 154.663 C 25.294 158.956, 18.805 162.155, 13.446 162.759 C 9.329 163.223, 9 163.473, 9 166.142 C 9 168.968, 9.083 169.011, 13.250 168.373 C 21.871 167.052, 28.270 163.890, 34.080 158.080 C 40.567 151.593, 43.568 144.811, 44.604 134.301 C 46.027 119.871, 52.520 110.194, 63.549 106.068 C 68.604 104.176, 71.246 104, 94.538 104 L 120 104 120 101 L 120 98 95.750 98.085 C 80.105 98.140, 69.726 98.610, 66.500 99.409 M 160.929 99.304 C 150.895 102.149, 142.630 109.144, 137.818 118.864 C 135.890 122.759, 135.521 125.099, 135.512 133.500 C 135.503 142.540, 135.771 144.013, 138.312 148.838 C 147.520 166.326, 166.882 173.105, 185 165.185 C 191.632 162.286, 197.199 156.965, 201.070 149.826 C 204.326 143.821, 204.500 142.993, 204.500 133.500 C 204.500 124.007, 204.326 123.179, 201.070 117.174 C 194.985 105.951, 184.694 99.255, 172.290 98.449 C 168.349 98.193, 163.582 98.552, 160.929 99.304 M 218 101 C 218 103.718, 218.306 104, 221.250 104.001 C 226.022 104.002, 236.015 109.114, 239.903 113.543 C 249.858 124.881, 250.119 141.452, 240.520 152.809 C 236.714 157.312, 228.503 161.845, 222.750 162.619 C 218.378 163.207, 218 163.478, 218 166.034 C 218 168.714, 218.146 168.792, 222.250 168.290 C 234.686 166.768, 247.235 156.438, 250.880 144.723 C 251.947 141.295, 253.048 139.174, 253.332 140 C 253.616 140.825, 254.368 143.190, 255.003 145.255 C 256.664 150.654, 263.203 158.898, 268.736 162.569 C 273.726 165.879, 277.974 167.461, 284.250 168.346 C 287.852 168.853, 288 168.758, 288 165.937 C 288 163.483, 287.595 163, 285.538 163 C 281.626 163, 272.834 159.316, 268.795 155.985 C 266.736 154.286, 263.714 150.133, 261.991 146.633 C 253.083 128.538, 263.977 107.021, 283.394 104.360 C 287.650 103.776, 288 103.510, 288 100.864 C 288 97.595, 287.636 97.528, 279.853 99.360 C 268.580 102.014, 259.232 110.208, 255.483 120.721 C 254.546 123.350, 253.541 126.175, 253.250 127 C 252.915 127.948, 252.459 127.352, 252.013 125.383 C 249.203 112.978, 237.687 101.689, 225.201 99.099 C 217.992 97.604, 218 97.602, 218 101 M 160.500 105.328 C 147.477 110.434, 140.641 120.116, 140.585 133.536 C 140.561 139.241, 141.082 141.647, 143.339 146.260 C 150.009 159.893, 166.062 166.319, 180.212 161.020 C 187.739 158.202, 192.421 153.921, 196.059 146.532 C 202.869 132.699, 198.733 116.860, 186.243 108.939 C 183.673 107.309, 179.979 105.533, 178.035 104.993 C 173.343 103.690, 164.235 103.864, 160.500 105.328 M 94 151.066 L 94 169.133 96.750 168.816 C 98.263 168.642, 99.388 168.162, 99.250 167.750 C 99.112 167.338, 99 159.350, 99 150 L 99 133 96.500 133 L 94 133 94 151.066 M 11 195.437 C 11 199.146, 11.435 202, 12 202 C 12.550 202, 13 200.906, 13 199.570 C 13 197.849, 13.628 197.046, 15.148 196.820 C 20.681 195.996, 19.864 189.755, 14.149 189.187 L 11 188.873 11 195.437 M 28 195.437 C 28 199.146, 28.435 202, 29 202 C 29.550 202, 30 200.875, 30 199.500 C 30 198.078, 30.577 197, 31.339 197 C 32.076 197, 33.192 198.125, 33.818 199.500 C 34.445 200.875, 35.428 202, 36.004 202 C 36.647 202, 36.509 200.938, 35.647 199.250 C 34.582 197.163, 34.514 196.078, 35.366 194.750 C 36.998 192.209, 34.997 189.570, 31.149 189.187 L 28 188.873 28 195.437 M 46 195.500 L 46 202 49.500 202 C 51.425 202, 53 201.550, 53 201 C 53 200.450, 51.650 200, 50 200 C 47.667 200, 47 199.556, 47 198 C 47 196.533, 47.667 196, 49.500 196 C 50.875 196, 52 195.550, 52 195 C 52 194.450, 50.875 194, 49.500 194 C 47.944 194, 47 193.433, 47 192.500 C 47 191.500, 48 191, 50 191 C 51.650 191, 53 190.550, 53 190 C 53 189.450, 51.425 189, 49.500 189 L 46 189 46 195.500 M 62 195.500 L 62 202 65.345 202 C 69.436 202, 72 199.429, 72 195.326 C 72 191.527, 69.272 189, 65.171 189 L 62 189 62 195.500 M 81.938 189.500 C 81.576 192.392, 81.893 201.226, 82.375 201.708 C 82.719 202.052, 83 199.333, 83 195.667 C 83 192, 82.775 189, 82.500 189 C 82.225 189, 81.972 189.225, 81.938 189.500 M 94.557 191.223 C 92.467 194.206, 92.590 198.319, 94.829 200.345 C 96.817 202.145, 102 202.618, 102 201 C 102 200.450, 100.680 200, 99.067 200 C 95.770 200, 94.400 197.526, 95.429 193.428 C 95.903 191.537, 96.697 191, 99.019 191 C 100.659 191, 102 190.550, 102 190 C 102 187.992, 96.146 188.953, 94.557 191.223 M 110 190 C 110 190.550, 110.933 191, 112.074 191 C 113.931 191, 114.121 191.522, 113.884 195.977 C 113.739 198.714, 113.930 201.264, 114.310 201.643 C 114.689 202.023, 115 199.783, 115 196.667 C 115 191.667, 115.235 191, 117 191 C 118.100 191, 119 190.550, 119 190 C 119 189.450, 116.975 189, 114.500 189 C 112.025 189, 110 189.450, 110 190 M 128 195.500 C 128 199.657, 128.372 201.888, 129 201.500 C 129.550 201.160, 130 198.460, 130 195.500 C 130 192.540, 129.550 189.840, 129 189.500 C 128.372 189.112, 128 191.343, 128 195.500 M 140.655 190.829 C 138.458 193.256, 138.550 198.283, 140.829 200.345 C 144.868 204, 150 201.289, 150 195.500 C 150 189.637, 144.309 186.792, 140.655 190.829 M 160.157 195.750 C 160.313 202.442, 160.319 202.457, 160.925 197.500 L 161.536 192.500 164.518 197.216 C 166.158 199.809, 167.950 201.799, 168.500 201.636 C 169.824 201.246, 170.408 189, 169.103 189 C 168.556 189, 167.972 191.137, 167.805 193.750 L 167.500 198.500 164.655 193.750 C 163.090 191.137, 161.403 189, 160.905 189 C 160.407 189, 160.071 192.037, 160.157 195.750 M 191 195.500 C 191 199.167, 191.436 202, 192 202 C 192.550 202, 193.024 199.863, 193.054 197.250 L 193.109 192.500 194.804 196.923 C 196.837 202.226, 197.956 202.565, 199.411 198.322 C 201.108 193.370, 202 193.270, 202 198.033 C 202 201.102, 202.314 202.086, 203.057 201.343 C 204.438 199.962, 203.842 189.770, 202.352 189.279 C 201.720 189.071, 200.413 190.969, 199.448 193.497 C 197.530 198.519, 196.850 198.403, 195.043 192.750 C 193.054 186.524, 191 187.921, 191 195.500 M 215.180 193.085 C 212.335 199.729, 211.745 202, 212.865 202 C 213.415 202, 214.151 201.100, 214.500 200 C 214.899 198.743, 216.013 198, 217.500 198 C 218.987 198, 220.101 198.743, 220.500 200 C 220.849 201.100, 221.603 202, 222.174 202 C 222.746 202, 222.990 201.438, 222.717 200.750 C 222.443 200.063, 221.427 197.475, 220.459 195 C 217.883 188.413, 217.275 188.192, 215.180 193.085 M 231 195.500 C 231 199.167, 231.436 202, 232 202 C 232.550 202, 233 200.875, 233 199.500 C 233 198.078, 233.577 197, 234.339 197 C 235.076 197, 236.192 198.125, 236.818 199.500 C 237.445 200.875, 238.417 202, 238.979 202 C 240.370 202, 240.267 201.337, 238.446 198.557 C 237.412 196.980, 237.245 195.967, 237.946 195.534 C 239.571 194.529, 239.193 190.288, 237.418 189.607 C 236.548 189.273, 234.748 189, 233.418 189 C 231.109 189, 231 189.292, 231 195.500 M 249 195.500 C 249 199.657, 249.372 201.888, 250 201.500 C 250.550 201.160, 251 199.688, 251 198.229 L 251 195.576 253.959 199.038 C 257.321 202.970, 258.123 201.698, 254.881 197.576 L 252.762 194.882 255.052 192.445 C 256.311 191.105, 257.020 189.686, 256.626 189.293 C 256.233 188.900, 254.823 189.911, 253.492 191.539 C 251.228 194.310, 251.070 194.359, 251.036 192.309 C 251.016 191.104, 250.550 189.840, 250 189.500 C 249.372 189.112, 249 191.343, 249 195.500 M 266.409 190.377 C 266.118 191.134, 266.020 193.947, 266.190 196.627 C 266.489 201.319, 266.621 201.512, 269.750 201.813 C 271.576 201.989, 273 201.661, 273 201.063 C 273 200.479, 271.875 200, 270.500 200 C 268.667 200, 268 199.467, 268 198 C 268 196.533, 268.667 196, 270.500 196 C 271.875 196, 273 195.550, 273 195 C 273 194.450, 271.875 194, 270.500 194 C 268.944 194, 268 193.433, 268 192.500 C 268 191.567, 268.944 191, 270.500 191 C 271.875 191, 273 190.550, 273 190 C 273 188.469, 267.010 188.811, 266.409 190.377 M 282 190 C 282 190.550, 282.675 191, 283.500 191 C 284.652 191, 285 192.278, 285 196.500 C 285 199.525, 285.450 202, 286 202 C 286.550 202, 287 199.525, 287 196.500 C 287 191.667, 287.242 191, 289 191 C 290.100 191, 291 190.550, 291 190 C 291 189.450, 288.975 189, 286.500 189 C 284.025 189, 282 189.450, 282 190 M 13 193.500 C 13 196.222, 13.085 196.288, 15.418 195.393 C 17.765 194.493, 17.432 191, 15 191 C 13.533 191, 13 191.667, 13 193.500 M 30 193.073 C 30 194.504, 30.539 195.043, 31.739 194.812 C 34.345 194.310, 34.636 191, 32.073 191 C 30.642 191, 30 191.642, 30 193.073 M 64 195.500 C 64 199.964, 64.100 200.121, 66.750 199.816 C 69.239 199.530, 69.500 199.120, 69.500 195.500 C 69.500 191.880, 69.239 191.470, 66.750 191.184 C 64.100 190.879, 64 191.036, 64 195.500 M 141.394 192.416 C 141.095 193.194, 140.997 195.107, 141.175 196.666 C 141.433 198.913, 142.068 199.565, 144.242 199.816 C 147.737 200.218, 149.869 196.491, 148.068 193.126 C 146.764 190.691, 142.241 190.209, 141.394 192.416 M 233 193 C 233 194.333, 233.667 195, 235 195 C 236.333 195, 237 194.333, 237 193 C 237 191.667, 236.333 191, 235 191 C 233.667 191, 233 191.667, 233 193 M 216.675 193.405 C 215.646 196.087, 215.855 197, 217.500 197 C 219.143 197, 219.238 196.465, 218.105 193.573 C 217.404 191.785, 217.301 191.773, 216.675 193.405 " stroke="none" fill="black" fill-rule="evenodd"/>
</svg>