<svg xmlns="http://www.w3.org/2000/svg" width="300" height="300" viewBox="0 0 300 300" version="1.1">
	<path d="M 136 3.583 C 134.625 3.829, 129.225 4.753, 124 5.635 C 73.503 14.163, 29.405 51.528, 12.038 100.500 C -3.589 144.569, 2.469 192.714, 28.522 231.500 C 49.310 262.447, 81.665 284.563, 118.604 293.073 C 131.650 296.078, 157.903 296.806, 172.500 294.566 C 199.719 290.389, 228.009 276.873, 247.981 258.504 C 264.972 242.876, 276.306 226.981, 284.859 206.784 C 292.727 188.205, 296.303 170.266, 296.278 149.500 C 296.248 124.536, 290.885 102.752, 279.464 81.199 C 258.876 42.344, 221.786 14.767, 178.182 5.893 C 168.910 4.006, 141.906 2.527, 136 3.583 M 136.538 41.656 C 80.083 48.863, 38.384 98.515, 41.347 155 C 42.845 183.545, 54.269 208.582, 74.702 228.095 C 96.499 248.913, 120.403 258.444, 150.500 258.315 C 179.884 258.190, 203.915 248.518, 225.094 228.291 C 241.008 213.092, 251.457 194.596, 256.611 172.500 C 259.422 160.448, 259.140 136.655, 256.042 124.500 C 248.076 93.247, 227.084 66.731, 199.071 52.536 C 187.830 46.840, 175.886 43.370, 161 41.478 C 154.675 40.674, 149.050 40.070, 148.500 40.136 C 147.950 40.202, 142.567 40.886, 136.538 41.656 M 82 119.493 L 82 140 105 140 L 128 140 128 186 L 128 232 148.250 232 L 168.500 232.001 168.230 186.018 L 167.961 140.035 192.730 139.768 L 217.500 139.500 217.500 119.500 L 217.500 99.500 149.750 99.243 L 82 98.986 82 119.493 " stroke="none" fill="black" fill-rule="evenodd"/>
</svg>