<svg xmlns="http://www.w3.org/2000/svg" width="2460" height="2460" viewBox="0 0 2460 2460" version="1.1">
	<path d="M 17 148.024 C 19.310 148.899, 115.191 179.920, 258.500 226.158 C 290.950 236.628, 392.650 269.482, 484.500 299.169 C 576.350 328.855, 721.700 375.805, 807.500 403.502 C 1061.353 485.450, 1115.258 502.925, 1115.772 503.438 C 1116.500 504.166, 1144.114 618.219, 1143.670 618.663 C 1143.460 618.873, 1114.311 617.247, 1078.894 615.049 C 1043.477 612.850, 970.175 608.332, 916 605.008 C 861.825 601.684, 781.050 596.717, 736.500 593.971 C 691.950 591.224, 644.475 588.306, 631 587.487 C 602.151 585.732, 324.340 568.528, 243.496 563.490 C 212.694 561.571, 185.919 560.030, 183.996 560.068 C 181.098 560.124, 180.842 560.287, 182.500 561.024 C 183.600 561.512, 220.725 573.596, 265 587.877 C 309.275 602.158, 398.375 630.945, 463 651.848 C 527.625 672.751, 631.575 706.332, 694 726.474 C 964.853 813.866, 1046.543 840.330, 1047.199 840.897 C 1047.583 841.228, 1049.692 849.150, 1051.885 858.500 C 1054.079 867.850, 1058.854 888.100, 1062.496 903.500 C 1066.138 918.900, 1070.859 938.925, 1072.987 948 C 1075.115 957.075, 1079.842 977.100, 1083.492 992.500 C 1098.370 1055.276, 1110.832 1107.955, 1118.501 1140.500 C 1122 1155.350, 1127.849 1180.100, 1131.498 1195.500 C 1135.147 1210.900, 1140.095 1231.825, 1142.493 1242 C 1144.890 1252.175, 1151.802 1281.425, 1157.853 1307 C 1163.903 1332.575, 1174.528 1377.575, 1181.464 1407 C 1188.401 1436.425, 1194.533 1462.212, 1195.091 1464.304 L 1196.106 1468.108 1204.303 1460.373 C 1239.273 1427.373, 1320.341 1352.001, 1320.857 1352.007 C 1321.211 1352.011, 1323.385 1359.999, 1325.690 1369.757 C 1327.994 1379.516, 1332.803 1399.650, 1336.376 1414.500 C 1351.029 1475.396, 1361.431 1518.746, 1366.491 1540 C 1369.436 1552.375, 1381.106 1601.350, 1392.423 1648.834 C 1403.740 1696.317, 1413 1735.572, 1413 1736.067 C 1413 1736.562, 1410.750 1738.106, 1408 1739.500 C 1405.250 1740.894, 1403 1742.291, 1403 1742.606 C 1403 1743.449, 1422.442 1732.943, 1422.835 1731.887 C 1423.020 1731.392, 1423.582 1731.242, 1424.085 1731.553 C 1424.588 1731.864, 1425 1731.641, 1425 1731.059 C 1425 1730.477, 1425.381 1730.113, 1425.847 1730.250 C 1427.437 1730.719, 1442.903 1722.651, 1442.296 1721.670 C 1441.963 1721.131, 1442.125 1720.959, 1442.655 1721.287 C 1444.005 1722.121, 1464.224 1711.575, 1463.275 1710.531 C 1462.849 1710.063, 1463.042 1709.990, 1463.704 1710.370 C 1464.879 1711.045, 1482.172 1702.389, 1482.835 1700.794 C 1483.020 1700.350, 1483.582 1700.242, 1484.085 1700.553 C 1484.588 1700.864, 1485 1700.615, 1485 1700 C 1485 1699.385, 1485.450 1699.160, 1486 1699.500 C 1486.550 1699.840, 1487 1699.641, 1487 1699.059 C 1487 1698.477, 1487.337 1698.053, 1487.750 1698.118 C 1489.847 1698.449, 1491.042 1697.876, 1490.405 1696.845 C 1489.972 1696.146, 1490.129 1695.962, 1490.803 1696.378 C 1492.145 1697.207, 1508 1689.418, 1508 1687.930 C 1508 1687.354, 1508.450 1687.160, 1509 1687.500 C 1509.550 1687.840, 1510 1687.615, 1510 1687 C 1510 1686.385, 1510.450 1686.160, 1511 1686.500 C 1511.550 1686.840, 1512 1686.566, 1512 1685.892 C 1512 1685.218, 1512.279 1684.945, 1512.619 1685.286 C 1513.339 1686.006, 1527.336 1679.185, 1527.835 1677.871 C 1528.020 1677.385, 1528.566 1677.232, 1529.049 1677.530 C 1529.532 1677.829, 1530.806 1677.194, 1531.880 1676.120 C 1532.954 1675.046, 1534.096 1674.429, 1534.417 1674.750 C 1534.738 1675.071, 1535 1674.733, 1535 1674 C 1535 1673.267, 1535.279 1672.946, 1535.620 1673.287 C 1536.340 1674.007, 1548.336 1668.181, 1548.835 1666.869 C 1549.020 1666.384, 1549.582 1666.242, 1550.085 1666.553 C 1550.588 1666.864, 1551 1666.615, 1551 1666 C 1551 1665.385, 1551.450 1665.160, 1552 1665.500 C 1552.550 1665.840, 1553 1665.615, 1553 1665 C 1553 1664.385, 1553.450 1664.160, 1554 1664.500 C 1554.550 1664.840, 1555 1664.641, 1555 1664.059 C 1555 1663.477, 1555.337 1663.095, 1555.750 1663.212 C 1557.022 1663.572, 1574 1654.850, 1574 1653.836 C 1574 1653.311, 1574.450 1653.160, 1575 1653.500 C 1575.550 1653.840, 1576 1653.615, 1576 1653 C 1576 1652.385, 1576.450 1652.160, 1577 1652.500 C 1577.550 1652.840, 1578 1652.615, 1578 1652 C 1578 1651.385, 1578.450 1651.160, 1579 1651.500 C 1579.550 1651.840, 1580 1651.566, 1580 1650.892 C 1580 1650.218, 1580.280 1649.946, 1580.622 1650.288 C 1581.359 1651.026, 1591.174 1646.234, 1592.235 1644.619 C 1592.651 1643.985, 1592.983 1643.933, 1593 1644.500 C 1593.018 1645.084, 1593.336 1645.043, 1593.765 1644.402 C 1594.169 1643.797, 1599.113 1641.142, 1604.750 1638.501 C 1610.388 1635.859, 1615 1633.290, 1615 1632.790 C 1615 1632.291, 1615.450 1632.160, 1616 1632.500 C 1616.550 1632.840, 1617 1632.566, 1617 1631.892 C 1617 1631.218, 1617.273 1630.940, 1617.607 1631.273 C 1617.940 1631.607, 1618.728 1631.464, 1619.357 1630.955 C 1620.423 1630.093, 1640.793 1619.523, 1647.500 1616.351 C 1649.150 1615.571, 1652.300 1613.974, 1654.500 1612.802 C 1656.700 1611.630, 1663.900 1607.907, 1670.500 1604.528 C 1677.100 1601.149, 1691.050 1593.949, 1701.500 1588.528 C 1711.950 1583.107, 1728.825 1574.416, 1739 1569.215 C 1749.175 1564.014, 1767.625 1554.496, 1780 1548.065 C 1792.375 1541.633, 1809.475 1532.850, 1818 1528.546 C 1826.525 1524.242, 1833.950 1520.398, 1834.500 1520.005 C 1835.050 1519.611, 1846.300 1513.767, 1859.500 1507.017 C 1872.700 1500.267, 1896.775 1487.886, 1913 1479.504 C 1988.506 1440.498, 2007.353 1430.803, 2018.750 1425.107 C 2025.487 1421.740, 2031 1418.757, 2031 1418.479 C 2031 1417.884, 2024.927 1405.188, 2003.504 1361 C 1994.838 1343.125, 1984.269 1321.300, 1980.018 1312.500 C 1975.766 1303.700, 1932 1213.250, 1882.758 1111.500 C 1833.517 1009.750, 1775.678 890.050, 1754.228 845.500 C 1732.778 800.950, 1699.930 732.775, 1681.233 694 C 1662.535 655.225, 1631.941 591.775, 1613.245 553 C 1594.549 514.225, 1563.845 450.550, 1545.014 411.500 C 1526.183 372.450, 1499.519 317.100, 1485.760 288.500 C 1472.001 259.900, 1460.689 236.434, 1460.622 236.354 C 1460.555 236.274, 1444.750 235.248, 1425.500 234.074 C 1406.250 232.900, 1354.500 229.715, 1310.500 226.997 C 1266.500 224.279, 1186.175 219.333, 1132 216.006 C 1077.825 212.678, 1000.875 207.945, 961 205.487 C 921.125 203.029, 859.025 199.207, 823 196.993 C 786.975 194.779, 717.225 190.487, 668 187.454 C 618.775 184.421, 538.675 179.492, 490 176.501 C 387.407 170.196, 321.251 166.125, 197.500 158.500 C 148.550 155.484, 90.050 151.895, 67.500 150.524 C 44.950 149.153, 23.800 147.817, 20.500 147.554 C 16.039 147.200, 15.141 147.320, 17 148.024 M 2455.307 1691.500 C 2456.067 1694.821, 2456.817 1696, 2458.168 1696 C 2460.838 1696, 2460.559 1691.287, 2457.750 1688.944 C 2454.464 1686.203, 2454.166 1686.515, 2455.307 1691.500 M 1389 1749.500 C 1387.625 1750.286, 1386.976 1750.945, 1387.559 1750.965 C 1388.141 1750.984, 1389.491 1750.339, 1390.559 1749.532 C 1393.028 1747.664, 1392.239 1747.648, 1389 1749.500 M 1381.750 1753.068 C 1379.688 1754.157, 1378 1755.271, 1378 1755.544 C 1378 1755.817, 1379.800 1755.122, 1382 1754 C 1384.200 1752.878, 1386 1751.743, 1386 1751.480 C 1386 1750.826, 1385.993 1750.828, 1381.750 1753.068 M 1354.750 1767.068 C 1352.688 1768.157, 1351 1769.271, 1351 1769.544 C 1351 1769.817, 1352.800 1769.122, 1355 1768 C 1357.200 1766.878, 1359 1765.743, 1359 1765.480 C 1359 1764.826, 1358.993 1764.828, 1354.750 1767.068 M 1339.750 1775.064 C 1336.588 1776.696, 1334 1778.256, 1334 1778.530 C 1334 1778.805, 1336.700 1777.666, 1340 1776 C 1343.300 1774.334, 1346 1772.753, 1346 1772.486 C 1346 1771.819, 1346.185 1771.742, 1339.750 1775.064 M 1315.750 1787.566 C 1313.138 1788.926, 1311 1790.262, 1311 1790.536 C 1311 1790.810, 1313.250 1789.894, 1316 1788.500 C 1318.750 1787.106, 1321 1785.749, 1321 1785.483 C 1321 1784.822, 1321.090 1784.786, 1315.750 1787.566 M 1281 1805.500 C 1278.525 1806.825, 1276.950 1807.910, 1277.500 1807.910 C 1278.050 1807.910, 1280.525 1806.825, 1283 1805.500 C 1285.475 1804.175, 1287.050 1803.090, 1286.500 1803.090 C 1285.950 1803.090, 1283.475 1804.175, 1281 1805.500 M 1262.507 1814.989 C 1262.157 1815.555, 1262.558 1815.723, 1263.448 1815.382 C 1265.180 1814.717, 1265.497 1814, 1264.059 1814 C 1263.541 1814, 1262.843 1814.445, 1262.507 1814.989 M 1240.750 1826.068 C 1238.688 1827.157, 1237 1828.271, 1237 1828.544 C 1237 1828.817, 1238.800 1828.122, 1241 1827 C 1243.200 1825.878, 1245 1824.743, 1245 1824.480 C 1245 1823.826, 1244.993 1823.828, 1240.750 1826.068 " stroke="none" fill="black" fill-rule="evenodd"/>
</svg>