<?xml version="1.0" standalone="no"?>
<!DOCTYPE svg PUBLIC "-//W3C//DTD SVG 20010904//EN"
 "http://www.w3.org/TR/2001/REC-SVG-20010904/DTD/svg10.dtd">
<svg version="1.0" xmlns="http://www.w3.org/2000/svg"
 width="488.000000pt" height="164.000000pt" viewBox="0 0 488.000000 164.000000"
 preserveAspectRatio="xMidYMid meet">
<metadata>
Created by potrace 1.15, written by Peter Selinger 2001-2017
</metadata>
<g transform="translate(0.000000,164.000000) scale(0.100000,-0.100000)"
fill="#000000" stroke="none">
<path d="M1310 1077 l0 -67 -40 0 c-37 0 -40 2 -41 28 -1 21 -3 19 -10 -13 -4
-22 -8 -142 -8 -267 l-1 -228 60 0 59 0 -6 303 c-3 166 -7 304 -9 306 -2 2 -4
-26 -4 -62z"/>
<path d="M3808 1078 c22 -35 62 -100 91 -146 l52 -83 -100 -155 c-56 -84 -101
-156 -101 -159 0 -3 30 -5 68 -3 l67 3 75 127 c41 70 77 127 80 127 3 0 39
-58 80 -129 l75 -130 67 0 68 0 -67 108 c-36 59 -81 131 -99 159 l-34 53 64
102 c67 110 99 168 92 168 -2 0 -18 -24 -35 -54 -31 -53 -33 -54 -81 -58 -28
-1 -49 -1 -47 2 1 3 15 29 30 58 45 86 23 59 -43 -53 -34 -58 -66 -105 -70
-105 -4 0 -39 52 -76 115 -38 63 -73 115 -77 115 -5 0 0 -12 11 -27 11 -16 28
-46 40 -68 l20 -40 -49 3 c-49 4 -50 4 -87 68 -20 35 -40 64 -44 64 -4 0 9
-28 30 -62z"/>
<path d="M3007 1111 c17 -11 34 -29 37 -40 19 -65 20 -61 -24 -61 -30 0 -46 6
-58 20 -10 12 -35 25 -57 30 -52 12 -205 13 -205 1 0 -5 50 -9 112 -10 141 0
153 -8 153 -106 0 -54 -4 -69 -23 -87 -21 -21 -32 -23 -135 -23 l-112 0 -6
110 c-3 61 -6 100 -7 88 -2 -20 -8 -23 -42 -23 l-40 0 -2 53 -1 52 -7 -65 c-4
-36 -8 -167 -9 -292 l-1 -228 61 0 60 0 -2 103 -2 102 84 3 c103 4 152 -9 167
-43 7 -14 12 -57 12 -95 l0 -70 55 0 55 0 0 94 c0 87 -2 97 -26 125 -16 19
-35 31 -50 31 -33 0 -22 16 15 23 48 10 64 46 65 145 0 63 -5 96 -17 119 -17
32 -52 63 -72 63 -5 0 4 -9 22 -19z"/>
<path d="M568 1036 c-5 -43 -8 -175 -8 -293 l0 -214 203 3 c236 4 254 9 282
83 13 33 16 62 12 107 -6 71 -31 111 -70 116 -31 4 -37 22 -7 22 34 0 60 56
59 125 -1 33 -3 52 -6 43 -8 -31 -79 -24 -107 9 -23 26 -29 28 -135 31 -72 3
-111 1 -111 -6 0 -6 34 -11 88 -11 48 0 97 0 109 -1 36 0 53 -27 53 -80 0 -79
-29 -94 -175 -88 l-80 3 -6 85 c-3 47 -6 75 -7 63 -2 -20 -8 -23 -41 -23 l-40
0 -3 53 c-3 49 -3 48 -10 -27z m350 -244 c18 -12 32 -69 25 -103 -10 -49 -35
-59 -155 -59 l-108 0 0 85 0 85 113 0 c61 0 118 -4 125 -8z"/>
<path d="M3237 1010 c-4 -30 -7 -151 -7 -267 l0 -213 210 0 210 0 0 50 0 50
-140 1 c-77 1 -145 2 -151 3 -8 1 -12 29 -13 81 l-1 80 145 3 145 3 -3 44 -4
45 -144 0 -144 0 -1 83 c-1 45 -4 72 -6 60 -4 -19 -11 -23 -43 -23 -35 0 -39
3 -42 28 -2 18 -6 9 -11 -28z"/>
<path d="M1631 793 l-1 -263 54 0 53 0 7 110 c7 113 -2 347 -15 390 -7 24 -7
24 -8 3 -1 -20 -6 -23 -40 -23 -33 0 -40 4 -44 23 -2 12 -5 -96 -6 -240z"/>
<path d="M2177 1015 c-4 -22 -7 -140 -7 -263 l0 -223 58 3 c31 2 56 6 55 11
-2 4 -4 121 -4 260 -1 138 -4 242 -6 230 -4 -19 -11 -23 -43 -23 -32 0 -39 4
-42 23 -3 15 -6 10 -11 -18z"/>
</g>
</svg>
