<?xml version="1.0" standalone="no"?>
<!DOCTYPE svg PUBLIC "-//W3C//DTD SVG 20010904//EN"
 "http://www.w3.org/TR/2001/REC-SVG-20010904/DTD/svg10.dtd">
<svg version="1.0" xmlns="http://www.w3.org/2000/svg"
 width="300.000000pt" height="72.000000pt" viewBox="0 0 300.000000 72.000000"
 preserveAspectRatio="xMidYMid meet">
<metadata>
Created by potrace 1.15, written by Peter Selinger 2001-2017
</metadata>
<g transform="translate(0.000000,72.000000) scale(0.100000,-0.100000)"
fill="#000000" stroke="none">
<path d="M364 634 l-50 -87 -106 2 -105 2 -51 -89 c-29 -49 -52 -95 -52 -102
0 -7 23 -53 52 -102 l51 -89 105 2 106 2 50 -87 51 -86 111 0 112 0 51 89 51
90 -50 84 c-28 47 -50 90 -50 97 0 7 22 50 50 97 l50 84 -51 90 -51 89 -112 0
-111 0 -51 -86z"/>
<path d="M740 487 c-67 -34 -91 -134 -47 -198 34 -50 58 -58 197 -60 l125 -1
3 106 3 106 83 0 c88 0 96 -4 96 -50 0 -28 -31 -40 -99 -40 -58 0 -61 -1 -61
-25 0 -23 3 -25 51 -25 46 0 55 -4 83 -34 23 -26 41 -35 74 -39 23 -3 42 -4
42 -2 0 2 -19 21 -41 43 l-42 39 21 21 c43 43 41 106 -5 148 -24 23 -33 24
-144 24 l-119 0 0 -108 0 -108 -97 4 c-111 4 -133 17 -133 78 0 59 26 74 130
74 l90 0 0 30 0 30 -92 0 c-54 0 -103 -6 -118 -13z"/>
<path d="M1232 483 c8 -10 40 -48 71 -84 53 -62 57 -70 57 -118 0 -50 1 -51
30 -51 29 0 30 1 30 51 0 46 4 55 47 105 31 36 54 54 70 54 23 0 23 -2 23
-105 l0 -105 30 0 30 0 0 105 0 106 81 -3 c65 -2 84 -7 93 -20 8 -13 8 -23 0
-35 -9 -14 -28 -19 -83 -21 l-71 -3 0 -29 0 -30 70 0 c43 0 82 6 100 15 31 16
56 72 47 106 -4 16 0 19 29 19 l34 0 0 -105 0 -105 30 0 30 0 0 105 0 105 50
0 c49 0 50 1 50 30 l0 30 -130 0 c-94 0 -130 -3 -130 -12 0 -9 -3 -9 -12 0 -8
8 -59 12 -164 12 l-152 0 -47 -55 c-25 -30 -50 -55 -54 -55 -5 0 -28 25 -52
55 -40 50 -47 55 -83 55 -36 0 -38 -1 -24 -17z"/>
<path d="M2130 478 c-90 -60 -88 -173 3 -228 46 -29 83 -26 91 5 4 14 2 33 -3
43 -6 11 -6 24 -1 32 7 12 13 12 34 0 32 -17 32 -29 1 -59 -50 -47 -23 -57 30
-10 45 40 62 93 45 144 -10 31 -16 36 -36 32 -17 -3 -28 3 -40 21 -9 14 -11
21 -4 17 8 -5 11 -3 8 6 -8 25 -89 23 -128 -3z"/>
<path d="M2343 365 l0 -135 28 0 29 0 0 105 0 106 88 -3 87 -3 0 -35 0 -35
-75 -5 c-73 -5 -75 -6 -78 -32 l-3 -28 70 0 c85 0 115 11 135 47 15 27 15 27
17 -42 1 -38 1 -73 0 -78 -1 -6 28 -3 65 8 6 2 34 45 64 95 l53 93 23 -39 24
-39 -39 -3 c-29 -2 -41 -9 -49 -28 l-12 -24 68 0 c64 0 68 -1 84 -30 13 -23
24 -30 48 -30 16 0 30 3 30 8 0 4 -35 64 -77 135 -59 96 -83 127 -98 127 -14
-1 -35 -25 -72 -88 l-53 -87 0 88 0 87 -30 0 c-28 0 -30 -3 -31 -37 0 -32 -2
-34 -9 -17 -18 45 -47 54 -171 54 l-116 0 0 -135z"/>
</g>
</svg>
