<?xml version="1.0" encoding="utf-8"?>
<!-- Generator: Adobe Illustrator 16.0.5, SVG Export Plug-In . SVG Version: 6.00 Build 0)  -->
<!DOCTYPE svg PUBLIC "-//W3C//DTD SVG 1.1//EN" "http://www.w3.org/Graphics/SVG/1.1/DTD/svg11.dtd">
<svg version="1.1" id="图层_1" xmlns="http://www.w3.org/2000/svg" xmlns:xlink="http://www.w3.org/1999/xlink" x="0px" y="0px"
	 width="1152px" height="648px" viewBox="0 0 1152 648" enable-background="new 0 0 1152 648" xml:space="preserve">
<g id="_x23_ffffffff">
</g>
<g>
	<g id="_x23_454d72ff">
		<path fill="#454D72" d="M146.089,197.05c1.944,1.185,3.804,2.526,5.446,4.116c12.669,12.17,22.947,26.897,29.63,43.172
			c4.209,9.967,6.401,20.65,7.95,31.324c1.403,10.029-0.738,20.412-5.747,29.184c-7.223,12.762-18.167,22.728-28.508,32.892
			c-22.407,22.281-38.069,50.738-47.215,80.846c-1.372,4.283-2.068,8.773-3.689,12.98c-16.359-12.73-27.24-32.145-29.87-52.67
			c-1.933-15.143-0.083-30.949,6.351-44.865c4.271-9.614,10.59-18.23,18.01-25.64c5.405-5.332,11.536-9.904,16.587-15.6
			c6.797-7.66,12.451-16.266,17.481-25.172c8.969-16.452,13.282-35.19,13.968-53.835
			C146.787,208.191,145.985,202.631,146.089,197.05z"/>
		<path fill="#454D72" d="M857.949,221.89c1.912-2.1,4.967-1.548,7.513-1.663c9.001,0.135,18.021-0.115,27.032,0.104
			c2.981-0.114,5.072,3.045,4.531,5.831c-2.048,23.394-4.146,46.799-5.996,70.214c1.526,0.467,3.117,0.551,4.375-0.645
			c14.569-10.727,33.443-13.854,51.144-12.326c13.749,1.152,26.887,7.555,36.354,17.563c12.273,12.897,19.777,30.129,21.223,47.85
			c1.424,18.76-1.902,37.943-9.998,54.967c-7.753,15.838-19.777,29.953-35.314,38.547c-13.489,7.535-29.392,9.75-44.615,8.105
			c-12.991-0.996-26.481-5.799-34.713-16.379c-0.706,4.137-0.188,10.842-5.717,11.629c-10.081,0.324-20.173,0.055-30.254,0.137
			c-3.139,0.447-6.359-2.16-5.893-5.445c5.955-69.621,12.106-139.232,18.115-208.865
			C856.265,228.324,855.548,224.437,857.949,221.89 M919.007,319.655c-11.059,2.027-21.057,8.72-27.646,17.761
			c-8.657,11.775-12.348,26.938-10.756,41.406c1.549,12.211,7.888,24.184,18.279,31.096c8.222,5.518,18.812,6.006,28.248,4.012
			c10.829-2.307,19.977-9.779,25.89-18.957c6.6-9.863,9.541-21.846,9.645-33.621c0.031-13.115-5.29-26.531-15.444-35.055
			C939.543,319.75,928.755,317.827,919.007,319.655z"/>
		<path fill="#454D72" d="M305.557,230.256c-0.021-3.149,2.629-6.039,5.842-5.935c10.799-0.094,21.605-0.094,32.404,0.01
			c3.181-0.187,5.508,3.003,4.854,6.028c-1.995,25.337-4.365,50.655-6.589,75.982c-0.239,2.608-0.354,5.228-0.364,7.847
			c5.145,0.842,10.361,0.467,15.538,0.52c24.983,0,49.979,0.01,74.963-0.021c2.182,0.271,4.375-0.924,4.261-3.336
			c2.276-27.011,4.812-54.012,7.068-81.012c-0.083-3.295,2.743-6.256,6.08-6.038c9.717-0.115,19.435,0.031,29.15-0.053
			c2.214,0.042,4.906-0.176,6.435,1.788c2.067,2.39,0.831,5.758,0.79,8.584c-6.08,67.908-11.817,135.855-17.804,203.783
			c-0.218,2.09-0.333,4.531-2.13,5.977c-1.882,1.777-4.656,1.373-7.015,1.477c-9.729-0.146-19.457,0.125-29.173-0.113
			c-3.222,0.01-5.187-3.42-4.521-6.34c2.359-26.035,4.438-52.078,6.776-78.104c0.323-3.928,1.029-7.867,0.478-11.807
			c-30.336-0.197-60.684-0.072-91.021-0.062c-1.787-0.301-3.294,0.854-3.377,2.682c-2.807,29.393-5.092,58.846-7.764,88.256
			c-0.082,3.326-3.294,5.811-6.526,5.447c-10.413,0.01-20.827,0.051-31.23-0.021c-4.75,0.479-6.173-4.865-5.113-8.555
			C293.534,368.242,299.624,299.254,305.557,230.256z"/>
		<path fill="#454D72" d="M1040.427,235.038c1.684-1.185,3.866-0.853,5.829-0.967c9.001,0.093,18.012-0.052,27.012,0.062
			c3.107-0.374,5.861,2.546,5.301,5.633c-0.728,9.01-1.467,18.032-2.297,27.031c-0.03,3.181-2.94,5.853-6.121,5.571
			c-9.718,0.062-19.436,0.042-29.143,0.01c-3.117,0.426-6.09-2.391-5.549-5.55c0.551-8.272,1.518-16.524,2.13-24.797
			C1037.839,239.516,1037.974,236.472,1040.427,235.038z"/>
		<path fill="#454D72" d="M735.979,284.061c18.053-2.381,37.289-1.02,53.669,7.502c16.005,8.18,28.206,23.176,33.454,40.324
			c4.915,15.756,4.47,32.76,1.205,48.795c-3.804,17.93-12.887,34.785-26.396,47.258c-13.719,13.086-32.062,21.045-50.926,22.521
			c-18.271,1.693-37.569-0.947-53.273-10.934c-16.607-10.51-28.153-28.395-31.22-47.777c-2.993-18.529-0.718-37.965,6.351-55.352
			C680.085,308.868,706.275,287.729,735.979,284.061 M741.277,319.542c-16.202,2.484-29.068,15.58-34.639,30.525
			c-4.221,11.275-5.403,23.828-2.88,35.637c2.525,11.213,9.915,21.617,20.63,26.271c8.544,3.598,18.333,3.836,27.251,1.52
			c10.704-2.982,19.288-11.027,24.953-20.352c6.693-10.65,9.385-23.539,8.584-36.012c-0.8-11.836-5.871-23.746-15.163-31.354
			C762.095,319.24,751.121,318.002,741.277,319.542z"/>
		<path fill="#454D72" d="M514.548,288.186c10.257-0.302,20.556-0.094,30.835-0.094c3.035-0.229,5.644,2.702,5.104,5.706
			c-1.872,21.783-3.752,43.567-5.613,65.36c-1.029,13.697-3.564,27.895,0.707,41.312c2.027,6.9,7.192,13.115,14.28,15.102
			c10.633,3.096,23.571,1.164,31.168-7.432c7.896-8.812,10.299-20.951,11.702-32.332c2.523-27.344,4.593-54.719,7.182-82.052
			c0.021-3.148,2.837-5.893,6.007-5.674c9.749-0.052,19.497-0.042,29.245-0.011c3.108-0.353,6.091,2.483,5.478,5.665
			c-2.35,29.505-5.165,58.99-7.681,88.484c-1.715,19.029-8.169,38.816-22.874,51.797c-14.384,12.773-34.255,16.941-53.003,16.922
			c-16.442-0.012-34.058-2.682-47.174-13.389c-11.546-9.289-16.93-24.234-17.865-38.66c-0.894-12.182,0.729-24.318,1.662-36.438
			c1.975-22.842,4.105-45.666,6.008-68.499C509.777,291.221,511.72,288.507,514.548,288.186z"/>
		<path fill="#454D72" d="M1037.309,288.3c10.218-0.582,20.506-0.094,30.752-0.25c3.191-0.426,6.402,2.328,5.82,5.675
			c-4.136,48.826-8.501,97.64-12.7,146.478c-0.052,3.396-3.306,5.996-6.62,5.609c-9.737-0.01-19.477,0.084-29.203-0.041
			c-3.42,0.207-5.717-3.336-4.938-6.475c4.303-48.523,8.398-97.068,12.71-145.593C1033.193,291.242,1034.907,288.923,1037.309,288.3
			z"/>
	</g>
	<g id="_x23_23aae2ff">
		<path fill="#23AAE2" d="M211.243,321.485c3.045-5.986,5.092-12.399,7.815-18.521c1.299,1.559,2.536,3.182,3.44,5.02
			c8.251,16.162,12.752,34.171,13.667,52.277c1.102,15.184-1.622,30.67-8.387,44.348c-9.416,19.352-27.24,33.932-47.454,40.844
			c-16.951,6.203-35.71,4.551-52.702-0.572c0.146-1.34,0.301-2.66,0.467-3.979c3.368-0.572,7.098-1.436,9.104-4.49
			c3.606-5.582,2.515-12.576,4.261-18.738c2.764-10.164,8.262-19.414,14.778-27.613c7.286-9.262,16.12-17.117,24.08-25.775
			C192.411,351.447,203.572,337.459,211.243,321.485z"/>
	</g>
</g>
</svg>
