<?xml version="1.0" encoding="UTF-8"?>
<!DOCTYPE svg PUBLIC "-//W3C//DTD SVG 1.1//EN" "http://www.w3.org/Graphics/SVG/1.1/DTD/svg11.dtd">
<!-- Creator: CorelDRAW -->
<svg xmlns="http://www.w3.org/2000/svg" xml:space="preserve" width="117.117mm" height="34.3458mm" style="shape-rendering:geometricPrecision; text-rendering:geometricPrecision; image-rendering:optimizeQuality; fill-rule:evenodd; clip-rule:evenodd"
viewBox="0 0 60.5369 17.7531"
 xmlns:xlink="http://www.w3.org/1999/xlink">
 <defs>
  <style type="text/css">
   <![CDATA[
    .str0 {stroke:#72706F;stroke-width:0.0516893}
    .fil0 {fill:#0093DD}
    .fil1 {fill:#68B92E}
    .fil2 {fill:#72706F;fill-rule:nonzero}
   ]]>
  </style>
 </defs>
 <g id="图层_x0020_1">
  <metadata id="CorelCorpID_0Corel-Layer"/>
  <g id="_155962480">
   <path id="_157067296" class="fil0" d="M5.11502 8.86368l5.2491 5.24993 3.31297 -3.31292c0.585071,-0.585278 1.53424,-0.585123 2.11931,0 0.585123,0.585123 0.585226,1.53409 0,2.11916l-4.37261 4.37261c-0.582487,0.582383 -1.54215,0.577111 -2.11916,0l-6.30749 -6.30827 -0.000103379 3.75027c0,0.823307 -0.675217,1.49868 -1.49873,1.49868 -0.827442,0 -1.49832,-0.671082 -1.49832,-1.49852l0 -11.7416c0,-0.827391 0.670875,-1.49852 1.49832,-1.49852 0.827597,0 1.49873,0.671341 1.49873,1.49852l0 3.75027 6.30759 -6.30842c0.577008,-0.577059 1.53667,-0.582383 2.11916,0l4.37261 4.37261c0.585226,0.585071 0.585123,1.53409 0,2.11916 -0.585071,0.585071 -1.53424,0.585278 -2.11931,0l-3.31297 -3.31287 -5.2491 5.24998zm5.25137 -1.50008c0.828218,0 1.49997,0.671754 1.49997,1.49992 0,0.828373 -0.671754,1.50013 -1.49997,1.50013 -0.828321,0 -1.50008,-0.671754 -1.50008,-1.50013 0,-0.828166 0.671754,-1.49992 1.50008,-1.49992z"/>
   <g>
    <path id="_155810984" class="fil1" d="M22.3731 0c-0.417184,0 -0.763451,0.346422 -0.763451,0.763451l0.000258447 9.20721c0,0.418528 0.344768,0.763658 0.763451,0.763658 0.418632,0 0.763399,-0.344974 0.763399,-0.763658l-0.000258447 -9.20726c0,-0.418115 -0.345285,-0.763399 -0.763399,-0.763399zm5.93264 0.222367c-0.294887,-0.294836 -0.784644,-0.295094 -1.07958,-0.000155068l-3.41527 3.41558c-0.253484,0.253536 -0.219628,0.647615 -0.106945,0.842277l3.39893 5.87263c0.205465,0.35495 0.685142,0.490376 1.04335,0.279587 0.358517,-0.210996 0.489188,-0.681317 0.280725,-1.04149l-3.08342 -5.32669 2.96221 -2.96226c0.296076,-0.296128 0.296128,-0.783351 0,-1.07948z"/>
    <path id="_155810504" class="fil1" d="M30.3898 3.10198c-0.417081,0 -0.763451,0.346473 -0.763451,0.763244l-0.000206757 4.02748c-5.16893e-005,1.56841 1.27326,2.84193 2.84183,2.84183l2.39373 -0.000206757c0.415789,-5.16893e-005 0.763193,-0.347094 0.763193,-0.763296l5.16893e-005 -6.1058c0,-0.419872 -0.343682,-0.763244 -0.763399,-0.763244 -0.417081,0 -0.763399,0.346267 -0.763399,0.763244l0 5.3423 -1.63013 0.000206757c-0.726286,0.000103379 -1.31518,-0.588793 -1.31513,-1.31508l0.000258447 -4.02742c5.16893e-005,-0.41796 -0.345336,-0.763244 -0.763348,-0.763244z"/>
    <path id="_154065184" class="fil1" d="M43.6076 0.763503c0,-0.417133 -0.346318,-0.763503 -0.763399,-0.763503l-2.89657 0c-1.56918,0 -2.84183,1.2728 -2.84183,2.84183l0 5.05072c0,1.56903 1.27264,2.84177 2.84183,2.84177l2.89667 0c0.41796,0 0.763296,-0.34544 0.763296,-0.763348 0,-0.417133 -0.346422,-0.763451 -0.763399,-0.763451l-2.89657 5.16893e-005c-0.726028,0 -1.31508,-0.588896 -1.31508,-1.31508l0 -5.05061c0,-0.726183 0.588948,-1.31508 1.31508,-1.31508l2.89667 0.000103379c0.41796,0 0.763296,-0.34544 0.763296,-0.763399z"/>
    <path id="_154067296" class="fil1" d="M52.5228 0c-0.418735,0 -0.763451,0.344716 -0.763451,0.763503 0,0.418683 0.344716,0.763399 0.763451,0.763399 0.418632,0 0.763348,-0.344768 0.763348,-0.763399 0,-0.418683 -0.344664,-0.763503 -0.763348,-0.763503zm0 3.10224c-0.418838,0 -0.763451,0.344613 -0.763451,0.763296l0 6.10544c0,0.418683 0.344768,0.763399 0.763451,0.763399 0.41858,0 0.763348,-0.344819 0.763348,-0.763399l0 -6.10544c0,-0.418011 -0.345285,-0.763296 -0.763348,-0.763296z"/>
    <path id="_157070392" class="fil1" d="M59.7472 10.7341c0.417133,0 0.763503,-0.34637 0.763503,-0.763296l0.000206757 -4.02722c5.16893e-005,-1.56898 -1.27264,-2.84193 -2.84183,-2.84183l-2.39373 0.000206757c-0.415789,5.16893e-005 -0.763244,0.347094 -0.763244,0.763296l0 6.10554c0,0.419872 0.343682,0.763296 0.763399,0.763296 0.417081,0 0.763399,-0.346215 0.763399,-0.763296l0 -5.34199 1.63013 -0.000258447c0.726183,-0.000155068 1.31518,0.588896 1.31513,1.31508l-0.000258447 4.02717c-5.16893e-005,0.41796 0.345336,0.763296 0.763296,0.763296z"/>
    <path id="_157071040" class="fil1" d="M44.7059 5.94339c0,-1.5637 1.26448,-2.84157 2.82565,-2.84162l0.19001 0.000155068c1.55549,0.00129223 2.81195,1.28246 2.81195,2.84146l0 1.94936c0,1.55905 -1.25652,2.84012 -2.81195,2.84141l-0.19001 0.000206757c-1.56164,0.00129223 -2.82565,-1.27797 -2.82565,-2.84162l0 -1.94936zm4.30086 5.16893e-005c0,-0.725253 -0.587552,-1.31508 -1.31224,-1.31508l-0.149847 0c-0.724632,0 -1.31203,0.589982 -1.31203,1.31508l0 1.94926c0,0.724994 0.587294,1.31503 1.31203,1.31503l0.149847 0c0.724839,0 1.31224,-0.589775 1.31224,-1.31503l0 -1.94926z"/>
   </g>
   <path id="_155810960" class="fil2 str0" d="M21.6097 13.1523l1.95386 0 0 0.190682 -0.881664 0 0 3.14524 -0.19063 0 0 -3.14524 -0.881561 0 0 -0.190682zm3.57411 1.66796c0,-0.174762 -0.0468822,-0.309722 -0.140543,-0.405089 -0.0937644,-0.0952634 -0.221644,-0.142921 -0.38369,-0.142921 -0.152483,0 -0.277985,0.0476575 -0.376453,0.142921 -0.0984681,0.0953668 -0.147728,0.230328 -0.147728,0.405089l0 1.66796 -0.19063 0 0 -3.33592 0.19063 0 0 1.20095c0.0635262,-0.0699356 0.14137,-0.132635 0.233532,-0.188252 0.0920587,-0.055566 0.189028,-0.0833748 0.290649,-0.0833748 0.101673,0 0.196161,0.017471 0.283568,0.052413 0.0873549,0.034942 0.162821,0.0849772 0.226347,0.150106 0.0635778,0.0651285 0.113561,0.142973 0.150106,0.233481 0.036596,0.0905597 0.0548424,0.191457 0.0548424,0.302641l0 1.66796 -0.19063 0 0 -1.66796zm1.14373 0.476524l0.333551 0c0.152535,0 0.278037,-0.0476058 0.376557,-0.142921 0.0984164,-0.0953151 0.147676,-0.214459 0.147676,-0.357432 0,-0.171557 -0.0492599,-0.301814 -0.147676,-0.390771 -0.0985198,-0.0889573 -0.224021,-0.13341 -0.376557,-0.13341 -0.161994,0 -0.289874,0.0444528 -0.383586,0.13341 -0.0937644,0.0889573 -0.140595,0.219214 -0.140595,0.390771l0 0.976928c0,0.174762 0.0468305,0.309774 0.140595,0.405089 0.0937127,0.0952634 0.221592,0.142973 0.383586,0.142973 0.177966,0 0.32249,-0.0698839 0.433673,-0.209652l0.152535 0.100019c-0.0635262,0.092162 -0.147728,0.165251 -0.252554,0.219214 -0.104878,0.0540153 -0.216061,0.0809971 -0.333654,0.0809971 -0.101621,0 -0.196161,-0.0174193 -0.283516,-0.0523613 -0.0873549,-0.034942 -0.162821,-0.0842019 -0.226399,-0.147728 -0.0634745,-0.0635778 -0.113561,-0.141422 -0.150106,-0.233584 -0.0364926,-0.0920587 -0.054739,-0.193783 -0.054739,-0.304967l0 -0.953099c0,-0.108031 0.0182463,-0.207274 0.054739,-0.297834 0.0365443,-0.0905597 0.0866313,-0.168352 0.150106,-0.233532 0.0635778,-0.0651285 0.139044,-0.115939 0.226399,-0.152483 0.0873549,-0.0365443 0.181895,-0.0547907 0.283516,-0.0547907 0.0985198,0 0.19063,0.0182463 0.276434,0.0547907 0.0858042,0.0365443 0.161219,0.0873549 0.226347,0.152483 0.0651802,0.0651802 0.116766,0.142973 0.154861,0.233532 0.0381467,0.0905597 0.0572201,0.189803 0.0572201,0.297834 0,0.0921103 -0.0190734,0.17869 -0.0572201,0.259739 -0.038095,0.0809971 -0.0896809,0.151708 -0.154861,0.212081 -0.0651285,0.0603214 -0.140543,0.107979 -0.226347,0.142921 -0.0858042,0.034942 -0.177915,0.0524646 -0.276434,0.0524646l-0.333551 0 0 -0.190682zm3.67909 -1.9538l0 3.14524 -0.190682 0 0 -3.33592 1.07224 0c0.108031,0 0.209704,0.0206757 0.305019,0.0619755 0.0953151,0.0412998 0.178742,0.0976928 0.250176,0.169179 0.0714863,0.0714863 0.127931,0.154913 0.169179,0.250176 0.0412998,0.0953668 0.0619755,0.204948 0.0619755,0.328847 0,0.0921103 -0.0206757,0.185875 -0.0619755,0.281138 -0.0412481,0.0953151 -0.0976928,0.178742 -0.169179,0.250228 -0.0714346,0.0714346 -0.154861,0.127879 -0.250176,0.169179 -0.0953151,0.0412998 -0.196988,0.0619238 -0.305019,0.0619238l-0.690983 0 0 -0.19063 0.690983 0c0.0826512,0 0.159668,-0.0158686 0.231155,-0.0476575 0.0714863,-0.0317372 0.134237,-0.0746394 0.188201,-0.128603 0.054067,-0.054067 0.0969174,-0.116766 0.128706,-0.188304 0.0317372,-0.0714863 0.0476575,-0.140543 0.0476575,-0.207274 0,-0.0985198 -0.0159203,-0.183497 -0.0476575,-0.254983 -0.0317889,-0.0714863 -0.0746394,-0.134185 -0.128706,-0.188201 -0.0539636,-0.054067 -0.116714,-0.0969691 -0.188201,-0.128706 -0.0714863,-0.0317372 -0.148503,-0.0476058 -0.231155,-0.0476058l-0.881561 0zm2.50187 1.9538l0.333603 0c0.152483,0 0.277985,-0.0476058 0.376505,-0.142921 0.0984681,-0.0953151 0.147728,-0.214459 0.147728,-0.357432 0,-0.171557 -0.0492599,-0.301814 -0.147728,-0.390771 -0.0985198,-0.0889573 -0.224021,-0.13341 -0.376505,-0.13341 -0.162046,0 -0.289874,0.0444528 -0.383638,0.13341 -0.0937644,0.0889573 -0.140543,0.219214 -0.140543,0.390771l0 0.976928c0,0.174762 0.0467788,0.309774 0.140543,0.405089 0.0937644,0.0952634 0.221592,0.142973 0.383638,0.142973 0.177915,0 0.322438,-0.0698839 0.433673,-0.209652l0.152483 0.100019c-0.0635262,0.092162 -0.147728,0.165251 -0.252554,0.219214 -0.104878,0.0540153 -0.216061,0.0809971 -0.333603,0.0809971 -0.101673,0 -0.196213,-0.0174193 -0.283568,-0.0523613 -0.0873549,-0.034942 -0.16277,-0.0842019 -0.226347,-0.147728 -0.0635262,-0.0635778 -0.113613,-0.141422 -0.150106,-0.233584 -0.0365443,-0.0920587 -0.0547907,-0.193783 -0.0547907,-0.304967l0 -0.953099c0,-0.108031 0.0182463,-0.207274 0.0547907,-0.297834 0.0364926,-0.0905597 0.0865796,-0.168352 0.150106,-0.233532 0.0635778,-0.0651285 0.138993,-0.115939 0.226347,-0.152483 0.0873549,-0.0365443 0.181895,-0.0547907 0.283568,-0.0547907 0.0985198,0 0.190578,0.0182463 0.276383,0.0547907 0.0858042,0.0365443 0.161271,0.0873549 0.226347,0.152483 0.0651802,0.0651802 0.116766,0.142973 0.154913,0.233532 0.038095,0.0905597 0.0571684,0.189803 0.0571684,0.297834 0,0.0921103 -0.0190734,0.17869 -0.0571684,0.259739 -0.0381467,0.0809971 -0.0897326,0.151708 -0.154913,0.212081 -0.0650768,0.0603214 -0.140543,0.107979 -0.226347,0.142921 -0.0858042,0.034942 -0.177863,0.0524646 -0.276383,0.0524646l-0.333603 0 0 -0.190682zm2.27319 1.21522c-0.101621,0 -0.196161,-0.0182463 -0.283568,-0.054739 -0.0873032,-0.0365443 -0.16277,-0.0874066 -0.226347,-0.152483 -0.0635262,-0.0651802 -0.113561,-0.143024 -0.150106,-0.233532 -0.0365443,-0.0905597 -0.0547907,-0.189803 -0.0547907,-0.297885l0 -0.953099c0,-0.111184 0.0182463,-0.212081 0.0547907,-0.302641 0.0365443,-0.090508 0.0865796,-0.168352 0.150106,-0.233481 0.0635778,-0.0651285 0.139044,-0.115164 0.226347,-0.150106 0.0874066,-0.034942 0.181946,-0.052413 0.283568,-0.052413 0.0985198,0 0.19063,0.017471 0.276383,0.052413 0.0858042,0.034942 0.161271,0.0849772 0.226399,0.150106 0.0651285,0.0651285 0.116714,0.142973 0.154861,0.233481 0.038095,0.0905597 0.0572201,0.191457 0.0572201,0.302641l0 0.953099c0,0.108082 -0.019125,0.207326 -0.0572201,0.297885 -0.0381467,0.090508 -0.0897326,0.168352 -0.154861,0.233532 -0.0651285,0.0650768 -0.140595,0.115939 -0.226399,0.152483 -0.0857526,0.0364926 -0.177863,0.054739 -0.276383,0.054739zm-0.524181 -0.73864c0,0.171608 0.0468305,0.305794 0.140543,0.402711 0.0937644,0.0969174 0.221592,0.14535 0.383638,0.14535 0.152483,0 0.277985,-0.0484329 0.376505,-0.14535 0.0984681,-0.0969174 0.147728,-0.231103 0.147728,-0.402711l0 -0.953099c0,-0.174762 -0.0492599,-0.309722 -0.147728,-0.405089 -0.0985198,-0.0952634 -0.224021,-0.142921 -0.376505,-0.142921 -0.162046,0 -0.289874,0.0476575 -0.383638,0.142921 -0.0937127,0.0953668 -0.140543,0.230328 -0.140543,0.405089l0 0.953099zm2.21597 0.424111c0.0444528,0.0318406 0.0952634,0.0564447 0.152483,0.0739157 0.0572201,0.017471 0.117541,0.0262065 0.181068,0.0262065 0.152483,0 0.277985,-0.0476575 0.376505,-0.142973 0.0984681,-0.0953151 0.147728,-0.230379 0.147728,-0.405089l0 -0.92927c0,-0.171557 -0.0468822,-0.305742 -0.140543,-0.40266 -0.0937644,-0.0969691 -0.221644,-0.14535 -0.38369,-0.14535 -0.152483,0 -0.277985,0.0483812 -0.376453,0.14535 -0.0984681,0.0969174 -0.147728,0.231103 -0.147728,0.40266l0 2.90701 -0.19063 0 0 -3.62182 0.19063 0 0 0.252606c0.0635262,-0.0699356 0.14137,-0.133462 0.233532,-0.190682 0.0921103,-0.0571684 0.189028,-0.0857526 0.290649,-0.0857526 0.101725,0 0.196213,0.0182463 0.283568,0.0547907 0.0873549,0.0365443 0.162821,0.0873549 0.226347,0.152483 0.0635778,0.0651802 0.113561,0.142973 0.150106,0.233532 0.036596,0.0905597 0.0548424,0.189803 0.0548424,0.297834l0 0.92927c0,0.111235 -0.0190734,0.212857 -0.0571684,0.305019 -0.0381467,0.092162 -0.0897843,0.169954 -0.154861,0.233481 -0.0651802,0.0635262 -0.140647,0.112786 -0.226399,0.147728 -0.0857526,0.034942 -0.177915,0.0524646 -0.276434,0.0524646 -0.120746,0 -0.23193,-0.0269818 -0.333551,-0.0810488l0 -0.209704zm1.64413 -3.04517l0.19063 0 0 2.64494c0,0.0889056 0.000827029,0.163597 0.00237771,0.22397 0.00160237,0.0603214 0.00796015,0.112734 0.0190734,0.157239 0.0111132,0.0445045 0.0293595,0.0794465 0.0547907,0.104826 0.0254311,0.0254311 0.0635262,0.0381467 0.114388,0.0381467l0 0.190578c-0.0889573,0 -0.158841,-0.0182463 -0.209704,-0.054739 -0.0508106,-0.0365443 -0.0889056,-0.0858042 -0.114388,-0.147728 -0.0253794,-0.0619755 -0.0412998,-0.135064 -0.0476575,-0.219266 -0.0063061,-0.0842019 -0.00951083,-0.181843 -0.00951083,-0.293027l0 -2.64494zm1.26292 2.14449l0.333551 0c0.152483,0 0.277985,-0.0476058 0.376505,-0.142921 0.0984681,-0.0953151 0.147728,-0.214459 0.147728,-0.357432 0,-0.171557 -0.0492599,-0.301814 -0.147728,-0.390771 -0.0985198,-0.0889573 -0.224021,-0.13341 -0.376505,-0.13341 -0.162046,0 -0.289874,0.0444528 -0.383638,0.13341 -0.0937127,0.0889573 -0.140543,0.219214 -0.140543,0.390771l0 0.976928c0,0.174762 0.0468305,0.309774 0.140543,0.405089 0.0937644,0.0952634 0.221592,0.142973 0.383638,0.142973 0.177915,0 0.32249,-0.0698839 0.433673,-0.209652l0.152483 0.100019c-0.0635262,0.092162 -0.147728,0.165251 -0.252554,0.219214 -0.104878,0.0540153 -0.216061,0.0809971 -0.333603,0.0809971 -0.101673,0 -0.196213,-0.0174193 -0.283568,-0.0523613 -0.0873549,-0.034942 -0.16277,-0.0842019 -0.226347,-0.147728 -0.0635262,-0.0635778 -0.113561,-0.141422 -0.150106,-0.233584 -0.0365443,-0.0920587 -0.0547907,-0.193783 -0.0547907,-0.304967l0 -0.953099c0,-0.108031 0.0182463,-0.207274 0.0547907,-0.297834 0.0365443,-0.0905597 0.0865796,-0.168352 0.150106,-0.233532 0.0635778,-0.0651285 0.138993,-0.115939 0.226347,-0.152483 0.0873549,-0.0365443 0.181895,-0.0547907 0.283568,-0.0547907 0.0985198,0 0.19063,0.0182463 0.276383,0.0547907 0.0858042,0.0365443 0.161271,0.0873549 0.226347,0.152483 0.0651802,0.0651802 0.116766,0.142973 0.154913,0.233532 0.038095,0.0905597 0.0572201,0.189803 0.0572201,0.297834 0,0.0921103 -0.019125,0.17869 -0.0572201,0.259739 -0.0381467,0.0809971 -0.0897326,0.151708 -0.154913,0.212081 -0.0650768,0.0603214 -0.140543,0.107979 -0.226347,0.142921 -0.0857526,0.034942 -0.177863,0.0524646 -0.276383,0.0524646l-0.333551 0 0 -0.190682zm1.6155 -2.17783c-0.0190217,-0.0254311 -0.0301349,-0.0539636 -0.0333396,-0.0858042 -0.00315305,-0.0317372 0.00160237,-0.0611484 0.0143179,-0.0881303 0.0126639,-0.0270335 0.0317889,-0.0500352 0.0571684,-0.0691086 0.0253794,-0.0190734 0.0556177,-0.0285842 0.0905597,-0.0285842 0.0445045,0 0.0834265,0.0166956 0.116766,0.0500352 0.0333396,0.0333396 0.0499836,0.0722616 0.0499836,0.116766 0.00320474,0.107979 -0.0150416,0.19063 -0.0547907,0.247799 -0.0396974,0.0571684 -0.0992952,0.115991 -0.17869,0.176312l-0.0953151 0c0.0667309,-0.073037 0.0976928,-0.132635 0.0929374,-0.17869 -0.00475542,-0.0460552 -0.0246558,-0.0929374 -0.0595978,-0.140595zm1.35348 1.992c0.0952634,0.0127156 0.185048,0.038095 0.26925,0.0762417 0.0842019,0.038095 0.157239,0.0858042 0.219163,0.142973 0.0619755,0.0571684 0.110408,0.123072 0.14535,0.197815 0.0349937,0.0746394 0.052413,0.156464 0.052413,0.245369 0,0.108082 -0.0190217,0.207326 -0.0571167,0.297885 -0.0381467,0.090508 -0.0897843,0.168352 -0.154913,0.233532 -0.0651285,0.0650768 -0.140595,0.115939 -0.226399,0.152483 -0.0857526,0.0364926 -0.177863,0.054739 -0.276383,0.054739 -0.101673,0 -0.196213,-0.0190217 -0.283516,-0.0571167 -0.0874066,-0.0381467 -0.162821,-0.0897843 -0.226399,-0.154913 -0.0635262,-0.0651285 -0.113613,-0.140595 -0.150106,-0.226347 -0.0365443,-0.0858042 -0.0547907,-0.177915 -0.0547907,-0.276383l0.19063 0c0,0.152483 0.0468822,0.277985 0.140543,0.376453 0.0937644,0.0985198 0.221644,0.147728 0.383638,0.147728 0.152535,0 0.277985,-0.0484329 0.376505,-0.14535 0.0984681,-0.0969174 0.147728,-0.231103 0.147728,-0.402711 0,-0.136563 -0.0492599,-0.243818 -0.147728,-0.321611 -0.0985198,-0.0778441 -0.22397,-0.129482 -0.376505,-0.154965 -0.0857526,-0.0126639 -0.165974,-0.0357173 -0.240614,-0.0690569 -0.074691,-0.0333913 -0.13982,-0.074691 -0.195386,-0.123951 -0.0556177,-0.0492082 -0.100122,-0.105601 -0.133462,-0.169127 -0.0333396,-0.0635778 -0.0500869,-0.133462 -0.0500869,-0.209704 0,-0.0952634 0.0159203,-0.18267 0.0477092,-0.262065 0.0317372,-0.0794465 0.0762417,-0.146953 0.13341,-0.20257 0.0571684,-0.0556177 0.123124,-0.0992435 0.197815,-0.131084 0.0746394,-0.0317372 0.154861,-0.0476058 0.240614,-0.0476058 0.133462,0 0.254156,0.0325643 0.362187,0.0976928 0.107979,0.0650768 0.192181,0.150106 0.252606,0.254983l-0.152483 0.100019c-0.0413514,-0.0793948 -0.101725,-0.142921 -0.181171,-0.190578 -0.0793948,-0.0477092 -0.173107,-0.0714863 -0.281138,-0.0714863 -0.120695,0 -0.222367,0.0412998 -0.305019,0.123899 -0.0825995,0.0825478 -0.123899,0.192233 -0.123899,0.328796 0,0.0508623 0.0127156,0.0977445 0.0381467,0.140595 0.0254311,0.0428504 0.0595978,0.0809971 0.102448,0.114388 0.0429021,0.0333396 0.0921103,0.0611484 0.147728,0.0833748 0.0556177,0.0222264 0.112011,0.0381467 0.169231,0.0476575zm3.09283 -1.95866l1.6203 0 0 0.190682 -1.42962 0 0 1.19134 0.953047 0 0 0.19063 -0.953047 0 0 1.57265 1.42962 0 0 0.19063 -1.6203 0 0 -3.33592zm2.59723 2.38277l-0.428866 0.953151 -0.214459 0 0.533744 -1.19144 -0.533744 -1.19134 0.214459 0 0.428866 0.953099 0.428918 -0.953099 0.214459 0 -0.538551 1.19134 0.538551 1.19144 -0.214459 0 -0.428918 -0.953151zm1.2391 0.238288c0,0.171608 0.0468305,0.305794 0.140543,0.402711 0.0937644,0.0969174 0.221592,0.14535 0.383638,0.14535 0.0825995,0 0.163597,-0.016644 0.243043,-0.0500352 0.0794465,-0.0333913 0.14137,-0.0865796 0.185823,-0.159617l0.152483 0.100019c-0.0634745,0.089009 -0.146901,0.161271 -0.250125,0.216888 -0.103275,0.055566 -0.213684,0.0833232 -0.331225,0.0833232 -0.101673,0 -0.196213,-0.0182463 -0.283568,-0.054739 -0.0873549,-0.0365443 -0.16277,-0.0874066 -0.226347,-0.152483 -0.0635262,-0.0651802 -0.113613,-0.143024 -0.150106,-0.233532 -0.0365443,-0.0905597 -0.0547907,-0.189803 -0.0547907,-0.297885l0 -0.953099c0,-0.111184 0.0182463,-0.212081 0.0547907,-0.302641 0.0364926,-0.090508 0.0865796,-0.168352 0.150106,-0.233481 0.0635778,-0.0651285 0.138993,-0.115164 0.226347,-0.150106 0.0873549,-0.034942 0.181895,-0.052413 0.283568,-0.052413 0.114337,0 0.22397,0.0262065 0.328847,0.0786194 0.104826,0.052413 0.190578,0.12943 0.257309,0.231155l-0.152483 0.090508c-0.0190734,-0.034942 -0.0445045,-0.0659039 -0.0762417,-0.0928857 -0.0317889,-0.0270335 -0.0675062,-0.0492599 -0.107255,-0.0667826 -0.0396974,-0.0174193 -0.0817725,-0.0301349 -0.126277,-0.038095 -0.0445045,-0.00790846 -0.0858042,-0.0118885 -0.123899,-0.0118885 -0.162046,0 -0.289874,0.0476575 -0.383638,0.142921 -0.0937127,0.0953668 -0.140543,0.230328 -0.140543,0.405089l0 0.953099zm2.88313 -0.953099c0,-0.174762 -0.0468822,-0.309722 -0.140543,-0.405089 -0.0937644,-0.0952634 -0.221644,-0.142921 -0.38369,-0.142921 -0.152483,0 -0.277985,0.0476575 -0.376453,0.142921 -0.0984681,0.0953668 -0.147728,0.230328 -0.147728,0.405089l0 1.66796 -0.19063 0 0 -3.33592 0.19063 0 0 1.20095c0.0635262,-0.0699356 0.14137,-0.132635 0.233532,-0.188252 0.0921103,-0.055566 0.189028,-0.0833748 0.290649,-0.0833748 0.101725,0 0.196213,0.017471 0.283568,0.052413 0.0873549,0.034942 0.162821,0.0849772 0.226347,0.150106 0.0635778,0.0651285 0.113561,0.142973 0.150106,0.233481 0.036596,0.0905597 0.0548424,0.191457 0.0548424,0.302641l0 1.66796 -0.19063 0 0 -1.66796zm1.79662 0.576646c-0.0445045,-0.0317889 -0.0953151,-0.056393 -0.152483,-0.073864 -0.0572201,-0.017471 -0.117541,-0.0262582 -0.181068,-0.0262582 -0.152587,0 -0.278037,0.0437292 -0.376505,0.131084 -0.0984681,0.0873549 -0.147728,0.20257 -0.147728,0.345491 0,0.171608 0.0492599,0.305794 0.147728,0.402711 0.0984681,0.0969174 0.223918,0.14535 0.376505,0.14535 0.161943,0 0.289874,-0.0484329 0.383586,-0.14535 0.0937127,-0.0969174 0.140595,-0.231103 0.140595,-0.402711l0 -0.953099c0,-0.174762 -0.0468822,-0.309722 -0.140595,-0.405089 -0.0937127,-0.0952634 -0.221644,-0.142921 -0.383586,-0.142921 -0.181119,0 -0.327297,0.0698839 -0.43848,0.209652l-0.152483 -0.090508c0.0571684,-0.0953668 0.140595,-0.170781 0.250176,-0.226399 0.109581,-0.055566 0.223194,-0.0833748 0.340788,-0.0833748 0.101621,0 0.196161,0.017471 0.283516,0.052413 0.0873549,0.034942 0.162821,0.0849772 0.226399,0.150106 0.0635262,0.0651285 0.113561,0.142973 0.150106,0.233481 0.0364926,0.0905597 0.054739,0.191457 0.054739,0.302641l0 0.953099c0,0.0794465 0.000827029,0.150881 0.00237771,0.214459 0.00160237,0.0635262 0.00796015,0.118369 0.019125,0.164424 0.0110615,0.0460552 0.0301349,0.0818242 0.0571684,0.107255 0.0270335,0.0253794 0.0643532,0.038095 0.111959,0.038095l0 0.19063c-0.101621,0 -0.177915,-0.0230017 -0.228725,-0.0691086 -0.0508106,-0.0460552 -0.0874066,-0.107204 -0.109633,-0.183497 -0.0634745,0.0825995 -0.144523,0.149382 -0.243043,0.200141 -0.0984681,0.0508623 -0.206447,0.0762417 -0.323989,0.0762417 -0.0985198,0 -0.190682,-0.0182463 -0.276434,-0.054739 -0.0858042,-0.0365443 -0.161219,-0.0874066 -0.226399,-0.152483 -0.0651285,-0.0651802 -0.116766,-0.143024 -0.154861,-0.233532 -0.0381467,-0.0905597 -0.0571684,-0.189803 -0.0571684,-0.297885 0,-0.0921103 0.0190217,-0.17869 0.0571684,-0.259687 0.038095,-0.0810488 0.0897326,-0.151708 0.154861,-0.212081 0.0651802,-0.0603731 0.140595,-0.108031 0.226399,-0.142973 0.0857526,-0.034942 0.177915,-0.052413 0.276434,-0.052413 0.120643,0 0.231878,0.0270335 0.333551,0.0809971l0 0.209704zm1.04847 -1.29146l0.190578 0 0 0.252606c0.0635262,-0.0699356 0.14137,-0.133462 0.233532,-0.190682 0.0921103,-0.0571684 0.189028,-0.0857526 0.290649,-0.0857526 0.101725,0 0.196213,0.0182463 0.283568,0.0547907 0.0874066,0.0365443 0.162873,0.0873549 0.226347,0.152483 0.0635778,0.0651802 0.113613,0.142973 0.150106,0.233532 0.036596,0.0905597 0.0548424,0.189803 0.0548424,0.297834l0 1.66796 -0.19063 0 0 -1.66796c0,-0.171557 -0.0468305,-0.305742 -0.140543,-0.40266 -0.0937644,-0.0969691 -0.221644,-0.14535 -0.38369,-0.14535 -0.152483,0 -0.277985,0.0483812 -0.376453,0.14535 -0.0984681,0.0969174 -0.147728,0.231103 -0.147728,0.40266l0 1.66796 -0.190578 0 0 -2.38277zm2.74021 2.00151c-0.101725,0 -0.196213,-0.018298 -0.283568,-0.0547907 -0.0874066,-0.0365443 -0.162873,-0.0874066 -0.226347,-0.152535 -0.0635778,-0.0650768 -0.113613,-0.142921 -0.150157,-0.233481 -0.0365443,-0.0905597 -0.0547907,-0.189803 -0.0547907,-0.297834l0 -0.548062c0,-0.111184 0.0182463,-0.212081 0.0547907,-0.302641 0.0365443,-0.090508 0.0865796,-0.168352 0.150157,-0.233481 0.0634745,-0.0651285 0.138941,-0.115164 0.226347,-0.150106 0.0873549,-0.034942 0.181843,-0.052413 0.283568,-0.052413 0.111184,0 0.21601,0.0246041 0.314478,0.073864 0.0984681,0.0492082 0.181119,0.115164 0.247799,0.197763 0.0222781,-0.0825995 0.0595978,-0.144575 0.112011,-0.185875 0.052413,-0.0412998 0.12943,-0.0619238 0.231103,-0.0619238l0 0.190578c-0.0508106,0 -0.0889056,0.0127673 -0.114388,0.0381467 -0.0253794,0.0253794 -0.0436775,0.0603731 -0.054739,0.104826 -0.0111649,0.0445045 -0.0175227,0.0992952 -0.019125,0.164424 -0.00155068,0.0651802 -0.00237771,0.137442 -0.00237771,0.216837l0 0.548062c0,0.108031 -0.0190217,0.207274 -0.0571684,0.297834 -0.038095,0.0905597 -0.0897326,0.168404 -0.154861,0.233481 -0.0651802,0.0651285 -0.140595,0.115991 -0.226347,0.152535 -0.0858042,0.0364926 -0.177966,0.0547907 -0.276383,0.0547907zm-0.524233 -0.73864c0,0.171505 0.0468305,0.305794 0.140543,0.40266 0.0937644,0.0969174 0.221644,0.145402 0.38369,0.145402 0.152483,0 0.277933,-0.0484846 0.376453,-0.145402 0.0984681,-0.0968658 0.147676,-0.231155 0.147676,-0.40266l0 -0.548062c0,-0.174762 -0.0492082,-0.309722 -0.147676,-0.405089 -0.0985198,-0.0952634 -0.22397,-0.142921 -0.376453,-0.142921 -0.162046,0 -0.289925,0.0476575 -0.38369,0.142921 -0.0937127,0.0953668 -0.140543,0.230328 -0.140543,0.405089l0 0.548062zm0 1.64413c0,0.152483 0.0492599,0.277933 0.147676,0.376453 0.0985198,0.0984681 0.224021,0.147728 0.376557,0.147728 0.161943,0 0.289874,-0.0484846 0.383586,-0.14535 0.0937127,-0.0969174 0.140543,-0.231103 0.140543,-0.402711 0,-0.142921 -0.0468305,-0.262065 -0.140543,-0.357432 -0.0937127,-0.0952634 -0.221644,-0.142921 -0.383586,-0.142921l0 -0.19063c0.101621,0 0.196161,0.0190217 0.283464,0.0571684 0.0874066,0.038095 0.162873,0.0889573 0.226451,0.152535 0.0634745,0.0635262 0.113561,0.136615 0.150106,0.219214 0.0364926,0.0825995 0.054739,0.169954 0.054739,0.262065 0,0.108031 -0.0182463,0.207326 -0.054739,0.297885 -0.0365443,0.090508 -0.0866313,0.168352 -0.150106,0.233532 -0.0635778,0.0650768 -0.139044,0.115939 -0.226451,0.152483 -0.0873032,0.0365443 -0.181843,0.0547907 -0.283464,0.0547907 -0.0985198,0 -0.190682,-0.0190734 -0.276434,-0.0571684 -0.0858042,-0.0381467 -0.161219,-0.0897843 -0.226399,-0.154913 -0.0651285,-0.0651285 -0.116766,-0.140595 -0.154861,-0.226347 -0.0381467,-0.0858042 -0.0571684,-0.177915 -0.0571684,-0.276383l0.19063 0zm2.2398 -1.71567l0.333551 0c0.152483,0 0.277985,-0.0476058 0.376505,-0.142921 0.0984681,-0.0953151 0.147728,-0.214459 0.147728,-0.357432 0,-0.171557 -0.0492599,-0.301814 -0.147728,-0.390771 -0.0985198,-0.0889573 -0.224021,-0.13341 -0.376505,-0.13341 -0.162046,0 -0.289874,0.0444528 -0.383586,0.13341 -0.0937644,0.0889573 -0.140595,0.219214 -0.140595,0.390771l0 0.976928c0,0.174762 0.0468305,0.309774 0.140595,0.405089 0.0937127,0.0952634 0.22154,0.142973 0.383586,0.142973 0.177966,0 0.32249,-0.0698839 0.433673,-0.209652l0.152483 0.100019c-0.0635262,0.092162 -0.147728,0.165251 -0.252554,0.219214 -0.104878,0.0540153 -0.216061,0.0809971 -0.333603,0.0809971 -0.101621,0 -0.196161,-0.0174193 -0.283568,-0.0523613 -0.0873032,-0.034942 -0.16277,-0.0842019 -0.226347,-0.147728 -0.0635262,-0.0635778 -0.113561,-0.141422 -0.150106,-0.233584 -0.0365443,-0.0920587 -0.054739,-0.193783 -0.054739,-0.304967l0 -0.953099c0,-0.108031 0.0181946,-0.207274 0.054739,-0.297834 0.0365443,-0.0905597 0.0865796,-0.168352 0.150106,-0.233532 0.0635778,-0.0651285 0.139044,-0.115939 0.226347,-0.152483 0.0874066,-0.0365443 0.181946,-0.0547907 0.283568,-0.0547907 0.0985198,0 0.19063,0.0182463 0.276434,0.0547907 0.0857526,0.0365443 0.161219,0.0873549 0.226347,0.152483 0.0651285,0.0651802 0.116766,0.142973 0.154861,0.233532 0.0381467,0.0905597 0.0572201,0.189803 0.0572201,0.297834 0,0.0921103 -0.0190734,0.17869 -0.0572201,0.259739 -0.038095,0.0809971 -0.0897326,0.151708 -0.154861,0.212081 -0.0651285,0.0603214 -0.140595,0.107979 -0.226347,0.142921 -0.0858042,0.034942 -0.177915,0.0524646 -0.276434,0.0524646l-0.333551 0 0 -0.190682z"/>
  </g>
 </g>
</svg>
