<?xml version="1.0" encoding="UTF-8"?>
<svg width="184px" height="30px" viewBox="0 0 184 30" version="1.1" xmlns="http://www.w3.org/2000/svg" xmlns:xlink="http://www.w3.org/1999/xlink">
    <!-- Generator: Sketch 50.2 (55047) - http://www.bohemiancoding.com/sketch -->
    <title>smartjex-logo-white</title>
    <desc>Created with Sketch.</desc>
    <defs></defs>
    <g id="Page-1" stroke="none" stroke-width="1" fill="none" fill-rule="evenodd">
        <g id="Artboard" transform="translate(-169.000000, -52.000000)" fill="#FFFFFF" fill-rule="nonzero">
            <g id="smartjex-logo-white" transform="translate(169.000000, 52.000000)">
                <g id="Group-27">
                    <g id="Union" transform="translate(0.000000, 23.000000)">
                        <g id="path0_fill-link">
                            <polygon id="path0_fill" points="4 0 0 0 0 7 4 7"></polygon>
                        </g>
                        <g id="path1_fill-link" transform="translate(28.000000, 0.000000)">
                            <polygon id="path1_fill" points="4 0 0 0 0 7 4 7"></polygon>
                        </g>
                    </g>
                    <g id="Union">
                        <g id="path2_fill-link">
                            <polygon id="path2_fill" points="11.0769 0 0 0 0 2 11.0769 2"></polygon>
                        </g>
                        <g id="path3_fill-link" transform="translate(20.000000, 0.000000)">
                            <polygon id="path3_fill" points="12 0 0.9231 0 0.9231 2 12 2"></polygon>
                        </g>
                    </g>
                    <g id="Subtract">
                        <g id="path4_fill-link">
                            <path d="M18,0 L14,0 L14,5 L0,5 L0,20 L14,20 L14,23 L6,23 L6,30 L26,30 L26,23 L18,23 L18,20 L32,20 L32,5 L18,5 L18,0 Z M3,8 L12,8 L12,17 L3,17 L3,8 Z M20,8 L29,8 L29,17 L20,17 L20,8 Z" id="path4_fill"></path>
                        </g>
                    </g>
                    <g id="Subtract" transform="translate(5.000000, 10.000000)">
                        <g id="path5_fill-link">
                            <polygon id="path5_fill" points="0 0 5 0 5 5 0 5"></polygon>
                        </g>
                        <g id="path6_fill-link" transform="translate(17.000000, 0.000000)">
                            <polygon id="path6_fill" points="0 0 5 0 5 5 0 5"></polygon>
                        </g>
                    </g>
                </g>
                <g id="SMARTJEX" transform="translate(43.000000, 6.000000)">
                    <g id="path7_fill-link" transform="translate(0.960000, 0.960000)">
                        <path d="M6.12,17.328 C4.712,17.328 3.512,17.072 2.52,16.56 C1.544,16.048 0.704,15.36 0,14.496 L1.872,12.744 C2.464,13.464 3.112,14.008 3.816,14.376 C4.536,14.744 5.352,14.928 6.264,14.928 C7.336,14.928 8.144,14.688 8.688,14.208 C9.232,13.728 9.504,13.08 9.504,12.264 C9.504,11.608 9.312,11.088 8.928,10.704 C8.544,10.32 7.864,10.032 6.888,9.84 L5.4,9.576 C3.768,9.272 2.544,8.736 1.728,7.968 C0.912,7.2 0.504,6.144 0.504,4.8 C0.504,4.064 0.64,3.4 0.912,2.808 C1.2,2.2 1.592,1.696 2.088,1.296 C2.6,0.88 3.216,0.56 3.936,0.336 C4.656,0.112 5.464,0 6.36,0 C7.624,0 8.72,0.224 9.648,0.671999 C10.576,1.104 11.368,1.736 12.024,2.568 L10.128,4.248 C9.696,3.688 9.168,3.24 8.544,2.904 C7.92,2.568 7.144,2.4 6.216,2.4 C5.256,2.4 4.512,2.592 3.984,2.976 C3.456,3.36 3.192,3.92 3.192,4.656 C3.192,5.36 3.408,5.888 3.84,6.24 C4.272,6.576 4.944,6.832 5.856,7.008 L7.344,7.32 C9.024,7.64 10.248,8.184 11.016,8.952 C11.8,9.72 12.192,10.776 12.192,12.12 C12.192,12.904 12.056,13.616 11.784,14.256 C11.512,14.896 11.112,15.448 10.584,15.912 C10.072,16.36 9.44,16.712 8.688,16.968 C7.936,17.208 7.08,17.328 6.12,17.328 Z" id="path7_fill"></path>
                    </g>
                    <g id="path8_fill-link" transform="translate(18.960000, 0.960000)">
                        <polygon id="path8_fill" points="13.1437 4.224 13.0238 4.224 11.7038 6.936 8.0317 13.632 4.3598 6.936 3.0397 4.224 2.9198 4.224 2.9198 17.04 0.3277 17.04 0.3277 0.287999 3.5438 0.287999 8.0317 8.808 8.1758 8.808 12.6637 0.287999 15.7357 0.287999 15.7357 17.04 13.1437 17.04"></polygon>
                    </g>
                    <g id="path9_fill-link" transform="translate(38.960000, 0.960000)">
                        <path d="M12.8707,17.04 L11.3587,12.504 L5.0947,12.504 L3.6307,17.04 L0.8707,17.04 L6.5827,0.287999 L9.9907,0.287999 L15.7027,17.04 L12.8707,17.04 Z M8.2867,2.784 L8.1667,2.784 L5.7427,10.176 L10.6867,10.176 L8.2867,2.784 Z" id="path9_fill"></path>
                    </g>
                    <g id="path10_fill-link" transform="translate(59.960000, 0.960000)">
                        <path d="M3.1293,17.04 L0.4173,17.04 L0.4173,0.287999 L7.6413,0.287999 C9.1453,0.287999 10.3293,0.744 11.1933,1.656 C12.0573,2.552 12.4893,3.776 12.4893,5.328 C12.4893,6.528 12.2093,7.528 11.6493,8.328 C11.1053,9.112 10.2973,9.664 9.2253,9.984 L12.8493,17.04 L9.8253,17.04 L6.4653,10.272 L3.1293,10.272 L3.1293,17.04 Z M7.4493,7.992 C8.1373,7.992 8.6733,7.816 9.0573,7.464 C9.4413,7.096 9.6333,6.576 9.6333,5.904 L9.6333,4.752 C9.6333,4.08 9.4413,3.568 9.0573,3.216 C8.6733,2.848 8.1373,2.664 7.4493,2.664 L3.1293,2.664 L3.1293,7.992 L7.4493,7.992 Z" id="path10_fill"></path>
                    </g>
                    <g id="path11_fill-link" transform="translate(76.960000, 0.960000)">
                        <polygon id="path11_fill" points="7.9999 2.688 7.9999 17.04 5.2879 17.04 5.2879 2.688 0.2959 2.688 0.2959 0.287999 12.9919 0.287999 12.9919 2.688"></polygon>
                    </g>
                    <g id="path12_fill-link" transform="translate(92.960000, 0.960000)">
                        <path d="M10.267,0.287999 L10.267,12.48 C10.267,13.216 10.147,13.88 9.907,14.472 C9.667,15.064 9.323,15.576 8.875,16.008 C8.443,16.424 7.9074,16.752 7.2674,16.992 C6.6434,17.216 5.9474,17.328 5.1794,17.328 C3.7234,17.328 2.5714,16.944 1.7234,16.176 C0.8914,15.392 0.3634,14.376 0.1394,13.128 L2.6354,12.576 C2.7794,13.296 3.0514,13.864 3.4514,14.28 C3.8674,14.696 4.4434,14.904 5.1794,14.904 C5.8994,14.904 6.4754,14.68 6.9074,14.232 C7.3394,13.784 7.5554,13.104 7.5554,12.192 L7.5554,2.544 L2.0834,2.544 L2.0834,0.287999 L10.267,0.287999 Z" id="path12_fill"></path>
                    </g>
                    <g id="path13_fill-link" transform="translate(109.960000, 0.960000)">
                        <polygon id="path13_fill" points="0.665 17.04 0.665 0.287999 11.393 0.287999 11.393 2.688 3.377 2.688 3.377 7.344 10.649 7.344 10.649 9.744 3.377 9.744 3.377 14.64 11.393 14.64 11.393 17.04"></polygon>
                    </g>
                    <g id="path14_fill-link" transform="translate(125.960000, 0.960000)">
                        <polygon id="path14_fill" points="14.54 17.04 11.348 17.04 7.292 10.368 7.22 10.368 3.212 17.04 0.212 17.04 5.636 8.472 0.404 0.287999 3.596 0.287999 7.412 6.528 7.46 6.528 11.324 0.287999 14.324 0.287999 9.044 8.448"></polygon>
                    </g>
                </g>
            </g>
        </g>
    </g>
</svg>