<?xml version="1.0" encoding="UTF-8" standalone="no"?>
<!DOCTYPE svg PUBLIC "-//W3C//DTD SVG 1.1//EN" "http://www.w3.org/Graphics/SVG/1.1/DTD/svg11.dtd">
<svg version="1.1" xmlns="http://www.w3.org/2000/svg" xmlns:xlink="http://www.w3.org/1999/xlink" preserveAspectRatio="xMidYMid meet" viewBox="0 0 640 640" width="640" height="640"><defs><path d="M320 0C143.27 0 0 143.27 0 320C0 496.73 143.27 640 320 640C496.73 640 640 496.73 640 320C640 143.27 496.73 0 320 0Z" id="aqFjEk5nr"></path><path d="M350.74 94.74C260.03 87.69 181.92 143.12 153.2 222.24C153.2 222.24 153.2 222.24 153.2 222.24C122.36 281.5 105.22 314.42 101.8 321.01C97.76 329.07 103.31 338.65 112.38 338.65C114.33 338.65 124.07 338.65 141.61 338.65C141.61 392.47 141.61 422.37 141.61 428.35C141.61 438.93 150.17 447.5 160.76 447.5C165.02 447.5 186.36 447.5 224.76 447.5L224.76 535.69L422.8 535.69C423.11 491.24 423.27 466.54 423.31 461.61C488.82 428.35 532.66 359.31 529.64 280.69C525.61 182.93 448 102.3 350.74 94.74Z" id="a2w1VqEukn"></path><path d="M333.83 176.89L334.69 176.91L335.54 176.93L336.39 176.95L337.24 176.98L338.09 177.02L338.93 177.06L339.77 177.11L340.61 177.16L341.44 177.21L342.27 177.28L343.09 177.34L343.92 177.42L344.74 177.49L345.55 177.58L346.36 177.66L347.18 177.75L347.98 177.85L348.79 177.95L349.59 178.06L350.39 178.17L351.18 178.29L351.98 178.41L352.77 178.53L353.56 178.66L354.34 178.79L355.13 178.93L355.91 179.07L356.69 179.22L357.46 179.37L358.23 179.53L359.01 179.69L359.78 179.85L360.54 180.02L361.31 180.19L362.07 180.36L362.83 180.54L363.59 180.73L364.35 180.91L365.1 181.11L365.85 181.3L366.59 181.51L367.33 181.71L368.06 181.93L368.78 182.15L369.5 182.38L370.22 182.61L370.93 182.84L371.63 183.09L372.33 183.34L373.02 183.59L373.71 183.85L374.4 184.11L375.07 184.39L375.75 184.66L376.42 184.95L377.08 185.23L377.74 185.53L378.39 185.83L379.04 186.13L379.69 186.44L380.33 186.76L380.96 187.08L381.6 187.41L382.22 187.74L382.84 188.08L383.46 188.43L384.08 188.78L384.69 189.13L385.29 189.5L385.89 189.86L386.49 190.24L387.08 190.62L387.67 191L388.25 191.39L388.83 191.79L389.41 192.19L389.98 192.59L390.55 193.01L391.11 193.43L391.67 193.85L392.22 194.28L392.76 194.72L393.29 195.16L393.82 195.6L394.34 196.06L394.85 196.52L395.35 196.98L395.85 197.45L396.34 197.92L396.82 198.41L397.3 198.89L397.77 199.38L398.23 199.88L398.69 200.39L399.14 200.89L399.58 201.41L400.01 201.93L400.44 202.46L400.86 202.99L401.28 203.53L401.69 204.07L402.09 204.62L402.49 205.17L402.87 205.73L403.26 206.3L403.63 206.87L404.01 207.45L404.37 208.03L404.73 208.62L405.08 209.21L405.43 209.81L405.77 210.42L406.1 211.03L406.43 211.65L406.75 212.27L407.07 212.9L407.38 213.53L407.69 214.17L407.98 214.82L408.27 215.47L408.56 216.13L408.83 216.79L409.1 217.46L409.36 218.13L409.62 218.81L409.86 219.5L410.1 220.19L410.33 220.89L410.55 221.59L410.77 222.31L410.98 223.02L411.18 223.75L411.37 224.48L411.56 225.21L411.73 225.95L411.9 226.7L412.07 227.46L412.22 228.22L412.37 228.99L412.51 229.76L412.64 230.55L412.76 231.34L412.88 232.13L412.99 232.93L413.09 233.74L413.19 234.56L413.27 235.38L413.35 236.21L413.43 237.05L413.49 237.89L413.55 238.75L413.6 239.61L413.64 240.47L413.67 241.35L413.7 242.23L413.72 243.11L413.73 244.01L413.73 244.91L413.73 245.48L413.72 246.04L413.72 246.61L413.7 247.17L413.69 247.72L413.67 248.28L413.64 248.83L413.62 249.38L413.58 249.93L413.55 250.48L413.51 251.02L413.47 251.57L413.43 252.11L413.38 252.64L413.33 253.18L413.28 253.71L413.22 254.24L413.17 254.77L413.1 255.29L413.04 255.81L412.97 256.33L412.9 256.84L412.83 257.36L412.75 257.87L412.67 258.37L412.59 258.88L412.51 259.38L412.42 259.87L412.34 260.37L412.24 260.86L412.15 261.35L412.06 261.83L411.96 262.31L411.86 262.79L411.75 263.26L411.65 263.73L411.54 264.2L411.44 264.66L411.33 265.12L411.21 265.57L411.1 266.03L410.97 266.48L410.85 266.94L410.72 267.39L410.58 267.84L410.44 268.29L410.29 268.75L410.14 269.2L409.98 269.65L409.82 270.1L409.65 270.55L409.48 271L409.31 271.45L409.13 271.9L408.95 272.35L408.77 272.8L408.58 273.25L408.39 273.69L408.2 274.14L408 274.58L407.8 275.03L407.6 275.47L407.39 275.91L407.19 276.35L406.98 276.79L406.76 277.23L406.55 277.67L406.33 278.1L406.12 278.54L405.9 278.97L405.68 279.4L405.46 279.83L405.23 280.26L405.01 280.69L404.78 281.11L404.56 281.53L404.33 281.96L404.11 282.38L403.88 282.8L403.65 283.21L403.39 283.63L403.12 284.04L402.85 284.45L402.58 284.86L402.31 285.27L402.03 285.67L401.75 286.08L401.47 286.48L401.19 286.88L400.91 287.28L400.62 287.68L400.33 288.08L400.04 288.47L399.74 288.87L399.45 289.26L399.15 289.65L398.84 290.05L398.54 290.44L398.23 290.82L397.92 291.21L397.61 291.6L397.29 291.99L396.97 292.37L396.65 292.76L396.33 293.14L396 293.52L395.67 293.9L395.33 294.29L394.99 294.67L394.65 295.05L394.31 295.43L393.96 295.81L393.61 296.19L393.26 296.57L392.9 296.94L392.54 297.32L392.17 297.7L391.8 298.08L391.43 298.46L391.06 298.83L390.68 299.21L390.3 299.59L389.91 299.97L389.53 300.35L389.14 300.73L388.75 301.1L388.36 301.48L387.97 301.86L387.57 302.24L387.17 302.62L386.77 303L386.37 303.38L385.96 303.77L385.56 304.15L385.15 304.53L384.73 304.91L384.32 305.3L383.9 305.68L383.48 306.07L383.06 306.46L382.63 306.84L382.2 307.23L381.77 307.62L381.33 308.01L380.89 308.41L380.45 308.8L380.01 309.19L379.56 309.59L379.11 309.99L378.65 310.39L378.2 310.79L377.74 311.19L377.27 311.59L376.8 311.99L376.33 312.4L375.86 312.81L375.38 313.22L374.9 313.63L374.41 314.04L373.92 314.46L373.58 314.72L373.25 314.99L372.92 315.25L372.59 315.51L372.27 315.78L371.94 316.04L371.63 316.31L371.31 316.57L371 316.83L370.69 317.09L370.39 317.36L370.08 317.62L369.78 317.88L369.49 318.14L369.19 318.4L368.9 318.66L368.61 318.92L368.32 319.17L368.03 319.43L367.75 319.69L367.47 319.94L367.18 320.19L366.91 320.45L366.63 320.7L366.35 320.95L366.08 321.2L365.8 321.45L365.53 321.69L365.26 321.94L364.99 322.18L364.72 322.42L364.46 322.66L364.19 322.9L363.92 323.14L363.66 323.38L363.39 323.61L363.12 323.85L362.86 324.08L362.6 324.31L362.33 324.54L362.07 324.76L361.81 324.99L361.55 325.22L361.3 325.44L361.05 325.67L360.81 325.9L360.57 326.12L360.33 326.35L360.1 326.58L359.87 326.8L359.64 327.03L359.41 327.26L359.19 327.48L358.98 327.71L358.76 327.94L358.55 328.16L358.34 328.39L358.13 328.62L357.93 328.84L357.73 329.07L357.54 329.3L357.34 329.52L357.15 329.75L356.96 329.98L356.77 330.2L356.59 330.43L356.41 330.66L356.23 330.89L356.06 331.11L355.88 331.34L355.71 331.57L355.54 331.79L355.37 332.02L355.21 332.25L355.05 332.47L354.89 332.7L354.73 332.93L354.57 333.15L354.42 333.38L354.27 333.61L354.12 333.83L353.97 334.06L353.81 334.29L353.66 334.51L353.51 334.74L353.36 334.97L353.21 335.2L353.07 335.42L352.92 335.65L352.77 335.88L352.63 336.11L352.48 336.34L352.34 336.57L352.19 336.8L352.05 337.03L351.91 337.27L351.78 337.5L351.64 337.73L351.5 337.97L351.37 338.2L351.24 338.44L351.11 338.68L350.98 338.92L350.86 339.16L350.73 339.4L350.61 339.64L350.5 339.88L350.38 340.13L350.27 340.37L350.16 340.62L350.05 340.87L349.95 341.12L349.84 341.37L349.75 341.63L349.65 341.88L349.56 342.14L349.47 342.4L349.39 342.66L349.31 342.92L349.23 343.18L349.15 343.45L349.08 343.71L349.01 343.98L348.94 344.24L348.87 344.51L348.81 344.77L348.75 345.04L348.68 345.31L348.62 345.57L348.57 345.84L348.51 346.11L348.46 346.38L348.41 346.66L348.36 346.93L348.31 347.2L348.26 347.48L348.22 347.76L348.17 348.04L348.13 348.32L348.09 348.6L348.06 348.88L348.02 349.17L347.99 349.46L347.96 349.75L347.93 350.04L347.9 350.34L347.88 350.63L347.85 350.93L347.83 351.24L347.81 351.54L347.79 351.85L347.78 352.16L347.76 352.48L347.75 352.8L347.74 353.12L347.73 353.44L347.73 353.77L347.72 354.1L347.72 354.43L347.72 354.77L347.72 355L347.72 355.23L347.72 355.45L347.73 355.68L347.74 355.91L347.75 356.13L347.76 356.36L347.77 356.59L347.79 356.81L347.8 357.04L347.82 357.27L347.84 357.49L347.86 357.72L347.88 357.95L347.9 358.17L347.93 358.4L347.95 358.63L347.98 358.85L348 359.08L348.03 359.31L348.06 359.53L348.09 359.76L348.12 359.99L348.15 360.21L348.18 360.44L348.22 360.67L348.25 360.89L348.28 361.12L348.32 361.35L348.35 361.57L348.39 361.8L348.43 362.03L348.46 362.26L348.5 362.48L348.54 362.71L348.57 362.94L348.61 363.16L348.65 363.39L348.69 363.62L348.72 363.84L348.8 364.07L348.88 364.29L348.95 364.51L349.03 364.73L349.1 364.95L349.18 365.17L349.25 365.39L349.33 365.6L349.4 365.81L349.48 366.02L349.56 366.23L349.63 366.44L349.71 366.65L349.78 366.85L349.86 367.06L349.93 367.26L350.01 367.46L350.09 367.66L350.16 367.86L350.24 368.06L350.31 368.26L350.39 368.46L350.46 368.65L350.54 368.85L350.61 369.04L350.69 369.24L350.77 369.43L350.84 369.62L350.92 369.82L350.99 370.01L351.07 370.2L351.14 370.39L351.22 370.58L351.29 370.77L351.37 370.96L351.45 371.15L351.52 371.34L351.6 371.53L351.67 371.72L351.75 371.91L303.37 371.91L303.27 371.55L303.17 371.21L303.07 370.86L302.98 370.52L302.88 370.19L302.79 369.86L302.7 369.53L302.6 369.2L302.51 368.88L302.43 368.57L302.34 368.25L302.25 367.94L302.17 367.64L302.08 367.34L302 367.04L301.92 366.75L301.84 366.45L301.76 366.17L301.68 365.89L301.61 365.61L301.53 365.33L301.46 365.06L301.39 364.79L301.31 364.53L301.24 364.27L301.18 364.01L301.11 363.76L301.04 363.51L300.98 363.26L300.91 363.02L300.85 362.79L300.79 362.55L300.73 362.32L300.67 362.1L300.61 361.87L300.56 361.66L300.5 361.44L300.45 361.23L300.4 361.02L300.35 360.82L300.31 360.52L300.27 360.21L300.23 359.91L300.2 359.61L300.16 359.31L300.12 359.01L300.08 358.71L300.05 358.4L300.01 358.1L299.98 357.8L299.94 357.5L299.91 357.2L299.87 356.91L299.84 356.61L299.81 356.31L299.77 356.01L299.74 355.72L299.71 355.42L299.68 355.13L299.65 354.83L299.63 354.54L299.6 354.25L299.57 353.96L299.55 353.67L299.52 353.38L299.5 353.1L299.48 352.81L299.46 352.53L299.44 352.24L299.43 351.96L299.41 351.68L299.4 351.4L299.38 351.12L299.37 350.85L299.36 350.57L299.35 350.3L299.35 350.03L299.34 349.76L299.34 349.49L299.34 349.23L299.34 348.81L299.34 348.4L299.35 347.98L299.35 347.57L299.36 347.15L299.37 346.74L299.38 346.32L299.4 345.91L299.42 345.5L299.43 345.09L299.45 344.68L299.47 344.27L299.5 343.86L299.52 343.45L299.55 343.05L299.58 342.64L299.61 342.24L299.64 341.84L299.68 341.44L299.72 341.04L299.76 340.64L299.8 340.25L299.84 339.86L299.88 339.47L299.93 339.08L299.98 338.7L300.03 338.31L300.08 337.93L300.13 337.56L300.19 337.18L300.25 336.81L300.31 336.44L300.37 336.07L300.43 335.71L300.5 335.35L300.56 335L300.63 334.64L300.7 334.29L300.78 333.95L300.85 333.61L300.93 333.27L301.01 332.93L301.09 332.59L301.18 332.25L301.27 331.91L301.37 331.57L301.47 331.23L301.57 330.89L301.67 330.55L301.78 330.21L301.89 329.88L302 329.54L302.12 329.2L302.24 328.87L302.36 328.53L302.48 328.2L302.6 327.86L302.73 327.53L302.86 327.2L302.99 326.87L303.13 326.54L303.26 326.21L303.4 325.88L303.54 325.55L303.68 325.23L303.82 324.9L303.96 324.58L304.1 324.25L304.25 323.93L304.39 323.61L304.54 323.3L304.69 322.98L304.84 322.66L304.99 322.35L305.14 322.04L305.29 321.73L305.44 321.42L305.59 321.11L305.74 320.81L305.89 320.5L306.04 320.2L306.2 319.9L306.36 319.6L306.52 319.29L306.69 318.99L306.86 318.69L307.04 318.39L307.22 318.09L307.4 317.78L307.58 317.48L307.77 317.18L307.96 316.88L308.16 316.57L308.36 316.27L308.56 315.97L308.76 315.67L308.97 315.36L309.18 315.06L309.39 314.76L309.61 314.46L309.83 314.15L310.05 313.85L310.27 313.55L310.5 313.25L310.73 312.94L310.96 312.64L311.19 312.34L311.43 312.04L311.67 311.74L311.91 311.43L312.16 311.13L312.4 310.83L312.65 310.53L312.91 310.22L313.16 309.92L313.41 309.62L313.67 309.32L313.93 309.01L314.19 308.71L314.46 308.41L314.72 308.11L314.99 307.81L315.25 307.51L315.52 307.21L315.78 306.92L316.05 306.63L316.31 306.34L316.58 306.05L316.85 305.76L317.12 305.47L317.39 305.19L317.66 304.9L317.93 304.62L318.2 304.34L318.48 304.06L318.75 303.78L319.03 303.5L319.31 303.23L319.59 302.95L319.87 302.68L320.16 302.4L320.44 302.13L320.73 301.86L321.02 301.59L321.32 301.32L321.61 301.05L321.91 300.78L322.21 300.51L322.51 300.24L322.82 299.98L323.13 299.71L323.44 299.44L323.75 299.18L324.07 298.91L324.39 298.65L324.72 298.38L325.04 298.12L325.37 297.85L325.71 297.59L326.05 297.32L326.39 297.02L326.73 296.72L327.07 296.42L327.41 296.13L327.75 295.83L328.08 295.54L328.42 295.25L328.76 294.96L329.1 294.67L329.43 294.39L329.77 294.1L330.1 293.82L330.43 293.53L330.77 293.25L331.1 292.97L331.43 292.69L331.75 292.42L332.08 292.14L332.4 291.87L332.72 291.59L333.04 291.32L333.36 291.04L333.68 290.77L333.99 290.5L334.31 290.23L334.61 289.96L334.92 289.69L335.23 289.42L335.53 289.16L335.83 288.89L336.12 288.62L336.42 288.36L336.71 288.09L336.99 287.83L337.28 287.56L337.56 287.29L337.84 287.03L338.11 286.77L338.38 286.5L338.65 286.24L338.91 285.97L339.17 285.71L339.43 285.44L339.69 285.18L339.94 284.91L340.2 284.65L340.45 284.39L340.7 284.12L340.95 283.86L341.2 283.6L341.44 283.34L341.68 283.08L341.93 282.81L342.16 282.55L342.4 282.29L342.64 282.04L342.87 281.78L343.1 281.52L343.33 281.26L343.56 281.01L343.78 280.75L344.01 280.5L344.23 280.25L344.45 280L344.67 279.75L344.89 279.5L345.1 279.25L345.31 279L345.52 278.76L345.73 278.51L345.94 278.27L346.14 278.03L346.35 277.79L346.55 277.55L346.75 277.31L346.95 277.08L347.14 276.85L347.33 276.61L347.53 276.39L347.72 276.16L347.9 275.89L348.09 275.63L348.27 275.36L348.46 275.1L348.64 274.83L348.81 274.57L348.99 274.31L349.16 274.04L349.34 273.78L349.5 273.51L349.67 273.25L349.83 272.98L350 272.72L350.16 272.45L350.31 272.19L350.47 271.92L350.62 271.66L350.77 271.4L350.91 271.13L351.06 270.87L351.2 270.6L351.33 270.34L351.47 270.07L351.6 269.81L351.73 269.54L351.85 269.28L351.98 269.01L352.09 268.75L352.21 268.49L352.32 268.22L352.43 267.96L352.54 267.69L352.64 267.43L352.74 267.16L352.84 266.9L352.93 266.63L353.02 266.37L353.1 266.1L353.18 265.84L353.26 265.57L353.34 265.31L353.41 265.04L353.49 264.77L353.56 264.5L353.64 264.23L353.71 263.95L353.78 263.68L353.86 263.4L353.93 263.12L354 262.83L354.07 262.55L354.14 262.26L354.21 261.98L354.27 261.69L354.34 261.39L354.4 261.1L354.47 260.8L354.53 260.51L354.59 260.21L354.65 259.91L354.7 259.6L354.76 259.3L354.81 258.99L354.86 258.68L354.9 258.37L354.95 258.06L354.99 257.74L355.03 257.43L355.07 257.11L355.1 256.79L355.13 256.47L355.16 256.14L355.19 255.82L355.21 255.49L355.23 255.16L355.25 254.83L355.26 254.49L355.27 254.16L355.27 253.82L355.28 253.48L355.27 253.18L355.27 252.88L355.27 252.58L355.26 252.29L355.25 251.99L355.24 251.7L355.23 251.41L355.21 251.12L355.19 250.84L355.17 250.55L355.15 250.27L355.13 249.99L355.1 249.71L355.07 249.43L355.04 249.16L355 248.88L354.96 248.61L354.92 248.34L354.88 248.08L354.83 247.81L354.79 247.55L354.73 247.29L354.68 247.03L354.62 246.77L354.56 246.51L354.5 246.26L354.43 246.01L354.36 245.75L354.29 245.51L354.21 245.26L354.13 245.02L354.05 244.77L353.96 244.53L353.87 244.29L353.78 244.06L353.68 243.82L353.58 243.59L353.48 243.35L353.37 243.13L353.26 242.9L353.15 242.63L353.03 242.38L352.91 242.12L352.79 241.87L352.67 241.62L352.55 241.37L352.42 241.13L352.29 240.89L352.16 240.66L352.03 240.43L351.9 240.2L351.76 239.97L351.63 239.74L351.49 239.52L351.35 239.3L351.2 239.08L351.06 238.87L350.91 238.66L350.76 238.45L350.61 238.24L350.46 238.03L350.31 237.82L350.15 237.62L349.99 237.42L349.83 237.22L349.67 237.02L349.51 236.82L349.34 236.63L349.18 236.43L349.01 236.24L348.84 236.04L348.66 235.85L348.49 235.66L348.31 235.47L348.13 235.28L347.95 235.09L347.77 234.9L347.59 234.71L347.4 234.52L347.21 234.33L347.02 234.14L346.83 233.96L346.64 233.78L346.44 233.6L346.24 233.43L346.04 233.26L345.84 233.1L345.64 232.93L345.43 232.77L345.22 232.61L345.01 232.46L344.8 232.31L344.58 232.16L344.36 232.01L344.14 231.87L343.91 231.73L343.69 231.59L343.46 231.45L343.23 231.31L342.99 231.18L342.75 231.05L342.51 230.92L342.27 230.79L342.02 230.67L341.77 230.54L341.52 230.42L341.27 230.3L341.01 230.18L340.75 230.06L340.48 229.94L340.21 229.82L339.94 229.7L339.66 229.59L339.39 229.47L339.1 229.36L338.82 229.24L338.53 229.13L338.24 229.01L337.94 228.9L337.64 228.79L337.37 228.68L337.1 228.57L336.84 228.46L336.56 228.36L336.29 228.27L336.02 228.17L335.74 228.08L335.46 228L335.18 227.91L334.9 227.83L334.61 227.76L334.33 227.69L334.04 227.62L333.75 227.55L333.46 227.49L333.16 227.42L332.87 227.37L332.57 227.31L332.27 227.26L331.97 227.21L331.67 227.17L331.36 227.12L331.05 227.08L330.74 227.05L330.43 227.01L330.12 226.98L329.81 226.95L329.49 226.92L329.17 226.9L328.85 226.87L328.53 226.85L328.2 226.84L327.88 226.82L327.55 226.81L327.22 226.8L326.89 226.79L326.56 226.78L326.22 226.78L325.88 226.77L325.54 226.77L324.82 226.78L324.1 226.79L323.38 226.81L322.66 226.83L321.93 226.87L321.2 226.91L320.47 226.96L319.74 227.01L319 227.08L318.27 227.15L317.53 227.23L316.79 227.32L316.05 227.41L315.3 227.51L314.56 227.62L313.81 227.74L313.06 227.86L312.31 228L311.56 228.14L310.8 228.28L310.05 228.44L309.29 228.6L308.53 228.77L307.76 228.95L307 229.13L306.23 229.33L305.47 229.53L304.7 229.73L303.92 229.95L303.15 230.17L302.37 230.4L301.6 230.64L300.82 230.89L300.04 231.14L299.25 231.4L298.47 231.67L297.68 231.95L296.89 232.23L296.1 232.52L295.31 232.82L294.52 233.13L293.73 233.44L292.94 233.76L292.16 234.09L291.38 234.43L290.61 234.77L289.84 235.12L289.07 235.48L288.31 235.85L287.54 236.22L286.78 236.6L286.03 236.99L285.27 237.39L284.52 237.79L283.77 238.2L283.03 238.62L282.28 239.05L281.54 239.49L280.8 239.93L280.06 240.38L279.33 240.84L278.59 241.3L277.86 241.77L277.13 242.25L276.4 242.74L275.67 243.24L274.94 243.74L274.22 244.25L273.49 244.77L272.77 245.29L272.05 245.82L271.33 246.36L270.61 246.91L269.89 247.47L269.17 248.03L268.45 248.6L267.73 249.18L267.01 249.77L266.29 250.36L265.57 250.96L265.57 194.52L266.29 194.11L267.02 193.7L267.75 193.29L268.48 192.89L269.21 192.49L269.95 192.09L270.69 191.7L271.44 191.32L272.19 190.94L272.94 190.56L273.69 190.19L274.45 189.82L275.21 189.45L275.98 189.09L276.75 188.74L277.52 188.38L278.29 188.04L279.07 187.69L279.85 187.36L280.63 187.02L281.42 186.7L282.2 186.37L283 186.05L283.79 185.74L284.59 185.43L285.38 185.13L286.19 184.83L286.99 184.53L287.8 184.24L288.61 183.96L289.42 183.68L290.23 183.41L291.05 183.14L291.87 182.88L292.69 182.62L293.51 182.37L294.33 182.12L295.16 181.88L295.99 181.65L296.82 181.42L297.65 181.19L298.49 180.98L299.33 180.76L300.17 180.56L301.02 180.35L301.87 180.16L302.73 179.97L303.58 179.78L304.44 179.61L305.31 179.43L306.17 179.27L307.04 179.1L307.91 178.95L308.79 178.8L309.66 178.65L310.54 178.51L311.42 178.38L312.31 178.25L313.19 178.13L314.08 178.02L314.97 177.91L315.86 177.8L316.75 177.7L317.65 177.61L318.54 177.52L319.44 177.44L320.34 177.36L321.24 177.29L322.14 177.22L323.04 177.17L323.94 177.11L324.85 177.06L325.75 177.02L326.66 176.98L327.56 176.95L328.47 176.93L329.37 176.91L330.28 176.89L331.19 176.88L332.09 176.88L332.96 176.88L333.83 176.89Z" id="aJty9UuI0"></path></defs><g><g><g><use xlink:href="#aqFjEk5nr" opacity="1" fill="#1b70e0" fill-opacity="1"></use><g><use xlink:href="#aqFjEk5nr" opacity="1" fill-opacity="0" stroke="#000000" stroke-width="1" stroke-opacity="0"></use></g></g><g><use xlink:href="#a2w1VqEukn" opacity="1" fill="#324a5e" fill-opacity="1"></use><g><use xlink:href="#a2w1VqEukn" opacity="1" fill-opacity="0" stroke="#000000" stroke-width="1" stroke-opacity="0"></use></g></g><g><use xlink:href="#aJty9UuI0" opacity="1" fill="#ffffff" fill-opacity="1"></use><g><use xlink:href="#aJty9UuI0" opacity="1" fill-opacity="0" stroke="#000000" stroke-width="1" stroke-opacity="0"></use></g></g></g></g></svg>