<?xml version="1.0" encoding="UTF-8" standalone="no"?>
<!DOCTYPE svg PUBLIC "-//W3C//DTD SVG 1.1//EN" "http://www.w3.org/Graphics/SVG/1.1/DTD/svg11.dtd">
<svg version="1.1" xmlns="http://www.w3.org/2000/svg" xmlns:xlink="http://www.w3.org/1999/xlink" preserveAspectRatio="xMidYMid meet" viewBox="0 0 640 640" width="640" height="640"><defs><path d="M632 170L500 233L500 450C584 407.4 630.67 383.73 640 379C640 379 640 170 640 170C638.93 170 636.27 170 632 170Z" id="i2LnxI9Yv1"></path><path d="M368 170L360 170L360 379L500 450L500 233L368 170Z" id="duRyouWk0"></path><path d="M500 100L640 170L500 240L360 170L500 100Z" id="b2V2ANo7uA"></path><path d="M452 70L320 133L320 545L460 474L460 70L452 70Z" id="aOMmPbiXE"></path><path d="M188 70L180 70L180 474C264 516.6 310.67 540.27 320 545C320 545 320 133 320 133C302.4 124.6 258.4 103.6 188 70Z" id="b8JVoNM5f"></path><path d="M320 0L460 70L320 140L180 70L320 0Z" id="f2MwyPubD"></path><path d="M272 240L140 303L140 640L280 569L280 240L272 240Z" id="a4gmCi6J"></path><path d="M8 240L0 240L0 569L140 640L140 303L8 240Z" id="aRjBFgrNM"></path><path d="M140 170L280 240L140 310L0 240L140 170Z" id="e8fxjTZK4"></path></defs><g><g><g><use xlink:href="#i2LnxI9Yv1" opacity="1" fill="#415e72" fill-opacity="1"></use><g><use xlink:href="#i2LnxI9Yv1" opacity="1" fill-opacity="0" stroke="#000000" stroke-width="1" stroke-opacity="0"></use></g></g><g><use xlink:href="#duRyouWk0" opacity="1" fill="#374f61" fill-opacity="1"></use><g><use xlink:href="#duRyouWk0" opacity="1" fill-opacity="0" stroke="#000000" stroke-width="1" stroke-opacity="0"></use></g></g><g><use xlink:href="#b2V2ANo7uA" opacity="1" fill="#3c5669" fill-opacity="1"></use><g><use xlink:href="#b2V2ANo7uA" opacity="1" fill-opacity="0" stroke="#000000" stroke-width="1" stroke-opacity="0"></use></g></g><g><use xlink:href="#aOMmPbiXE" opacity="1" fill="#1b70e0" fill-opacity="1"></use><g><use xlink:href="#aOMmPbiXE" opacity="1" fill-opacity="0" stroke="#000000" stroke-width="1" stroke-opacity="0"></use></g></g><g><use xlink:href="#b8JVoNM5f" opacity="1" fill="#185fbd" fill-opacity="1"></use><g><use xlink:href="#b8JVoNM5f" opacity="1" fill-opacity="0" stroke="#000000" stroke-width="1" stroke-opacity="0"></use></g></g><g><use xlink:href="#f2MwyPubD" opacity="1" fill="#1969d1" fill-opacity="1"></use><g><use xlink:href="#f2MwyPubD" opacity="1" fill-opacity="0" stroke="#000000" stroke-width="1" stroke-opacity="0"></use></g></g><g><use xlink:href="#a4gmCi6J" opacity="1" fill="#415e72" fill-opacity="1"></use><g><use xlink:href="#a4gmCi6J" opacity="1" fill-opacity="0" stroke="#000000" stroke-width="1" stroke-opacity="0"></use></g></g><g><use xlink:href="#aRjBFgrNM" opacity="1" fill="#374f61" fill-opacity="1"></use><g><use xlink:href="#aRjBFgrNM" opacity="1" fill-opacity="0" stroke="#000000" stroke-width="1" stroke-opacity="0"></use></g></g><g><use xlink:href="#e8fxjTZK4" opacity="1" fill="#3c5669" fill-opacity="1"></use><g><use xlink:href="#e8fxjTZK4" opacity="1" fill-opacity="0" stroke="#000000" stroke-width="1" stroke-opacity="0"></use></g></g></g></g></svg>