<?xml version="1.0" encoding="UTF-8" standalone="no"?>
<!DOCTYPE svg PUBLIC "-//W3C//DTD SVG 1.1//EN" "http://www.w3.org/Graphics/SVG/1.1/DTD/svg11.dtd">
<svg version="1.1" xmlns="http://www.w3.org/2000/svg" xmlns:xlink="http://www.w3.org/1999/xlink" preserveAspectRatio="xMidYMid meet" viewBox="0 0 640 640" width="640" height="640"><defs><path d="M294.72 595.01C294.7 594.74 294.66 594.47 294.62 594.2C294.6 594.13 294.6 594.05 294.58 593.98C294.45 593.27 294.23 592.59 293.95 591.95C293.92 591.88 293.88 591.82 293.85 591.75C293.73 591.5 293.61 591.26 293.47 591.03C293.42 590.94 293.37 590.85 293.31 590.76C293.18 590.55 293.04 590.35 292.89 590.15C292.83 590.06 292.77 589.97 292.7 589.89C292.53 589.67 292.35 589.47 292.16 589.27C292.11 589.21 292.06 589.16 292.01 589.1C291.76 588.85 291.5 588.62 291.23 588.4C291.22 588.39 291.21 588.38 291.2 588.37C286.68 584.74 250.56 555.73 246.04 552.1C241.93 548.8 235.93 549.46 232.63 553.57C229.33 557.67 229.99 563.68 234.1 566.98C236.32 568.76 254.1 583.05 256.33 584.83C197.53 579.01 144.51 555.4 104.81 516.88C59.77 473.17 34.96 413.81 34.96 349.71C34.96 344.44 30.69 340.17 25.42 340.17C20.15 340.17 15.88 344.44 15.88 349.71C15.88 419.01 42.75 483.24 91.52 530.57C134.54 572.31 191.87 597.8 255.28 603.9C253.05 605.35 235.24 616.93 233.02 618.37C228.6 621.25 227.35 627.16 230.22 631.57C232.05 634.38 235.1 635.91 238.22 635.91C240.01 635.91 241.81 635.41 243.42 634.37C248.12 631.31 285.72 606.85 290.42 603.8C290.44 603.79 290.45 603.77 290.46 603.76C290.76 603.57 291.05 603.36 291.32 603.13C291.36 603.1 291.39 603.06 291.43 603.03C291.65 602.84 291.87 602.64 292.07 602.43C292.15 602.34 292.23 602.26 292.3 602.18C292.46 602 292.61 601.82 292.76 601.63C292.83 601.54 292.9 601.45 292.97 601.35C293.11 601.15 293.25 600.93 293.39 600.72C293.43 600.64 293.48 600.56 293.52 600.48C293.87 599.87 294.15 599.22 294.36 598.54C294.37 598.48 294.38 598.43 294.4 598.38C294.48 598.1 294.54 597.81 294.6 597.52C294.62 597.41 294.63 597.31 294.65 597.2C294.68 596.96 294.71 596.72 294.73 596.47C294.73 596.4 294.74 596.34 294.75 596.28C294.75 596.21 294.74 596.15 294.75 596.08C294.75 595.99 294.76 595.89 294.76 595.8C294.76 595.66 294.74 595.52 294.74 595.38C294.73 595.26 294.73 595.14 294.72 595.01Z" id="jb0B4oNzQ"></path><path d="M385.29 42.25C387.52 40.8 405.33 29.22 407.56 27.77C411.98 24.9 413.23 18.99 410.35 14.57C407.48 10.16 401.57 8.9 397.16 11.78C392.46 14.83 354.85 39.29 350.15 42.35C350.14 42.36 350.12 42.37 350.11 42.38C349.81 42.58 349.53 42.78 349.25 43.01C349.21 43.04 349.18 43.08 349.14 43.11C348.92 43.31 348.7 43.51 348.5 43.72C348.42 43.8 348.35 43.88 348.27 43.97C348.11 44.14 347.96 44.33 347.81 44.51C347.74 44.61 347.67 44.7 347.6 44.79C347.46 44.99 347.32 45.21 347.19 45.43C347.14 45.5 347.09 45.58 347.05 45.66C346.7 46.27 346.42 46.92 346.21 47.61C346.2 47.66 346.19 47.71 346.17 47.76C346.1 48.05 346.03 48.33 345.97 48.62C345.95 48.73 345.94 48.84 345.92 48.94C345.89 49.18 345.86 49.43 345.84 49.67C345.84 49.74 345.83 49.8 345.82 49.87C345.82 49.93 345.83 49.99 345.82 50.06C345.82 50.15 345.81 50.25 345.81 50.34C345.81 50.48 345.83 50.62 345.83 50.76C345.84 50.88 345.84 51.01 345.85 51.13C345.87 51.41 345.91 51.68 345.96 51.95C345.97 52.02 345.97 52.09 345.99 52.16C346.13 52.87 346.34 53.55 346.63 54.19C346.66 54.26 346.69 54.33 346.72 54.39C346.84 54.64 346.96 54.88 347.1 55.12C347.15 55.21 347.21 55.29 347.26 55.38C347.39 55.59 347.53 55.8 347.68 55.99C347.74 56.08 347.81 56.17 347.87 56.26C348.04 56.47 348.22 56.68 348.41 56.87C348.46 56.93 348.51 56.99 348.56 57.04C348.81 57.29 349.07 57.52 349.34 57.75C349.35 57.76 349.36 57.77 349.38 57.78C353.89 61.4 390.01 90.42 394.53 94.04C396.29 95.46 398.4 96.15 400.5 96.15C403.29 96.15 406.06 94.93 407.94 92.58C411.24 88.47 410.58 82.47 406.48 79.17C404.25 77.38 386.47 63.1 384.25 61.31C443.04 67.14 496.06 90.74 535.76 129.27C580.81 172.97 605.61 232.34 605.61 296.44C605.61 301.7 609.88 305.97 615.15 305.97C620.42 305.97 624.69 301.7 624.69 296.44C624.69 227.14 597.83 162.91 549.05 115.58C506.04 73.84 448.71 48.35 385.29 42.25Z" id="aYW8WMYJe"></path><path d="M169.12 0C75.72 0 0 75.72 0 169.13C0 262.53 75.72 338.25 169.13 338.25C262.53 338.25 338.25 262.53 338.25 169.13C338.25 75.72 262.53 0 169.12 0Z" id="bd3cNoC6B"></path><path d="M138.36 2.8C217.08 17.26 276.72 86.22 276.72 169.12C276.72 252.02 217.08 320.97 138.36 335.44C148.34 337.27 158.61 338.24 169.12 338.24C262.52 338.24 338.24 262.52 338.24 169.12C338.24 75.72 262.52 0 169.12 0C158.62 0 148.34 0.97 138.36 2.8Z" id="c6ZdDZgMtR"></path><path d="M169.12 32.46C93.65 32.46 32.46 93.65 32.46 169.13C32.46 244.6 93.65 305.79 169.13 305.79C244.6 305.79 305.79 244.6 305.79 169.13C305.79 93.65 244.6 32.46 169.12 32.46Z" id="aFfADX5Bp"></path><path d="M470.88 301.75C377.47 301.75 301.75 377.47 301.75 470.88C301.75 564.28 377.47 640 470.88 640C564.28 640 640 564.28 640 470.88C640 377.47 564.28 301.75 470.88 301.75Z" id="b2Sd2JvFZG"></path><path d="M440.67 304.45C519.66 318.7 579.59 387.79 579.59 470.88C579.59 553.97 519.66 623.06 440.67 637.31C450.47 639.07 460.57 640 470.88 640C564.28 640 640 564.28 640 470.88C640 377.48 564.28 301.76 470.88 301.76C460.57 301.76 450.48 302.69 440.67 304.45Z" id="b4LfKATkma"></path><path d="M470.88 334.21C395.4 334.21 334.21 395.4 334.21 470.88C334.21 546.35 395.4 607.54 470.88 607.54C546.35 607.54 607.54 546.35 607.54 470.88C607.54 395.4 546.35 334.21 470.88 334.21Z" id="b4GByzicWW"></path><path d="M265.76 72.48C246.43 91.81 91.81 246.43 72.48 265.76C125.85 319.13 212.39 319.13 265.76 265.76C319.13 212.39 319.13 125.85 265.76 72.48Z" id="bUSoUAVxQ"></path><path d="M374.24 567.52C427.61 620.89 514.15 620.89 567.52 567.52C620.89 514.15 620.89 427.61 567.52 374.24C528.86 412.9 393.57 548.19 374.24 567.52Z" id="b7sapvoOCV"></path><path d="M485.18 383.08L485.54 383.12L485.89 383.17L486.23 383.23L486.57 383.31L486.91 383.4L487.24 383.5L487.56 383.62L487.88 383.74L488.19 383.88L488.49 384.03L488.79 384.19L489.08 384.37L489.37 384.55L489.64 384.75L489.91 384.95L490.17 385.17L490.42 385.39L490.67 385.62L490.9 385.87L491.12 386.12L491.34 386.38L491.54 386.65L491.74 386.92L491.92 387.2L492.09 387.5L492.25 387.79L492.41 388.1L492.54 388.41L492.67 388.73L492.79 389.05L492.89 389.38L492.98 389.72L493.06 390.06L493.12 390.4L493.17 390.75L493.2 391.11L493.23 391.46L493.23 391.83L493.23 400.6L492.76 400.6L493.75 400.83L494.73 401.09L495.7 401.36L496.65 401.66L497.59 401.98L498.51 402.33L499.41 402.7L500.3 403.09L501.17 403.5L502.02 403.95L502.85 404.41L503.66 404.91L504.45 405.43L505.22 405.98L505.97 406.55L506.7 407.16L507.41 407.79L508.09 408.45L508.75 409.15L509.38 409.87L509.99 410.63L510.57 411.41L511.13 412.23L511.66 413.09L512.16 413.97L512.63 414.9L513.08 415.85L513.49 416.84L513.88 417.87L514.24 418.93L514.56 420.03L514.86 421.17L515.12 422.35L515.35 423.56L515.54 424.81L515.7 426.11L515.83 427.44L515.92 428.81L515.97 430.23L515.99 431.69L515.98 432.85L515.95 433.99L515.89 435.11L515.81 436.22L515.71 437.3L515.58 438.36L515.44 439.41L515.27 440.43L515.08 441.44L514.87 442.42L514.64 443.39L514.39 444.33L514.12 445.26L513.82 446.16L513.51 447.04L513.18 447.9L512.83 448.75L512.46 449.57L512.07 450.37L511.67 451.15L511.24 451.9L510.8 452.64L510.34 453.36L509.86 454.05L509.36 454.72L508.85 455.37L508.32 456L507.77 456.61L507.21 457.19L506.63 457.76L506.04 458.3L505.43 458.81L504.8 459.31L504.16 459.78L503.5 460.23L502.83 460.66L502.15 461.07L501.45 461.45L500.74 461.81L500.01 462.14L500.88 462.49L501.73 462.85L502.57 463.22L503.39 463.6L504.19 464L504.98 464.42L505.75 464.85L506.5 465.3L507.24 465.77L507.95 466.26L508.65 466.76L509.33 467.29L510 467.84L510.64 468.41L511.26 469L511.86 469.62L512.45 470.26L513.01 470.93L513.55 471.62L514.06 472.34L514.56 473.09L515.04 473.86L515.49 474.67L515.92 475.5L516.32 476.37L516.7 477.26L517.06 478.19L517.4 479.15L517.7 480.15L517.99 481.18L518.25 482.24L518.48 483.34L518.69 484.48L518.87 485.66L519.02 486.87L519.15 488.12L519.25 489.41L519.32 490.75L519.36 492.12L519.37 493.54L519.37 497.11L519.35 498.9L519.29 500.63L519.19 502.32L519.04 503.97L518.86 505.56L518.64 507.11L518.38 508.62L518.08 510.08L517.75 511.49L517.37 512.86L516.97 514.19L516.52 515.47L516.05 516.71L515.54 517.91L514.99 519.07L514.41 520.18L513.8 521.25L513.16 522.29L512.49 523.28L511.79 524.23L511.06 525.14L510.3 526.02L509.51 526.85L508.69 527.65L507.85 528.41L506.98 529.14L506.08 529.82L505.16 530.47L504.21 531.09L503.24 531.67L502.25 532.21L501.23 532.72L500.19 533.2L499.13 533.64L498.05 534.05L496.95 534.43L495.82 534.77L494.68 535.09L493.52 535.37L492.35 535.62L493.23 535.62L493.23 544.39L493.23 544.75L493.2 545.11L493.17 545.47L493.12 545.82L493.06 546.16L492.98 546.5L492.89 546.84L492.79 547.17L492.67 547.49L492.54 547.81L492.41 548.12L492.25 548.42L492.09 548.72L491.92 549.01L491.74 549.3L491.54 549.57L491.34 549.84L491.12 550.1L490.9 550.35L490.66 550.59L490.42 550.83L490.17 551.05L489.91 551.27L489.64 551.47L489.37 551.67L489.08 551.85L488.79 552.02L488.49 552.18L488.19 552.34L487.88 552.47L487.56 552.6L487.23 552.72L486.91 552.82L486.57 552.91L486.23 552.99L485.89 553.05L485.54 553.1L485.18 553.13L484.82 553.16L484.46 553.16L484.1 553.16L483.74 553.13L483.39 553.1L483.04 553.05L482.69 552.99L482.35 552.91L482.02 552.82L481.69 552.72L481.37 552.6L481.05 552.47L480.74 552.34L480.43 552.18L480.13 552.02L479.84 551.85L479.56 551.67L479.28 551.47L479.01 551.27L478.75 551.05L478.5 550.83L478.26 550.59L478.03 550.35L477.8 550.1L477.59 549.84L477.38 549.57L477.19 549.3L477.01 549.01L476.83 548.72L476.67 548.42L476.52 548.12L476.38 547.81L476.25 547.49L476.14 547.16L476.04 546.84L475.95 546.5L475.87 546.16L475.81 545.82L475.76 545.47L475.72 545.11L475.7 544.75L475.69 544.39L475.69 536.59L466.1 536.59L466.1 544.39L466.1 544.75L466.07 545.11L466.04 545.47L465.99 545.82L465.92 546.16L465.85 546.5L465.76 546.84L465.66 547.17L465.54 547.49L465.41 547.81L465.27 548.12L465.12 548.42L464.96 548.72L464.79 549.01L464.6 549.3L464.41 549.57L464.21 549.84L463.99 550.1L463.77 550.35L463.53 550.59L463.29 550.83L463.04 551.05L462.78 551.27L462.51 551.47L462.24 551.67L461.95 551.85L461.66 552.02L461.36 552.18L461.06 552.34L460.75 552.47L460.43 552.6L460.1 552.72L459.77 552.82L459.44 552.91L459.1 552.99L458.75 553.05L458.4 553.1L458.05 553.13L457.69 553.16L457.33 553.16L456.97 553.16L456.61 553.13L456.26 553.1L455.91 553.05L455.56 552.99L455.22 552.91L454.89 552.82L454.56 552.72L454.23 552.6L453.92 552.47L453.61 552.34L453.3 552.18L453 552.02L452.71 551.85L452.43 551.67L452.15 551.47L451.88 551.27L451.62 551.05L451.37 550.83L451.13 550.59L450.9 550.35L450.67 550.1L450.46 549.84L450.25 549.57L450.06 549.3L449.87 549.01L449.7 548.72L449.54 548.42L449.39 548.12L449.25 547.81L449.12 547.49L449.01 547.16L448.9 546.84L448.81 546.5L448.74 546.16L448.67 545.82L448.62 545.47L448.59 545.11L448.57 544.75L448.56 544.39L448.56 536.59L435.21 536.59L434.82 536.58L434.44 536.56L434.07 536.52L433.7 536.47L433.34 536.4L432.98 536.32L432.62 536.23L432.27 536.12L431.93 536L431.6 535.86L431.27 535.72L430.94 535.56L430.63 535.39L430.32 535.2L430.02 535.01L429.73 534.8L429.45 534.59L429.17 534.36L428.91 534.12L428.65 533.88L428.4 533.62L428.17 533.35L427.94 533.08L427.72 532.8L427.52 532.5L427.32 532.2L427.14 531.9L426.97 531.58L426.81 531.26L426.66 530.93L426.53 530.59L426.41 530.25L426.3 529.9L426.2 529.55L426.12 529.19L426.06 528.82L426 528.45L425.96 528.08L425.94 527.7L425.93 527.32L425.94 526.94L425.96 526.57L426 526.2L426.05 525.84L426.12 525.48L426.19 525.13L426.29 524.78L426.39 524.43L426.51 524.1L426.64 523.77L426.78 523.44L426.94 523.12L427.1 522.81L427.28 522.51L427.47 522.21L427.67 521.92L427.88 521.64L428.1 521.37L428.33 521.1L428.57 520.85L428.82 520.6L429.08 520.37L429.34 520.14L429.62 519.93L429.9 519.72L430.2 519.52L430.5 519.34L430.8 519.17L431.12 519L431.44 518.85L431.77 518.72L432.1 518.59L432.44 518.48L432.78 518.38L433.14 518.29L433.49 518.22L433.85 518.16L434.22 518.11L434.59 518.08L434.96 518.06L434.96 417.69L434.59 417.68L434.22 417.65L433.85 417.6L433.49 417.54L433.14 417.47L432.79 417.38L432.44 417.28L432.1 417.17L431.77 417.04L431.44 416.9L431.12 416.75L430.8 416.59L430.5 416.42L430.2 416.23L429.9 416.04L429.62 415.83L429.35 415.61L429.08 415.39L428.82 415.15L428.57 414.91L428.33 414.65L428.1 414.39L427.88 414.12L427.67 413.83L427.47 413.55L427.28 413.25L427.1 412.95L426.94 412.63L426.78 412.32L426.64 411.99L426.51 411.66L426.39 411.32L426.29 410.98L426.19 410.63L426.12 410.28L426.05 409.92L426 409.55L425.96 409.18L425.94 408.81L425.93 408.44L425.94 408.05L425.96 407.68L426 407.3L426.06 406.93L426.12 406.57L426.2 406.21L426.3 405.85L426.41 405.51L426.53 405.16L426.66 404.83L426.81 404.5L426.97 404.18L427.14 403.86L427.32 403.55L427.52 403.25L427.72 402.96L427.94 402.68L428.17 402.4L428.4 402.14L428.65 401.88L428.91 401.63L429.17 401.4L429.45 401.17L429.73 400.95L430.02 400.75L430.32 400.55L430.63 400.37L430.94 400.2L431.27 400.04L431.6 399.89L431.93 399.76L432.27 399.64L432.62 399.53L432.98 399.43L433.34 399.35L433.7 399.29L434.07 399.23L434.44 399.2L434.82 399.17L435.21 399.17L448.56 399.17L448.56 391.83L448.57 391.46L448.59 391.11L448.63 390.75L448.67 390.4L448.74 390.06L448.81 389.72L448.9 389.38L449.01 389.05L449.12 388.73L449.25 388.41L449.39 388.1L449.54 387.79L449.7 387.5L449.87 387.2L450.06 386.92L450.25 386.64L450.46 386.38L450.67 386.12L450.9 385.87L451.13 385.62L451.37 385.39L451.62 385.16L451.88 384.95L452.15 384.75L452.43 384.55L452.71 384.37L453 384.19L453.3 384.03L453.61 383.88L453.92 383.74L454.24 383.62L454.56 383.5L454.89 383.4L455.22 383.31L455.56 383.23L455.91 383.17L456.26 383.12L456.61 383.08L456.97 383.06L457.33 383.05L457.69 383.06L458.05 383.08L458.4 383.12L458.75 383.17L459.1 383.23L459.44 383.31L459.77 383.4L460.1 383.5L460.43 383.62L460.75 383.74L461.06 383.88L461.36 384.03L461.66 384.19L461.95 384.37L462.24 384.55L462.51 384.75L462.78 384.95L463.04 385.17L463.29 385.39L463.53 385.62L463.77 385.87L463.99 386.12L464.21 386.38L464.41 386.65L464.6 386.92L464.79 387.2L464.96 387.5L465.12 387.79L465.27 388.1L465.41 388.41L465.54 388.73L465.66 389.05L465.76 389.38L465.85 389.72L465.92 390.06L465.99 390.4L466.04 390.75L466.07 391.11L466.1 391.46L466.1 391.83L466.1 399.17L475.69 399.17L475.69 391.83L475.7 391.46L475.72 391.11L475.76 390.75L475.81 390.4L475.87 390.06L475.95 389.72L476.04 389.38L476.14 389.05L476.25 388.73L476.38 388.41L476.52 388.1L476.67 387.79L476.83 387.5L477.01 387.2L477.19 386.92L477.38 386.64L477.59 386.38L477.8 386.12L478.03 385.87L478.26 385.62L478.5 385.39L478.75 385.16L479.01 384.95L479.28 384.75L479.56 384.55L479.84 384.37L480.13 384.19L480.43 384.03L480.74 383.88L481.05 383.74L481.37 383.62L481.69 383.5L482.02 383.4L482.35 383.31L482.69 383.23L483.04 383.17L483.39 383.12L483.74 383.08L484.1 383.06L484.46 383.05L484.82 383.06L485.18 383.08ZM454.7 518.92L478.2 518.92L479.01 518.9L479.8 518.83L480.59 518.72L481.36 518.58L482.12 518.38L482.88 518.15L483.62 517.87L484.35 517.55L485.08 517.18L485.79 516.78L486.5 516.33L487.19 515.84L487.87 515.3L488.55 514.72L489.21 514.1L489.87 513.44L490.51 512.73L491.14 511.98L491.77 511.19L492.38 510.36L492.98 509.48L493.58 508.56L494.16 507.59L494.73 506.59L495.3 505.54L495.85 504.45L496.4 503.31L496.93 502.14L497.45 500.91L497.97 499.65L498.47 498.35L498.96 497L499.45 495.61L499.45 492.6L499.43 491.12L499.36 489.71L499.25 488.34L499.1 487.04L498.91 485.79L498.68 484.59L498.4 483.45L498.09 482.36L497.74 481.32L497.34 480.33L496.91 479.4L496.43 478.51L495.92 477.67L495.37 476.88L494.78 476.14L494.16 475.45L493.5 474.8L492.8 474.19L492.06 473.63L491.29 473.12L490.48 472.64L489.64 472.21L488.77 471.82L487.86 471.47L486.92 471.16L485.94 470.89L484.93 470.66L483.89 470.47L482.81 470.31L481.71 470.19L480.57 470.11L479.4 470.06L478.2 470.04L454.7 470.04L454.7 518.92ZM454.7 454.25L477.08 454.25L478.42 454.22L479.71 454.15L480.96 454.02L482.15 453.84L483.3 453.62L484.39 453.34L485.44 453.02L486.43 452.64L487.38 452.22L488.27 451.75L489.12 451.22L489.92 450.65L490.66 450.03L491.36 449.36L492.01 448.64L492.61 447.87L493.17 447.05L493.67 446.19L494.13 445.27L494.53 444.31L494.89 443.3L495.2 442.24L495.47 441.14L495.68 439.98L495.85 438.78L495.97 437.53L496.04 436.23L496.06 434.88L496.03 433.56L495.95 432.29L495.81 431.08L495.61 429.92L495.36 428.81L495.06 427.75L494.7 426.75L494.3 425.8L493.84 424.9L493.33 424.04L492.77 423.24L492.17 422.49L491.52 421.79L490.82 421.14L490.08 420.53L489.29 419.97L488.46 419.46L487.59 419L486.67 418.58L485.72 418.21L484.72 417.88L483.69 417.6L482.61 417.37L481.5 417.17L480.35 417.02L479.17 416.92L477.95 416.86L476.7 416.84L454.7 416.84L454.7 454.25Z" id="c2DB74kj5w"></path><path d="M170.17 81.92L170.17 202.75L171.4 203.97L227.48 170.82L171.4 77.76L170.17 81.92Z" id="b212qHj3xd"></path><path d="M115.31 170.82L171.4 203.97L171.4 145.33L171.4 77.76L115.31 170.82Z" id="aqB5aKc1D"></path><path d="M170.71 215.43L170.71 258.47L171.4 260.49L227.52 181.46L171.4 214.59L170.71 215.43Z" id="f5XX2Ioq1"></path><path d="M171.4 214.59L115.31 181.46L171.4 260.49L171.4 214.59Z" id="f2qSmgmM25"></path><path d="M227.48 170.82L171.4 145.33L171.4 203.97L227.48 170.82Z" id="a1HDFTGxs1"></path><path d="M171.4 203.97L171.4 145.33L115.31 170.82L171.4 203.97Z" id="i1zJZl7Hcc"></path></defs><g><g><g><use xlink:href="#jb0B4oNzQ" opacity="1" fill="#1b70e0" fill-opacity="1"></use><g><use xlink:href="#jb0B4oNzQ" opacity="1" fill-opacity="0" stroke="#000000" stroke-width="1" stroke-opacity="0"></use></g></g><g><use xlink:href="#aYW8WMYJe" opacity="1" fill="#1b70e0" fill-opacity="1"></use><g><use xlink:href="#aYW8WMYJe" opacity="1" fill-opacity="0" stroke="#000000" stroke-width="1" stroke-opacity="0"></use></g></g><g><use xlink:href="#bd3cNoC6B" opacity="1" fill="#ffb125" fill-opacity="1"></use><g><use xlink:href="#bd3cNoC6B" opacity="1" fill-opacity="0" stroke="#000000" stroke-width="1" stroke-opacity="0"></use></g></g><g><use xlink:href="#c6ZdDZgMtR" opacity="1" fill="#ff901d" fill-opacity="1"></use><g><use xlink:href="#c6ZdDZgMtR" opacity="1" fill-opacity="0" stroke="#000000" stroke-width="1" stroke-opacity="0"></use></g></g><g><use xlink:href="#aFfADX5Bp" opacity="1" fill="#fee570" fill-opacity="1"></use><g><use xlink:href="#aFfADX5Bp" opacity="1" fill-opacity="0" stroke="#000000" stroke-width="1" stroke-opacity="0"></use></g></g><g><use xlink:href="#b2Sd2JvFZG" opacity="1" fill="#ffb125" fill-opacity="1"></use><g><use xlink:href="#b2Sd2JvFZG" opacity="1" fill-opacity="0" stroke="#000000" stroke-width="1" stroke-opacity="0"></use></g></g><g><use xlink:href="#b4LfKATkma" opacity="1" fill="#ff901d" fill-opacity="1"></use><g><use xlink:href="#b4LfKATkma" opacity="1" fill-opacity="0" stroke="#000000" stroke-width="1" stroke-opacity="0"></use></g></g><g><use xlink:href="#b4GByzicWW" opacity="1" fill="#fee570" fill-opacity="1"></use><g><use xlink:href="#b4GByzicWW" opacity="1" fill-opacity="0" stroke="#000000" stroke-width="1" stroke-opacity="0"></use></g></g><g><use xlink:href="#bUSoUAVxQ" opacity="1" fill="#f4d451" fill-opacity="1"></use><g><use xlink:href="#bUSoUAVxQ" opacity="1" fill-opacity="0" stroke="#000000" stroke-width="1" stroke-opacity="0"></use></g></g><g><use xlink:href="#b7sapvoOCV" opacity="1" fill="#f4d451" fill-opacity="1"></use><g><use xlink:href="#b7sapvoOCV" opacity="1" fill-opacity="0" stroke="#000000" stroke-width="1" stroke-opacity="0"></use></g></g><g><use xlink:href="#c2DB74kj5w" opacity="1" fill="#ff901d" fill-opacity="1"></use><g><use xlink:href="#c2DB74kj5w" opacity="1" fill-opacity="0" stroke="#000000" stroke-width="1" stroke-opacity="0"></use></g></g><g><use xlink:href="#b212qHj3xd" opacity="1" fill="#ff901d" fill-opacity="1"></use><g><use xlink:href="#b212qHj3xd" opacity="1" fill-opacity="0" stroke="#000000" stroke-width="1" stroke-opacity="0"></use></g></g><g><use xlink:href="#aqB5aKc1D" opacity="1" fill="#ff901d" fill-opacity="1"></use><g><use xlink:href="#aqB5aKc1D" opacity="1" fill-opacity="0" stroke="#000000" stroke-width="1" stroke-opacity="0"></use></g></g><g><use xlink:href="#f5XX2Ioq1" opacity="1" fill="#ff901d" fill-opacity="1"></use><g><use xlink:href="#f5XX2Ioq1" opacity="1" fill-opacity="0" stroke="#000000" stroke-width="1" stroke-opacity="0"></use></g></g><g><use xlink:href="#f2qSmgmM25" opacity="1" fill="#ff901d" fill-opacity="1"></use><g><use xlink:href="#f2qSmgmM25" opacity="1" fill-opacity="0" stroke="#000000" stroke-width="1" stroke-opacity="0"></use></g></g><g><use xlink:href="#a1HDFTGxs1" opacity="1" fill="#ff901d" fill-opacity="1"></use><g><use xlink:href="#a1HDFTGxs1" opacity="1" fill-opacity="0" stroke="#000000" stroke-width="1" stroke-opacity="0"></use></g></g><g><use xlink:href="#i1zJZl7Hcc" opacity="1" fill="#ff901d" fill-opacity="1"></use><g><use xlink:href="#i1zJZl7Hcc" opacity="1" fill-opacity="0" stroke="#000000" stroke-width="1" stroke-opacity="0"></use></g></g></g></g></svg>