<?xml version="1.0" encoding="UTF-8" standalone="no"?>
<!DOCTYPE svg PUBLIC "-//W3C//DTD SVG 1.1//EN" "http://www.w3.org/Graphics/SVG/1.1/DTD/svg11.dtd">
<svg version="1.1" xmlns="http://www.w3.org/2000/svg" xmlns:xlink="http://www.w3.org/1999/xlink" preserveAspectRatio="xMidYMid meet" viewBox="0 0 640 640" width="640" height="640"><defs><path d="M617.56 442.57C679.32 277.45 610.7 83.41 447.15 22.43C285.06 -38.01 95.82 32.35 26.2 192.5C-44.49 355.12 33.06 544.19 196.27 613.47C277.27 647.85 364.48 646.38 440.25 616.26C432.16 596.22 391.69 496.07 318.85 315.78C498.08 391.86 597.64 434.12 617.56 442.57Z" id="hf8ZSU66h"></path><path d="M638.35 505.96C638.69 505.3 638.39 504.46 637.69 504.16C622.18 497.57 544.59 464.64 404.94 405.35C461.1 544.35 492.3 621.57 498.54 637.01C498.81 637.7 499.61 638.02 500.29 637.72C558.1 611.27 607.51 566.03 638.35 505.96Z" id="bnrEeRSAw"></path></defs><g><g><g><use xlink:href="#hf8ZSU66h" opacity="1" fill="#415e72" fill-opacity="1"></use><g><use xlink:href="#hf8ZSU66h" opacity="1" fill-opacity="0" stroke="#000000" stroke-width="1" stroke-opacity="0"></use></g></g><g><use xlink:href="#bnrEeRSAw" opacity="1" fill="#1b70e0" fill-opacity="1"></use><g><use xlink:href="#bnrEeRSAw" opacity="1" fill-opacity="0" stroke="#000000" stroke-width="1" stroke-opacity="0"></use></g></g></g></g></svg>