<?xml version="1.0" encoding="UTF-8" standalone="no"?>
<!DOCTYPE svg PUBLIC "-//W3C//DTD SVG 1.1//EN" "http://www.w3.org/Graphics/SVG/1.1/DTD/svg11.dtd">
<svg version="1.1" xmlns="http://www.w3.org/2000/svg" xmlns:xlink="http://www.w3.org/1999/xlink" preserveAspectRatio="xMidYMid meet" viewBox="0 0 640 640" width="640" height="640"><defs><path d="M263.51 529.97C258.22 537.41 252.42 544.21 246 550.63C216.4 580.23 175.34 598.24 129.49 597.49C129.36 588.04 130.24 578.72 131.63 569.78C107.44 583.63 79.35 591.44 49 590.94C48.62 560.58 56.43 532.49 70.16 508.31C61.22 509.69 51.9 510.58 42.45 510.32C41.69 454.78 68.4 405.9 109.96 376.3C115.25 372.53 120.92 369 126.72 365.98C126.59 366.6 126.46 367.36 126.34 367.99C140.7 369.88 154.8 373.66 168.41 379.33C177.35 382.98 185.92 387.39 194.23 392.68C204.68 399.23 214.51 407.04 223.58 416.11C232.65 425.18 240.33 435 246.88 445.46C252.17 453.77 256.71 462.33 260.36 471.28C266.03 484.88 269.81 498.99 271.69 513.35C272.58 513.47 273.21 513.35 273.84 513.22C270.81 519.02 267.29 524.68 263.51 529.97Z" id="b4yVDY2ag"></path><path d="M226.35 530.86C208.09 549.12 185.29 561.34 160.47 566.63C160.98 563.3 163.55 546.68 168.16 516.75C137.93 533.98 121.13 543.55 117.77 545.47C106.06 552.27 93.34 557.06 79.98 559.95C82.88 546.73 87.79 534.01 94.47 522.16C96.38 518.81 105.96 502.01 123.19 471.78C93.26 476.39 76.63 478.95 73.31 479.46C78.6 454.65 90.82 431.85 109.08 413.59C125.71 396.96 146.11 385.37 168.41 379.45C177.35 383.11 185.92 387.51 194.23 392.8C204.68 399.35 214.51 407.16 223.58 416.23C232.65 425.3 240.33 435.13 246.88 445.58C252.3 454.02 256.83 462.59 260.48 471.53C254.56 493.82 242.98 514.23 226.35 530.86Z" id="c1N9LlrlMG"></path><path d="M262.63 630.87C294.24 599.25 311.5 558.82 314.52 517.38C318.3 467.25 301.04 415.73 262.63 377.31C224.21 338.89 172.82 321.64 122.56 325.42C81.24 328.44 40.68 345.7 9.07 377.31C5.92 380.46 2.9 383.86 0 387.14C6.05 338.89 27.46 292.16 64.49 255.13C99.13 220.49 142.08 199.46 186.8 191.9C256.58 180.19 330.77 201.22 384.68 255.13C438.46 308.92 459.63 383.23 447.91 453.01C440.35 497.85 419.32 540.81 384.68 575.32C347.77 612.48 301.04 633.89 252.8 639.94C256.08 637.17 259.48 634.14 262.63 630.87Z" id="a4YXJmiuE7"></path><path d="M314.65 517.5C318.43 467.37 301.17 415.86 262.75 377.44C224.33 339.02 172.94 321.76 122.68 325.54C137.17 277.17 159.21 232.33 187.05 192.15C256.83 180.44 331.02 201.47 384.93 255.38C438.59 309.04 459.75 383.36 448.04 453.14C407.73 480.98 362.89 503.02 314.65 517.5Z" id="c938GTUyD"></path><path d="M247.13 445.64C240.58 435.19 232.77 425.37 223.7 416.3C214.63 407.23 204.81 399.42 194.36 392.87C173.45 379.52 150.27 371.33 126.46 368.05C164 187.55 306.71 45.47 487.72 9.07C517.32 3.15 547.92 0 579.41 0C583.45 0 603.65 0 640 0C640 36.35 640 56.55 640 60.59C640 91.95 636.85 122.68 630.93 152.28C594.53 333.29 452.45 476 271.95 513.54C268.67 489.73 260.48 466.55 247.13 445.64Z" id="b2h8JfUZ7K"></path><path d="M357.6 139.25C337.82 159.02 327.87 184.97 328 210.92C328.12 236.74 337.95 262.69 357.6 282.34C377.25 301.99 403.07 311.94 428.89 312.06C454.97 312.19 480.91 302.24 500.69 282.34C540.37 242.91 540.37 178.8 500.81 139.25C461.26 99.7 397.15 99.7 357.6 139.25Z" id="b72nd0GH2q"></path><path d="M429.27 143.4C392.05 143.4 361.88 173.58 361.88 210.79C361.88 248.01 392.05 278.18 429.27 278.18C466.49 278.18 496.66 248.01 496.66 210.79C496.66 173.58 466.49 143.4 429.27 143.4Z" id="dJSIzP1Ds"></path><path d="M313.51 326.55C313.51 326.55 313.51 326.55 313.51 326.55C246.12 350.23 172.31 424.04 148.76 491.3C148.76 491.3 148.76 491.3 148.76 491.3C216.02 467.62 289.83 393.94 313.51 326.55C313.51 326.55 313.51 326.55 313.51 326.55Z" id="a3NrOEtIJ3"></path><path d="M487.72 9.13C517.32 3.21 547.92 0.06 579.41 0.06C583.45 0.06 603.65 0.06 640 0.06C640 36.41 640 56.61 640 60.65C640 92.01 636.85 122.75 630.93 152.35C602.29 123.7 502.04 23.45 487.72 9.13Z" id="a2zCFCjLL"></path></defs><g><g><g><use xlink:href="#b4yVDY2ag" opacity="1" fill="#f6b44b" fill-opacity="1"></use><g><use xlink:href="#b4yVDY2ag" opacity="1" fill-opacity="0" stroke="#000000" stroke-width="1" stroke-opacity="0"></use></g></g><g><use xlink:href="#c1N9LlrlMG" opacity="1" fill="#ffd05c" fill-opacity="1"></use><g><use xlink:href="#c1N9LlrlMG" opacity="1" fill-opacity="0" stroke="#000000" stroke-width="1" stroke-opacity="0"></use></g></g><g><use xlink:href="#a4YXJmiuE7" opacity="1" fill="#41596b" fill-opacity="1"></use><g><use xlink:href="#a4YXJmiuE7" opacity="1" fill-opacity="0" stroke="#000000" stroke-width="1" stroke-opacity="0"></use></g></g><g><use xlink:href="#c938GTUyD" opacity="1" fill="#334a5e" fill-opacity="1"></use><g><use xlink:href="#c938GTUyD" opacity="1" fill-opacity="0" stroke="#000000" stroke-width="1" stroke-opacity="0"></use></g></g><g><use xlink:href="#b2h8JfUZ7K" opacity="1" fill="#1b70e0" fill-opacity="1"></use><g><use xlink:href="#b2h8JfUZ7K" opacity="1" fill-opacity="0" stroke="#000000" stroke-width="1" stroke-opacity="0"></use></g></g><g><use xlink:href="#b72nd0GH2q" opacity="1" fill="#ffffff" fill-opacity="1"></use><g><use xlink:href="#b72nd0GH2q" opacity="1" fill-opacity="0" stroke="#000000" stroke-width="1" stroke-opacity="0"></use></g></g><g><use xlink:href="#dJSIzP1Ds" opacity="1" fill="#89d6f7" fill-opacity="1"></use><g><use xlink:href="#dJSIzP1Ds" opacity="1" fill-opacity="0" stroke="#000000" stroke-width="1" stroke-opacity="0"></use></g></g><g><use xlink:href="#a3NrOEtIJ3" opacity="1" fill="#41596b" fill-opacity="1"></use><g><use xlink:href="#a3NrOEtIJ3" opacity="1" fill-opacity="0" stroke="#000000" stroke-width="1" stroke-opacity="0"></use></g></g><g><use xlink:href="#a2zCFCjLL" opacity="1" fill="#334a5e" fill-opacity="1"></use><g><use xlink:href="#a2zCFCjLL" opacity="1" fill-opacity="0" stroke="#000000" stroke-width="1" stroke-opacity="0"></use></g></g></g></g></svg>