<?xml version="1.0" encoding="UTF-8" standalone="no"?>
<!DOCTYPE svg PUBLIC "-//W3C//DTD SVG 1.1//EN" "http://www.w3.org/Graphics/SVG/1.1/DTD/svg11.dtd">
<svg version="1.1" xmlns="http://www.w3.org/2000/svg" xmlns:xlink="http://www.w3.org/1999/xlink" preserveAspectRatio="xMidYMid meet" viewBox="0 0 640 640" width="640" height="640"><defs><path d="M638.25 263.89C638.25 251.82 626.59 241.94 612.14 241.94C556.47 241.94 111.11 241.94 55.44 241.94C28.38 241.94 6.01 225.12 2.36 203.31C1.92 201.19 1.75 199.07 1.75 196.88C1.75 184.37 7.75 173.1 17.5 164.98C27.16 156.79 40.56 151.74 55.44 151.74C111.11 151.74 556.47 151.74 612.14 151.74C626.59 151.74 638.25 161.61 638.25 173.69C638.25 191.73 638.25 254.87 638.25 263.89Z" id="a1hW8XjMAi"></path><path d="M238.88 0C145.14 0 69.15 75.99 69.15 169.74C69.15 263.48 145.14 339.47 238.88 339.47C332.62 339.47 408.62 263.48 408.62 169.74C408.62 75.99 332.62 0 238.88 0Z" id="c176d0oo4F"></path><path d="M238.88 24.9C158.89 24.9 94.05 89.74 94.05 169.74C94.05 249.73 158.89 314.57 238.88 314.57C318.87 314.57 383.72 249.73 383.72 169.74C383.72 89.74 318.87 24.9 238.88 24.9Z" id="ii5oSSOoN"></path><path d="M219.63 285.14L221.36 285.42L223.1 285.66L224.84 285.89L226.58 286.08L228.33 286.25L230.09 286.39L231.84 286.51L233.6 286.6L235.36 286.67L237.12 286.71L238.89 286.72L239 295.53L239 296.47L238.96 296.47L237.03 296.45L235.11 296.41L233.19 296.34L231.27 296.24L229.36 296.11L227.46 295.96L225.56 295.77L223.67 295.56L221.78 295.32L219.9 295.05L218.03 294.76L216.17 294.44L214.31 294.08L216.19 284.52L217.91 284.85L219.63 285.14Z" id="b23Ro3SJyJ"></path><path d="M230.65 95.97L230.65 79L239.14 79L239.14 95.97L243.76 95.97L245.45 96.01L247.13 96.11L248.78 96.28L250.42 96.51L252.04 96.81L253.63 97.17L255.2 97.59L256.74 98.07L258.26 98.61L259.75 99.21L261.21 99.86L262.64 100.57L264.04 101.33L265.41 102.14L266.74 103L268.03 103.92L269.29 104.88L270.51 105.88L271.69 106.93L272.83 108.03L273.92 109.17L274.97 110.35L275.98 111.57L276.94 112.82L277.85 114.12L278.71 115.45L279.53 116.81L280.29 118.21L280.99 119.64L281.65 121.1L282.24 122.59L282.78 124.11L283.27 125.66L283.69 127.22L284.05 128.82L284.34 130.43L284.58 132.07L284.75 133.73L284.85 135.4L284.88 137.1L284.87 138.07L284.84 139.03L284.78 139.99L284.71 140.95L284.61 141.9L284.49 142.84L284.34 143.78L284.18 144.72L284 145.65L283.79 146.57L283.56 147.48L283.32 148.39L283.05 149.29L282.76 150.18L282.45 151.07L282.13 151.94L281.78 152.81L281.41 153.67L281.02 154.52L280.62 155.36L280.19 156.19L279.75 157.01L279.29 157.82L278.8 158.62L278.3 159.41L277.79 160.19L277.25 160.95L276.69 161.71L276.12 162.45L275.53 163.18L274.92 163.9L274.3 164.6L273.66 165.29L273 165.97L272.32 166.63L271.63 167.28L270.92 167.92L270.2 168.54L269.45 169.14L268.7 169.73L269.45 170.32L270.2 170.93L270.92 171.55L271.63 172.18L272.32 172.83L273 173.5L273.66 174.18L274.3 174.87L274.92 175.57L275.53 176.29L276.12 177.02L276.69 177.76L277.25 178.51L277.79 179.28L278.3 180.06L278.8 180.85L279.29 181.65L279.75 182.46L280.19 183.28L280.62 184.11L281.02 184.95L281.41 185.8L281.78 186.66L282.13 187.52L282.45 188.4L282.76 189.28L283.05 190.18L283.32 191.08L283.56 191.98L283.79 192.9L284 193.82L284.18 194.75L284.34 195.68L284.49 196.62L284.61 197.57L284.71 198.52L284.78 199.47L284.84 200.44L284.87 201.4L284.88 202.37L284.85 204.06L284.75 205.74L284.58 207.4L284.34 209.03L284.05 210.65L283.69 212.24L283.27 213.81L282.78 215.35L282.24 216.87L281.65 218.36L280.99 219.82L280.29 221.25L279.53 222.65L278.71 224.02L277.85 225.35L276.94 226.64L275.98 227.9L274.97 229.12L273.92 230.3L272.83 231.44L271.69 232.53L270.51 233.58L269.29 234.59L268.03 235.55L266.74 236.46L265.41 237.32L264.04 238.14L262.64 238.9L261.21 239.6L259.75 240.26L258.26 240.85L256.74 241.39L255.2 241.88L253.63 242.3L252.04 242.66L250.42 242.96L248.78 243.19L247.13 243.36L245.45 243.46L243.76 243.49L239.14 243.49L239.14 260.47L230.65 260.47L230.65 243.49L220.75 243.49L220.75 260.47L212.26 260.47L212.26 243.49L192.89 243.49L192.89 226.52L203.77 226.52L203.77 178.22L192.89 178.22L192.89 161.25L203.77 161.25L203.77 112.95L192.89 112.95L192.89 95.97L212.26 95.97L212.26 79L220.75 79L220.75 95.97L230.65 95.97ZM220.75 226.52L243.76 226.52L244.93 226.49L246.08 226.41L247.22 226.27L248.34 226.08L249.45 225.84L250.53 225.55L251.6 225.22L252.64 224.83L253.66 224.4L254.65 223.92L255.62 223.4L256.57 222.84L257.48 222.24L258.36 221.59L259.22 220.91L260.04 220.19L260.83 219.44L261.58 218.65L262.3 217.83L262.98 216.97L263.63 216.09L264.23 215.17L264.79 214.23L265.31 213.26L265.79 212.27L266.22 211.25L266.61 210.21L266.95 209.14L267.24 208.06L267.48 206.95L267.66 205.83L267.8 204.69L267.88 203.54L267.91 202.37L267.88 201.2L267.8 200.05L267.66 198.91L267.48 197.79L267.24 196.68L266.95 195.6L266.61 194.53L266.22 193.49L265.79 192.47L265.31 191.48L264.79 190.51L264.23 189.57L263.63 188.65L262.98 187.77L262.3 186.91L261.58 186.09L260.83 185.3L260.04 184.55L259.22 183.83L258.36 183.15L257.48 182.51L256.57 181.9L255.62 181.34L254.65 180.82L253.66 180.34L252.64 179.91L251.6 179.52L250.53 179.19L249.45 178.9L248.34 178.66L247.22 178.47L246.08 178.33L244.93 178.25L243.76 178.22L220.75 178.22L220.75 226.52ZM220.75 161.25L243.76 161.25L244.93 161.22L246.08 161.14L247.22 161L248.34 160.81L249.45 160.57L250.53 160.28L251.6 159.94L252.64 159.56L253.66 159.12L254.65 158.65L255.62 158.13L256.57 157.56L257.48 156.96L258.36 156.32L259.22 155.64L260.04 154.92L260.83 154.16L261.58 153.38L262.3 152.55L262.98 151.7L263.63 150.81L264.23 149.9L264.79 148.96L265.31 147.99L265.79 146.99L266.22 145.97L266.61 144.93L266.95 143.87L267.24 142.78L267.48 141.68L267.66 140.56L267.8 139.42L267.88 138.26L267.91 137.1L267.88 135.93L267.8 134.77L267.66 133.63L267.48 132.51L267.24 131.41L266.95 130.32L266.61 129.26L266.22 128.22L265.79 127.2L265.31 126.2L264.79 125.23L264.23 124.29L263.63 123.38L262.98 122.49L262.3 121.64L261.58 120.82L260.83 120.03L260.04 119.27L259.22 118.55L258.36 117.87L257.48 117.23L256.57 116.63L255.62 116.06L254.65 115.54L253.66 115.07L252.64 114.64L251.6 114.25L250.53 113.91L249.45 113.62L248.34 113.38L247.22 113.19L246.08 113.06L244.93 112.97L243.76 112.95L220.75 112.95L220.75 161.25Z" id="gA08KzdOG"></path><path d="M435.03 84.11C360.03 84.11 299.24 144.91 299.24 219.9C299.24 294.9 360.03 355.69 435.03 355.69C510.02 355.69 570.82 294.9 570.82 219.9C570.82 144.91 510.02 84.11 435.03 84.11Z" id="fkuocJsbY"></path><path d="M435.08 335.79C399.34 335.79 367.36 319.6 346.14 294.18C362.99 278.33 497.75 151.48 514.59 135.62C536.97 156.73 550.95 186.68 550.95 219.92C550.95 283.9 499.06 335.79 435.08 335.79Z" id="afpbyUj8W"></path><path d="M346.14 294.18C329.31 274.09 319.21 248.2 319.21 219.92C319.21 155.9 371.06 104.05 435.08 104.05C465.82 104.05 493.81 116.03 514.59 135.62C480.9 167.33 362.99 278.33 346.14 294.18Z" id="a3gmTA2VHc"></path><path d="M428.47 160.89L428.47 147.31L435.26 147.31L435.26 160.89L438.96 160.89L440.31 160.92L441.65 161L442.98 161.14L444.29 161.32L445.58 161.56L446.86 161.85L448.11 162.19L449.35 162.57L450.56 163L451.75 163.48L452.92 164L454.07 164.57L455.18 165.18L456.28 165.83L457.34 166.52L458.38 167.25L459.38 168.02L460.36 168.82L461.3 169.66L462.21 170.54L463.09 171.45L463.93 172.39L464.74 173.37L465.5 174.37L466.23 175.41L466.92 176.48L467.57 177.57L468.18 178.69L468.75 179.83L469.27 181L469.75 182.19L470.18 183.4L470.56 184.64L470.9 185.9L471.19 187.17L471.43 188.46L471.61 189.77L471.75 191.1L471.83 192.44L471.86 193.79L471.85 194.57L471.82 195.34L471.78 196.11L471.72 196.87L471.64 197.63L471.54 198.39L471.43 199.14L471.3 199.89L471.15 200.63L470.98 201.37L470.8 202.1L470.61 202.83L470.39 203.55L470.16 204.26L469.91 204.97L469.65 205.67L469.37 206.36L469.08 207.05L468.77 207.73L468.45 208.4L468.11 209.07L467.75 209.72L467.38 210.37L466.99 211.01L466.59 211.64L466.18 212.26L465.75 212.88L465.31 213.48L464.85 214.07L464.38 214.66L463.89 215.23L463.39 215.8L462.88 216.35L462.35 216.89L461.81 217.42L461.26 217.94L460.69 218.45L460.11 218.95L459.51 219.43L458.91 219.9L459.51 220.37L460.11 220.86L460.69 221.36L461.26 221.86L461.81 222.38L462.35 222.91L462.88 223.46L463.39 224.01L463.89 224.57L464.38 225.15L464.85 225.73L465.31 226.32L465.75 226.93L466.18 227.54L466.59 228.16L466.99 228.79L467.38 229.43L467.75 230.08L468.11 230.74L468.45 231.4L468.77 232.07L469.08 232.75L469.37 233.44L469.65 234.13L469.91 234.83L470.16 235.54L470.39 236.26L470.61 236.98L470.8 237.7L470.98 238.43L471.15 239.17L471.3 239.91L471.43 240.66L471.54 241.41L471.64 242.17L471.72 242.93L471.78 243.7L471.82 244.46L471.85 245.24L471.86 246.01L471.83 247.37L471.75 248.71L471.61 250.03L471.43 251.34L471.19 252.63L470.9 253.91L470.56 255.16L470.18 256.4L469.75 257.61L469.27 258.81L468.75 259.97L468.18 261.12L467.57 262.24L466.92 263.33L466.23 264.39L465.5 265.43L464.73 266.44L463.93 267.41L463.09 268.35L462.21 269.26L461.3 270.14L460.36 270.98L459.38 271.79L458.38 272.56L457.34 273.29L456.28 273.98L455.18 274.63L454.07 275.23L452.92 275.8L451.75 276.32L450.56 276.8L449.35 277.23L448.11 277.62L446.86 277.95L445.58 278.24L444.29 278.48L442.98 278.67L441.65 278.8L440.31 278.88L438.96 278.91L435.26 278.91L435.26 292.49L428.47 292.49L428.47 278.91L420.55 278.91L420.55 292.49L413.76 292.49L413.76 278.91L398.26 278.91L398.26 265.33L406.97 265.33L406.97 226.69L398.26 226.69L398.26 213.11L406.97 213.11L406.97 174.47L398.26 174.47L398.26 160.89L413.76 160.89L413.76 147.31L420.55 147.31L420.55 160.89L428.47 160.89ZM420.55 265.33L438.96 265.33L440.13 265.3L441.29 265.19L442.43 265.02L443.54 264.78L444.63 264.48L445.69 264.12L446.73 263.7L447.73 263.22L448.7 262.69L449.64 262.1L450.54 261.47L451.4 260.78L452.22 260.05L453 259.27L453.73 258.45L454.42 257.59L455.05 256.69L455.64 255.76L456.17 254.78L456.65 253.78L457.07 252.75L457.43 251.68L457.73 250.59L457.97 249.48L458.14 248.34L458.24 247.19L458.28 246.01L458.24 244.84L458.14 243.68L457.97 242.54L457.73 241.43L457.43 240.34L457.07 239.28L456.65 238.24L456.17 237.24L455.64 236.27L455.05 235.33L454.42 234.43L453.73 233.57L453 232.75L452.22 231.97L451.4 231.24L450.54 230.56L449.64 229.92L448.7 229.33L447.73 228.8L446.73 228.32L445.69 227.9L444.63 227.54L443.54 227.24L442.43 227L441.29 226.83L440.13 226.73L438.96 226.69L420.55 226.69L420.55 265.33ZM420.55 213.11L438.96 213.11L440.13 213.08L441.29 212.97L442.43 212.8L443.54 212.56L444.63 212.26L445.69 211.9L446.73 211.48L447.73 211L448.7 210.47L449.64 209.89L450.54 209.25L451.4 208.56L452.22 207.83L453 207.05L453.73 206.23L454.42 205.37L455.05 204.47L455.64 203.54L456.17 202.56L456.65 201.56L457.07 200.53L457.43 199.46L457.73 198.37L457.97 197.26L458.14 196.12L458.24 194.97L458.28 193.79L458.24 192.62L458.14 191.46L457.97 190.32L457.73 189.21L457.43 188.12L457.07 187.06L456.65 186.02L456.17 185.02L455.64 184.05L455.05 183.11L454.42 182.21L453.73 181.35L453 180.53L452.22 179.75L451.4 179.02L450.54 178.34L449.64 177.7L448.7 177.11L447.73 176.58L446.73 176.1L445.69 175.68L444.63 175.32L443.54 175.02L442.43 174.78L441.29 174.61L440.13 174.51L438.96 174.47L420.55 174.47L420.55 213.11Z" id="b2rnIBW9TA"></path><path d="M638.25 618.05C638.25 630.2 626.59 640 612.14 640C556.32 640 109.78 640 53.96 640C25.16 640 1.75 620.39 1.75 596.1C1.75 569.91 1.75 438.96 1.75 203.24C2.12 203.29 2.32 203.31 2.36 203.31C6.01 225.12 28.38 241.94 55.44 241.94C111.11 241.94 556.47 241.94 612.14 241.94C626.59 241.94 638.25 251.82 638.25 263.89C638.25 334.72 638.25 582.64 638.25 618.05Z" id="b2mmcLQNfY"></path><path d="M499.19 492.47L461.36 440.97L499.19 389.48L638.25 389.48L638.25 492.47L499.19 492.47Z" id="gREPeylkx"></path><path d="M538.79 411.3C522.39 411.3 509.09 424.6 509.09 441C509.09 457.41 522.39 470.71 538.79 470.71C555.2 470.71 568.5 457.41 568.5 441C568.5 424.6 555.2 411.3 538.79 411.3Z" id="b2xdan5TA7"></path></defs><g><g><g><use xlink:href="#a1hW8XjMAi" opacity="1" fill="#3a556a" fill-opacity="1"></use><g><use xlink:href="#a1hW8XjMAi" opacity="1" fill-opacity="0" stroke="#000000" stroke-width="1" stroke-opacity="0"></use></g></g><g><use xlink:href="#c176d0oo4F" opacity="1" fill="#ffb125" fill-opacity="1"></use><g><use xlink:href="#c176d0oo4F" opacity="1" fill-opacity="0" stroke="#000000" stroke-width="1" stroke-opacity="0"></use></g></g><g><use xlink:href="#ii5oSSOoN" opacity="1" fill="#fee570" fill-opacity="1"></use><g><use xlink:href="#ii5oSSOoN" opacity="1" fill-opacity="0" stroke="#000000" stroke-width="1" stroke-opacity="0"></use></g></g><g><use xlink:href="#b23Ro3SJyJ" opacity="1" fill="#ce412d" fill-opacity="1"></use><g><use xlink:href="#b23Ro3SJyJ" opacity="1" fill-opacity="0" stroke="#000000" stroke-width="1" stroke-opacity="0"></use></g></g><g><use xlink:href="#gA08KzdOG" opacity="1" fill="#ffb125" fill-opacity="1"></use><g><use xlink:href="#gA08KzdOG" opacity="1" fill-opacity="0" stroke="#000000" stroke-width="1" stroke-opacity="0"></use></g></g><g><use xlink:href="#fkuocJsbY" opacity="1" fill="#ffb125" fill-opacity="1"></use><g><use xlink:href="#fkuocJsbY" opacity="1" fill-opacity="0" stroke="#000000" stroke-width="1" stroke-opacity="0"></use></g></g><g><use xlink:href="#afpbyUj8W" opacity="1" fill="#fee570" fill-opacity="1"></use><g><use xlink:href="#afpbyUj8W" opacity="1" fill-opacity="0" stroke="#000000" stroke-width="1" stroke-opacity="0"></use></g></g><g><use xlink:href="#a3gmTA2VHc" opacity="1" fill="#fee570" fill-opacity="1"></use><g><use xlink:href="#a3gmTA2VHc" opacity="1" fill-opacity="0" stroke="#000000" stroke-width="1" stroke-opacity="0"></use></g></g><g><use xlink:href="#b2rnIBW9TA" opacity="1" fill="#ffb125" fill-opacity="1"></use><g><use xlink:href="#b2rnIBW9TA" opacity="1" fill-opacity="0" stroke="#000000" stroke-width="1" stroke-opacity="0"></use></g></g><g><use xlink:href="#b2mmcLQNfY" opacity="1" fill="#1b70e0" fill-opacity="1"></use><g><use xlink:href="#b2mmcLQNfY" opacity="1" fill-opacity="0" stroke="#000000" stroke-width="1" stroke-opacity="0"></use></g></g><g><use xlink:href="#gREPeylkx" opacity="1" fill="#415e72" fill-opacity="1"></use><g><use xlink:href="#gREPeylkx" opacity="1" fill-opacity="0" stroke="#000000" stroke-width="1" stroke-opacity="0"></use></g></g><g><use xlink:href="#b2xdan5TA7" opacity="1" fill="#ffffff" fill-opacity="1"></use><g><use xlink:href="#b2xdan5TA7" opacity="1" fill-opacity="0" stroke="#000000" stroke-width="1" stroke-opacity="0"></use></g></g></g></g></svg>