<svg width="490.667" height="490.667" xmlns="http://www.w3.org/2000/svg">

 <g>
  <title>background</title>
  <rect fill="none" id="canvas_background" height="402" width="582" y="-1" x="-1"/>
 </g>
 <g>
  <title>Layer 1</title>
  <g id="svg_1">
   <g id="svg_2">
    <g id="svg_3">
     <path id="svg_4" d="m274.209499,173.660694c-4.237,-4.093 -10.99,-3.976 -15.083,0.262c-3.993,4.134 -3.993,10.687 0,14.821l45.792,45.792l-144.917,0c-5.891,0 -10.667,4.776 -10.667,10.667c0,5.891 4.776,10.667 10.667,10.667l144.917,0l-45.792,45.792c-4.237,4.093 -4.354,10.845 -0.262,15.083s10.845,4.354 15.083,0.262c0.089,-0.086 0.176,-0.173 0.262,-0.262l64,-64c4.164,-4.165 4.164,-10.917 0,-15.083l-64,-64.001z"/>
    </g>
   </g>
  </g>
  <g id="svg_5"/>
  <g id="svg_6"/>
  <g id="svg_7"/>
  <g id="svg_8"/>
  <g id="svg_9"/>
  <g id="svg_10"/>
  <g id="svg_11"/>
  <g id="svg_12"/>
  <g id="svg_13"/>
  <g id="svg_14"/>
  <g id="svg_15"/>
  <g id="svg_16"/>
  <g id="svg_17"/>
  <g id="svg_18"/>
  <g id="svg_19"/>
 </g>
</svg>