<svg xmlns="http://www.w3.org/2000/svg" width="128" height="128" viewBox="0 0 128 128" version="1.1">
	<path d="M 39.035 19.934 C 38.466 20.998, 38 22.304, 38 22.835 C 38 24.181, 44.946 28.151, 46.077 27.453 C 46.585 27.139, 47 27.629, 47 28.541 C 47 29.453, 48.515 31.715, 50.367 33.567 C 52.218 35.418, 53.562 37.104, 53.354 37.313 C 52.661 38.006, 56.008 45, 57.032 45 C 57.592 45, 57.773 46.055, 57.441 47.378 C 57.032 49.009, 57.840 51.518, 60.018 55.378 C 63.432 61.427, 64.580 62.446, 63.605 58.561 C 63.268 57.220, 63.413 55.863, 63.927 55.545 C 65.439 54.610, 65.890 56.304, 65.120 60.025 C 64.469 63.174, 66.339 68.994, 68 68.984 C 68.275 68.983, 70.722 64.917, 73.439 59.950 C 76.155 54.983, 79.853 49.195, 81.656 47.089 C 87.690 40.040, 96.522 37.874, 101.393 42.250 C 105.812 46.220, 105.310 49.241, 98.912 57.184 L 93.823 63.500 94.493 72.593 L 95.163 81.685 92.005 84.343 C 87.419 88.201, 82.207 87.991, 77.339 83.750 C 75.287 81.963, 73.923 81.022, 74.307 81.660 C 75.435 83.531, 73.938 86.190, 72.144 85.502 C 69.692 84.561, 75.058 89.960, 78.200 91.595 C 81.896 93.518, 88.784 93.357, 92.980 91.248 C 100.032 87.705, 102.505 80.190, 100.070 69.701 C 99.230 66.080, 99.417 65.640, 104.052 60.343 C 110.055 53.484, 111.667 49.169, 110.137 44.062 C 108.006 36.951, 102.633 34.342, 94.618 36.526 C 92.512 37.100, 92.511 37.094, 94.500 35.434 C 96.411 33.839, 96.299 33.794, 92 34.434 C 86.030 35.322, 79.869 39.054, 76.252 43.972 C 72.857 48.589, 71.206 48.349, 74.068 43.656 C 75.127 41.920, 75.994 39.699, 75.996 38.719 C 75.998 37.740, 77.575 35.556, 79.500 33.866 C 81.425 32.176, 83 30.221, 83 29.521 C 83 28.822, 84.237 27.974, 85.750 27.637 C 90.252 26.634, 92.334 24.468, 91.602 21.551 C 91.173 19.841, 90.277 19, 88.885 19 C 86.155 19, 81 22.083, 81 23.716 C 81 24.422, 80.372 25, 79.604 25 C 77.871 25, 71.765 31.811, 72.472 32.955 C 72.756 33.415, 72.296 34.056, 71.449 34.381 C 69.603 35.090, 66.669 41.694, 67.378 43.544 C 67.655 44.264, 67.233 45.392, 66.441 46.049 C 65.648 46.707, 64.971 47.977, 64.937 48.872 C 64.892 50.025, 64.620 49.873, 64.007 48.352 C 63.530 47.171, 62.719 45.944, 62.204 45.626 C 61.689 45.308, 61.474 43.970, 61.726 42.652 C 62.218 40.080, 59.581 34, 57.974 34 C 57.438 34, 57 33.237, 57 32.305 C 57 30.275, 52.171 25, 50.313 25 C 49.591 25, 49 24.362, 49 23.582 C 49 22.145, 43.183 18, 41.167 18 C 40.564 18, 39.605 18.870, 39.035 19.934 M 40.691 21.364 C 40.410 22.095, 41.430 23.413, 42.988 24.334 C 45.430 25.776, 45.864 25.798, 46.361 24.502 C 46.729 23.542, 45.916 22.491, 44.063 21.533 C 41.737 20.330, 41.100 20.298, 40.691 21.364 M 85.538 22.348 C 83.004 24.202, 84.390 26.398, 87.046 24.739 C 88.979 23.532, 89.754 21, 88.191 21 C 87.746 21, 86.553 21.607, 85.538 22.348 M 50.109 28.368 C 49.277 29.371, 49.501 30.144, 51.027 31.525 C 53.789 34.024, 55.422 32.190, 53.035 29.270 C 51.557 27.463, 51.003 27.292, 50.109 28.368 M 76.590 29.901 C 75.390 31.226, 75.211 32.012, 75.998 32.499 C 77.325 33.319, 81.200 30.133, 80.417 28.866 C 79.588 27.525, 78.466 27.828, 76.590 29.901 M 23.750 37.080 C 21.146 38.597, 18.999 43.402, 19.005 47.700 C 19.011 51.792, 20.345 54.277, 26.362 61.404 L 30.224 65.979 29.255 72.716 C 28.172 80.245, 28.953 84.499, 32.022 87.793 C 35.663 91.702, 39.891 93.257, 45.591 92.784 C 52.290 92.228, 56.620 89.033, 61.452 81.080 L 65.058 75.143 63.156 72.016 L 61.254 68.888 58.206 74.289 C 53.591 82.466, 48.910 87, 45.082 87 C 37.441 87, 32.445 81.311, 34.042 74.426 C 35.943 66.228, 35.357 63.702, 30 57 C 24.566 50.202, 23.764 46.748, 26.760 43.048 C 29.152 40.094, 35.441 39.339, 40.536 41.392 C 44.176 42.860, 44.336 42.859, 42.500 41.386 C 36.785 36.802, 27.779 34.733, 23.750 37.080 M 56.607 37.826 C 55.721 39.261, 57.173 43, 58.617 43 C 60.153 43, 60.248 42.526, 59.370 39.250 C 58.757 36.962, 57.532 36.331, 56.607 37.826 M 70.468 39.101 C 69.470 42.245, 71.707 43.953, 72.852 40.920 C 73.354 39.589, 73.566 38.163, 73.324 37.750 C 72.499 36.349, 71.137 36.993, 70.468 39.101 M 59.370 50.250 C 59.701 51.487, 59.979 52.837, 59.986 53.250 C 59.994 53.663, 60.675 54, 61.500 54 C 63.154 54, 63.256 53.559, 62.370 50.250 C 62.038 49.013, 61.092 48, 60.267 48 C 59.199 48, 58.941 48.649, 59.370 50.250 M 67.362 49.500 C 67.045 50.325, 67.083 51.775, 67.447 52.722 C 68.013 54.197, 68.241 54.233, 69.038 52.972 C 70.290 50.994, 70.248 48, 68.969 48 C 68.401 48, 67.678 48.675, 67.362 49.500 M 22.966 102.559 C 19.942 107.845, 19.574 109.999, 21.948 108.532 C 22.542 108.165, 23.931 106.095, 25.035 103.932 C 26.138 101.769, 27.594 100.036, 28.270 100.079 C 29.222 100.140, 29.217 100.272, 28.250 100.662 C 26.766 101.261, 26.561 104, 28 104 C 28.550 104, 29.002 103.438, 29.004 102.750 C 29.006 102.063, 29.958 103.075, 31.119 105 C 33.786 109.420, 33.678 109.317, 34.870 108.580 C 36.378 107.648, 29.934 97, 27.863 97 C 26.829 97, 24.883 99.209, 22.966 102.559 M 35.694 97.639 C 34.604 98.730, 36.012 100, 38.309 99.999 C 40.213 99.998, 40.500 100.543, 40.500 104.157 C 40.500 106.591, 41.019 108.492, 41.750 108.741 C 42.628 109.040, 43 107.824, 43 104.653 C 43 100.785, 43.311 100.093, 45.172 99.820 C 46.366 99.644, 47.529 98.938, 47.755 98.250 C 48.053 97.344, 46.536 97, 42.250 97 C 38.996 97, 36.046 97.288, 35.694 97.639 M 50 103 C 50 106.333, 50.444 109, 51 109 C 51.556 109, 52 106.333, 52 103 C 52 99.667, 51.556 97, 51 97 C 50.444 97, 50 99.667, 50 103 M 54.202 103.170 L 54.500 109.340 60.454 109.251 C 67.065 109.151, 69 107.709, 69 102.880 C 69 98.515, 66.651 97, 59.881 97 L 53.905 97 54.202 103.170 M 70.406 98.386 C 69.476 100.808, 70.451 108.328, 71.750 108.756 C 72.658 109.054, 73 107.503, 73 103.083 C 73 97.413, 71.689 95.040, 70.406 98.386 M 75 101.800 C 75 107.776, 76.190 109, 82 109 C 84.530 109, 87.140 108.460, 87.800 107.800 C 89.461 106.139, 89.416 96.697, 87.750 97.244 C 87.063 97.470, 86.362 99.533, 86.193 101.828 L 85.885 106 81.443 106 L 77 106 77 101.500 C 77 99.025, 76.550 97, 76 97 C 75.450 97, 75 99.160, 75 101.800 M 90 103.083 C 90 107.510, 90.340 109.051, 91.250 108.741 C 91.981 108.492, 92.500 106.591, 92.500 104.157 C 92.500 101.869, 92.731 99.998, 93.014 99.999 C 93.297 99.999, 94.640 101.800, 96 104 C 97.360 106.200, 98.810 108, 99.224 108 C 99.637 108, 101.218 106.088, 102.737 103.750 L 105.500 99.500 105.807 104.314 C 106.244 111.145, 108.500 109.973, 108.500 102.917 C 108.500 98.117, 108.252 97.465, 106.327 97.190 C 104.758 96.967, 103.459 97.903, 101.659 100.552 L 99.164 104.223 96.832 100.624 C 95.301 98.261, 93.727 97.021, 92.250 97.012 C 90.162 97.001, 90 97.438, 90 103.083 M 56.187 103.250 C 56.489 106.389, 56.654 106.500, 61 106.500 C 65.346 106.500, 65.511 106.389, 65.813 103.250 L 66.127 100 61 100 L 55.873 100 56.187 103.250 " stroke="none" fill="black" fill-rule="evenodd"/>
</svg>