<svg xmlns="http://www.w3.org/2000/svg" width="128" height="128" viewBox="0 0 128 128" version="1.1">
	<path d="M 16 63.500 L 16 116 44 116 C 59.400 116, 72 115.614, 72 115.142 C 72 114.670, 69.412 112.678, 66.250 110.715 C 63.087 108.752, 58.494 105.088, 56.042 102.573 L 51.584 98 42.792 98 L 34 98 34 63.500 L 34 29 42.712 29 L 51.424 29 55.462 25.124 C 59.733 21.024, 69.615 14, 71.112 14 C 71.600 14, 72 13.325, 72 12.500 C 72 11.202, 68.222 11, 44 11 L 16 11 16 63.500 M 82.161 13.032 C 50.097 21.431, 33.486 56.089, 47.394 85.569 C 51.956 95.237, 60.898 104.648, 70.135 109.502 C 80.295 114.840, 85.560 115.974, 100.250 115.988 L 113 116 113 94.500 L 113 73 89 73 C 75.800 73, 65 73.243, 65 73.540 C 65 75.041, 69.224 81.970, 72.290 85.500 L 75.764 89.500 85.132 90 L 94.500 90.500 94.810 94.250 C 95.119 97.982, 95.102 98, 91.310 97.999 C 81.363 97.997, 67.061 87.088, 63.047 76.441 C 56.626 59.408, 63.723 41.260, 80.037 32.992 C 83.082 31.449, 87.694 29.868, 90.287 29.480 L 95 28.773 95 32.886 L 95 37 86.137 37 L 77.274 37 72.577 42.021 C 68.655 46.214, 65 52.227, 65 54.486 C 65 54.789, 75.688 54.916, 88.750 54.768 L 112.500 54.500 112.770 32.750 L 113.039 11 101.270 11.055 C 93.022 11.094, 87.304 11.685, 82.161 13.032 M 18 63.500 L 18 114 42.200 114 C 55.510 114, 65.972 113.639, 65.450 113.197 C 64.927 112.756, 61.951 110.481, 58.836 108.142 C 55.720 105.803, 52.922 103.239, 52.617 102.445 C 52.185 101.318, 49.854 101, 42.031 101 L 32 101 32 64 L 32 27 41.326 27 C 50.128 27, 50.787 26.852, 53.076 24.358 C 54.409 22.905, 58.137 19.755, 61.360 17.358 L 67.220 13 42.610 13 L 18 13 18 63.500 M 87.777 14.083 C 77.080 15.650, 64.032 22.645, 57.422 30.355 C 48.974 40.210, 45 50.813, 45 63.500 C 45 85.250, 57.525 103.004, 78.500 110.984 C 83.268 112.798, 87.220 113.369, 97.750 113.764 L 111 114.261 111 94.630 L 111 75 89.443 75 L 67.887 75 69.693 78.071 C 70.687 79.759, 72.911 82.684, 74.635 84.571 L 77.770 88 87.385 88 L 97 88 97 94.594 L 97 101.188 91.750 100.514 C 84.720 99.611, 75.128 95.081, 69.750 90.124 C 58.167 79.447, 55.034 61.890, 62.105 47.283 C 66.917 37.343, 80.114 28.253, 91.194 27.249 L 97 26.722 97 32.861 L 97 39 87.816 39 L 78.632 39 73.816 43.997 C 66.017 52.088, 65.838 52, 90 52 L 111 52 111 32.500 L 111 13 102.250 13.122 C 97.438 13.189, 90.925 13.621, 87.777 14.083 " stroke="none" fill="black" fill-rule="evenodd"/>
</svg>