<svg xmlns="http://www.w3.org/2000/svg" width="128" height="128" viewBox="0 0 128 128" version="1.1">
	<path d="M 0 64.007 L 0 128.015 64.250 127.757 L 128.500 127.500 128.757 63.750 L 129.015 0 64.507 0 L 0 0 0 64.007 M 0.471 64.500 C 0.471 99.700, 0.597 113.955, 0.750 96.178 C 0.903 78.400, 0.903 49.600, 0.749 32.178 C 0.596 14.755, 0.471 29.300, 0.471 64.500 M 63 25 C 63 25.550, 63.477 26, 64.059 26 C 64.641 26, 64.840 25.550, 64.500 25 C 64.160 24.450, 63.684 24, 63.441 24 C 63.198 24, 63 24.450, 63 25 M 67 36.941 C 67 37.459, 67.445 38.157, 67.989 38.493 C 68.555 38.843, 68.723 38.442, 68.382 37.552 C 67.717 35.820, 67 35.503, 67 36.941 M 6 66 L 6 93 10.500 93 C 12.975 93, 15 92.550, 15 92 C 15 91.450, 13.192 91, 10.983 91 L 6.966 91 7.233 65.750 L 7.500 40.500 14 39.923 L 20.500 39.345 13.250 39.173 L 6 39 6 66 M 22.762 39.707 C 24.006 39.946, 25.806 39.937, 26.762 39.687 C 27.718 39.437, 26.700 39.241, 24.500 39.252 C 22.300 39.263, 21.518 39.468, 22.762 39.707 M 30.762 39.707 C 32.006 39.946, 33.806 39.937, 34.762 39.687 C 35.718 39.437, 34.700 39.241, 32.500 39.252 C 30.300 39.263, 29.518 39.468, 30.762 39.707 M 38.762 39.707 C 40.006 39.946, 41.806 39.937, 42.762 39.687 C 43.718 39.437, 42.700 39.241, 40.500 39.252 C 38.300 39.263, 37.518 39.468, 38.762 39.707 M 46.762 39.707 C 48.006 39.946, 49.806 39.937, 50.762 39.687 C 51.718 39.437, 50.700 39.241, 48.500 39.252 C 46.300 39.263, 45.518 39.468, 46.762 39.707 M 77.762 39.707 C 79.006 39.946, 80.806 39.937, 81.762 39.687 C 82.718 39.437, 81.700 39.241, 79.500 39.252 C 77.300 39.263, 76.518 39.468, 77.762 39.707 M 85.762 39.707 C 87.006 39.946, 88.806 39.937, 89.762 39.687 C 90.718 39.437, 89.700 39.241, 87.500 39.252 C 85.300 39.263, 84.518 39.468, 85.762 39.707 M 93.250 39.689 C 94.213 39.941, 95.787 39.941, 96.750 39.689 C 97.713 39.438, 96.925 39.232, 95 39.232 C 93.075 39.232, 92.287 39.438, 93.250 39.689 M 101.250 39.689 C 102.213 39.941, 103.787 39.941, 104.750 39.689 C 105.713 39.438, 104.925 39.232, 103 39.232 C 101.075 39.232, 100.287 39.438, 101.250 39.689 M 113.750 39.740 L 120 40.095 120 65.548 L 120 91 110 91 C 104 91, 100 91.400, 100 92 C 100 92.606, 104.333 93, 111 93 L 122 93 122 66 L 122 39 114.750 39.193 L 107.500 39.385 113.750 39.740 M 70.098 41.619 C 70.696 42.339, 70.846 43.911, 70.438 45.194 C 69.817 47.153, 69.929 47.304, 71.216 46.236 C 73.021 44.737, 72.436 40.333, 70.431 40.333 C 69.404 40.333, 69.316 40.676, 70.098 41.619 M 55.667 41.667 C 54.304 43.030, 55.070 45.562, 57.250 46.901 C 59.481 48.272, 59.484 48.266, 57.629 46.179 C 56.600 45.021, 56.023 43.383, 56.347 42.537 C 56.979 40.892, 56.743 40.591, 55.667 41.667 M 61.427 45.586 C 61.848 46.639, 62.305 48.175, 62.442 49 C 62.757 50.898, 64.301 50.557, 64.600 48.523 C 64.723 47.680, 64.414 47.244, 63.912 47.554 C 63.410 47.864, 63 47.443, 63 46.618 C 63 45.793, 62.474 44.793, 61.830 44.395 C 61.008 43.887, 60.888 44.241, 61.427 45.586 M 64.500 45 C 64.160 45.550, 64.359 46, 64.941 46 C 65.523 46, 66 45.550, 66 45 C 66 44.450, 65.802 44, 65.559 44 C 65.316 44, 64.840 44.450, 64.500 45 M 19.750 55.080 C 17.740 56.251, 17.401 61.001, 19.200 62.800 C 20.610 64.210, 24.636 64.399, 25.442 63.093 C 25.751 62.595, 25.100 62.423, 23.996 62.711 C 21.549 63.351, 19 61.413, 19 58.913 C 19 56.661, 22.197 54.794, 24.678 55.598 C 26.196 56.090, 26.250 56.009, 25 55.110 C 23.147 53.777, 21.999 53.770, 19.750 55.080 M 92.571 55.571 C 90.706 57.436, 90.517 61.117, 92.200 62.800 C 94.676 65.276, 100 63.570, 100 60.300 C 100 59.585, 99.213 59.007, 98.250 59.015 C 96.866 59.027, 96.788 59.213, 97.878 59.904 C 99.599 60.993, 98.473 63, 96.141 63 C 92.048 63, 90.530 57.857, 94.064 55.966 C 95.596 55.146, 96.498 55.168, 97.564 56.053 C 98.420 56.764, 99 56.835, 99 56.229 C 99 55.252, 96.747 54, 94.990 54 C 94.524 54, 93.436 54.707, 92.571 55.571 M 30.216 59.500 C 30.204 63.068, 30.397 63.784, 30.891 62 C 31.306 60.499, 32.436 59.376, 33.719 59.190 C 35.393 58.947, 35.947 59.488, 36.278 61.690 C 36.510 63.235, 36.716 62.250, 36.734 59.500 C 36.753 56.750, 36.562 55.288, 36.311 56.250 C 36.039 57.291, 34.900 58, 33.500 58 C 32.100 58, 30.961 57.291, 30.689 56.250 C 30.438 55.288, 30.225 56.750, 30.216 59.500 M 43.025 58.951 C 41.835 61.284, 41.106 63.440, 41.407 63.740 C 41.707 64.040, 42.237 63.547, 42.583 62.643 C 42.930 61.739, 44.018 61, 45 61 C 45.982 61, 47.070 61.739, 47.417 62.643 C 47.763 63.547, 48.269 64.064, 48.541 63.792 C 48.813 63.520, 48.170 61.365, 47.113 59.003 L 45.190 54.708 43.025 58.951 M 53.175 59.250 C 53.015 63.592, 53.193 63.990, 55.250 63.884 C 56.856 63.801, 57.015 63.640, 55.804 63.321 C 54.638 63.014, 53.990 61.567, 53.729 58.687 L 53.349 54.500 53.175 59.250 M 61.175 59.250 C 61.006 63.837, 61.094 63.995, 63.750 63.864 C 66.025 63.751, 66.121 63.654, 64.304 63.301 C 62.542 62.959, 62.034 62.049, 61.729 58.688 L 61.349 54.500 61.175 59.250 M 69 59.500 C 69 63.771, 69.140 63.994, 71.750 63.884 C 73.442 63.813, 73.827 63.592, 72.750 63.311 C 71.787 63.059, 71 62.019, 71 61 C 71 59.981, 71.787 58.941, 72.750 58.689 C 74.417 58.254, 74.417 58.226, 72.750 58.116 C 71.787 58.052, 71 57.583, 71 57.073 C 71 56.564, 71.787 55.941, 72.750 55.689 C 73.827 55.408, 73.442 55.187, 71.750 55.116 C 69.140 55.006, 69 55.229, 69 59.500 M 79.132 59.554 C 79.248 63.929, 79.335 64.114, 79.882 61.159 L 80.500 57.818 82.924 60.409 C 86.276 63.991, 87.025 63.674, 86.840 58.750 C 86.694 54.870, 86.644 54.794, 86.267 57.876 L 85.855 61.251 82.427 57.930 L 79 54.608 79.132 59.554 M 104.193 59.250 C 104.462 62.975, 104.809 63.523, 107 63.685 C 108.444 63.791, 108.761 63.655, 107.750 63.361 C 106.787 63.082, 106 62.019, 106 61 C 106 59.981, 106.787 58.941, 107.750 58.689 C 109.417 58.254, 109.417 58.226, 107.750 58.116 C 106.787 58.052, 106 57.583, 106 57.073 C 106 56.564, 106.787 55.941, 107.750 55.689 C 108.804 55.414, 108.383 55.186, 106.693 55.116 C 103.993 55.004, 103.897 55.163, 104.193 59.250 M 44 59 C 44 59.550, 44.450 60, 45 60 C 45.550 60, 46 59.550, 46 59 C 46 58.450, 45.550 58, 45 58 C 44.450 58, 44 58.450, 44 59 M 17.661 76.648 C 17.305 80.417, 17.011 85.685, 17.007 88.356 L 17 93.212 24.988 92.849 C 32.407 92.512, 33.202 92.260, 36.154 89.307 C 38.811 86.651, 39.333 85.367, 39.333 81.500 C 39.333 77.637, 38.810 76.348, 36.167 73.705 C 33.288 70.826, 32.334 70.505, 25.654 70.168 L 18.308 69.797 17.661 76.648 M 47.631 70.789 C 46.784 72.159, 40 91.122, 40 92.119 C 40 92.604, 42.025 93, 44.500 93 C 47.833 93, 49 92.611, 49 91.500 C 49 90.497, 50.003 90, 52.031 90 C 53.803 90, 55.302 90.623, 55.638 91.500 C 56.031 92.523, 57.632 93, 60.674 93 C 64.470 93, 65.051 92.739, 64.573 91.250 C 64.263 90.287, 62.483 85.225, 60.617 80 L 57.223 70.500 52.702 70.199 C 50.216 70.033, 47.933 70.299, 47.631 70.789 M 66 81.500 L 66 93 70.500 93 C 74.976 93, 75 92.981, 75 89.500 C 75 86.212, 75.198 86, 78.277 86 C 83.495 86, 86.003 83.623, 85.985 78.693 C 85.959 71.680, 83.462 70, 73.066 70 L 66 70 66 81.500 M 89 81.500 L 89 93 93.500 93 C 97.976 93, 98 92.981, 98 89.500 C 98 86.212, 98.198 86, 101.277 86 C 106.495 86, 109.003 83.623, 108.985 78.693 C 108.959 71.680, 106.462 70, 96.066 70 L 89 70 89 81.500 M 75 78 C 75 79.922, 76.956 80.711, 78.325 79.342 C 79.082 78.585, 77.189 76, 75.878 76 C 75.395 76, 75 76.900, 75 78 M 98 77.917 C 98 79.145, 98.646 80, 99.573 80 C 100.505 80, 101.015 79.320, 100.823 78.333 C 100.337 75.824, 98 75.480, 98 77.917 M 26 81.500 C 26 86.357, 26.149 86.526, 29.066 84.965 C 32.372 83.196, 30.998 77, 27.300 77 C 26.426 77, 26 78.474, 26 81.500 M 51.585 80.825 C 50.785 83.249, 51.252 84.460, 52.752 83.854 C 53.235 83.659, 53.342 82.375, 52.991 81 L 52.353 78.500 51.585 80.825 " stroke="none" fill="black" fill-rule="evenodd"/>
</svg>