<svg xmlns="http://www.w3.org/2000/svg" width="196" height="196" viewBox="0 0 196 196" version="1.1">
	<path d="M 25.750 25.434 C 33.587 30.707, 40 35.251, 40 35.532 C 40 35.813, 43.615 63.277, 48.033 96.563 C 52.451 129.850, 55.855 157.425, 55.598 157.842 C 55.340 158.259, 45.676 162.166, 34.123 166.525 C 22.569 170.884, 13.229 174.563, 13.367 174.701 C 13.813 175.146, 88.167 170.086, 98.500 168.907 C 139.406 164.238, 168.997 145.476, 177.814 118.616 C 182.404 104.636, 183.084 87.136, 179.547 74.045 C 173.838 52.917, 156.712 36.381, 133.984 30.053 C 128.923 28.644, 109.504 26.201, 74 22.507 C 45.125 19.503, 19.250 16.776, 16.500 16.446 L 11.500 15.847 25.750 25.434 M 91.563 46.250 C 91.026 48.041, 83.050 120.384, 83.356 120.689 C 83.989 121.322, 94.349 113.556, 98.773 109.131 C 115.927 91.978, 116.172 68.565, 99.383 50.962 C 93.567 44.866, 92.221 44.054, 91.563 46.250 M 62.455 50.455 C 61.105 51.805, 60 54.075, 60 55.500 C 60 58.834, 64.166 63, 67.500 63 C 70.834 63, 75 58.834, 75 55.500 C 75 52.166, 70.834 48, 67.500 48 C 66.075 48, 63.805 49.105, 62.455 50.455 M 62.455 91.455 C 61.105 92.805, 60 95.075, 60 96.500 C 60 99.834, 64.166 104, 67.500 104 C 68.925 104, 71.195 102.895, 72.545 101.545 C 73.895 100.195, 75 97.925, 75 96.500 C 75 95.075, 73.895 92.805, 72.545 91.455 C 71.195 90.105, 68.925 89, 67.500 89 C 66.075 89, 63.805 90.105, 62.455 91.455 " stroke="none" fill="black" fill-rule="evenodd"/>
</svg>