<svg xmlns="http://www.w3.org/2000/svg" width="256" height="256" viewBox="0 0 256 256" version="1.1">
	<path d="M -0 128.004 L -0 256.008 128.250 255.754 L 256.500 255.500 256.754 127.750 L 257.008 0 128.504 0 L 0 0 -0 128.004 M 0.485 128.500 C 0.485 198.900, 0.604 227.553, 0.750 192.172 C 0.896 156.792, 0.896 99.192, 0.750 64.172 C 0.604 29.153, 0.485 58.100, 0.485 128.500 M 172.424 78.895 C 169.555 80.198, 167.809 81.883, 166.527 84.583 C 164.894 88.026, 164.850 88.827, 166.103 92.370 C 167.809 97.192, 170.965 99.653, 177.515 101.270 C 181.464 102.244, 182.566 102.967, 182.820 104.750 C 183.103 106.749, 182.710 107, 179.292 107 C 177.176 107, 174.555 106.376, 173.467 105.614 C 171.704 104.380, 171.130 104.528, 168.201 106.973 L 164.914 109.717 168.436 112.809 C 176.370 119.776, 188.802 117.505, 192.609 108.394 C 195.996 100.287, 191.062 94.297, 178.750 91.571 C 176.653 91.106, 176 90.373, 176 88.481 C 176 86.400, 176.476 86, 178.953 86 C 180.577 86, 183.073 86.532, 184.499 87.181 C 186.789 88.225, 187.392 88.062, 189.669 85.785 C 192.752 82.702, 192.196 81.447, 186.627 78.918 C 181.421 76.554, 177.592 76.548, 172.424 78.895 M 62 97.086 L 62 116.172 73.483 115.836 C 84.937 115.501, 84.975 115.491, 88.233 112.233 C 91.414 109.051, 91.509 108.709, 91.838 99.162 C 92.443 81.634, 89.088 78.010, 72.250 78.004 L 62 78 62 97.086 M 96 97 L 96 116 109.500 116 L 123 116 123 111.500 L 123 107 115 107 C 107.171 107, 107 106.947, 107 104.544 C 107 102.188, 107.298 102.076, 114.250 101.794 L 121.500 101.500 121.807 97.250 L 122.115 93 114.557 93 L 107 93 107 90 L 107 87 115 87 L 123 87 123 82.500 L 123 78 109.500 78 L 96 78 96 97 M 136.500 86.086 C 125.857 98.173, 123.968 104.097, 129.201 108.972 C 132.150 111.720, 137.911 111.663, 140.925 108.856 C 143.033 106.891, 143.183 106.870, 142.706 108.606 C 140.703 115.900, 140.726 116, 144.411 116 C 147.826 116, 147.851 115.967, 146.930 112.757 C 145.592 108.089, 145.741 107.705, 148.223 109.443 C 149.445 110.299, 152.066 111, 154.048 111 C 161.933 111, 164.695 102.020, 159.161 94.381 C 155.636 89.515, 145.012 77.976, 144.142 78.068 C 143.789 78.106, 140.350 81.714, 136.500 86.086 M 73 97 L 73 107 75.929 107 C 80.654 107, 82 104.782, 82 97 C 82 89.218, 80.654 87, 75.929 87 L 73 87 73 97 M 66.888 132.500 C 62.960 134.635, 61.742 138.727, 62.146 148.437 C 62.463 156.059, 62.777 157.232, 65.132 159.587 C 68.962 163.416, 75.373 163.941, 80 160.804 C 83.229 158.615, 83.523 157.989, 83.800 152.716 L 84.100 147 78.300 147.185 L 72.500 147.370 77.874 147.742 L 83.247 148.113 82.723 152.767 C 82.055 158.690, 79.423 161, 73.344 161 C 69.969 161, 68.323 160.414, 66.455 158.545 C 64.198 156.289, 64 155.336, 64 146.720 C 64 138.025, 64.180 137.180, 66.492 135.008 C 69.669 132.023, 76.957 131.746, 79.993 134.494 C 81.104 135.499, 82.258 136.075, 82.559 135.775 C 82.859 135.474, 81.896 134.277, 80.418 133.114 C 77.261 130.631, 70.861 130.340, 66.888 132.500 M 97.163 133.712 C 93.119 143.861, 87.087 161.420, 87.502 161.835 C 88.185 162.518, 88.371 162.202, 90.646 156.500 L 92.641 151.500 99.226 151.206 L 105.810 150.913 107.482 155.945 C 108.999 160.513, 111 163.498, 111 161.193 C 111 159.056, 100.282 131.594, 99.323 131.274 C 98.746 131.082, 97.774 132.179, 97.163 133.712 M 116 146.700 C 116 157.958, 116.306 162.094, 117.082 161.318 C 117.783 160.617, 118.047 155.637, 117.832 147.165 C 117.649 139.976, 117.756 134.411, 118.070 134.797 C 118.383 135.184, 120.599 140, 122.995 145.500 C 125.390 151, 127.921 156.133, 128.618 156.907 C 129.965 158.402, 130.241 157.896, 137.558 140.507 L 140.500 133.514 140.777 147.757 C 140.946 156.387, 141.448 162, 142.054 162 C 142.687 162, 142.951 156.420, 142.776 146.750 C 142.427 127.486, 141.570 127.116, 134.613 143.225 C 131.828 149.674, 129.257 154.624, 128.898 154.225 C 128.540 153.826, 126.318 149, 123.960 143.500 C 116.648 126.442, 116 126.703, 116 146.700 M 150 146.500 L 150 162 159.750 161.794 L 169.500 161.589 160.750 161.255 L 152 160.922 152 154.461 L 152 148 159.500 148 C 163.833 148, 167 147.578, 167 147 C 167 146.422, 163.833 146, 159.500 146 L 152 146 152 139.500 L 152 133 159.941 133 C 164.309 133, 168.160 132.550, 168.500 132 C 168.896 131.360, 165.677 131, 159.559 131 L 150 131 150 146.500 M 175.455 133.455 C 172.330 136.580, 172.242 140.957, 175.250 143.712 C 176.488 144.846, 180.008 146.489, 183.074 147.364 C 191.893 149.879, 194.209 153.882, 189.545 158.545 C 185.939 162.152, 177.396 161.621, 174.804 157.629 C 174.422 157.040, 173.795 156.872, 173.412 157.255 C 172.271 158.396, 174.915 160.817, 178.645 162.048 C 183.636 163.695, 188.407 162.493, 191.508 158.808 C 195.980 153.493, 193.079 148.074, 184.655 146.006 C 178.829 144.576, 175.572 142.733, 175.169 140.637 C 173.896 134.030, 180.381 130.344, 187.548 133.599 C 193.558 136.330, 193.710 136.328, 190.694 133.568 C 186.752 129.960, 179.006 129.903, 175.455 133.455 M 98.004 136.500 C 97.336 138.150, 95.961 141.863, 94.948 144.750 L 93.108 150 99.121 150 C 105.968 150, 105.772 150.873, 101.483 139.500 L 99.220 133.500 98.004 136.500 " stroke="none" fill="black" fill-rule="evenodd"/>
</svg>