<svg xmlns="http://www.w3.org/2000/svg" width="128" height="128" viewBox="0 0 128 128" version="1.1">
	<path d="M 40.842 4.375 C 37.731 5.654, 33.226 7.850, 30.831 9.253 C 25.014 12.662, 17.046 19.906, 19.054 19.959 C 19.909 19.982, 22.763 21.367, 25.397 23.037 L 30.186 26.074 26.034 30.579 C 21.846 35.122, 15 47.930, 15 51.222 C 15 53.581, 14.435 53.479, 8.090 49.982 C 5.115 48.342, 2.565 47, 2.423 47 C 2.282 47, 1.678 49.272, 1.083 52.049 C -0.304 58.515, -0.304 69.485, 1.083 75.951 C 2.130 80.834, 3.203 82.098, 4.509 79.986 C 5.193 78.879, 12.399 75, 13.771 75 C 14.239 75, 15.189 77.212, 15.882 79.916 C 17.295 85.430, 21.638 92.864, 26.308 97.763 C 29.390 100.997, 29.400 101.044, 27.459 102.920 C 26.382 103.961, 23.797 105.707, 21.715 106.799 L 17.931 108.785 22.715 112.929 C 27.132 116.754, 40.468 124.037, 45.750 125.508 C 47.920 126.113, 48 125.899, 48 119.506 L 48 112.877 52.750 113.689 C 58.059 114.595, 68.178 114.732, 75 113.990 L 79.500 113.500 79.799 119.802 C 80.151 127.219, 79.763 127.183, 92.500 120.995 C 100.584 117.068, 111.918 108.130, 108.921 108.045 C 108.053 108.020, 105.229 106.600, 102.646 104.889 L 97.950 101.778 101.823 97.576 C 106.376 92.637, 110.283 86.094, 112.020 80.500 C 112.704 78.300, 113.452 76.167, 113.684 75.760 C 113.916 75.353, 116.444 76.250, 119.303 77.754 C 122.161 79.258, 124.827 80.638, 125.226 80.820 C 125.626 81.002, 126.247 79.307, 126.607 77.053 C 126.968 74.800, 127.654 72.714, 128.131 72.419 C 128.609 72.124, 129 67.832, 129 62.882 C 129 57.932, 128.606 54.125, 128.125 54.423 C 127.644 54.720, 126.963 53.171, 126.613 50.980 L 125.976 46.997 120.657 49.998 C 114.527 53.458, 113 53.702, 113 51.222 C 113 47.955, 106.168 35.137, 102.039 30.659 L 97.961 26.234 102.818 23.117 C 105.489 21.403, 108.311 19.980, 109.088 19.955 C 111.916 19.865, 100.291 10.790, 92.500 7.005 C 79.492 0.686, 80 0.603, 80 9.040 C 80 15.471, 79.819 16.142, 78.250 15.518 C 72.322 13.160, 59.321 12.992, 50 15.152 C 48.802 15.430, 48.441 14.143, 48.204 8.750 C 48.042 5.037, 47.592 2.011, 47.204 2.024 C 46.817 2.037, 43.954 3.095, 40.842 4.375 M 55 21.362 C 51.975 22.020, 47.250 23.642, 44.500 24.969 C 37.769 28.215, 27.988 38.158, 24.742 45.054 C 21.768 51.370, 19.401 63.154, 20.583 65.758 C 21.109 66.916, 21.597 65.155, 22.041 60.500 C 23.008 50.359, 26.204 42.974, 32.628 36.035 C 41.574 26.373, 51.348 22, 64 22 C 76.652 22, 86.426 26.373, 95.372 36.035 C 101.796 42.974, 104.992 50.359, 105.959 60.500 C 106.403 65.155, 106.891 66.916, 107.417 65.758 C 108.599 63.154, 106.232 51.370, 103.258 45.054 C 99.879 37.875, 90.144 28.129, 83 24.771 C 77.496 22.185, 67.892 19.926, 63.066 20.084 C 61.655 20.130, 58.025 20.705, 55 21.362 M 60.323 32.601 C 59.131 35.706, 64.998 37.184, 68.462 34.652 C 71.137 32.696, 69.487 31, 64.910 31 C 62.190 31, 60.744 31.505, 60.323 32.601 M 68.224 36.176 C 66.513 37.887, 68.601 40, 72 40 C 74.977 40, 77.571 37.733, 76.527 36.044 C 75.650 34.625, 69.680 34.720, 68.224 36.176 M 42.036 40.456 C 40.277 42.577, 41.642 44, 45.437 44 C 49.316 44, 51.594 41.994, 49.776 40.176 C 48.138 38.538, 43.489 38.706, 42.036 40.456 M 76.175 40.590 C 74.374 41.851, 74.147 42.472, 75.075 43.590 C 76.602 45.430, 80.116 45.388, 82.559 43.500 C 84.480 42.015, 84.480 41.985, 82.559 40.500 C 80.100 38.600, 78.994 38.615, 76.175 40.590 M 49.441 44.500 C 47.520 45.985, 47.520 46.015, 49.441 47.500 C 51.725 49.265, 53.415 49.383, 56.066 47.965 C 59.665 46.039, 57.855 43, 53.109 43 C 52.159 43, 50.509 43.675, 49.441 44.500 M 56.224 49.176 C 53.510 51.890, 60.198 54.427, 63.896 52.086 C 64.663 51.600, 65.015 50.481, 64.677 49.601 C 63.947 47.698, 58.001 47.399, 56.224 49.176 M 33.495 55.008 C 32.584 56.482, 34.796 61.708, 36.629 62.411 C 38.770 63.233, 39.548 60.066, 37.917 57.173 C 36.286 54.281, 34.488 53.401, 33.495 55.008 M 0.360 64 C 0.360 69.225, 0.529 71.362, 0.735 68.750 C 0.941 66.138, 0.941 61.862, 0.735 59.250 C 0.529 56.638, 0.360 58.775, 0.360 64 M 47.385 64.439 C 46.618 66.438, 49.210 71.500, 51 71.500 C 53.128 71.500, 53.425 68.297, 51.560 65.451 C 49.748 62.685, 48.202 62.311, 47.385 64.439 M 68.400 63.765 C 67.795 64.169, 66.738 65.565, 66.052 66.867 C 65.022 68.820, 65.064 69.493, 66.291 70.719 C 68.256 72.684, 71.400 71.612, 72.821 68.493 C 74.724 64.317, 71.975 61.378, 68.400 63.765 M 41 70.389 C 41 73.376, 44.267 77.571, 45.838 76.600 C 47.457 75.600, 47.287 72.855, 45.443 70.223 C 43.373 67.267, 41 67.356, 41 70.389 M 77.455 70.455 C 74.665 73.244, 74.355 75.220, 76.436 76.947 C 79.567 79.546, 84.864 73.599, 82.847 69.750 C 81.607 67.384, 80.363 67.547, 77.455 70.455 M 21.079 70.583 C 21.127 71.748, 21.364 71.985, 21.683 71.188 C 21.972 70.466, 21.936 69.603, 21.604 69.271 C 21.272 68.939, 21.036 69.529, 21.079 70.583 M 35.301 74.657 C 34.499 76.747, 37.095 81.500, 39.038 81.500 C 41.181 81.500, 41.438 77.141, 39.425 74.918 C 37.295 72.564, 36.133 72.490, 35.301 74.657 M 89.500 74.221 C 86.870 75.678, 86.034 77.012, 86.015 79.781 C 85.984 84.430, 92.396 83.254, 93.618 78.386 C 94.488 74.921, 92.275 72.684, 89.500 74.221 M 24 80.383 C 24 81.456, 26.975 87, 27.551 87 C 27.826 87, 27.308 85.537, 26.399 83.750 C 24.542 80.100, 24 79.339, 24 80.383 M 101.695 83.513 C 100.781 85.431, 100.239 87, 100.490 87 C 101.175 87, 104.210 80.877, 103.753 80.420 C 103.536 80.203, 102.610 81.594, 101.695 83.513 M 49.598 82.736 C 47.443 84.890, 51.380 93.119, 53.838 91.600 C 55.305 90.693, 55.313 88.782, 53.865 85.602 C 52.699 83.045, 50.659 81.674, 49.598 82.736 M 29.453 89.961 C 31.256 92.875, 34.507 96.200, 37.500 98.193 C 40.176 99.974, 40.132 99.872, 37.098 97.247 C 35.227 95.628, 32.527 92.980, 31.098 91.363 C 29.669 89.745, 28.929 89.115, 29.453 89.961 M 93.514 94.320 C 90.221 97.704, 88.871 99.511, 90.514 98.334 C 93.361 96.295, 96.021 93.579, 98.920 89.750 C 101.270 86.646, 99.635 88.028, 93.514 94.320 M 65.646 95.049 C 66.826 96.252, 68.278 97.070, 68.873 96.868 C 69.468 96.666, 68.502 95.681, 66.727 94.681 L 63.500 92.861 65.646 95.049 M 41 100.490 C 41 101.175, 47.123 104.210, 47.580 103.753 C 47.797 103.536, 46.406 102.610, 44.487 101.695 C 42.569 100.781, 41 100.239, 41 100.490 M 83 102 C 81.075 103.054, 79.860 103.935, 80.300 103.958 C 81.359 104.014, 87 101.081, 87 100.474 C 87 99.820, 86.941 99.842, 83 102 " stroke="none" fill="black" fill-rule="evenodd"/>
</svg>