<svg xmlns="http://www.w3.org/2000/svg" width="128" height="128" viewBox="0 0 128 128" version="1.1">
	<path d="M 37 14.826 C 37 15.280, 38.166 16.742, 39.592 18.076 C 45.042 23.173, 45.111 23.002, 32.107 36.716 C 25.509 43.675, 20.373 49.795, 20.696 50.317 C 21.018 50.838, 26.630 45.692, 33.167 38.882 C 42.684 28.968, 45.244 26.799, 46.011 28 C 46.538 28.825, 46.976 29.867, 46.985 30.315 C 46.993 30.763, 42.273 35.914, 36.496 41.761 C 29.831 48.507, 26.341 52.741, 26.947 53.347 C 27.552 53.952, 31.428 50.591, 37.552 44.150 C 42.860 38.568, 47.608 34, 48.102 34 C 50.830 34, 48.191 39.040, 41.750 46.128 C 33.930 54.734, 33.092 56, 35.213 56 C 35.972 56, 39.474 52.782, 42.996 48.848 L 49.399 41.696 50.314 44.443 C 51.126 46.879, 50.765 47.664, 47.115 51.383 C 44.852 53.689, 43 55.882, 43 56.256 C 43 57.320, 46.281 55.898, 48.574 53.842 C 51.035 51.635, 52 52.298, 52 56.198 C 52 60.110, 50.311 60.519, 39.423 59.245 C 28.688 57.989, 22.912 55.722, 17.128 50.496 L 13 46.767 13 50.306 C 13 53.221, 13.735 54.473, 17.174 57.417 C 24.878 64.011, 34.054 66.980, 46.771 66.994 C 52.853 67.001, 52.795 66.922, 55.537 79 C 57.547 87.851, 61.402 95.857, 66.500 101.764 C 70.067 105.897, 78.015 112.044, 79.680 111.957 C 80.131 111.934, 82.467 110.187, 84.870 108.076 L 89.241 104.238 83.272 100.185 C 76.585 95.644, 68.762 87.416, 66.030 82.052 C 62.767 75.646, 60.971 67.741, 59.044 51.309 C 56.970 33.617, 55.115 27.829, 49.699 22.141 C 44.565 16.750, 37 12.392, 37 14.826 M 65 60.375 C 65 64.381, 66.421 67.999, 68.220 68.570 C 69.662 69.027, 69.902 69.498, 69.101 70.299 C 67.763 71.637, 67.639 75, 68.927 75 C 69.438 75, 70.740 73.875, 71.821 72.500 C 73.648 70.178, 78 68.983, 78 70.804 C 78 71.246, 76.425 73.134, 74.500 75 C 71.239 78.160, 69.958 81, 71.792 81 C 72.227 81, 74.571 78.975, 77 76.500 C 81.277 72.142, 85 70.647, 85 73.288 C 85 73.996, 82.750 76.791, 80 79.500 C 75.357 84.073, 73.756 87, 75.897 87 C 76.390 87, 79.302 84.247, 82.368 80.882 C 86.233 76.641, 88.434 74.953, 89.543 75.378 C 90.963 75.923, 90.920 76.300, 89.155 78.746 C 88.062 80.261, 85.330 83.279, 83.084 85.453 C 80.838 87.627, 79 89.765, 79 90.203 C 79 92.335, 81.778 90.393, 87.518 84.250 C 92.633 78.775, 94.069 77.738, 95.122 78.761 C 96.180 79.787, 95.266 81.187, 90.211 86.288 C 84.625 91.923, 82.688 95, 84.725 95 C 85.124 95, 88.530 91.963, 92.294 88.250 L 99.138 81.500 103.597 86.500 L 108.056 91.500 111.028 88.038 C 115.205 83.172, 114.898 80.210, 109.610 74.358 C 100.800 64.610, 87.693 59.169, 72.750 59.058 C 66.813 59.013, 65 59.322, 65 60.375 " stroke="none" fill="black" fill-rule="evenodd"/>
</svg>