<svg xmlns="http://www.w3.org/2000/svg" width="128" height="128" viewBox="0 0 128 128" version="1.1">
	<path d="M 0 64.007 L 0 128.015 64.250 127.757 L 128.500 127.500 128.757 63.750 L 129.015 0 64.507 0 L 0 0 0 64.007 M 0.471 64.500 C 0.471 99.700, 0.597 113.955, 0.750 96.178 C 0.903 78.400, 0.903 49.600, 0.749 32.178 C 0.596 14.755, 0.471 29.300, 0.471 64.500 M 54.490 35.750 C 49.685 42.213, 45.376 48.400, 44.914 49.500 C 43.890 51.935, 36.715 88.063, 37.174 88.472 C 37.353 88.632, 43.425 92.355, 50.666 96.746 L 63.833 104.730 77.166 96.832 C 84.500 92.488, 90.633 88.550, 90.795 88.082 C 91.162 87.023, 83.294 50.312, 82.351 48.685 C 80.305 45.151, 64.514 24, 63.923 24 C 63.539 24, 59.294 29.287, 54.490 35.750 M 55.749 39.324 L 48.069 49.649 55.785 71.808 C 60.028 83.995, 63.739 93.974, 64.032 93.983 C 64.325 93.993, 65.957 89.838, 67.660 84.750 C 69.363 79.662, 72.790 69.800, 75.274 62.834 L 79.791 50.168 72.146 39.611 C 67.940 33.804, 64.259 29.041, 63.964 29.026 C 63.669 29.012, 59.972 33.646, 55.749 39.324 M 43.381 71.484 L 40.332 86.937 51.166 93.422 C 57.125 96.988, 62 99.627, 62 99.285 C 62 98.194, 47.709 57.530, 47.057 56.765 C 46.713 56.361, 45.058 62.985, 43.381 71.484 M 73.500 77.132 C 69.650 88.197, 66.355 97.868, 66.177 98.622 C 66 99.376, 70.858 96.998, 76.974 93.338 C 83.855 89.220, 87.907 86.201, 87.607 85.417 C 87.339 84.721, 85.858 78.042, 84.314 70.575 C 82.771 63.109, 81.281 57.003, 81.004 57.006 C 80.727 57.009, 77.350 66.066, 73.500 77.132 " stroke="none" fill="black" fill-rule="evenodd"/>
</svg>