<svg xmlns="http://www.w3.org/2000/svg" width="128" height="128" viewBox="0 0 128 128" version="1.1">
	<path d="M 49.202 8.022 C 38.592 10.802, 30.503 15.487, 22.490 23.495 C 0.838 45.132, -0.676 78.382, 18.886 102.664 C 24.681 109.857, 36.446 117.880, 45.612 120.889 C 66.733 127.823, 89.848 122.301, 105.459 106.595 C 113.635 98.368, 118.225 90.351, 121.025 79.404 C 124.640 65.267, 122.750 49.875, 115.780 36.686 C 111.554 28.691, 100.309 17.446, 92.314 13.220 C 79.161 6.269, 63.227 4.348, 49.202 8.022 M 47 13.276 C 33.137 18.020, 22.331 27.120, 15.824 39.532 C 12.347 46.163, 8.980 58.620, 9.017 64.708 C 9.077 74.300, 15.967 92.802, 21.368 97.876 C 24.653 100.962, 24.303 98.922, 20.242 91.303 C 12.024 75.884, 11.823 55.283, 19.749 40.721 C 28.588 24.480, 45.412 14.677, 64.654 14.557 C 69.689 14.526, 73.600 14.162, 73.345 13.750 C 73.090 13.338, 73.471 12.955, 74.191 12.900 C 78.554 12.568, 69.068 11.187, 62 11.125 C 55.680 11.071, 51.833 11.622, 47 13.276 M 22.430 57.321 C 22.151 58.048, 22.053 63.110, 22.212 68.571 L 22.500 78.500 28.169 78.479 C 35.378 78.451, 38.505 76.120, 37.499 71.523 C 37.135 69.860, 36.886 66.396, 36.945 63.825 C 37.032 60.040, 36.625 58.851, 34.804 57.575 C 32.005 55.615, 23.155 55.433, 22.430 57.321 M 40 67.579 L 40 79.159 45.167 78.829 C 51.667 78.415, 52.851 76.245, 46.813 75.811 L 42.500 75.500 42.214 65.750 C 41.808 51.913, 40 53.406, 40 67.579 M 56.697 66.406 C 52.727 77.578, 52.357 79.381, 54.153 78.782 C 54.787 78.571, 56.643 74.716, 58.277 70.216 C 61.302 61.885, 62.280 60.994, 63.418 65.531 C 65.556 74.047, 70 82.339, 70 77.812 C 70 75.054, 62.628 56, 61.561 56 C 60.919 56, 58.730 60.683, 56.697 66.406 M 73.954 58.750 C 67.802 64.248, 69.315 74.562, 76.728 77.660 C 81.437 79.627, 85.939 78.717, 89.407 75.097 C 92.848 71.506, 91.130 69.960, 87.610 73.481 C 85.853 75.238, 84.004 76, 81.500 76 C 73.543 76, 69.895 66.834, 75.550 61.050 C 78.673 57.856, 84.031 57.741, 87.287 60.800 C 90.040 63.387, 91 63.564, 91 61.485 C 91 59.217, 85.009 56.008, 80.766 56.004 C 78.101 56.001, 76.150 56.788, 73.954 58.750 M 94 67 C 94 73.667, 94.394 78, 95 78 C 95.550 78, 96 75.750, 96 73 C 96 70.250, 96.187 68, 96.415 68 C 96.644 68, 99.312 70.582, 102.345 73.738 C 109.194 80.865, 110.955 80.004, 104.642 72.615 C 102.089 69.626, 100 66.713, 100 66.140 C 100 65.568, 102.025 63.407, 104.500 61.338 C 106.975 59.269, 109 57.222, 109 56.788 C 109 54.812, 106.044 56.380, 102 60.500 C 99.571 62.975, 97.227 65, 96.792 65 C 96.356 65, 96 62.975, 96 60.500 C 96 58.025, 95.550 56, 95 56 C 94.394 56, 94 60.333, 94 67 M 25 62.500 C 25 65.909, 25.102 66, 28.950 66 C 33.418 66, 35.497 63.797, 33.880 60.776 C 33.215 59.533, 31.739 59, 28.965 59 C 25.100 59, 25 59.089, 25 62.500 M 25 72.557 C 25 76.112, 25.004 76.115, 29.148 75.807 C 33.565 75.480, 35.762 73.429, 34.691 70.636 C 34.237 69.454, 32.804 69, 29.531 69 C 25.005 69, 25 69.004, 25 72.557 " stroke="none" fill="black" fill-rule="evenodd"/>
</svg>