<svg xmlns="http://www.w3.org/2000/svg" width="128" height="128" viewBox="0 0 128 128" version="1.1">
	<path d="M 40.500 23.055 C 28.950 29.674, 18.712 36.020, 17.750 37.156 C 16.182 39.006, 16 41.900, 16 64.936 C 16 90.331, 16.028 90.677, 18.250 92.696 C 22.071 96.168, 61.182 118.250, 63.510 118.250 C 65.851 118.250, 104.962 96.167, 108.750 92.707 C 110.972 90.677, 111 90.328, 111 64.936 C 111 41.899, 110.818 39.007, 109.250 37.157 C 106.872 34.351, 66.011 10.997, 63.502 11.010 C 62.401 11.016, 52.050 16.436, 40.500 23.055 M 72.645 44.321 C 67.906 46.173, 64.192 48.303, 63.282 49.692 C 61.890 51.817, 62.025 52.620, 65.027 60.066 C 66.958 64.857, 69.213 68.749, 70.575 69.641 C 72.691 71.027, 73.515 70.883, 81.176 67.780 C 91.578 63.567, 92.697 61.868, 89.861 54.590 C 86.512 45.997, 84.585 42.689, 82.500 41.956 C 81.230 41.509, 77.632 42.373, 72.645 44.321 M 72 46.903 C 65.748 49.581, 65.505 49.817, 65.639 53.094 C 65.848 58.222, 70.568 68, 72.835 68 C 73.859 68, 77.802 66.729, 81.598 65.176 C 86.492 63.174, 88.585 61.778, 88.793 60.377 C 88.955 59.290, 87.756 55.273, 86.129 51.450 C 82.599 43.154, 81.546 42.815, 72 46.903 M 69.496 53.007 C 69.153 53.561, 69.596 54.292, 70.480 54.631 C 72.394 55.365, 73.461 54.556, 72.541 53.067 C 71.711 51.723, 70.306 51.696, 69.496 53.007 M 75.446 55.087 C 74.416 56.755, 76.733 58.667, 78.113 57.287 C 79.267 56.133, 78.545 54, 77 54 C 76.515 54, 75.816 54.489, 75.446 55.087 M 81.218 58.154 C 81.737 59.712, 83.974 59.984, 84.053 58.500 C 84.082 57.950, 83.355 57.345, 82.438 57.154 C 81.395 56.939, 80.938 57.313, 81.218 58.154 M 42.654 60.830 C 40.624 63.073, 36 74.239, 36 76.898 C 36 80.748, 37.281 81.888, 45.182 85.074 C 56.172 89.504, 57.380 89.006, 61.681 78.276 C 66.049 67.380, 65.615 66.277, 55.330 62.139 C 46.255 58.488, 44.900 58.348, 42.654 60.830 M 43.655 63.250 C 40.490 68.367, 37.583 77.116, 38.543 78.637 C 39.791 80.616, 52.957 86.230, 54.743 85.545 C 56.346 84.930, 62 72.932, 62 70.144 C 62 67.737, 60.945 66.963, 53.184 63.675 C 45.537 60.436, 45.399 60.430, 43.655 63.250 M 54.218 71.154 C 54.737 72.712, 56.974 72.984, 57.053 71.500 C 57.082 70.950, 56.355 70.345, 55.438 70.154 C 54.395 69.939, 53.938 70.313, 54.218 71.154 M 48.543 72.931 C 47.803 74.128, 49.684 75.313, 51.016 74.490 C 52.135 73.799, 51.400 72, 50 72 C 49.515 72, 48.859 72.419, 48.543 72.931 M 43.154 75.438 C 43.345 76.355, 43.950 77.082, 44.500 77.053 C 45.984 76.974, 45.712 74.737, 44.154 74.218 C 43.313 73.938, 42.939 74.395, 43.154 75.438 " stroke="none" fill="black" fill-rule="evenodd"/>
</svg>