<svg xmlns="http://www.w3.org/2000/svg" width="128" height="128" viewBox="0 0 128 128" version="1.1">
	<path d="M 27.450 41.343 C 27.127 42.632, 27.005 53.995, 27.181 66.593 C 27.486 88.472, 27.603 89.666, 29.800 93.200 C 31.066 95.234, 33.766 97.934, 35.800 99.200 C 39.319 101.387, 40.574 101.516, 61.457 101.822 C 76.297 102.040, 84.789 101.759, 87.656 100.956 C 92.859 99.500, 98.647 93.930, 99.993 89.085 C 101.060 85.245, 101.406 43.222, 100.393 40.582 C 99.906 39.313, 98.124 39, 91.393 39 C 83.050 39, 83 39.015, 83 41.566 C 83 42.977, 83.481 45.031, 84.069 46.130 C 85.353 48.529, 83.752 51, 80.913 51 C 78.573 51, 76.819 47.899, 78.054 45.946 C 78.558 45.151, 78.976 43.263, 78.985 41.750 L 79 39 63.891 39 L 48.781 39 49.309 42.250 C 49.600 44.038, 49.986 46.338, 50.169 47.362 C 50.351 48.385, 49.712 49.733, 48.750 50.356 C 46.455 51.843, 43.368 49.963, 43.831 47.362 C 44.014 46.338, 44.400 44.038, 44.691 42.250 L 45.219 39 36.628 39 C 28.453 39, 28.010 39.113, 27.450 41.343 M 58.246 55.594 C 54.154 61.281, 53.199 63.582, 51.289 72.344 C 50.071 77.930, 49.236 82.977, 49.433 83.560 C 49.630 84.144, 52.989 86.472, 56.896 88.734 L 64 92.847 71.104 88.734 C 75.011 86.472, 78.394 84.137, 78.620 83.547 C 78.847 82.956, 78.010 77.906, 76.761 72.324 C 74.818 63.642, 73.804 61.224, 69.750 55.588 C 67.144 51.965, 64.556 49, 64 49 C 63.444 49, 60.855 51.967, 58.246 55.594 M 59.538 57.380 L 55.833 62.760 59.667 74.857 C 61.775 81.511, 63.725 86.963, 64 86.973 C 64.275 86.982, 66.211 81.548, 68.303 74.896 L 72.106 62.801 68.387 57.400 C 66.341 54.430, 64.347 52, 63.956 52 C 63.564 52, 61.576 54.421, 59.538 57.380 M 52.896 74.677 C 52.148 78.430, 51.529 81.861, 51.519 82.301 C 51.508 82.742, 53.943 84.513, 56.928 86.237 C 60.270 88.166, 62.152 88.819, 61.825 87.935 C 61.532 87.146, 60.046 82.675, 58.522 78 C 56.999 73.325, 55.415 69.130, 55.003 68.677 C 54.591 68.224, 53.643 70.924, 52.896 74.677 M 72.647 69 C 71.805 70.984, 66 88.260, 66 88.783 C 66 89.205, 74.983 84.205, 76.178 83.117 C 76.550 82.778, 76.052 79.125, 75.070 75 C 74.034 70.649, 73.017 68.130, 72.647 69 " stroke="none" fill="black" fill-rule="evenodd"/>
</svg>