<svg xmlns="http://www.w3.org/2000/svg" width="128" height="128" viewBox="0 0 128 128" version="1.1">
	<path d="M 52.634 16.586 C 33.235 21.282, 17.456 38.489, 15.118 57.500 C 12.805 76.296, 20.433 93.489, 35.834 104.198 L 40.169 107.212 37.633 103.356 C 30.188 92.035, 32.713 75.176, 43.322 65.369 C 46.219 62.691, 49.334 60.050, 50.245 59.500 C 51.761 58.585, 51.691 57.907, 49.424 51.500 C 45.303 39.855, 47.624 28.702, 56.079 19.530 C 58.376 17.039, 59.860 15.037, 59.377 15.083 C 58.895 15.129, 55.860 15.806, 52.634 16.586 M 91.010 25.212 C 94.416 32.717, 93.410 42.785, 88.759 47.750 C 86.213 50.468, 83.962 50.599, 81.003 48.203 L 78.784 46.407 81.392 42.564 C 86.125 35.589, 84.529 25.292, 78.351 22.943 C 71.126 20.197, 63.886 29.866, 63.814 42.357 C 63.772 49.555, 66.265 56.356, 70.496 60.587 C 71.940 62.031, 72.981 63.277, 72.811 63.356 C 65.523 66.733, 62.050 69.318, 59.241 73.454 C 52.270 83.720, 51.364 95.210, 57.077 100.923 C 62.535 106.381, 73.615 105.922, 81.191 99.923 C 85.321 96.653, 86 96.424, 86 98.303 C 86 100.552, 77.718 108.167, 72.500 110.715 L 67.500 113.157 72.826 112.534 C 100.443 109.304, 120.267 80.582, 113.915 53 C 111.401 42.087, 101.269 27.984, 92.155 22.712 L 89.064 20.925 91.010 25.212 " stroke="none" fill="black" fill-rule="evenodd"/>
</svg>