<svg xmlns="http://www.w3.org/2000/svg" width="128" height="128" viewBox="0 0 128 128" version="1.1">
	<path d="M 15.445 56.283 C 15.155 57.039, 15.048 61.673, 15.209 66.579 L 15.500 75.500 22.486 75.500 C 28.345 75.500, 29.527 75.218, 29.810 73.750 C 30.098 72.252, 29.343 72, 24.573 72 C 19.295 72, 19 71.868, 19 69.500 C 19 67.167, 19.333 67, 24 67 C 27.778 67, 29 66.633, 29 65.500 C 29 64.367, 27.778 64, 24 64 C 19.333 64, 19 63.833, 19 61.500 C 19 59.132, 19.295 59, 24.573 59 C 29.342 59, 30.098 58.747, 29.813 57.250 C 29.541 55.826, 28.222 55.445, 22.726 55.204 C 17.707 54.984, 15.837 55.261, 15.445 56.283 M 34.923 57.923 C 28.605 64.241, 32.745 76, 41.288 76 C 50.384 76, 54.320 64.230, 47.505 57.414 C 44 53.909, 38.724 54.122, 34.923 57.923 M 56.223 56.557 C 53.753 58.287, 53.185 63.087, 55.250 64.780 C 55.938 65.343, 58.413 66.316, 60.750 66.941 C 63.948 67.796, 65 68.570, 65 70.070 C 65 71.166, 64.324 72.322, 63.498 72.639 C 61.184 73.527, 57 72.138, 57 70.481 C 57 69.666, 56.100 69, 55 69 C 51.601 69, 52.678 72.742, 56.684 74.850 C 62.173 77.740, 69 75.032, 69 69.966 C 69 66.692, 66.505 64.614, 61.261 63.521 C 57.404 62.717, 56.391 61.439, 58.036 59.456 C 59.752 57.389, 62.767 57.653, 64.232 60 C 65.533 62.082, 69 62.777, 69 60.955 C 69 60.380, 67.895 58.805, 66.545 57.455 C 63.714 54.623, 59.505 54.257, 56.223 56.557 M 78 56.173 C 78 58.164, 83.119 73.313, 84.292 74.793 C 84.855 75.504, 85.963 75.954, 86.754 75.793 C 88.630 75.411, 95.278 56.290, 93.843 55.403 C 92.176 54.372, 90.455 57.065, 88.504 63.756 C 87.500 67.197, 86.414 69.754, 86.090 69.437 C 85.765 69.121, 84.552 65.856, 83.393 62.181 C 82.051 57.927, 80.689 55.383, 79.643 55.177 C 78.739 54.999, 78 55.447, 78 56.173 M 97.215 65.250 C 97.446 73.568, 97.783 75.500, 99 75.500 C 100.050 75.500, 100.592 74.224, 100.807 71.250 C 101.091 67.327, 101.332 67, 103.935 67 C 107.308 67, 108.706 68.469, 109.162 72.491 C 109.374 74.373, 110.149 75.606, 111.250 75.815 C 112.673 76.085, 113 75.422, 113 72.273 C 113 70.143, 112.479 67.879, 111.842 67.242 C 110.966 66.366, 110.983 65.725, 111.915 64.603 C 112.591 63.788, 112.999 61.867, 112.822 60.334 C 112.405 56.727, 109.029 55.034, 102.215 55.015 L 96.930 55 97.215 65.250 M 37.555 59.939 C 33.998 63.870, 36.359 73, 40.932 73 C 41.825 73, 43.555 72.299, 44.777 71.443 C 47.951 69.220, 47.951 61.780, 44.777 59.557 C 41.814 57.481, 39.677 57.594, 37.555 59.939 M 101 61.500 C 101 63.750, 101.400 64, 105 64 C 108.600 64, 109 63.750, 109 61.500 C 109 59.250, 108.600 59, 105 59 C 101.400 59, 101 59.250, 101 61.500 " stroke="none" fill="black" fill-rule="evenodd"/>
</svg>