<svg xmlns="http://www.w3.org/2000/svg" width="128" height="128" viewBox="0 0 128 128" version="1.1">
	<path d="M 64.199 17.037 C 61.283 21.981, 59.146 26.427, 59.449 26.918 C 60.283 28.267, 68.669 33.003, 70.178 32.977 C 70.905 32.965, 73.834 31.501, 76.688 29.724 L 81.875 26.493 76.188 17.254 C 73.059 12.172, 70.275 8.022, 70 8.031 C 69.725 8.040, 67.115 12.093, 64.199 17.037 M 59.567 30.208 C 59.973 30.919, 60.981 32.288, 61.807 33.250 C 63.199 34.871, 63.045 35, 59.720 35 C 54.776 35, 51.771 36.308, 47.172 40.464 C 41.499 45.589, 38.815 52.548, 38.224 63.658 C 37.663 74.204, 38.252 77.571, 40.772 78.230 C 43.464 78.934, 48.386 92.128, 47.573 96.461 C 46.234 103.599, 43.821 110.329, 43.049 109.079 C 41.998 107.379, 37.500 108.126, 37.500 110 C 37.500 110.933, 38.444 111.500, 40 111.500 C 42.975 111.500, 43.969 112.627, 43.969 116 C 43.969 117.708, 43.707 118.086, 43.140 117.192 C 41.913 115.257, 31.500 115.980, 31.500 118 C 31.500 119.303, 35.778 119.500, 64 119.500 C 92.089 119.500, 96.500 119.298, 96.500 118.014 C 96.500 116.163, 93.037 115.358, 92.900 117.177 C 92.845 117.905, 92.488 117.377, 92.106 116.005 C 91.275 113.017, 87.999 111.956, 88.002 114.677 C 88.004 116.317, 87.199 116.467, 80.002 116.174 C 72.988 115.888, 72 115.618, 72 113.990 C 72 112.707, 72.851 112.035, 74.750 111.816 C 76.387 111.628, 77.500 110.893, 77.500 110 C 77.500 108.817, 76.087 108.498, 70.824 108.491 C 67.152 108.486, 63.884 108.218, 63.562 107.895 C 63.239 107.572, 63.943 103.525, 65.126 98.900 L 67.277 90.491 64.104 84.206 C 62.359 80.749, 61.133 77.594, 61.379 77.196 C 61.625 76.797, 61.958 74.003, 62.118 70.986 C 62.389 65.891, 62.248 65.492, 60.138 65.383 C 56.845 65.214, 56.433 64.494, 53.562 53.884 C 50.972 44.313, 50.955 41.615, 53.480 40.646 C 56.035 39.666, 58.040 42.567, 60.130 50.265 L 62.238 58.031 63.869 55.140 C 66.211 50.989, 72.724 41.332, 77.174 35.409 C 79.278 32.609, 81 30.035, 81 29.689 C 81 29.343, 78.457 30.592, 75.349 32.464 L 69.698 35.868 64.264 32.392 C 61.275 30.480, 59.162 29.498, 59.567 30.208 M 61.675 37.485 C 59.882 38.806, 59.830 42.787, 61.546 47.260 C 62.285 49.186, 66.791 48.942, 68.080 46.905 C 69.451 44.739, 69.177 44.141, 67.064 44.694 C 65.466 45.111, 65.015 44.528, 64.482 41.350 C 64.127 39.232, 63.761 37.194, 63.668 36.820 C 63.576 36.446, 62.679 36.745, 61.675 37.485 M 65.564 41.293 C 65.940 42.279, 66.499 42.834, 66.807 42.526 C 67.115 42.219, 66.808 41.412, 66.124 40.733 C 65.136 39.753, 65.022 39.868, 65.564 41.293 M 87.033 64.691 C 87.015 65.346, 87.450 66.160, 88 66.500 C 88.619 66.882, 89 75.677, 89 89.559 C 89 103.853, 89.363 112, 90 112 C 90.636 112, 91 104.037, 91 90.111 C 91 69.812, 90.857 68.050, 89.033 65.861 C 87.952 64.562, 87.052 64.036, 87.033 64.691 M 78.667 65.667 C 78.300 66.033, 78 67.244, 78 68.358 C 78 70.353, 78.022 70.354, 79.468 68.441 C 80.276 67.374, 80.951 66.162, 80.968 65.750 C 81.008 64.820, 79.565 64.768, 78.667 65.667 M 54.106 85.089 L 57.122 92.178 55.418 98.839 C 54.480 102.503, 53.630 106.656, 53.528 108.068 C 53.426 109.480, 53.037 111.131, 52.663 111.736 C 52.248 112.408, 53.182 113.101, 55.058 113.513 C 56.823 113.900, 58.531 115.108, 59.066 116.344 C 59.915 118.308, 59.975 118.322, 59.743 116.500 C 59.603 115.400, 58.478 114.056, 57.244 113.513 C 54.485 112.299, 54.346 109.141, 56.612 99.105 L 58.225 91.966 55.362 84.986 C 53.788 81.147, 52.183 78.005, 51.795 78.003 C 51.407 78.001, 52.447 81.190, 54.106 85.089 M 69.586 110.351 C 70.024 111.501, 69.763 112.537, 68.896 113.086 C 67.852 113.746, 67.823 113.973, 68.781 113.985 C 70.609 114.007, 71.487 111.085, 70.074 109.683 C 69.153 108.769, 69.042 108.922, 69.586 110.351 M 60.813 113.683 C 61.534 113.972, 62.397 113.936, 62.729 113.604 C 63.061 113.272, 62.471 113.036, 61.417 113.079 C 60.252 113.127, 60.015 113.364, 60.813 113.683 " stroke="none" fill="black" fill-rule="evenodd"/>
</svg>