<svg xmlns="http://www.w3.org/2000/svg" width="128" height="128" viewBox="0 0 128 128" version="1.1">
	<path d="M 69.469 15.147 C 62.975 16.854, 57.100 25.750, 58.347 31.987 C 58.862 34.560, 58.613 34.850, 55.365 35.459 C 50.502 36.372, 43.738 42.863, 40.969 49.273 C 39.380 52.950, 38.566 57.215, 38.224 63.658 C 37.663 74.204, 38.252 77.571, 40.772 78.230 C 43.464 78.934, 48.386 92.128, 47.573 96.461 C 46.234 103.599, 43.821 110.329, 43.049 109.079 C 42.001 107.384, 37.500 108.123, 37.500 109.990 C 37.500 110.865, 38.739 111.693, 40.500 111.995 C 42.962 112.417, 43.551 113.047, 43.787 115.505 C 43.977 117.487, 43.776 118.058, 43.192 117.192 C 41.891 115.262, 31.500 115.979, 31.500 118 C 31.500 119.303, 35.778 119.500, 64 119.500 C 92.222 119.500, 96.500 119.303, 96.500 118 C 96.500 117.167, 95.611 116.500, 94.500 116.500 C 93.400 116.500, 92.194 115.825, 91.820 115 C 91.446 114.175, 91.109 103.312, 91.070 90.861 C 91.005 69.874, 90.856 68.049, 89.033 65.861 C 87.952 64.562, 87.052 63.973, 87.033 64.550 C 87.015 65.128, 87.433 66.033, 87.962 66.562 C 89.094 67.694, 89.863 113.002, 88.750 113.001 C 88.338 113, 88 113.675, 88 114.500 C 88 115.708, 86.444 116, 80 116 C 72.758 116, 72 115.817, 72 114.066 C 72 112.700, 72.807 112.040, 74.750 111.816 C 76.387 111.628, 77.500 110.893, 77.500 110 C 77.500 108.817, 76.087 108.498, 70.824 108.491 C 67.152 108.486, 63.884 108.218, 63.562 107.895 C 63.239 107.572, 63.943 103.525, 65.126 98.900 L 67.277 90.491 64.104 84.206 C 62.359 80.749, 61.133 77.594, 61.379 77.196 C 61.625 76.797, 61.958 74.004, 62.118 70.988 C 62.403 65.617, 62.348 65.493, 59.466 64.994 C 56.680 64.512, 56.377 63.955, 53.762 54.529 C 50.986 44.520, 50.919 41.629, 53.441 40.661 C 56.051 39.659, 58.035 42.548, 60.191 50.490 C 62.184 57.832, 62.447 58.276, 63.430 55.962 C 64.019 54.578, 65.791 51.769, 67.369 49.722 C 69.586 46.845, 70.948 45.995, 73.369 45.978 C 81.812 45.919, 88.824 39.214, 89.139 30.900 C 89.546 20.140, 79.892 12.409, 69.469 15.147 M 67.367 22.772 C 64.328 25.234, 62.733 28.800, 63.429 31.575 C 64.184 34.583, 68.749 37.042, 71.589 35.971 C 72.738 35.538, 74.313 35.592, 75.089 36.092 C 76.293 36.867, 76.280 37.147, 75 38 C 73.667 38.889, 73.667 39.109, 75 39.985 C 76.051 40.675, 76.117 40.974, 75.219 40.985 C 74.514 40.993, 73.657 40.270, 73.315 39.378 C 72.784 37.995, 72.424 38.105, 70.868 40.128 C 69.471 41.945, 69.039 42.117, 69.022 40.865 C 69.010 39.966, 67.922 38.524, 66.605 37.661 C 64.362 36.191, 64.176 36.220, 63.682 38.107 C 62.424 42.917, 76.080 46.185, 80.952 42.240 C 82.294 41.153, 83.339 38.890, 83.683 36.323 C 84.146 32.877, 83.896 31.952, 82.220 30.905 C 81.109 30.211, 80.426 29.053, 80.704 28.330 C 81.414 26.478, 78.101 25.456, 75.881 26.842 C 73.526 28.313, 71 28.334, 71 26.883 C 71 26.259, 70.118 25.997, 69 26.290 C 66.256 27.007, 66.419 24.649, 69.250 22.674 C 70.487 21.811, 71.050 21.091, 70.500 21.075 C 69.950 21.058, 68.540 21.822, 67.367 22.772 M 65 29.965 C 65 32.190, 68.432 34.432, 70.578 33.608 C 72.588 32.837, 72.348 31.195, 70.250 31.361 C 69.101 31.452, 68.601 30.899, 68.794 29.750 C 68.994 28.558, 68.436 28, 67.044 28 C 65.679 28, 65 28.653, 65 29.965 M 79.882 32.550 C 79.816 33.072, 79.832 33.885, 79.917 34.355 C 80.001 34.826, 79.506 35.890, 78.817 36.721 C 77.764 37.989, 77.877 38.170, 79.520 37.854 C 81.765 37.422, 82.713 34.313, 81.094 32.694 C 80.482 32.082, 79.948 32.018, 79.882 32.550 M 60.458 42 C 61.749 48.535, 61.962 48.868, 64.669 48.579 C 67.707 48.255, 69.739 45.497, 67.556 44.660 C 66.771 44.359, 65.911 44.650, 65.644 45.306 C 65.353 46.022, 65.126 45.868, 65.079 44.924 C 65.036 44.058, 63.823 42.258, 62.383 40.924 L 59.767 38.500 60.458 42 M 78.084 67.250 C 76.957 70.231, 77.663 70.827, 79.479 68.427 C 81.215 66.132, 81.377 65, 79.968 65 C 79.400 65, 78.553 66.013, 78.084 67.250 M 54.103 85.083 L 57.154 92.252 55.332 99.376 C 54.329 103.294, 53.585 107.156, 53.678 107.958 C 53.771 108.761, 53.435 110.188, 52.930 111.130 C 52.180 112.532, 52.570 112.966, 55.074 113.516 C 56.824 113.901, 58.533 115.111, 59.066 116.344 C 59.915 118.308, 59.975 118.322, 59.743 116.500 C 59.603 115.400, 58.478 114.056, 57.244 113.513 C 54.482 112.298, 54.346 109.142, 56.623 99.059 L 58.246 91.872 55.504 85.422 C 53.997 81.874, 52.378 78.734, 51.908 78.443 C 51.438 78.152, 52.425 81.140, 54.103 85.083 M 70.079 111.583 C 70.127 112.748, 70.364 112.985, 70.683 112.188 C 70.972 111.466, 70.936 110.603, 70.604 110.271 C 70.272 109.939, 70.036 110.529, 70.079 111.583 M 60.813 113.683 C 61.534 113.972, 62.397 113.936, 62.729 113.604 C 63.061 113.272, 62.471 113.036, 61.417 113.079 C 60.252 113.127, 60.015 113.364, 60.813 113.683 " stroke="none" fill="black" fill-rule="evenodd"/>
</svg>