<svg xmlns="http://www.w3.org/2000/svg" width="128" height="128" viewBox="0 0 128 128" version="1.1">
	<path d="M 64.907 12.294 C 57.491 16.154, 54.371 24.986, 57.523 33.200 C 57.986 34.407, 57.337 34.987, 54.928 35.516 C 50.358 36.520, 43.617 43.152, 40.945 49.273 C 39.161 53.362, 38.565 56.944, 38.207 65.727 C 37.756 76.809, 37.781 76.966, 40.125 77.878 C 41.818 78.537, 43.335 80.868, 45.410 85.999 L 48.320 93.196 46.588 100.542 L 44.856 107.888 41.178 108.194 C 37.176 108.527, 35.922 111.218, 39.500 111.795 C 46.189 112.873, 44.336 115.756, 36.669 116.201 C 32.874 116.420, 31.500 116.899, 31.500 118 C 31.500 119.303, 35.778 119.500, 64 119.500 C 92.089 119.500, 96.500 119.298, 96.500 118.014 C 96.500 117.196, 95.600 116.357, 94.500 116.148 C 93.400 115.939, 92.169 115.258, 91.765 114.634 C 91.361 114.010, 91.024 103.312, 91.015 90.861 C 91.001 69.352, 90.896 68.104, 88.916 65.861 C 87.155 63.866, 86.962 63.810, 87.666 65.500 C 88.655 67.872, 89.370 108.055, 88.507 112.750 L 87.909 116 79.955 116 C 72.758 116, 72 115.816, 72 114.066 C 72 112.702, 72.807 112.040, 74.741 111.816 C 76.395 111.626, 77.615 110.805, 77.815 109.750 C 78.108 108.206, 77.241 108, 70.466 108 C 64.738 108, 62.906 107.682, 63.257 106.750 C 63.516 106.063, 64.522 102.115, 65.493 97.977 L 67.258 90.455 64.095 84.188 C 62.355 80.741, 61.133 77.594, 61.379 77.196 C 61.625 76.797, 61.958 74.004, 62.118 70.988 C 62.402 65.626, 62.344 65.493, 59.488 64.998 C 56.792 64.531, 56.396 63.879, 54.327 56.496 C 50.792 43.879, 50.735 43.408, 52.517 41.626 C 55.362 38.781, 57.493 41.197, 60.044 50.155 C 62.243 57.879, 62.461 58.234, 63.476 55.749 C 64.073 54.290, 65.583 52.009, 66.832 50.679 C 68.081 49.349, 69.449 46.965, 69.872 45.381 C 70.527 42.926, 71.262 42.416, 74.841 41.930 C 82.689 40.865, 88 34.401, 88 25.913 C 88 19.937, 84.900 15.215, 79.030 12.250 C 73.405 9.408, 70.434 9.417, 64.907 12.294 M 71 17 C 71 17.550, 70.100 18, 69 18 C 66.950 18, 66.294 19.446, 67.895 20.435 C 69.254 21.275, 66.984 29, 65.378 29 C 64.620 29, 64 29.675, 64 30.500 C 64 31.325, 64.675 32, 65.500 32 C 66.325 32, 67 32.675, 67 33.500 C 67 34.325, 67.450 35, 68 35 C 68.550 35, 69 34.550, 69 34 C 69 33.450, 69.436 33, 69.969 33 C 70.501 33, 70.678 33.675, 70.362 34.500 C 70.045 35.325, 70.284 36, 70.893 36 C 71.502 36, 72 35.550, 72 35 C 72 34.450, 73.070 34, 74.378 34 C 77.524 34, 79.374 31.627, 78.608 28.574 C 78.270 27.226, 78.444 25.843, 78.996 25.502 C 80.530 24.554, 80.208 23.271, 77.894 21.116 C 76.735 20.036, 76.087 18.669, 76.453 18.077 C 76.819 17.484, 76.454 17, 75.642 17 C 74.831 17, 73.940 17.563, 73.662 18.250 C 73.361 18.997, 73.126 18.795, 73.079 17.750 C 72.997 15.942, 71 15.221, 71 17 M 72 23.500 C 72 24.530, 72.655 25.020, 73.750 24.810 C 75.858 24.404, 75.725 22.629, 73.553 22.177 C 72.647 21.988, 72 22.539, 72 23.500 M 70.695 28.353 C 69.996 30.173, 70.792 31, 73.240 31 C 74.513 31, 75.035 30.422, 74.812 29.261 C 74.390 27.070, 71.437 26.418, 70.695 28.353 M 60.558 38.905 C 60.001 39.807, 60.328 42.311, 61.637 47.177 C 62.473 50.285, 68.918 48.125, 68.985 44.715 C 68.993 44.283, 68.135 44.393, 67.078 44.958 C 65.425 45.843, 65.066 45.577, 64.514 43.063 C 63.780 39.720, 61.522 37.347, 60.558 38.905 M 78.314 66.750 C 77.972 67.713, 77.509 68.838, 77.287 69.250 C 76.286 71.104, 78.683 69.685, 80.297 67.469 C 81.866 65.312, 81.894 65, 80.515 65 C 79.647 65, 78.657 65.787, 78.314 66.750 M 54.121 85.126 L 57.154 92.252 55.505 98.981 C 54.598 102.681, 53.733 106.830, 53.582 108.200 C 53.432 109.570, 52.988 111.211, 52.595 111.846 C 52.203 112.481, 52.322 113, 52.859 113 C 53.397 113, 54.661 113.312, 55.668 113.694 C 57.350 114.331, 57.369 114.256, 55.897 112.770 C 54.206 111.062, 54.336 109.173, 56.991 96.946 C 58.146 91.631, 58.067 91.103, 55.161 84.696 C 51.110 75.760, 50.281 76.102, 54.121 85.126 " stroke="none" fill="black" fill-rule="evenodd"/>
</svg>