<svg xmlns="http://www.w3.org/2000/svg" width="128" height="128" viewBox="0 0 128 128" version="1.1">
	<path d="M 69.441 2.555 C 67.590 4.039, 67.607 4.058, 69.828 2.978 C 71.109 2.355, 72.819 2.100, 73.630 2.412 C 74.458 2.729, 74.836 2.544, 74.493 1.989 C 73.608 0.556, 71.665 0.774, 69.441 2.555 M 76 3.449 C 76 3.724, 77.350 4.647, 79 5.500 C 80.650 6.353, 82 6.826, 82 6.551 C 82 6.276, 80.650 5.353, 79 4.500 C 77.350 3.647, 76 3.174, 76 3.449 M 64.441 5.555 C 62.577 7.049, 62.589 7.067, 64.750 6.020 C 65.987 5.420, 67 4.720, 67 4.465 C 67 3.700, 66.481 3.921, 64.441 5.555 M 60.710 7.661 C 60.412 8.142, 62.831 10.079, 66.085 11.966 L 72 15.396 72 21.780 L 72 28.163 68.250 25.892 C 66.188 24.643, 63.487 22.980, 62.250 22.196 C 61.013 21.412, 60 21.014, 60 21.313 C 60 21.611, 62.698 23.494, 65.996 25.498 L 71.992 29.140 77.996 25.839 L 84 22.538 83.985 14.519 C 83.976 10.109, 83.639 6.985, 83.235 7.579 C 82.831 8.172, 80.184 9.906, 77.353 11.431 L 72.207 14.205 67.353 11.401 C 64.684 9.858, 62.219 8.189, 61.875 7.691 C 61.523 7.181, 61.014 7.168, 60.710 7.661 M 59.512 49.459 C 59.047 63.717, 58.364 72.434, 57.640 73.330 C 57.013 74.107, 50.425 76.648, 43 78.978 C 18.029 86.813, 9.396 92.390, 6.426 102.606 C 4.976 107.596, 4.997 108.206, 6.772 112.217 C 8.849 116.914, 14.624 122.531, 19.427 124.528 C 28.062 128.117, 41.304 127.136, 50.752 122.207 C 62.611 116.020, 74.099 100.599, 78.710 84.680 C 79.993 80.249, 81.146 76.558, 81.272 76.478 C 81.397 76.398, 85.775 74.872, 91 73.087 C 102.970 68.999, 113.761 63.878, 117.281 60.616 C 121.888 56.346, 120.380 49.799, 114.032 46.517 C 110.482 44.681, 96.008 40.659, 95.343 41.324 C 95.073 41.594, 97.473 42.567, 100.676 43.486 C 111.718 46.654, 117.999 51.886, 115.041 55.451 C 112.757 58.203, 101.321 62.655, 83.597 67.691 C 81.842 68.190, 81.744 67.814, 82.337 62.866 C 82.691 59.915, 83.283 50.555, 83.653 42.068 L 84.326 26.635 80.413 29.007 C 78.261 30.311, 75.585 31.956, 74.466 32.663 C 72.690 33.784, 71.700 33.506, 66.666 30.473 C 63.495 28.563, 60.752 27, 60.572 27 C 60.392 27, 59.915 37.107, 59.512 49.459 M 60.726 51.750 C 59.989 81.694, 57.464 91.946, 48.340 102.045 C 46.375 104.220, 45.218 106, 45.769 106 C 47.885 106, 58.694 93.111, 62.244 86.355 C 67.302 76.731, 69.568 66.104, 71.503 42.941 L 72.135 35.383 67.001 32.191 C 64.177 30.436, 61.736 29, 61.577 29 C 61.417 29, 61.034 39.237, 60.726 51.750 M 44 87.875 C 26.555 94.142, 21.989 97.164, 22.015 102.424 C 22.024 104.116, 22.361 105.995, 22.765 106.600 C 25.067 110.047, 33.907 111.133, 38.852 108.577 C 43.080 106.390, 49.555 98.825, 52.943 92.112 C 56.034 85.989, 56.616 83.958, 55.250 84.052 C 54.837 84.080, 49.775 85.801, 44 87.875 " stroke="none" fill="black" fill-rule="evenodd"/>
</svg>