<svg xmlns="http://www.w3.org/2000/svg" width="128" height="128" viewBox="0 0 128 128" version="1.1">
	<path d="M 46.299 20.369 C 39.326 22.679, 30.005 27.744, 30.002 29.227 C 30.001 29.627, 31.100 30.675, 32.445 31.556 C 34.741 33.060, 35.370 32.988, 42.695 30.383 C 49.063 28.119, 52.249 27.598, 60 27.554 C 71.522 27.488, 77.608 29.117, 82.958 33.696 C 86.282 36.542, 87 37.791, 87 40.733 C 87 46.064, 81.082 51.310, 71.936 54.088 C 66.162 55.842, 63.038 56.154, 54.453 55.836 L 44 55.449 44 58.050 C 44 59.573, 45.086 61.657, 46.620 63.076 C 48.060 64.409, 50.335 67.217, 51.674 69.316 C 53.468 72.128, 55.773 73.879, 60.429 75.968 C 67.256 79.031, 69.481 81.396, 71.071 87.280 C 72.395 92.177, 74 91.133, 74 85.375 C 74 79.917, 73.010 77.892, 67.360 71.793 C 64.962 69.204, 63 66.625, 63 66.062 C 63 65.499, 64.237 64.794, 65.750 64.495 C 85.185 60.659, 95.246 54.588, 98.132 44.955 C 100.744 36.234, 93.326 25.605, 81.377 20.949 C 72.339 17.427, 56 17.157, 46.299 20.369 M 43.696 80.313 C 34.172 86.079, 32.646 97.552, 40.298 105.865 C 47.153 113.312, 60.109 112.264, 66.166 103.773 C 69.359 99.295, 69.488 89.481, 66.408 85.323 C 60.843 77.813, 51.303 75.708, 43.696 80.313 M 48.200 90.200 C 47.540 90.860, 47 92.895, 47 94.721 C 47 97.294, 47.564 98.300, 49.500 99.182 C 54.965 101.672, 60.376 95.283, 56.464 90.960 C 54.483 88.772, 50.037 88.363, 48.200 90.200 " stroke="none" fill="black" fill-rule="evenodd"/>
</svg>