<svg xmlns="http://www.w3.org/2000/svg" width="128" height="128" viewBox="0 0 128 128" version="1.1">
	<path d="M 63.480 25.447 C 60.626 26.654, 54.272 32.875, 50.800 37.862 L 49.155 40.223 43.828 37.621 C 36.879 34.226, 23.308 32.292, 17.871 33.921 C 13.152 35.334, 12.192 38.118, 13.793 45.748 C 17.291 62.425, 30.165 76.873, 46.287 82.214 C 56.046 85.447, 56.073 85.494, 55.321 97.784 C 54.530 110.709, 54.769 111, 66.191 111 C 72.686 111, 74.339 110.661, 76.015 108.985 C 77.262 107.738, 77.857 106.118, 77.575 104.735 C 77.325 103.506, 76.857 99.093, 76.535 94.928 C 75.841 85.964, 76.356 85.236, 85.361 82.462 C 101.418 77.515, 113.850 63.671, 118.462 45.602 C 120.330 38.284, 119.170 35.050, 114.161 33.616 C 109.147 32.180, 94.751 34.398, 88.163 37.621 C 82.948 40.172, 82.693 40.203, 81.684 38.400 C 79.922 35.252, 71.721 26.907, 69.012 25.506 C 66.941 24.435, 65.900 24.424, 63.480 25.447 M 59.947 37.250 C 48.827 51.076, 45.302 68.758, 51.976 77.243 C 54.327 80.231, 59.806 83, 63.368 83 L 65.934 83 66.217 57.499 C 66.427 38.596, 66.199 31.999, 65.335 31.999 C 64.694 32, 62.270 34.362, 59.947 37.250 M 27.602 50.591 C 29.892 56.070, 34.516 62.519, 37.865 64.904 L 40.726 66.941 41.326 61.721 C 41.657 58.849, 42.212 55.519, 42.562 54.320 C 43.089 52.510, 42.503 51.787, 39.101 50.052 C 36.849 48.903, 32.977 47.684, 30.497 47.345 L 25.988 46.726 27.602 50.591 M 97.994 47.934 C 92.514 49.601, 88.826 52.105, 89.452 53.735 C 89.789 54.615, 90.339 57.945, 90.672 61.136 L 91.278 66.938 94.137 64.903 C 97.453 62.541, 102.104 56.080, 104.341 50.727 L 105.898 47 103.199 47.086 C 101.715 47.133, 99.372 47.515, 97.994 47.934 M 64.606 90.585 C 63.497 93.475, 62.733 102.800, 63.391 105.421 C 64.702 110.646, 65.871 107.746, 66.181 98.498 C 66.483 89.516, 65.982 87, 64.606 90.585 " stroke="none" fill="black" fill-rule="evenodd"/>
</svg>