<svg xmlns="http://www.w3.org/2000/svg" width="128" height="128" viewBox="0 0 128 128" version="1.1">
	<path d="M 0 64.007 L 0 128.015 64.250 127.757 L 128.500 127.500 128.757 63.750 L 129.015 0 64.507 0 L 0 0 0 64.007 M 0.471 64.500 C 0.471 99.700, 0.597 113.955, 0.750 96.178 C 0.903 78.400, 0.903 49.600, 0.749 32.178 C 0.596 14.755, 0.471 29.300, 0.471 64.500 M 57.030 31.113 C 52.986 32.726, 48.077 36.914, 45.639 40.830 C 41.475 47.517, 42.086 47.838, 47.825 41.979 C 59.904 29.650, 74.140 31.575, 85.269 47.041 C 86.592 48.880, 86.502 48.365, 84.911 45 C 82.268 39.407, 77.644 34.414, 72.790 31.912 C 68.780 29.846, 61.172 29.459, 57.030 31.113 M 39.736 37.959 C 25.658 50.825, 24.599 71.024, 37.245 85.500 C 39.167 87.700, 42.710 90.595, 45.119 91.933 L 49.500 94.367 45.785 90.219 C 32.403 75.279, 31.676 52.280, 44.095 36.750 C 48.301 31.491, 46.164 32.083, 39.736 37.959 M 84.312 36.321 C 85.859 38.360, 88.334 42.610, 89.812 45.765 C 92.220 50.902, 92.500 52.649, 92.500 62.521 C 92.500 72.908, 92.316 73.915, 89.296 80.021 C 87.534 83.584, 84.721 87.990, 83.046 89.812 C 81.371 91.633, 80 93.346, 80 93.618 C 80 94.917, 86.654 89.983, 90.655 85.717 C 97.539 78.379, 99.491 73.247, 99.486 62.500 C 99.482 54.631, 99.137 52.845, 96.743 48.287 C 93.369 41.867, 89.251 37.113, 84.848 34.556 L 81.500 32.613 84.312 36.321 M 42 77.390 C 42 80.982, 49.989 90.856, 55.035 93.500 C 64.507 98.464, 75.895 94.812, 82.750 84.610 C 87.252 77.911, 86.815 76.792, 81.885 82.393 C 79.623 84.964, 76.360 87.803, 74.635 88.702 C 64.367 94.058, 52.241 90.838, 44.992 80.831 C 43.347 78.559, 42 77.010, 42 77.390 " stroke="none" fill="black" fill-rule="evenodd"/>
</svg>