<svg xmlns="http://www.w3.org/2000/svg" width="128" height="128" viewBox="0 0 128 128" version="1.1">
	<path d="M 50.645 8.584 C 30.738 13.403, 13.265 31.046, 8.537 51.103 C 0.055 87.089, 27.600 121.970, 64.500 121.970 C 101.400 121.970, 128.945 87.089, 120.463 51.103 C 115.677 30.803, 98.197 13.323, 77.897 8.537 C 70.019 6.680, 58.427 6.700, 50.645 8.584 M 51.688 16.502 C 43.414 18.776, 35.746 23.273, 29.510 29.510 C 10.066 48.954, 10.066 80.046, 29.510 99.490 C 48.954 118.934, 80.046 118.934, 99.490 99.490 C 126.560 72.421, 114.005 26.337, 76.869 16.453 C 70.284 14.700, 58.156 14.724, 51.688 16.502 M 63 33.379 C 63 36.159, 62.490 36.969, 60.117 37.951 C 54.998 40.072, 51.760 44.388, 51.302 49.703 C 50.713 56.544, 53.227 60.082, 61.718 64.358 C 71.648 69.359, 73.400 71.031, 73.400 75.501 C 73.400 84.927, 60.807 87.109, 56.655 78.403 C 55.015 74.963, 52.759 74.218, 48.837 75.820 C 47.358 76.425, 47.321 76.926, 48.502 80.345 C 50.266 85.455, 53.370 88.594, 58.651 90.611 C 62.592 92.116, 63 92.587, 63 95.636 C 63 98.707, 63.261 99, 66 99 C 68.819 99, 69 98.766, 69 95.108 C 69 91.849, 69.385 91.120, 71.367 90.623 C 74.774 89.768, 79.866 84.178, 81.154 79.882 C 83.608 71.689, 79.208 64.152, 69.182 59.372 C 62.107 55.999, 59 53.286, 59 50.481 C 59 44.924, 67.575 42.642, 71.465 47.164 C 73.522 49.556, 73.749 49.598, 76.807 48.150 C 78.563 47.318, 80 46.132, 80 45.515 C 80 43.898, 73.901 38.341, 71.250 37.543 C 69.485 37.011, 69 36.125, 69 33.433 C 69 30.285, 68.751 30, 66 30 C 63.259 30, 63 30.291, 63 33.379 " stroke="none" fill="black" fill-rule="evenodd"/>
</svg>