<svg xmlns="http://www.w3.org/2000/svg" width="32" height="32" viewBox="0 0 32 32" version="1.1">
	<path d="M 0 11 L 0 22 4.945 22 L 9.890 22 10.195 26.750 L 10.500 31.500 21.099 31.782 L 31.699 32.065 32.343 23.782 C 32.698 19.227, 32.907 11.900, 32.809 7.500 C 32.672 1.367, 32.544 0.725, 32.263 4.750 L 31.895 10 26.948 10 L 22 10 22 5 L 22 0 11 0 L 0 0 0 11 M 0.374 11.500 C 0.376 17.550, 0.541 19.896, 0.740 16.713 C 0.939 13.531, 0.937 8.581, 0.736 5.713 C 0.535 2.846, 0.372 5.450, 0.374 11.500 M 2.211 10.750 L 2.500 19.500 7.250 19.805 L 12 20.110 12 25.055 L 12 30 21.039 30 L 30.078 30 29.789 21.250 L 29.500 12.500 24.750 12.195 C 20.085 11.896, 20 11.830, 20 8.527 C 20 2.253, 19.626 2, 10.354 2 L 1.922 2 2.211 10.750 " stroke="none" fill="black" fill-rule="evenodd"/>
</svg>