<svg xmlns="http://www.w3.org/2000/svg" width="128" height="128" viewBox="0 0 128 128" version="1.1">
	<path d="M 38.536 20.732 C 35.467 25.249, 35.329 27, 38.042 27 C 40.005 27, 39.980 27.179, 37.399 31.583 L 34.713 36.166 39.606 35.445 L 44.500 34.724 39.430 40.112 C 36.641 43.075, 33.941 45.635, 33.430 45.801 C 32.563 46.081, 32.130 44.429, 30.526 34.735 L 29.904 30.970 25.370 34.090 C 21.801 36.545, 20.945 37.666, 21.350 39.355 C 22.947 46.025, 23.143 49.123, 22.049 50.441 C 21.138 51.539, 21.249 53.366, 22.542 58.521 C 24.085 64.674, 24.090 65.619, 22.606 70.907 C 20.731 77.590, 20.550 81.683, 22.106 82.202 C 22.913 82.471, 22.915 83.643, 22.112 86.535 C 20.083 93.843, 20.538 95.545, 24.866 96.842 C 30.421 98.506, 31 98.337, 31 95.049 C 31 91.126, 32.991 81.988, 33.833 82.045 C 34.200 82.069, 36.696 84.058, 39.381 86.464 L 44.261 90.838 39.668 91.527 L 35.075 92.216 37.532 95.833 L 39.990 99.449 37.385 100.814 L 34.781 102.179 38.039 105.541 C 41.145 108.745, 41.445 108.841, 44.434 107.592 C 46.159 106.871, 51.010 104.193, 55.215 101.641 C 59.420 99.088, 63.097 97, 63.386 97 C 63.675 97, 65.619 98.168, 67.706 99.596 C 69.793 101.023, 74.622 103.771, 78.438 105.703 L 85.376 109.215 88.161 105.857 C 91.270 102.109, 91.752 100, 89.500 100 C 87.541 100, 87.595 98.024, 89.633 95.114 C 91.642 92.245, 90.309 91.056, 85 90.982 L 81.500 90.933 84 88.955 C 85.375 87.867, 88.144 85.643, 90.153 84.013 C 94.473 80.509, 94.785 80.888, 95.707 90.770 C 96.031 94.232, 96.566 97.218, 96.898 97.405 C 97.229 97.593, 99.444 96.908, 101.821 95.884 C 105.087 94.477, 106.015 93.592, 105.624 92.261 C 104.263 87.629, 103.868 82.858, 104.754 81.739 C 105.405 80.916, 105.240 78.316, 104.264 74 C 102.453 65.999, 102.452 66.039, 104.632 57.693 C 106.021 52.379, 106.156 50.479, 105.250 49.029 C 104.444 47.737, 104.381 46.158, 105.045 43.843 C 106.775 37.811, 106.326 36.684, 100.999 33.692 L 96 30.885 96 33.893 C 96 38.367, 93.969 47, 92.917 47 C 92.413 47, 92 46.586, 92 46.081 C 92 45.575, 89.654 42.595, 86.787 39.457 L 81.574 33.754 86.866 34.482 L 92.157 35.209 89.635 31.215 C 87.005 27.048, 87.108 26, 90.146 26 C 91.695 26, 91.496 25.343, 88.781 21.492 C 85.195 16.403, 84.667 16.359, 72.500 20.120 C 64.851 22.484, 64.680 22.478, 54.403 19.500 C 42.786 16.133, 41.598 16.226, 38.536 20.732 M 55.315 42.250 C 49.669 48.008, 40 61.602, 40 63.780 C 40 64.292, 42.648 67.588, 45.885 71.105 C 52.835 78.658, 61.869 84.509, 65.234 83.638 C 68.891 82.691, 78.558 74.500, 83.069 68.525 L 87.242 62.997 83.871 57.315 C 79.504 49.953, 66.147 36, 63.467 36 C 62.303 36, 58.836 38.658, 55.315 42.250 " stroke="none" fill="black" fill-rule="evenodd"/>
</svg>