<svg xmlns="http://www.w3.org/2000/svg" width="130" height="130" viewBox="0 0 130 130" version="1.1">
	<path d="M 56.500 9.630 C 53.200 11.585, 50.130 13.536, 49.678 13.964 C 49.226 14.393, 52.038 16.579, 55.928 18.821 L 63 22.899 63 14.449 C 63 9.802, 62.888 6.017, 62.750 6.038 C 62.612 6.058, 59.800 7.675, 56.500 9.630 M 65 14.051 C 65 18.423, 65.338 21.999, 65.750 21.997 C 66.368 21.995, 77.802 15.436, 78.801 14.510 C 78.966 14.357, 75.929 12.402, 72.051 10.166 L 65 6.101 65 14.051 M 38.768 19.860 C 35.065 21.862, 32.027 23.799, 32.018 24.164 C 32.008 24.529, 34.959 26.483, 38.576 28.505 C 42.192 30.528, 44.926 32.407, 44.651 32.682 C 44.376 32.957, 41.192 31.528, 37.576 29.505 L 31 25.828 31 33.973 L 31 42.117 38.028 38.309 C 42.246 36.023, 45.264 33.696, 45.577 32.488 C 45.863 31.382, 45.963 27.269, 45.799 23.348 L 45.500 16.220 38.768 19.860 M 48 23.927 C 48 28.367, 48.245 32, 48.544 32 C 48.844 32, 51.994 30.329, 55.545 28.287 C 62.849 24.086, 62.865 24.172, 53.750 19.071 L 48 15.853 48 23.927 M 72.257 19.843 C 68.823 21.854, 66.011 23.744, 66.007 24.042 C 65.999 24.652, 78.309 32, 79.338 32 C 79.702 32, 80 28.400, 80 24 C 80 19.600, 79.662 16.042, 79.250 16.093 C 78.838 16.143, 75.691 17.831, 72.257 19.843 M 81.738 16.760 C 80.731 18.790, 80.925 32, 81.962 32 C 82.582 32, 86.023 30.313, 89.610 28.250 C 96.025 24.561, 96.094 24.476, 93.892 23 C 88.453 19.356, 82.075 16.082, 81.738 16.760 M 21.257 29.843 C 17.823 31.854, 15.011 33.742, 15.007 34.037 C 15 34.597, 27.503 42, 28.456 42 C 28.755 42, 29 38.400, 29 34 C 29 29.600, 28.663 26.042, 28.250 26.093 C 27.837 26.143, 24.691 27.831, 21.257 29.843 M 64 34.073 C 64 40.038, 64.327 42.062, 65.250 41.823 C 67.106 41.343, 78.975 34.581, 78.981 34 C 78.987 33.454, 65.594 26, 64.607 26 C 64.273 26, 64 29.633, 64 34.073 M 89.271 29.792 C 85.845 31.832, 83.032 33.742, 83.021 34.037 C 82.999 34.594, 95.494 42, 96.456 42 C 96.755 42, 97 38.400, 97 34 C 97 29.600, 96.662 26.019, 96.250 26.042 C 95.838 26.066, 92.697 27.753, 89.271 29.792 M 98.594 27.615 C 97.654 30.065, 97.903 42, 98.895 42 C 100.058 42, 112.984 34.655, 112.974 34 C 112.970 33.725, 109.866 31.827, 106.077 29.783 C 100.334 26.684, 99.090 26.323, 98.594 27.615 M 14 44.073 L 14 52.147 19.750 48.915 C 28.920 43.761, 28.851 44.121, 21.472 39.840 C 17.831 37.728, 14.661 36, 14.426 36 C 14.192 36, 14 39.633, 14 44.073 M 38.250 39.626 C 34.813 41.582, 32.005 43.479, 32.012 43.841 C 32.021 44.365, 41.994 50.386, 45.250 51.833 C 45.663 52.017, 46 48.529, 46 44.083 C 46 39.638, 45.663 36.016, 45.250 36.035 C 44.837 36.054, 41.688 37.670, 38.250 39.626 M 72.250 39.626 C 68.813 41.582, 66 43.487, 66 43.860 C 66 44.403, 76.017 50.438, 79.232 51.833 C 79.654 52.017, 80 48.529, 80 44.083 C 80 39.638, 79.662 36.016, 79.250 36.035 C 78.838 36.054, 75.688 37.670, 72.250 39.626 M 81.100 44 C 81.036 48.400, 81.251 52, 81.579 52 C 81.907 52, 85.084 50.373, 88.639 48.385 C 92.195 46.397, 95.328 44.995, 95.603 45.270 C 95.878 45.545, 93.107 47.445, 89.446 49.493 C 81.851 53.741, 81.855 53.763, 91.250 58.991 L 97 62.191 96.985 53.845 C 96.976 49.255, 96.639 44.987, 96.235 44.360 C 95.362 43.006, 83.592 36, 82.190 36 C 81.650 36, 81.165 39.559, 81.100 44 M 106.538 39.636 C 103.259 41.594, 100.011 43.940, 99.320 44.848 C 98.184 46.342, 97.355 62, 98.412 62 C 98.639 62, 102.038 60.147, 105.967 57.882 C 113.938 53.286, 114.025 53.931, 104.705 48.534 C 102.067 47.007, 100.141 45.526, 100.424 45.243 C 100.706 44.960, 103.684 46.365, 107.040 48.365 C 110.397 50.364, 113.336 52, 113.572 52 C 113.807 52, 114 48.400, 114 44 C 114 39.600, 113.662 36.017, 113.250 36.038 C 112.838 36.058, 109.817 37.677, 106.538 39.636 M 21.690 49.195 C 13.978 53.853, 13.960 53.738, 23.250 58.852 L 29 62.017 29 53.509 C 29 48.829, 28.887 45.018, 28.750 45.041 C 28.613 45.063, 25.435 46.932, 21.690 49.195 M 31 54.020 L 31 62.040 35.826 59.270 C 46.189 53.322, 45.993 53.996, 38.610 49.750 C 35.023 47.688, 31.844 46, 31.544 46 C 31.245 46, 31 49.609, 31 54.020 M 14 63.314 C 14 73.026, 14.096 73.192, 22.555 78.031 C 25.615 79.782, 27.921 81.412, 27.679 81.654 C 27.437 81.896, 24.261 80.456, 20.620 78.455 L 14 74.816 14 83 L 14 91.184 20.750 87.479 C 24.462 85.442, 27.831 83.263, 28.235 82.638 C 28.639 82.012, 28.976 77.749, 28.985 73.164 L 29 64.828 22.424 68.505 C 18.808 70.528, 15.624 71.957, 15.349 71.682 C 15.074 71.407, 17.808 69.528, 21.424 67.505 C 25.041 65.483, 28 63.684, 28 63.509 C 28 63.334, 25.863 61.948, 23.250 60.430 C 20.637 58.911, 17.488 57.017, 16.250 56.220 L 14 54.770 14 63.314 M 72.553 59.203 L 65.607 63.327 67.977 64.913 C 69.280 65.786, 72.519 67.747, 75.174 69.270 L 80 72.040 80 63.520 C 80 58.834, 79.888 55.018, 79.750 55.040 C 79.612 55.062, 76.374 56.935, 72.553 59.203 M 81.032 62.750 C 81.070 72.005, 81.604 72.874, 90.431 78.031 L 97 81.870 97 73.349 L 97 64.828 90.424 68.505 C 86.808 70.528, 83.638 71.971, 83.379 71.713 C 83.121 71.454, 85.067 69.993, 87.705 68.466 C 97.025 63.069, 96.938 63.714, 88.967 59.118 C 85.038 56.853, 81.639 55, 81.412 55 C 81.185 55, 81.014 58.487, 81.032 62.750 M 107.682 58.431 C 98.960 63.385, 98.969 63.299, 106.654 67.810 L 113.500 71.828 113.806 67.944 C 113.974 65.808, 113.974 62.050, 113.806 59.594 L 113.500 55.127 107.682 58.431 M 31 72.981 C 31 77.392, 31.245 81, 31.544 81 C 32.503 81, 45.001 73.595, 44.983 73.037 C 44.974 72.742, 41.824 70.804, 37.983 68.731 L 31 64.963 31 72.981 M 64 73 C 64 78.070, 64.396 81, 65.082 81 C 65.956 81, 77.618 74.626, 78.827 73.488 C 79.216 73.121, 65.691 65, 64.692 65 C 64.311 65, 64 68.600, 64 73 M 98.265 72.990 C 98.394 77.384, 98.804 80.984, 99.176 80.990 C 99.548 80.995, 102.831 79.272, 106.472 77.160 C 111.431 74.283, 112.766 73.069, 111.795 72.319 C 109.929 70.875, 99.370 65, 98.643 65 C 98.306 65, 98.136 68.595, 98.265 72.990 M 38.257 78.843 C 34.823 80.854, 32.019 82.725, 32.026 83 C 32.040 83.551, 44.523 91, 45.433 91 C 45.745 91, 46 87.400, 46 83 C 46 78.600, 45.663 75.042, 45.250 75.093 C 44.837 75.143, 41.691 76.831, 38.257 78.843 M 106.250 78.764 C 102.813 80.781, 100 82.746, 100 83.130 C 100 83.812, 112.250 91, 113.412 91 C 113.736 91, 114 87.400, 114 83 C 114 78.600, 113.662 75.022, 113.250 75.048 C 112.838 75.075, 109.688 76.747, 106.250 78.764 M 89.691 88.257 C 81.954 92.865, 81.946 92.813, 91.250 97.991 L 97 101.191 97 92.595 C 97 87.868, 96.888 84.045, 96.750 84.101 C 96.612 84.156, 93.436 86.027, 89.691 88.257 M 21.250 88.764 C 17.813 90.781, 15.003 92.672, 15.007 92.966 C 15.010 93.260, 18.160 95.214, 22.007 97.309 L 29 101.117 29 93.059 C 29 88.626, 28.663 85.022, 28.250 85.048 C 27.837 85.075, 24.688 86.747, 21.250 88.764 M 31 93.073 L 31 101.147 36.750 97.915 C 45.849 92.800, 45.770 93.154, 38.774 88.893 C 35.324 86.790, 32.163 85.055, 31.750 85.035 C 31.337 85.016, 31 88.633, 31 93.073 M 98.699 91.749 C 98.808 95.462, 98.921 99.081, 98.949 99.792 C 98.996 100.995, 102.631 99.304, 110.882 94.242 C 113.253 92.788, 113.231 92.761, 106.559 88.890 C 102.870 86.751, 99.548 85, 99.176 84.999 C 98.804 84.999, 98.590 88.037, 98.699 91.749 M 38.666 98.218 C 30.916 102.801, 30.901 102.705, 40.250 107.852 L 46 111.017 46 102.509 C 46 97.829, 45.888 94.039, 45.750 94.088 C 45.612 94.136, 42.425 95.994, 38.666 98.218 M 48 102.680 L 48 111.230 50.250 109.780 C 51.487 108.983, 54.658 107.077, 57.295 105.544 C 59.933 104.011, 61.877 102.544, 61.617 102.284 C 61.357 102.023, 58.186 100.082, 54.572 97.970 L 48 94.130 48 102.680 M 72.645 98.150 C 64.862 102.771, 64.845 102.666, 74.250 107.929 L 80 111.147 80 102.573 C 80 97.858, 79.888 94.018, 79.750 94.040 C 79.612 94.062, 76.415 95.911, 72.645 98.150 M 81 101.418 C 81 111.377, 81.080 111.429, 89.123 106.792 C 92.961 104.579, 95.966 102.643, 95.801 102.490 C 94.371 101.164, 83.222 95.005, 82.250 95.003 C 81.380 95.001, 81 96.949, 81 101.418 M 56.682 107.434 C 47.973 112.376, 47.979 112.331, 55.455 116.512 C 59.112 118.557, 62.325 120.008, 62.596 119.737 C 62.867 119.466, 62.956 115.845, 62.794 111.689 L 62.500 104.133 56.682 107.434 M 65 111.885 C 65 116.348, 65.264 120, 65.588 120 C 66.344 120, 79 112.931, 79 112.509 C 79 112.334, 76.862 110.948, 74.250 109.430 C 71.638 107.911, 68.487 106.017, 67.250 105.220 L 65 103.770 65 111.885 " stroke="none" fill="black" fill-rule="evenodd"/>
</svg>