<svg xmlns="http://www.w3.org/2000/svg" width="128" height="128" viewBox="0 0 128 128" version="1.1">
	<path d="M 50.209 1.525 C 27.540 6.447, 8.476 24.938, 2.570 47.730 C 0.523 55.628, 0.532 71.397, 2.586 79.356 C 5.162 89.331, 11.548 100.454, 18.967 107.886 C 26.567 115.498, 33.758 120.035, 44.165 123.783 C 50.616 126.106, 53.006 126.424, 64 126.424 C 74.994 126.424, 77.384 126.106, 83.835 123.783 C 94.242 120.035, 101.433 115.498, 109.033 107.886 C 116.452 100.454, 122.838 89.331, 125.414 79.356 C 127.468 71.397, 127.477 55.628, 125.430 47.730 C 116.889 14.771, 83.542 -5.713, 50.209 1.525 M 21.304 40.956 C 19.179 42.252, 17.717 44.211, 16.939 46.808 C 15.331 52.176, 17.520 56.459, 24.182 60.981 C 31.628 66.035, 32.992 68.801, 32.996 78.850 C 33 87.011, 33.077 87.277, 36.400 90.600 C 39.123 93.323, 40.589 94, 43.765 94 C 50.671 94, 54.152 89.769, 55.488 79.755 C 56.291 73.734, 60.038 69, 64 69 C 67.962 69, 71.709 73.734, 72.512 79.755 C 73.848 89.769, 77.329 94, 84.235 94 C 87.411 94, 88.877 93.323, 91.600 90.600 C 94.923 87.277, 95 87.011, 95.004 78.850 C 95.008 68.801, 96.372 66.035, 103.818 60.981 C 110.480 56.459, 112.669 52.176, 111.061 46.808 C 109.022 40.003, 101.156 37.022, 94.936 40.697 C 91.093 42.967, 90.745 43.972, 90.030 54.870 C 89.443 63.828, 89.274 64.366, 86.192 67.120 C 82.200 70.687, 81.538 70.692, 78.033 67.187 C 76.109 65.263, 74.836 62.528, 74.008 58.540 C 72.447 51.018, 69.581 48, 64 48 C 58.419 48, 55.553 51.018, 53.992 58.540 C 53.164 62.528, 51.891 65.263, 49.967 67.187 C 46.462 70.692, 45.800 70.687, 41.808 67.120 C 38.726 64.366, 38.557 63.828, 37.970 54.870 C 37.255 43.972, 36.907 42.967, 33.064 40.697 C 29.288 38.466, 25.241 38.555, 21.304 40.956 " stroke="none" fill="black" fill-rule="evenodd"/>
</svg>