<svg xmlns="http://www.w3.org/2000/svg" width="128" height="128" viewBox="0 0 128 128" version="1.1">
	<path d="M 60.750 4.357 C 59.049 7.050, 58 10.100, 58 12.356 C 58 14.361, 57.115 24.889, 56.033 35.751 C 54.951 46.613, 52.690 69.890, 51.008 87.477 L 47.950 119.454 49.974 120.977 C 51.087 121.815, 54.179 123.724, 56.844 125.221 L 61.692 127.942 62.342 113.721 C 62.700 105.899, 62.994 96.597, 62.996 93.050 C 62.998 89.502, 63.365 87.027, 63.812 87.550 C 64.258 88.072, 64.261 97.241, 63.819 107.924 C 63.377 118.607, 63.155 127.489, 63.328 127.661 C 63.500 127.833, 66.506 126.444, 70.007 124.573 L 76.373 121.172 76.278 115.336 L 76.183 109.500 76.883 114.208 C 77.268 116.797, 77.880 119.214, 78.244 119.578 C 78.895 120.228, 106.521 104.584, 107.489 103.018 C 108.200 101.868, 99.844 67.630, 98.659 66.839 C 98.114 66.475, 95.661 65.876, 93.207 65.508 C 86.120 64.446, 86 64.327, 86 58.393 C 86 55.427, 86.338 53.032, 86.750 53.072 C 87.162 53.112, 89.300 55.329, 91.500 58 C 95.343 62.665, 98 64.249, 98 61.874 C 98 59.539, 93.708 42.414, 92.627 40.437 C 92.007 39.303, 88.131 33.511, 84.014 27.567 C 77.355 17.952, 76.455 17.021, 75.864 19.130 C 75.498 20.433, 75.155 35.337, 75.100 52.250 L 75 83 80.921 83 C 86.581 83, 86.865 83.121, 87.383 85.750 C 88.879 93.347, 89.171 98, 88.152 98 C 87.174 98, 86.374 95.701, 84.568 87.699 C 83.963 85.017, 83.714 84.911, 78.718 85.199 L 73.500 85.500 71.346 79.884 L 69.192 74.268 71.131 65.943 C 72.539 59.897, 73.265 51.750, 73.785 36.175 L 74.500 14.731 72.094 10.616 C 69.209 5.683, 69.110 5.553, 68.599 6.083 C 68.378 6.312, 67.673 16.625, 67.031 29 C 65.872 51.364, 65.351 56.685, 64.412 55.745 C 64.142 55.475, 64.660 44.153, 65.565 30.586 C 66.881 10.835, 66.964 5.329, 65.983 2.959 C 65.309 1.332, 64.474 0.001, 64.129 0.002 C 63.783 0.003, 62.263 1.962, 60.750 4.357 M 61.758 5.250 C 60.765 6.769, 59.588 15.137, 58.136 31 C 56.014 54.184, 55.502 64.793, 56.882 57.011 C 57.287 54.723, 58.133 53.402, 59.339 53.171 C 61.024 52.848, 61.130 53.392, 60.594 59.659 C 60.272 63.422, 60.257 65.974, 60.560 65.332 C 61.326 63.710, 65.737 5.791, 65.212 4.250 C 64.578 2.390, 63.408 2.728, 61.758 5.250 M 68.521 31.593 C 68.017 46.647, 67.347 54.565, 66.381 56.904 C 64.327 61.871, 65.352 61.766, 67.594 56.779 L 69.500 52.537 70.062 56.018 C 70.689 59.910, 71.574 49.487, 72.482 27.500 C 72.965 15.803, 72.830 14.259, 71.137 12.093 C 69.273 9.710, 69.248 9.897, 68.521 31.593 M 45.259 26.185 C 34.550 41.172, 34.270 41.704, 32.177 51 C 27.584 71.404, 28.266 73.887, 35.065 61.500 C 42.332 48.258, 40.394 53.496, 32.197 69.250 C 24.251 84.521, 18.679 101.079, 20.780 103.180 C 23.129 105.529, 46.065 118.704, 46.521 117.966 C 47.119 116.998, 52.203 60.869, 51.734 60.401 C 51.565 60.232, 49.004 68.173, 46.041 78.047 C 43.079 87.921, 40.358 96, 39.994 96 C 38.660 96, 38.041 94.654, 38.888 93.592 C 40.839 91.144, 53.234 49.135, 53.668 43.500 C 53.922 40.200, 54.733 31.650, 55.470 24.500 C 56.207 17.350, 56.674 11.358, 56.507 11.185 C 56.340 11.012, 51.278 17.762, 45.259 26.185 M 45.204 28.820 C 36.624 40.882, 35.968 42.166, 34.101 50.545 C 33.010 55.443, 32.214 59.547, 32.332 59.665 C 32.450 59.783, 34.980 55.389, 37.955 49.899 C 43.267 40.098, 43.397 39.953, 45.262 41.817 C 47.126 43.681, 47.060 43.915, 41.571 54.858 C 35.935 66.095, 34.612 70.158, 39.532 61.118 C 41.616 57.289, 42.611 56.347, 44.145 56.748 C 45.723 57.161, 45.997 57.864, 45.559 60.380 C 45.260 62.096, 46.388 59.675, 48.065 55 C 50.310 48.739, 51.567 42.482, 52.835 31.250 C 53.782 22.863, 54.505 16, 54.440 16 C 54.376 16, 50.220 21.769, 45.204 28.820 M 77.196 47.550 C 77.304 62.373, 77.549 71.463, 77.742 67.750 C 78.071 61.401, 78.233 61, 80.476 61 C 82.154 61, 82.989 61.667, 83.294 63.250 C 83.689 65.300, 84.360 57.238, 84.459 49.249 C 84.482 47.461, 84.811 45.999, 85.190 45.999 C 85.570 46, 87.780 48.252, 90.102 51.005 C 92.423 53.759, 94.452 55.881, 94.612 55.722 C 94.771 55.563, 94.193 52.298, 93.328 48.466 C 92.075 42.915, 90.429 39.570, 85.228 32 C 81.638 26.775, 78.319 22.073, 77.851 21.550 C 77.381 21.026, 77.088 32.677, 77.196 47.550 M 69.158 62 C 69.158 63.375, 69.385 63.938, 69.662 63.250 C 69.940 62.563, 69.940 61.438, 69.662 60.750 C 69.385 60.063, 69.158 60.625, 69.158 62 M 55.232 65 C 55.232 66.925, 55.438 67.713, 55.689 66.750 C 55.941 65.787, 55.941 64.213, 55.689 63.250 C 55.438 62.288, 55.232 63.075, 55.232 65 M 63.624 63.539 C 62.659 66.053, 62.943 66.702, 64.122 64.675 C 64.706 63.671, 64.973 62.639, 64.715 62.382 C 64.458 62.124, 63.966 62.645, 63.624 63.539 M 68.079 66.583 C 68.127 67.748, 68.364 67.985, 68.683 67.188 C 68.972 66.466, 68.936 65.603, 68.604 65.271 C 68.272 64.939, 68.036 65.529, 68.079 66.583 M 86.500 67 C 87.600 67.473, 89.400 67.846, 90.500 67.830 C 92.108 67.806, 92.010 67.644, 90 67 C 86.581 65.905, 83.952 65.905, 86.500 67 M 93 68.383 C 93 68.594, 94.125 68.982, 95.500 69.245 C 96.875 69.508, 98 69.335, 98 68.861 C 98 68.388, 96.875 68, 95.500 68 C 94.125 68, 93 68.173, 93 68.383 M 48.079 76.583 C 48.127 77.748, 48.364 77.985, 48.683 77.188 C 48.972 76.466, 48.936 75.603, 48.604 75.271 C 48.272 74.939, 48.036 75.529, 48.079 76.583 M 74.232 93 C 74.232 94.925, 74.438 95.713, 74.689 94.750 C 74.941 93.787, 74.941 92.213, 74.689 91.250 C 74.438 90.287, 74.232 91.075, 74.232 93 M 75.272 104 C 75.272 106.475, 75.467 107.487, 75.706 106.250 C 75.944 105.013, 75.944 102.987, 75.706 101.750 C 75.467 100.513, 75.272 101.525, 75.272 104 " stroke="none" fill="black" fill-rule="evenodd"/>
</svg>