<svg xmlns="http://www.w3.org/2000/svg" width="259" height="259" viewBox="0 0 259 259" version="1.1">
	<path d="M -0 129.504 L -0 259.007 129.750 258.754 L 259.500 258.500 259.754 129.250 L 260.008 0 130.004 0 L 0 0 -0 129.504 M 0.485 130 C 0.485 201.225, 0.604 230.362, 0.750 194.750 C 0.895 159.137, 0.895 100.862, 0.750 65.250 C 0.604 29.637, 0.485 58.775, 0.485 130 M 20.571 70.571 C 18.240 72.903, 18.223 148.595, 20.552 157.540 C 26.575 180.669, 50.092 194.027, 72.701 187.159 C 85.890 183.153, 96.857 172.181, 100.624 159.221 C 103.220 150.291, 102.205 137.890, 98.214 129.784 C 94.175 121.579, 86.190 113.930, 77.259 109.709 C 71.127 106.811, 69.610 106.514, 60.905 106.507 C 48.258 106.498, 48 106.728, 48 118 C 48 128.275, 48.984 129.898, 54.128 128.105 C 67.416 123.473, 81.286 133.379, 81.286 147.500 C 81.286 161.330, 69.460 170.242, 54.957 167.341 C 50.343 166.419, 42.494 158.575, 41.105 153.500 C 40.401 150.923, 40.009 135.605, 40.006 110.450 C 40.001 81.417, 39.692 71.092, 38.800 70.200 C 36.924 68.324, 22.525 68.618, 20.571 70.571 M 219.155 71.313 C 218.418 72.201, 217.974 85.935, 217.783 113.728 L 217.500 154.830 214.487 159.165 C 202.876 175.868, 177 167.816, 177 147.500 C 177 133.931, 185.914 126.510, 201.430 127.161 L 209.500 127.500 209.790 118.651 C 209.968 113.246, 209.652 109.285, 208.978 108.474 C 207.328 106.486, 196.180 105.613, 189.675 106.964 C 171.021 110.836, 157.559 126.087, 156.276 144.801 C 155.064 162.485, 164.090 177.410, 180.777 185.315 C 186.939 188.234, 188.334 188.500, 197.500 188.500 C 206.681 188.500, 208.054 188.237, 214.274 185.291 C 221.919 181.670, 230.596 173.672, 233.895 167.205 C 238.646 157.894, 239 154.087, 239 112.372 C 239 90.807, 238.727 72.452, 238.393 71.582 C 237.903 70.306, 236.091 70, 229.015 70 C 222.994 70, 219.903 70.412, 219.155 71.313 M 146.500 106.672 C 145.400 106.971, 141.892 108.306, 138.705 109.639 C 132.539 112.218, 131 112.072, 131 108.905 C 131 107.051, 130.392 106.945, 121.250 107.214 L 111.500 107.500 111.500 147.500 L 111.500 187.500 121 187.500 L 130.500 187.500 131 165 C 131.421 146.035, 131.782 141.933, 133.296 138.893 C 135.907 133.650, 140.193 129.966, 145.947 128.018 C 150.314 126.540, 151.581 125.449, 155.251 120.003 C 162.757 108.867, 162.595 109.195, 161.250 107.850 C 159.959 106.559, 149.880 105.754, 146.500 106.672 " stroke="none" fill="black" fill-rule="evenodd"/>
</svg>