<svg xmlns="http://www.w3.org/2000/svg" width="400" height="400" viewBox="0 0 400 400" version="1.1">
	<path d="M 190.500 5.165 C 186.092 8.135, 137.116 43.843, 55.623 103.500 C 41.348 113.950, 28.731 123.770, 27.585 125.323 C 25.517 128.123, 25.500 128.748, 25.500 199.823 L 25.500 271.500 27.743 274.644 C 28.976 276.373, 49.676 292.168, 73.743 309.744 C 97.809 327.319, 133.655 353.522, 153.399 367.972 C 173.144 382.421, 190.825 395.144, 192.691 396.245 C 195.236 397.747, 197.273 398.132, 200.849 397.789 C 205.121 397.378, 207.733 395.779, 226.058 382.356 C 237.301 374.120, 259.706 357.733, 275.847 345.941 C 353.351 289.316, 369.475 277.292, 371.411 274.677 C 373.484 271.875, 373.500 271.309, 373.500 200.133 C 373.500 132.405, 373.398 128.257, 371.676 125.628 C 369.826 122.805, 364.862 119.041, 313.360 81.415 C 297.487 69.819, 266.742 47.348, 245.037 31.480 C 207.479 4.022, 205.330 2.609, 200.537 2.213 C 196.110 1.846, 194.894 2.204, 190.500 5.165 M 183.111 31.382 C 181.358 33.248, 180.941 34.709, 181.187 38.132 C 181.492 42.393, 181.592 42.508, 185.250 42.810 C 188.834 43.107, 189 42.985, 189 40.060 L 189 37 198.500 37 L 208 37 208 48 L 208 59 212 59 L 216 59 216 45.655 C 216 28.275, 216.746 29, 198.846 29 C 185.920 29, 185.254 29.101, 183.111 31.382 M 161.667 43.667 C 161.300 44.033, 161 52.133, 161 61.667 L 161 79 165 79 L 169 79 169 61 L 169 43 165.667 43 C 163.833 43, 162.033 43.300, 161.667 43.667 M 233 60.500 L 233 65 244 65 L 255 65 255 60.500 L 255 56 244 56 L 233 56 233 60.500 M 188 61.120 C 188 61.736, 189.890 65.561, 192.199 69.620 C 196.397 76.999, 196.399 77, 200.699 77 C 203.065 77, 205 76.824, 205 76.608 C 205 76.392, 202.948 72.567, 200.440 68.108 C 195.941 60.107, 195.829 60, 191.940 60 C 189.699 60, 188 60.483, 188 61.120 M 218.232 93.250 L 218.500 116.500 222.224 116.809 L 225.949 117.118 226.224 101.372 L 226.500 85.627 235.490 99.813 C 240.435 107.616, 245.048 114, 245.740 114 C 246.598 114, 247 112.276, 247 108.606 C 247 103.464, 246.504 102.433, 236.404 86.606 L 225.807 70 221.885 70 L 217.963 70 218.232 93.250 M 251 81 L 251 85 255 85 L 259 85 259 81 L 259 77 255 77 L 251 77 251 81 M 112.697 79.637 C 112.314 80.020, 112 81.833, 112 83.667 C 112 86.889, 112.133 87, 116 87 C 118.200 87, 119.984 87.338, 119.965 87.750 C 119.945 88.162, 116.290 90.690, 111.843 93.366 L 103.757 98.231 106.629 100.580 C 108.208 101.871, 109.846 102.944, 110.268 102.964 C 110.691 102.984, 116.900 99.313, 124.067 94.806 C 137.082 86.622, 137.097 86.608, 136.799 83.056 L 136.500 79.500 124.947 79.220 C 118.592 79.066, 113.080 79.253, 112.697 79.637 M 182 86 L 182 90 186 90 L 190 90 190 86 L 190 82 186 82 L 182 82 182 86 M 142 96.986 C 142 102.675, 142.328 103.474, 148.590 113.063 C 152.214 118.613, 155.324 123.006, 155.501 122.827 C 155.678 122.647, 158.522 118.387, 161.821 113.359 C 167.402 104.855, 167.843 103.758, 168.160 97.607 C 168.347 93.971, 168.275 91.002, 168 91.010 C 167.725 91.017, 164.768 95.329, 161.428 100.591 L 155.356 110.158 149.103 100.579 C 145.664 95.311, 142.659 91, 142.425 91 C 142.191 91, 142 93.694, 142 96.986 M 263 94.978 L 263 99 282.560 99 L 302.121 99 301.810 95.250 L 301.500 91.500 282.250 91.228 L 263 90.957 263 94.978 M 194 116.940 L 194 132 184.500 132 L 175 132 175 129 C 175 126.167, 174.778 126, 171 126 L 167 126 167 131.345 C 167 139.547, 167.898 140, 184.154 140 C 202.794 140, 202.143 140.779, 201.776 118.908 L 201.500 102.500 197.750 102.190 L 194 101.879 194 116.940 M 319.966 110.500 C 319.947 110.775, 319.913 116.513, 319.891 123.250 L 319.851 135.500 323.926 135.807 L 328 136.115 328 123.057 L 328 110 324 110 C 321.800 110, 319.984 110.225, 319.966 110.500 M 280.484 117.208 C 280.216 117.918, 278.024 125.386, 275.612 133.802 L 271.227 149.104 275.267 148.802 L 279.307 148.500 281.652 140 C 282.941 135.325, 284.465 129.813, 285.037 127.750 C 285.862 124.774, 286.563 124, 288.429 124 C 290.533 124, 291.010 124.870, 292.950 132.250 C 297.211 148.461, 297.212 148.463, 301.327 148.810 C 303.857 149.024, 304.991 148.713, 304.971 147.810 C 304.955 147.090, 302.996 139.750, 300.617 131.500 L 296.291 116.500 288.630 116.208 C 283.068 115.995, 280.837 116.269, 280.484 117.208 M 60.403 121.392 C 60.099 122.183, 59.997 124.107, 60.175 125.666 L 60.500 128.500 78 128.500 L 95.500 128.500 95.500 124.500 L 95.500 120.500 78.228 120.226 C 63.941 120, 60.860 120.201, 60.403 121.392 M 101.417 121.355 C 101.106 122.167, 100.997 124.107, 101.175 125.666 C 101.472 128.252, 101.850 128.500, 105.500 128.500 L 109.500 128.500 109.500 124.500 C 109.500 120.598, 109.408 120.492, 105.742 120.189 C 103.134 119.973, 101.811 120.330, 101.417 121.355 M 131 130.500 L 131 140 135 140 L 139 140 139 130.500 L 139 121 135 121 L 131 121 131 130.500 M 340 126.975 C 340 127.574, 341.913 131.420, 344.250 135.522 C 348.487 142.956, 348.513 142.979, 352.750 142.989 C 355.087 142.995, 356.977 142.662, 356.950 142.250 C 356.922 141.838, 354.953 138.125, 352.574 134 C 348.390 126.746, 348.113 126.490, 344.124 126.193 C 341.627 126.006, 340 126.315, 340 126.975 M 219 145.940 L 219 159 223.030 159 L 227.060 159 226.780 146.250 L 226.500 133.500 222.750 133.190 L 219 132.879 219 145.940 M 247 140 L 247 144 251 144 L 255 144 255 140 L 255 136 251 136 L 247 136 247 140 M 105.500 149.156 C 100.550 152.458, 96.414 155.461, 96.309 155.830 C 96.205 156.198, 100.554 159.335, 105.974 162.800 C 115.703 169.019, 115.910 169.096, 122.136 168.800 L 128.443 168.500 118.523 162.160 L 108.602 155.821 118.551 149.424 L 128.500 143.026 121.500 143.089 C 114.651 143.151, 114.306 143.281, 105.500 149.156 M 320.193 152.250 C 320.491 156.382, 320.597 156.500, 324 156.500 C 327.403 156.500, 327.509 156.382, 327.807 152.250 L 328.115 148 324 148 L 319.885 148 320.193 152.250 M 38.394 150.416 C 38.095 151.194, 37.997 153.107, 38.175 154.666 L 38.500 157.500 50.750 158 L 63.001 158.500 58.463 161.366 L 53.925 164.231 57.157 166.616 C 58.934 167.927, 60.557 169, 60.763 169 C 60.969 169, 65.154 166.412, 70.064 163.250 L 78.990 157.500 78.995 153.250 L 79 149 58.969 149 C 42.617 149, 38.837 149.260, 38.394 150.416 M 155.394 158.416 C 155.095 159.194, 154.997 161.020, 155.175 162.473 L 155.500 165.116 173 165.115 L 190.500 165.113 190.807 161.057 L 191.115 157 173.526 157 C 159.281 157, 155.834 157.269, 155.394 158.416 M 199 161 L 199 165 203 165 L 207 165 207 161 L 207 157 203 157 L 199 157 199 161 M 237.655 164.829 C 236.287 166.341, 236 169, 236 180.174 C 236 198.183, 234.658 197.128, 257.106 196.774 L 274.500 196.500 274.500 193 L 274.500 189.500 259.250 189.224 L 244 188.948 244 179.974 L 244 171 247 171 C 249.833 171, 250 170.778, 250 167 L 250 163 244.655 163 C 240.747 163, 238.865 163.492, 237.655 164.829 M 275.193 170.250 C 275.491 174.382, 275.597 174.500, 279 174.500 C 282.403 174.500, 282.509 174.382, 282.807 170.250 L 283.115 166 279 166 L 274.885 166 275.193 170.250 M 302.193 170.250 L 302.500 174.500 319.750 174.774 L 337 175.047 337 170.524 L 337 166 319.443 166 L 301.885 166 302.193 170.250 M 136.390 177.427 C 136.088 178.212, 135.990 179.900, 136.171 181.177 C 136.488 183.413, 136.883 183.511, 146.750 183.785 L 157 184.070 157 180.035 L 157 176 146.969 176 C 139.201 176, 136.814 176.322, 136.390 177.427 M 181 180 L 181 184 196 184 L 211 184 211 193 L 211 202 208 202 C 205.167 202, 205 202.222, 205 206 L 205 210 210.345 210 C 218.549 210, 219 209.104, 219 192.826 C 219 181.002, 218.771 179.103, 217.171 177.655 C 215.619 176.250, 212.746 176, 198.171 176 L 181 176 181 180 M 106.505 179.250 C 104.109 186.180, 97.386 211.053, 97.798 211.465 C 98.092 211.759, 99.821 212, 101.639 212 C 104.810 212, 105.009 211.767, 106.547 206.250 C 107.429 203.088, 108.541 199.150, 109.019 197.500 C 109.497 195.850, 110.380 192.588, 110.982 190.250 C 111.856 186.859, 112.525 186, 114.292 186 C 116.277 186, 116.880 187.329, 120.079 198.750 L 123.651 211.500 127.326 211.810 C 129.912 212.029, 131 211.717, 131 210.758 C 131 209.442, 125.090 187.880, 122.913 181.250 L 121.845 178 114.391 178 C 109.325 178, 106.799 178.400, 106.505 179.250 M 328.655 189.829 C 327.520 191.083, 327 193.459, 327 197.392 L 327 203.127 330.246 202.813 C 332.975 202.550, 333.573 202.023, 334.003 199.500 L 334.515 196.500 343.734 196.213 L 352.952 195.926 353.226 213.213 L 353.500 230.500 357 230.500 L 360.500 230.500 360.771 211.309 C 361.119 186.703, 362.082 188, 343.466 188 C 331.991 188, 330.099 188.234, 328.655 189.829 M 76 202.057 L 76 215.115 80.250 214.807 C 82.588 214.638, 84.388 214.162, 84.250 213.750 C 84.112 213.338, 84 207.600, 84 201 L 84 189 80 189 L 76 189 76 202.057 M 50 200 L 50 204 54 204 L 58 204 58 200 L 58 196 54 196 L 50 196 50 200 M 148 220.560 L 148 244.121 151.750 243.810 L 155.500 243.500 156 228.538 L 156.500 213.575 165.118 227.038 C 169.858 234.442, 174.358 240.500, 175.118 240.500 C 176.050 240.500, 176.597 239.005, 176.798 235.908 C 177.074 231.661, 176.482 230.346, 168.913 218.408 C 155.199 196.777, 155.382 197, 151.452 197 L 148 197 148 220.560 M 184 213.560 L 184 224.121 187.750 223.810 L 191.500 223.500 191.785 213.250 L 192.070 203 188.035 203 L 184 203 184 213.560 M 233.417 213.355 C 233.106 214.167, 232.997 216.107, 233.175 217.666 C 233.472 220.252, 233.850 220.500, 237.500 220.500 L 241.500 220.500 241.500 216.500 C 241.500 212.598, 241.408 212.492, 237.742 212.189 C 235.134 211.973, 233.811 212.330, 233.417 213.355 M 260 217 L 260 221 272.500 221 L 285 221 285 217 L 285 213 272.500 213 L 260 213 260 217 M 293.437 215.303 C 293.162 216.019, 293.064 222.432, 293.219 229.553 L 293.500 242.500 297.500 242.500 L 301.500 242.500 301.777 228.250 L 302.055 214 297.996 214 C 295.584 214, 293.734 214.528, 293.437 215.303 M 219 223.500 L 219 228.121 222.750 227.810 C 226.407 227.508, 226.500 227.400, 226.500 223.500 C 226.500 219.600, 226.407 219.492, 222.750 219.190 L 219 218.879 219 223.500 M 92 229 L 92 233 109.500 233 L 127 233 127 229 L 127 225 109.500 225 L 92 225 92 229 M 39.655 229.829 C 38.293 231.334, 38 233.968, 38 244.718 C 38 263.101, 36.816 262.139, 59 261.782 L 76.500 261.500 76.500 258 L 76.500 254.500 61.213 254.224 L 45.926 253.948 46.213 244.724 C 46.496 235.628, 46.535 235.500, 49 235.500 C 51.167 235.500, 51.541 235.001, 51.810 231.750 L 52.121 228 46.715 228 C 42.749 228, 40.869 228.487, 39.655 229.829 M 250.174 235.314 C 248.581 237.011, 248 238.880, 248 242.314 L 248 247 252 247 C 255.778 247, 256 246.833, 256 244 L 256 241 265.466 241 L 274.932 241 275.216 251.750 L 275.500 262.500 279 262.500 L 282.500 262.500 282.781 249.613 C 283.158 232.330, 283.834 233, 266.019 233 C 253.022 233, 252.241 233.114, 250.174 235.314 M 319.250 242.388 L 305 251.500 305 255.750 L 305 260 328.057 260 L 351.115 260 350.807 255.750 L 350.500 251.500 335.749 251.500 C 327.636 251.500, 321.010 251.275, 321.024 251 C 321.038 250.725, 325.314 247.804, 330.527 244.508 C 335.740 241.212, 339.884 238.152, 339.736 237.707 C 339.587 237.262, 338.124 236.083, 336.483 235.087 L 333.500 233.277 319.250 242.388 M 209.481 243.898 L 195.500 252.797 195.193 256.898 L 194.885 261 217.943 261 L 241 261 241 257.026 L 241 253.052 225.760 252.776 L 210.520 252.500 220.793 246 L 231.066 239.500 228.283 237.255 C 226.752 236.020, 225.041 235.008, 224.481 235.005 C 223.920 235.002, 217.170 239.004, 209.481 243.898 M 93 253.029 C 93 258.761, 93.323 259.556, 99.561 269.168 C 103.170 274.730, 106.491 278.878, 106.942 278.389 C 107.394 277.900, 110.291 273.547, 113.381 268.715 C 118.748 260.325, 119 259.635, 119 253.347 L 119 246.764 112.667 256.436 L 106.335 266.107 100.035 256.554 C 96.571 251.299, 93.570 247, 93.368 247 C 93.166 247, 93 249.713, 93 253.029 M 140 259 L 140 263.115 144.250 262.807 C 148.382 262.509, 148.500 262.403, 148.500 259 C 148.500 255.597, 148.382 255.491, 144.250 255.193 L 140 254.885 140 259 M 178.462 268.237 C 178.176 268.985, 178.067 275.875, 178.220 283.548 L 178.500 297.500 182.776 297.809 L 187.053 298.118 186.776 282.809 L 186.500 267.500 182.742 267.189 C 180.264 266.984, 178.806 267.341, 178.462 268.237 M 133 282.482 L 118.500 291.735 118.500 295.618 L 118.500 299.500 141.500 299.500 L 164.500 299.500 164.810 295.750 L 165.121 292 150.060 292 C 141.777 292, 135 291.656, 135 291.235 C 135 290.814, 138.894 288.002, 143.653 284.985 C 148.412 281.968, 152.797 279.180, 153.398 278.789 C 154.114 278.324, 153.803 277.543, 152.495 276.523 C 147.916 272.950, 147.958 272.937, 133 282.482 M 233.107 280.750 C 228.591 296.161, 226 305.464, 226 306.267 C 226 306.737, 227.673 306.981, 229.718 306.810 L 233.435 306.500 237.002 294 C 239.973 283.586, 240.910 281.450, 242.616 281.202 C 244.761 280.891, 244.472 280.149, 250.642 301.750 C 252.131 306.962, 252.171 307, 256.154 307 C 258.949 307, 260.024 306.621, 259.696 305.750 C 259.436 305.063, 257.287 297.637, 254.919 289.250 L 250.614 274 242.849 274 L 235.085 274 233.107 280.750 M 200.010 275.693 C 200.015 276.137, 201.939 279.875, 204.284 284 C 208.445 291.318, 208.652 291.507, 212.774 291.807 C 215.098 291.977, 216.996 291.752, 216.990 291.307 C 216.985 290.863, 215.061 287.125, 212.716 283 C 208.555 275.682, 208.348 275.493, 204.226 275.193 C 201.902 275.023, 200.004 275.248, 200.010 275.693 M 313 283 L 313 287 317 287 L 321 287 321 283 L 321 279 317 279 L 313 279 313 283 M 277 291.200 C 277 297.116, 277.282 297.828, 283.132 306.700 C 286.505 311.815, 289.542 315.997, 289.882 315.992 C 290.222 315.988, 293.313 311.651, 296.750 306.355 C 302.648 297.268, 303 296.388, 303 290.740 C 303 283.447, 302.463 283.745, 295.500 294.899 C 292.750 299.305, 290.203 302.929, 289.839 302.955 C 289.476 302.980, 286.623 298.950, 283.500 294 C 280.377 289.050, 277.636 285, 277.411 285 C 277.185 285, 277 287.790, 277 291.200 M 83 296 L 83 300.068 93.750 299.784 L 104.500 299.500 104.500 296 L 104.500 292.500 93.750 292.216 L 83 291.932 83 296 M 171.190 313.750 L 171.500 317.500 186.250 317.777 L 201 318.053 201 327.027 L 201 336 198 336 C 195.167 336, 195 336.222, 195 340 L 195 344 200.345 344 C 208.549 344, 209 343.104, 209 326.826 C 209 315.002, 208.771 313.103, 207.171 311.655 C 205.619 310.250, 202.742 310, 188.111 310 L 170.879 310 171.190 313.750 M 115 317 L 115 321 119 321 L 123 321 123 317 L 123 313 119 313 L 115 313 115 317 M 245.250 325.199 L 231 334.315 231 338.157 L 231 342 243.500 342 L 256 342 256 338.055 L 256 334.110 251.341 333.805 L 246.681 333.500 256.946 327.122 L 267.211 320.743 264.355 318.408 C 262.785 317.123, 261.050 316.075, 260.500 316.078 C 259.950 316.082, 253.088 320.186, 245.250 325.199 M 130.404 325.390 C 130.100 326.183, 129.997 328.107, 130.175 329.666 L 130.500 332.500 146.809 332.775 L 163.117 333.050 162.809 328.775 L 162.500 324.500 146.728 324.224 C 133.737 323.998, 130.859 324.203, 130.404 325.390 M 160.386 346.564 C 160.716 347.423, 162.809 351.248, 165.037 355.064 C 168.968 361.794, 169.206 362, 173.044 362 C 175.220 362, 177 361.535, 177 360.968 C 177 360.400, 175.088 356.580, 172.750 352.478 L 168.500 345.021 164.143 345.011 C 160.600 345.002, 159.898 345.292, 160.386 346.564 M 214 358 L 214 362 218 362 L 222 362 222 358 L 222 354 218 354 L 214 354 214 358 M 195.447 363.278 C 195.152 364.047, 195.043 368.237, 195.205 372.588 L 195.500 380.500 199.500 380.500 L 203.500 380.500 203.500 371.500 L 203.500 362.500 199.742 362.189 C 197.217 361.980, 195.808 362.338, 195.447 363.278 " stroke="none" fill="black" fill-rule="evenodd"/>
</svg>