<svg xmlns="http://www.w3.org/2000/svg" width="300" height="300" viewBox="0 0 300 300" version="1.1">
	<path d="M 127 9.014 C 69.676 19.129, 24.856 62.977, 12.282 121.242 C 9.758 132.940, 9.763 164.007, 12.292 176 C 24.684 234.768, 70.745 279.158, 129 288.473 C 141.066 290.402, 161.870 290.423, 173.500 288.517 C 231.756 278.971, 276.727 236.405, 290.123 178.130 C 293.301 164.308, 293.766 140.565, 291.155 125.500 C 281.525 69.946, 242.383 26.803, 187.775 11.557 C 170.810 6.821, 145.446 5.759, 127 9.014 M 145 27.500 C 145 28.325, 144.270 29, 143.378 29 C 142.055 29, 141.983 29.275, 142.989 30.487 C 143.668 31.305, 143.963 32.655, 143.643 33.487 C 142.955 35.280, 144.124 35.476, 145.758 33.842 C 146.634 32.966, 147.324 33.024, 148.602 34.085 C 150.113 35.338, 150.217 35.259, 149.604 33.326 C 149.227 32.139, 149.387 30.879, 149.959 30.525 C 151.592 29.516, 151.176 27.718, 149.462 28.376 C 148.587 28.712, 147.679 28.327, 147.355 27.483 C 146.615 25.555, 145 25.567, 145 27.500 M 158 27 C 158 27.550, 157.100 28, 156 28 C 154.900 28, 154 28.450, 154 29 C 154 29.550, 154.450 30, 155 30 C 155.550 30, 156 30.948, 156 32.107 C 156 33.642, 156.442 34.045, 157.627 33.590 C 158.521 33.246, 159.936 33.532, 160.771 34.225 C 162.069 35.302, 162.189 35.170, 161.600 33.316 C 161.113 31.780, 161.435 30.844, 162.706 30.105 C 164.419 29.108, 164.420 29.059, 162.719 29.030 C 161.739 29.014, 160.678 28.325, 160.362 27.500 C 159.716 25.819, 158 25.455, 158 27 M 133.032 28.183 C 133.014 29.108, 132.027 30.174, 130.837 30.552 C 128.921 31.160, 128.864 31.344, 130.337 32.169 C 131.252 32.681, 132 33.640, 132 34.300 C 132 34.966, 133.330 35.500, 134.988 35.500 C 137.409 35.500, 137.868 35.159, 137.405 33.702 C 137.092 32.713, 137.434 31.166, 138.167 30.265 C 139.330 28.835, 139.260 28.716, 137.623 29.330 C 136.377 29.798, 135.295 29.440, 134.405 28.267 C 133.180 26.653, 133.061 26.646, 133.032 28.183 M 171.032 27.750 C 171.014 28.438, 169.805 29, 168.345 29 C 165.844 29, 165.785 29.105, 167.331 30.814 C 168.642 32.262, 168.723 32.894, 167.736 33.950 C 166.729 35.027, 166.917 35.172, 168.749 34.730 C 169.986 34.432, 171.250 34.596, 171.558 35.094 C 172.486 36.596, 173.980 36.112, 173.365 34.508 C 173.038 33.657, 173.481 32.753, 174.396 32.401 C 176.235 31.696, 176.563 30, 174.860 30 C 174.233 30, 173.123 29.212, 172.392 28.250 C 171.581 27.181, 171.051 26.987, 171.032 27.750 M 183.177 30.276 C 182.449 31.159, 181.212 31.635, 180.427 31.334 C 178.766 30.696, 178.481 32.561, 180.087 33.554 C 180.870 34.038, 180.870 34.530, 180.087 35.313 C 178.375 37.025, 178.811 37.862, 181.102 37.263 C 182.334 36.941, 183.570 37.290, 184.087 38.107 C 184.749 39.152, 184.973 38.939, 184.985 37.250 C 184.994 35.923, 185.616 35, 186.500 35 C 187.325 35, 188 34.550, 188 34 C 188 33.450, 187.356 33, 186.570 33 C 185.783 33, 184.995 32.026, 184.820 30.835 C 184.532 28.889, 184.366 28.833, 183.177 30.276 M 120 31.531 C 120 32.374, 119.276 33.341, 118.391 33.680 C 116.911 34.248, 116.911 34.371, 118.391 35.199 C 119.276 35.694, 120 36.752, 120 37.550 C 120 38.347, 120.450 39, 121 39 C 121.550 39, 122 38.520, 122 37.933 C 122 37.346, 122.825 37.127, 123.833 37.447 C 125.334 37.924, 125.667 37.483, 125.667 35.014 C 125.667 32.758, 125.206 32, 123.833 32 C 122.825 32, 122 31.550, 122 31 C 122 30.450, 121.550 30, 121 30 C 120.450 30, 120 30.689, 120 31.531 M 195.636 33.837 C 195.162 34.573, 194.015 34.976, 193.087 34.733 C 191.751 34.384, 191.400 34.993, 191.400 37.663 C 191.400 39.595, 191.848 40.869, 192.450 40.647 C 193.028 40.435, 194.287 40.947, 195.250 41.785 C 196.847 43.177, 197 43.121, 197 41.155 C 197 39.906, 197.631 39, 198.500 39 C 199.325 39, 200 38.550, 200 38 C 200 37.450, 199.356 37, 198.570 37 C 197.783 37, 196.995 35.987, 196.818 34.750 C 196.580 33.077, 196.276 32.843, 195.636 33.837 M 108 35.927 C 108 36.986, 107.213 38.064, 106.250 38.321 C 104.768 38.716, 104.844 38.899, 106.750 39.511 C 107.987 39.908, 109 40.911, 109 41.739 C 109 42.958, 109.283 43.010, 110.487 42.011 C 111.305 41.332, 112.655 41.037, 113.487 41.357 C 115.186 42.009, 115.572 40.471, 113.959 39.475 C 113.387 39.121, 113.180 38.007, 113.500 36.999 C 113.964 35.537, 113.668 35.274, 112.041 35.700 C 110.886 36.002, 110 35.748, 110 35.117 C 110 34.502, 109.550 34, 109 34 C 108.450 34, 108 34.867, 108 35.927 M 208.614 38.837 C 208.152 39.573, 206.890 39.943, 205.808 39.660 C 204.336 39.275, 203.992 39.536, 204.438 40.700 C 204.766 41.554, 204.522 42.871, 203.895 43.627 C 202.989 44.718, 203.191 45, 204.878 45 C 206.098 45, 207 45.638, 207 46.500 C 207 47.325, 207.450 48, 208 48 C 208.550 48, 209 47.311, 209 46.469 C 209 45.626, 209.686 44.674, 210.526 44.352 C 211.516 43.972, 211.729 43.369, 211.133 42.633 C 210.628 42.010, 210.044 40.600, 209.834 39.500 C 209.545 37.981, 209.251 37.821, 208.614 38.837 M 96.376 40.538 C 96.712 41.413, 96.327 42.321, 95.483 42.645 C 93.555 43.385, 93.567 45, 95.500 45 C 96.325 45, 97 45.675, 97 46.500 C 97 47.325, 97.450 48, 98 48 C 98.550 48, 99 47.550, 99 47 C 99 46.450, 99.955 46, 101.122 46 C 102.896 46, 103.040 45.753, 102 44.500 C 101.002 43.297, 101.027 42.669, 102.128 41.327 C 103.350 39.836, 103.254 39.716, 101.251 40.233 C 100.014 40.551, 98.750 40.404, 98.442 39.906 C 97.494 38.372, 95.750 38.905, 96.376 40.538 M 85 46.819 C 85 47.953, 84.473 49.208, 83.829 49.606 C 83.053 50.085, 83.391 50.600, 84.829 51.132 C 86.023 51.574, 87.014 52.738, 87.030 53.718 C 87.059 55.407, 87.114 55.408, 88.080 53.750 C 88.641 52.788, 90.047 52, 91.205 52 C 93.124 52, 93.175 51.845, 91.785 50.250 C 90.947 49.288, 90.489 47.866, 90.767 47.091 C 91.128 46.084, 90.769 45.875, 89.510 46.358 C 88.540 46.730, 87.129 46.522, 86.373 45.895 C 85.284 44.991, 85 45.182, 85 46.819 M 216.506 47.877 C 216.797 48.634, 216.239 49.858, 215.267 50.595 C 213.622 51.844, 213.656 51.939, 215.750 51.968 C 217.069 51.987, 218 52.621, 218 53.500 C 218 54.325, 218.450 55, 219 55 C 219.550 55, 220 54.325, 220 53.500 C 220 52.621, 220.911 52, 222.200 52 C 223.911 52, 224.133 51.733, 223.200 50.800 C 222.540 50.140, 222 48.903, 222 48.050 C 222 46.993, 221.042 46.500, 218.989 46.500 C 216.843 46.500, 216.130 46.896, 216.506 47.877 M 74.685 53.904 C 74.954 54.933, 74.685 56.077, 74.087 56.446 C 72.451 57.457, 72.781 59.021, 74.492 58.365 C 75.343 58.038, 76.247 58.481, 76.599 59.396 C 77.375 61.420, 79 61.491, 79 59.500 C 79 58.620, 79.930 57.987, 81.250 57.970 C 83.295 57.942, 83.336 57.844, 81.706 56.895 C 80.484 56.184, 80.118 55.204, 80.557 53.820 C 81.108 52.083, 80.937 51.936, 79.377 52.809 C 78.260 53.434, 76.901 53.482, 75.874 52.933 C 74.533 52.215, 74.294 52.410, 74.685 53.904 M 226.216 54.685 C 226.594 56.154, 226.241 57.089, 225.139 57.536 C 223.756 58.096, 223.851 58.336, 225.750 59.068 C 226.988 59.545, 228.014 60.738, 228.030 61.718 C 228.059 63.407, 228.114 63.408, 229.080 61.750 C 229.641 60.788, 231.047 60, 232.205 60 C 234.124 60, 234.175 59.845, 232.785 58.250 C 231.947 57.288, 231.465 55.937, 231.714 55.249 C 232.005 54.446, 231.596 54.218, 230.571 54.611 C 229.693 54.948, 228.227 54.611, 227.314 53.862 C 225.843 52.655, 225.717 52.749, 226.216 54.685 M 135.660 54.982 C 92.230 62.857, 59.423 99.177, 57.286 141.750 C 56.975 147.938, 56.989 153, 57.317 153 C 57.644 153, 60.294 151.593, 63.206 149.874 C 68.910 146.506, 83.128 140.065, 89.307 138.049 L 93.113 136.808 89.057 133.690 C 86.825 131.975, 85 130.272, 85 129.905 C 85 129.538, 86.645 127.983, 88.655 126.450 L 92.310 123.662 102.905 125.341 C 115.677 127.365, 116 127.371, 116 125.590 C 116 124.612, 113.780 123.830, 108.750 123.036 C 95.563 120.953, 95.408 120.906, 97.237 119.569 C 98.372 118.739, 100.912 118.610, 105.680 119.140 C 116.502 120.342, 116.463 120.350, 118.315 116.466 C 119.242 114.522, 120 112.773, 120 112.580 C 120 112.386, 116.850 109.650, 113 106.500 C 108.814 103.075, 106 100.012, 106 98.879 C 106 97.337, 107.344 97.973, 113.250 102.311 C 122.670 109.231, 122.693 109.243, 123.362 107.500 C 123.761 106.460, 121.077 104.001, 114.466 99.347 C 108.776 95.341, 105 91.998, 105 90.967 C 105 90.022, 104.719 87.844, 104.375 86.125 C 103.773 83.117, 103.876 83.001, 107.125 83.014 C 113.316 83.039, 114.694 84.042, 120.952 93.089 C 124.343 97.990, 127.766 102, 128.559 102 C 131.043 102, 130.184 100.124, 123.955 91.941 C 118.962 85.382, 118.256 84, 119.896 84 C 121.139 84, 124.034 86.617, 127.640 91 C 130.807 94.850, 133.704 98, 134.077 98 C 134.450 98, 136.392 97.316, 138.392 96.481 C 141.360 95.241, 141.936 94.551, 141.526 92.731 C 140.444 87.926, 140.509 75.705, 141.618 75.315 C 142.338 75.062, 143.204 78.323, 144.046 84.461 C 145.156 92.543, 145.634 94, 147.178 94 C 148.180 94, 149 93.854, 149 93.675 C 149 93.496, 148.092 88.305, 146.981 82.139 L 144.963 70.929 148.125 66.994 C 149.864 64.830, 151.598 63.251, 151.977 63.486 C 152.357 63.720, 153.839 65.620, 155.270 67.706 L 157.873 71.500 155.897 82.416 C 154.318 91.139, 154.177 93.491, 155.196 94.121 C 157.015 95.245, 157.548 93.718, 159.012 83.189 C 160.130 75.154, 160.502 74.073, 161.725 75.296 C 162.900 76.472, 162.964 78.310, 162.100 86.052 C 161.527 91.188, 161.157 95.429, 161.279 95.475 C 161.400 95.521, 163.119 96.293, 165.097 97.190 L 168.694 98.821 174.878 91.411 C 178.279 87.335, 181.723 84, 182.531 84 C 183.339 84, 184 84.229, 184 84.510 C 184 84.790, 181.525 88.366, 178.500 92.456 C 175.475 96.547, 173 100.341, 173 100.888 C 173 104.150, 175.619 101.906, 181.506 93.601 C 188.268 84.062, 189.655 83.039, 195.857 83.014 C 198.510 83.003, 199.087 83.332, 198.607 84.582 C 198.273 85.452, 198 87.626, 198 89.414 C 198 92.378, 197.211 93.210, 189.040 98.863 C 179.423 105.516, 178.263 106.663, 179.699 108.099 C 180.265 108.665, 183.701 106.714, 188.562 103.066 C 194.847 98.348, 196.577 97.457, 196.868 98.784 C 197.095 99.821, 195.587 101.801, 192.910 103.980 C 182.289 112.624, 182.585 112.211, 184.068 116.313 C 185.559 120.434, 185.596 120.442, 197.320 119.140 C 202.306 118.586, 204.592 118.725, 205.820 119.659 C 206.744 120.362, 207.050 120.952, 206.500 120.971 C 203.230 121.086, 187.360 124.273, 186.663 124.955 C 184.649 126.926, 188.945 127.091, 199.430 125.447 L 210.704 123.679 214.352 126.589 C 216.358 128.190, 218 129.779, 218 130.121 C 218 130.463, 216.428 131.813, 214.507 133.121 C 212.586 134.429, 211.011 135.755, 211.007 136.067 C 211.003 136.379, 213.500 137.423, 216.555 138.386 C 219.611 139.349, 227.148 142.694, 233.305 145.819 C 239.462 148.943, 244.905 151.673, 245.400 151.883 C 245.922 152.106, 246.061 147.896, 245.732 141.883 C 244.461 118.677, 234.409 97.283, 216.859 80.435 C 204.885 68.940, 193.151 62.111, 177.288 57.407 C 170.083 55.271, 165.978 54.739, 154.500 54.453 C 146.800 54.261, 138.322 54.500, 135.660 54.982 M 69.665 60.791 C 69.165 61.565, 68.005 61.819, 66.765 61.425 C 65.153 60.914, 64.831 61.118, 65.305 62.353 C 65.639 63.223, 65.482 64.202, 64.956 64.527 C 63.303 65.549, 63.915 67, 66 67 C 67.100 67, 68 67.450, 68 68 C 68 68.550, 68.450 69, 69 69 C 69.550 69, 70 68.325, 70 67.500 C 70 66.675, 70.675 66, 71.500 66 C 72.325 66, 73 65.550, 73 65 C 73 64.450, 72.581 64, 72.070 64 C 71.558 64, 70.995 62.987, 70.818 61.750 C 70.588 60.135, 70.262 59.864, 69.665 60.791 M 235.635 63.492 C 235.962 64.343, 235.519 65.247, 234.604 65.599 C 232.580 66.375, 232.509 68, 234.500 68 C 235.325 68, 236 68.675, 236 69.500 C 236 71.433, 237.615 71.445, 238.355 69.517 C 238.679 68.673, 239.587 68.288, 240.462 68.624 C 242.181 69.283, 242.590 67.483, 240.951 66.470 C 240.247 66.034, 240.329 65.302, 241.201 64.238 C 242.331 62.860, 242.207 62.729, 240.251 63.233 C 239.014 63.551, 237.750 63.404, 237.442 62.906 C 236.514 61.404, 235.020 61.888, 235.635 63.492 M 60.581 69.870 C 60.144 70.576, 58.970 70.808, 57.765 70.425 C 56.091 69.894, 55.825 70.101, 56.366 71.511 C 56.734 72.470, 56.522 73.871, 55.895 74.627 C 54.991 75.716, 55.182 76, 56.819 76 C 57.953 76, 59.160 76.450, 59.500 77 C 60.340 78.359, 62 78.266, 62 76.860 C 62 76.233, 62.788 75.123, 63.750 74.392 C 64.871 73.541, 65.039 73.052, 64.218 73.032 C 63.513 73.014, 62.574 72.023, 62.132 70.829 C 61.579 69.333, 61.097 69.035, 60.581 69.870 M 244 72.328 C 244 73.193, 243.213 74.343, 242.250 74.883 C 240.583 75.819, 240.583 75.898, 242.250 76.540 C 243.213 76.911, 244 78.152, 244 79.298 C 244 81.297, 244.056 81.306, 245.355 79.529 C 246.185 78.394, 247.348 77.920, 248.355 78.306 C 250.179 79.006, 250.628 77.506, 248.913 76.446 C 248.130 75.962, 248.130 75.470, 248.913 74.687 C 250.486 73.114, 250.247 71.968, 248.487 72.643 C 247.655 72.963, 246.305 72.668, 245.487 71.989 C 244.278 70.986, 244 71.049, 244 72.328 M 51.690 80.750 C 51.245 81.438, 49.919 82, 48.741 82 C 47.124 82, 46.882 82.282, 47.753 83.153 C 48.573 83.973, 48.606 84.868, 47.867 86.248 C 46.968 87.928, 47.099 88.103, 48.840 87.551 C 50.201 87.119, 51.189 87.492, 51.895 88.706 C 52.885 90.408, 52.941 90.403, 52.970 88.610 C 52.986 87.571, 53.788 86.123, 54.750 85.392 C 56.354 84.174, 56.360 84.061, 54.820 84.032 C 53.851 84.013, 53.003 83.046, 52.818 81.750 C 52.596 80.189, 52.250 79.883, 51.690 80.750 M 251 82.295 C 251 83.178, 250.213 84.343, 249.250 84.883 C 247.589 85.816, 247.590 85.900, 249.280 86.551 C 250.558 87.044, 250.870 87.836, 250.386 89.361 C 249.767 91.309, 249.860 91.361, 251.509 89.992 C 252.498 89.172, 254.230 88.656, 255.357 88.847 C 257.082 89.140, 257.208 88.956, 256.155 87.686 C 255.309 86.667, 255.243 85.968, 255.951 85.530 C 257.430 84.616, 257.261 82.739, 255.750 83.286 C 255.063 83.535, 253.713 83.053, 252.750 82.215 C 251.177 80.844, 251 80.852, 251 82.295 M 44.700 91.340 C 44.350 92.253, 43.094 93, 41.909 93 C 40.196 93, 39.988 93.281, 40.895 94.373 C 41.522 95.129, 41.724 96.557, 41.344 97.547 C 40.792 98.984, 41.016 99.208, 42.453 98.656 C 43.443 98.276, 44.871 98.478, 45.627 99.105 C 46.703 99.998, 47 99.863, 47 98.483 C 47 97.513, 47.788 96.123, 48.750 95.392 C 50.413 94.130, 50.411 94.062, 48.718 94.032 C 47.738 94.014, 46.576 93.028, 46.136 91.840 C 45.452 89.990, 45.245 89.918, 44.700 91.340 M 257 93.500 C 257 94.325, 256.325 95, 255.500 95 C 254.675 95, 254 95.450, 254 96 C 254 96.550, 254.450 97, 255 97 C 255.550 97, 256 97.955, 256 99.122 C 256 100.809, 256.282 101.011, 257.373 100.105 C 258.129 99.478, 259.557 99.276, 260.547 99.656 C 261.937 100.190, 262.204 99.973, 261.717 98.706 C 261.371 97.803, 261.518 96.798, 262.044 96.473 C 263.614 95.502, 263.125 93.738, 261.462 94.376 C 260.587 94.712, 259.679 94.327, 259.355 93.483 C 258.615 91.555, 257 91.567, 257 93.500 M 38.645 103.483 C 38.321 104.327, 37.413 104.712, 36.538 104.376 C 34.824 103.718, 34.408 105.516, 36.041 106.525 C 36.613 106.879, 36.773 108.139, 36.396 109.326 C 35.789 111.239, 35.899 111.329, 37.356 110.120 C 38.674 109.026, 39.297 109.002, 40.500 110 C 41.751 111.038, 42 110.901, 42 109.172 C 42 108.032, 42.788 106.641, 43.750 106.080 C 45.313 105.170, 45.259 105.058, 43.250 105.030 C 41.930 105.013, 41 104.380, 41 103.500 C 41 101.567, 39.385 101.555, 38.645 103.483 M 262 104.500 C 262 105.325, 261.325 106, 260.500 106 C 259.675 106, 259 106.450, 259 107 C 259 107.550, 259.450 108, 260 108 C 260.550 108, 261 108.900, 261 110 C 261 112.136, 262.459 112.684, 263.530 110.951 C 263.966 110.247, 264.698 110.329, 265.762 111.201 C 267.140 112.331, 267.271 112.207, 266.767 110.251 C 266.449 109.014, 266.596 107.750, 267.094 107.442 C 268.596 106.514, 268.112 105.020, 266.508 105.635 C 265.657 105.962, 264.753 105.519, 264.401 104.604 C 263.625 102.580, 262 102.509, 262 104.500 M 35.692 116.360 C 35.346 117.262, 34.284 118, 33.331 118 C 31.985 118, 31.867 118.267, 32.800 119.200 C 33.460 119.860, 34 121.265, 34 122.322 C 34 123.918, 34.255 124.033, 35.500 123 C 36.703 122.002, 37.326 122.026, 38.644 123.120 C 40.101 124.329, 40.211 124.239, 39.604 122.326 C 39.227 121.139, 39.387 119.879, 39.959 119.525 C 40.532 119.171, 41 118.432, 41 117.882 C 41 117.332, 40.520 117.179, 39.933 117.541 C 39.347 117.904, 38.294 117.417, 37.594 116.460 C 36.431 114.869, 36.268 114.861, 35.692 116.360 M 265.680 116.391 C 265.341 117.276, 264.036 118.014, 262.781 118.032 C 260.661 118.061, 260.624 118.158, 262.267 119.405 C 263.414 120.275, 263.792 121.378, 263.344 122.547 C 262.792 123.984, 263.016 124.208, 264.453 123.656 C 265.448 123.275, 266.946 123.533, 267.800 124.233 C 269.133 125.325, 269.264 125.180, 268.751 123.189 C 268.362 121.678, 268.648 120.689, 269.578 120.332 C 271.433 119.620, 271.414 118, 269.550 118 C 268.752 118, 267.694 117.276, 267.199 116.391 C 266.371 114.911, 266.248 114.911, 265.680 116.391 M 33.032 128.133 C 33.014 129.032, 31.988 130.092, 30.750 130.489 C 28.844 131.101, 28.768 131.284, 30.250 131.679 C 31.212 131.936, 32 133.069, 32 134.196 C 32 135.904, 32.250 136.038, 33.500 135 C 34.703 134.002, 35.326 134.026, 36.644 135.120 C 38.108 136.335, 38.209 136.233, 37.562 134.194 C 37.110 132.772, 37.340 131.282, 38.167 130.265 C 39.330 128.835, 39.260 128.716, 37.623 129.330 C 36.377 129.798, 35.295 129.440, 34.405 128.267 C 33.216 126.701, 33.060 126.686, 33.032 128.133 M 268.493 128.250 C 268.104 129.213, 266.879 130, 265.771 130 C 264.175 130, 263.993 130.286, 264.895 131.373 C 265.522 132.129, 265.724 133.557, 265.344 134.547 C 264.792 135.984, 265.016 136.208, 266.453 135.656 C 267.443 135.276, 268.871 135.478, 269.627 136.105 C 270.703 136.998, 271 136.863, 271 135.483 C 271 134.513, 271.788 133.123, 272.750 132.392 C 274.413 131.130, 274.411 131.062, 272.718 131.032 C 271.738 131.014, 270.545 129.988, 270.068 128.750 C 269.297 126.751, 269.121 126.695, 268.493 128.250 M 135.500 135.647 C 110.383 138.559, 90.500 144.465, 70 155.104 C 58.369 161.140, 56.796 162.304, 57.565 164.308 C 58.062 165.605, 59.118 165.260, 63.782 162.277 C 76.351 154.236, 98.135 145.806, 116.174 142.001 C 157.215 133.345, 201.348 140.005, 237.345 160.286 C 241.110 162.407, 244.469 163.864, 244.810 163.523 C 246.319 162.014, 242.555 159.109, 232.412 153.957 C 214.280 144.747, 196.287 139.246, 175.300 136.495 C 165.144 135.163, 143.627 134.705, 135.500 135.647 M 31 140.845 C 31 142.219, 30.365 143.012, 29.250 143.032 C 27.583 143.062, 27.583 143.127, 29.250 144.392 C 30.212 145.123, 31 146.548, 31 147.560 C 31 148.991, 31.267 149.133, 32.200 148.200 C 32.860 147.540, 34.097 146.999, 34.950 146.998 C 35.985 146.996, 36.536 145.988, 36.608 143.962 C 36.674 142.128, 36.278 141.088, 35.608 141.333 C 34.999 141.556, 33.712 141.053, 32.750 140.215 C 31.153 138.823, 31 138.879, 31 140.845 M 270 141 C 270 141.550, 269.175 142, 268.167 142 C 266.816 142, 266.333 142.753, 266.333 144.863 C 266.333 147.147, 266.704 147.629, 268.167 147.246 C 269.175 146.982, 270 147.269, 270 147.883 C 270 148.498, 270.450 149, 271 149 C 271.550 149, 272 148.311, 272 147.469 C 272 146.626, 272.724 145.659, 273.609 145.320 C 275.089 144.752, 275.089 144.629, 273.609 143.801 C 272.724 143.306, 272 142.248, 272 141.450 C 272 140.653, 271.550 140, 271 140 C 270.450 140, 270 140.450, 270 141 M 133.500 147.097 C 113.081 149.218, 92.631 155.141, 73.500 164.475 C 60.079 171.023, 58.062 172.421, 59.677 174.059 C 60.587 174.983, 61.605 174.791, 64.177 173.207 C 71.688 168.582, 86.225 161.961, 96.183 158.629 C 140.498 143.803, 189.666 147.284, 230.895 168.167 C 241.540 173.558, 244 174.269, 244 171.951 C 244 170.497, 218.513 158.443, 208.500 155.161 C 184.590 147.325, 158.409 144.510, 133.500 147.097 M 31 153.409 C 31 154.319, 30.276 155.341, 29.391 155.680 C 27.911 156.248, 27.911 156.371, 29.391 157.199 C 30.276 157.694, 31 158.752, 31 159.550 C 31 160.347, 31.450 161, 32 161 C 32.550 161, 33 160.550, 33 160 C 33 159.450, 33.825 159, 34.833 159 C 36.209 159, 36.667 158.241, 36.667 155.957 C 36.667 153.700, 36.290 153.059, 35.207 153.474 C 34.404 153.782, 33.129 153.522, 32.373 152.895 C 31.303 152.007, 31 152.120, 31 153.409 M 270.614 152.837 C 270.152 153.573, 268.907 153.947, 267.846 153.670 C 266.298 153.265, 266.041 153.553, 266.542 155.131 C 266.885 156.212, 266.569 157.814, 265.840 158.692 C 264.678 160.093, 264.790 160.201, 266.763 159.575 C 268.409 159.053, 269.187 159.324, 269.673 160.592 C 270.261 162.122, 270.429 162.072, 271.136 160.160 C 271.576 158.972, 272.738 157.986, 273.718 157.968 C 275.348 157.939, 275.361 157.830, 273.867 156.693 C 272.968 156.010, 272.058 154.561, 271.843 153.475 C 271.546 151.970, 271.253 151.818, 270.614 152.837 M 138.500 157.576 C 119.067 160.291, 110.860 162.084, 97.073 166.630 C 85.720 170.373, 63 181.586, 63 183.446 C 63 184.300, 63.280 185, 63.621 185 C 63.963 185, 69.700 182.318, 76.371 179.041 C 126.071 154.622, 175.670 154.299, 225.777 178.065 C 232.529 181.268, 238.373 184.026, 238.763 184.194 C 239.153 184.362, 239.603 183.823, 239.762 182.995 C 240.131 181.083, 232.034 176.597, 217.500 170.661 C 204.518 165.358, 191.930 161.652, 179.500 159.472 C 170.765 157.940, 144.568 156.729, 138.500 157.576 M 32 165.517 C 32 166.487, 31.212 167.877, 30.250 168.608 C 28.629 169.838, 28.666 169.939, 30.750 169.968 C 32.398 169.991, 33.009 170.602, 33.032 172.250 C 33.061 174.334, 33.162 174.371, 34.392 172.750 C 35.123 171.787, 36.513 171, 37.483 171 C 38.863 171, 38.998 170.703, 38.105 169.627 C 37.478 168.871, 37.276 167.443, 37.656 166.453 C 38.208 165.016, 37.984 164.792, 36.547 165.344 C 35.557 165.724, 34.129 165.522, 33.373 164.895 C 32.297 164.002, 32 164.137, 32 165.517 M 268.527 165.956 C 268.202 166.482, 267.197 166.629, 266.294 166.283 C 265.069 165.813, 264.813 166.069, 265.283 167.294 C 265.629 168.197, 265.482 169.202, 264.956 169.527 C 263.417 170.478, 263.858 171.992, 265.492 171.365 C 266.343 171.038, 267.247 171.481, 267.599 172.396 C 268.375 174.420, 270 174.491, 270 172.500 C 270 171.675, 270.675 171, 271.500 171 C 273.433 171, 273.445 169.385, 271.517 168.645 C 270.673 168.321, 270.288 167.413, 270.624 166.538 C 271.262 164.875, 269.498 164.386, 268.527 165.956 M 134.500 169.074 C 123.780 170.544, 108.098 174.557, 97.272 178.602 C 85.688 182.929, 67 191.842, 67 193.039 C 67 195.271, 69.661 194.567, 80.142 189.561 C 129.839 165.824, 171.362 165.486, 222.056 188.404 C 230.108 192.045, 234.751 193.649, 235.389 193.011 C 236.648 191.752, 236.862 191.908, 227.500 187.262 C 212.359 179.748, 194.214 173.599, 178 170.489 C 167.735 168.520, 144.142 167.753, 134.500 169.074 M 34.234 177.752 C 34.620 179.253, 34.261 180.328, 33.157 180.972 C 31.647 181.853, 31.658 181.942, 33.282 181.970 C 34.262 181.986, 35.455 183.012, 35.932 184.250 C 36.703 186.249, 36.879 186.305, 37.507 184.750 C 37.896 183.787, 39.156 183, 40.307 183 C 41.935 183, 42.133 182.733, 41.200 181.800 C 40.540 181.140, 40 179.742, 40 178.693 C 40 177.343, 39.525 176.968, 38.373 177.410 C 37.479 177.754, 36.051 177.464, 35.200 176.767 C 33.870 175.677, 33.734 175.815, 34.234 177.752 M 262.410 178.627 C 262.754 179.521, 262.522 180.871, 261.895 181.627 C 261.007 182.697, 261.120 183, 262.409 183 C 263.319 183, 264.322 183.675, 264.638 184.500 C 264.955 185.325, 265.616 186, 266.107 186 C 266.598 186, 267 185.325, 267 184.500 C 267 183.621, 267.931 182.987, 269.250 182.968 C 271.408 182.938, 271.424 182.879, 269.625 181.516 C 268.542 180.696, 268 179.442, 268.343 178.548 C 269.030 176.758, 267.898 176.502, 266.313 178.087 C 265.530 178.870, 265.038 178.870, 264.554 178.087 C 263.495 176.373, 261.717 176.821, 262.410 178.627 M 42.475 189.041 C 42.121 189.613, 40.970 189.808, 39.916 189.473 C 38.495 189.022, 38 189.348, 38 190.733 C 38 191.760, 37.438 193.206, 36.750 193.947 C 35.728 195.048, 35.827 195.179, 37.288 194.664 C 38.401 194.272, 39.291 194.594, 39.645 195.517 C 40.385 197.445, 42 197.433, 42 195.500 C 42 194.621, 42.931 193.987, 44.250 193.968 C 46.344 193.939, 46.378 193.844, 44.733 192.595 C 43.681 191.797, 43.218 190.595, 43.590 189.627 C 44.281 187.825, 43.485 187.406, 42.475 189.041 M 259 191.144 C 259 192.165, 258.550 193, 258 193 C 257.450 193, 257 193.450, 257 194 C 257 194.550, 257.653 195, 258.450 195 C 259.248 195, 260.306 195.724, 260.801 196.609 C 261.629 198.089, 261.752 198.089, 262.320 196.609 C 262.659 195.724, 263.964 194.986, 265.219 194.970 C 267.285 194.942, 267.331 194.841, 265.706 193.895 C 264.653 193.283, 264.131 192.159, 264.442 191.176 C 264.852 189.877, 264.299 189.476, 261.986 189.394 C 259.705 189.312, 259 189.726, 259 191.144 M 135.754 190.974 C 123.248 193.237, 106 201.013, 106 204.389 C 106 207.218, 109.817 218.012, 112.304 222.214 C 113.699 224.571, 116.880 228.485, 119.373 230.912 C 123.216 234.653, 124.141 235.128, 125.453 234.039 C 126.304 233.333, 127 231.701, 127 230.413 C 127 229.059, 127.884 227.598, 129.093 226.950 C 131.417 225.707, 136 226.455, 136 228.078 C 136 228.650, 135.591 228.865, 135.090 228.556 C 133.561 227.611, 131 229.111, 131 230.952 C 131 236.331, 139.381 237.449, 140.619 232.235 C 141.936 226.689, 147.109 224.016, 149.935 227.421 C 150.895 228.578, 150.765 228.751, 149.237 228.352 C 148.205 228.082, 146.798 228.538, 146.111 229.367 C 143.299 232.754, 150.042 237.870, 153.517 234.986 C 154.337 234.305, 155.372 232.343, 155.817 230.626 C 156.856 226.618, 161.187 224.758, 163.679 227.251 C 165.209 228.781, 165.181 228.860, 163.276 228.362 C 162.148 228.067, 160.908 228.341, 160.519 228.970 C 159.354 230.854, 160.863 234.822, 163.002 235.501 C 166.533 236.621, 168.895 235.102, 170 231 C 170.646 228.603, 171.800 226.881, 173.022 226.493 C 175.313 225.766, 179 226.718, 179 228.036 C 179 228.532, 178.397 228.706, 177.660 228.423 C 176.923 228.140, 175.745 228.602, 175.042 229.449 C 173.132 231.751, 176.302 236.444, 178.847 235.082 C 181.610 233.603, 188.423 225.846, 191.270 220.937 C 194.196 215.891, 197.421 205.540, 196.674 203.593 C 195.837 201.411, 187.681 197.192, 177.842 193.852 C 169.382 190.980, 167.178 190.654, 154.500 190.398 C 146.800 190.243, 138.364 190.502, 135.754 190.974 M 150.301 200 C 149.467 203.069, 148.959 203.499, 146.175 203.490 C 142.362 203.479, 142.308 203.668, 145.426 206.120 C 147.482 207.738, 147.722 208.483, 146.997 211.012 C 146.217 213.729, 146.308 213.905, 148.015 212.992 C 149.045 212.441, 150.170 211.534, 150.515 210.977 C 150.896 210.360, 152.332 210.812, 154.185 212.132 L 157.230 214.300 156.478 211.900 C 156.064 210.580, 155.547 209.022, 155.328 208.438 C 155.109 207.853, 156.071 206.765, 157.465 206.019 C 160.839 204.213, 160.661 203.479, 156.851 203.490 C 154.149 203.499, 153.528 203.004, 152.477 200 L 151.253 196.500 150.301 200 M 46.475 200.041 C 46.121 200.613, 44.972 200.809, 43.922 200.475 C 42.471 200.015, 42.158 200.248, 42.618 201.447 C 42.951 202.315, 42.668 203.695, 41.989 204.513 C 40.964 205.748, 41.107 206, 42.828 206 C 43.968 206, 45.359 206.787, 45.920 207.750 C 46.886 209.408, 46.941 209.407, 46.970 207.718 C 46.986 206.738, 48.013 205.545, 49.250 205.068 C 51.274 204.287, 51.321 204.128, 49.720 203.482 C 48.535 203.003, 48.140 202.134, 48.538 200.882 C 49.166 198.903, 47.578 198.256, 46.475 200.041 M 254 201.345 C 254 202.805, 253.550 204, 253 204 C 252.450 204, 252 204.450, 252 205 C 252 205.550, 252.675 206, 253.500 206 C 254.325 206, 255 206.675, 255 207.500 C 255 209.433, 256.615 209.445, 257.355 207.517 C 257.679 206.673, 258.587 206.288, 259.462 206.624 C 261.125 207.262, 261.614 205.498, 260.044 204.527 C 259.518 204.202, 259.364 203.214, 259.703 202.332 C 260.126 201.230, 259.877 200.886, 258.909 201.233 C 258.134 201.511, 256.712 201.053, 255.750 200.215 C 254.140 198.812, 254 198.902, 254 201.345 M 124.406 205.089 C 123.587 207.955, 122.877 208.583, 119.965 209.017 L 116.500 209.534 119.163 211.325 C 121.470 212.876, 121.714 213.511, 120.983 216.058 C 120.006 219.466, 120.205 219.567, 123.561 217.368 C 125.882 215.847, 126.186 215.858, 128.032 217.529 C 130.534 219.794, 131.345 219.038, 130.055 215.644 C 129.179 213.340, 129.390 212.791, 131.742 211.255 L 134.430 209.500 131.050 209 C 128.279 208.590, 127.465 207.886, 126.526 205.089 L 125.382 201.678 124.406 205.089 M 176.386 205.160 C 175.588 207.950, 174.860 208.585, 171.965 209.017 L 168.500 209.534 171.163 211.325 C 173.470 212.876, 173.714 213.511, 172.983 216.058 C 172.071 219.238, 173.004 219.905, 175 217.500 C 176.606 215.565, 177.907 215.606, 180.177 217.661 C 182.546 219.804, 183.320 218.972, 182.055 215.644 C 181.179 213.340, 181.390 212.791, 183.742 211.255 L 186.430 209.500 182.965 209 C 180.100 208.587, 179.313 207.921, 178.420 205.160 L 177.341 201.820 176.386 205.160 M 52.581 210.870 C 52.155 211.559, 50.969 211.807, 49.830 211.446 C 48.100 210.897, 47.969 211.074, 48.867 212.752 C 49.606 214.132, 49.573 215.027, 48.753 215.847 C 47.882 216.718, 48.090 217, 49.600 217 C 50.700 217, 52.140 217.540, 52.800 218.200 C 53.733 219.133, 54 219.033, 54 217.750 C 54 216.842, 54.788 215.641, 55.750 215.080 C 56.782 214.479, 56.974 214.048, 56.218 214.030 C 55.513 214.014, 54.574 213.023, 54.132 211.829 C 53.579 210.333, 53.097 210.035, 52.581 210.870 M 248 211.800 C 248 213.209, 247.370 214.019, 246.250 214.052 C 244.781 214.096, 244.861 214.357, 246.750 215.674 C 247.988 216.538, 249.014 217.977, 249.030 218.872 C 249.057 220.275, 249.205 220.252, 250.105 218.706 C 250.844 217.435, 251.780 217.113, 253.316 217.600 C 255.170 218.189, 255.302 218.069, 254.225 216.771 C 253.532 215.936, 253.246 214.521, 253.590 213.627 C 254.032 212.475, 253.657 212, 252.307 212 C 251.258 212, 249.860 211.460, 249.200 210.800 C 248.267 209.867, 248 210.089, 248 211.800 M 59.729 220.363 C 59.225 221.609, 58.317 222.055, 56.988 221.707 C 54.927 221.168, 54.243 222.414, 56.003 223.502 C 56.668 223.913, 56.650 224.785, 55.950 226.093 C 55 227.868, 55.149 228.001, 57.448 227.424 C 59.034 227.026, 60 227.203, 60 227.892 C 60 228.501, 60.498 229, 61.107 229 C 61.716 229, 61.948 228.308, 61.624 227.462 C 61.288 226.587, 61.673 225.679, 62.517 225.355 C 64.411 224.628, 64.447 223, 62.570 223 C 61.783 223, 60.991 221.988, 60.811 220.750 C 60.512 218.705, 60.413 218.670, 59.729 220.363 M 241 221.531 C 241 222.374, 240.276 223.341, 239.391 223.680 C 237.911 224.248, 237.911 224.371, 239.391 225.199 C 240.276 225.694, 241.014 227.090, 241.030 228.300 C 241.058 230.310, 241.151 230.345, 242.105 228.706 C 242.718 227.651, 243.839 227.131, 244.824 227.444 C 246.137 227.861, 246.500 227.328, 246.500 224.988 C 246.500 222.809, 246.026 222, 244.750 222 C 243.787 222, 243 221.550, 243 221 C 243 220.450, 242.550 220, 242 220 C 241.450 220, 241 220.689, 241 221.531 M 67.668 229.750 C 67.235 230.438, 65.953 231, 64.819 231 C 63.106 231, 62.965 231.253, 63.989 232.487 C 64.668 233.305, 64.943 234.705, 64.601 235.599 C 64.138 236.805, 64.399 237.061, 65.615 236.594 C 66.516 236.248, 67.871 236.478, 68.627 237.105 C 69.703 237.998, 70 237.863, 70 236.483 C 70 235.513, 70.787 234.123, 71.750 233.392 C 73.376 232.158, 73.346 232.061, 71.323 232.032 C 70.066 232.013, 69 231.261, 68.800 230.250 C 68.546 228.970, 68.242 228.836, 67.668 229.750 M 233 230.500 C 233 231.325, 232.325 232, 231.500 232 C 229.597 232, 229.543 233.611, 231.422 234.332 C 232.345 234.686, 232.641 235.689, 232.265 237.189 C 231.707 239.417, 231.757 239.437, 233.657 237.764 C 235.231 236.376, 235.893 236.276, 236.950 237.264 C 238.027 238.271, 238.172 238.083, 237.730 236.251 C 237.432 235.014, 237.596 233.750, 238.094 233.442 C 239.628 232.494, 239.095 230.750, 237.462 231.376 C 236.587 231.712, 235.679 231.327, 235.355 230.483 C 234.615 228.555, 233 228.567, 233 230.500 M 76 238.500 C 76 239.384, 75.077 240.006, 73.750 240.015 C 72.061 240.027, 71.848 240.251, 72.893 240.913 C 73.710 241.430, 74.059 242.666, 73.737 243.898 C 73.162 246.097, 74.396 246.787, 75.554 244.913 C 76.038 244.130, 76.530 244.130, 77.313 244.913 C 78.943 246.543, 80.299 246.222, 79.590 244.373 C 79.218 243.405, 79.681 242.203, 80.733 241.405 C 82.378 240.156, 82.344 240.061, 80.250 240.032 C 78.931 240.013, 78 239.379, 78 238.500 C 78 237.675, 77.550 237, 77 237 C 76.450 237, 76 237.675, 76 238.500 M 224.460 238.250 C 224.089 239.213, 223.159 240, 222.393 240 C 221.627 240, 221 240.450, 221 241 C 221 241.550, 221.450 242, 222 242 C 222.550 242, 223.001 242.787, 223.002 243.750 C 223.004 244.992, 223.850 245.530, 225.914 245.602 C 227.987 245.675, 228.673 245.312, 228.300 244.339 C 228.012 243.589, 228.332 242.305, 229.011 241.487 C 230.014 240.278, 229.951 240, 228.672 240 C 227.807 240, 226.657 239.213, 226.117 238.250 C 225.181 236.583, 225.102 236.583, 224.460 238.250 M 86.032 245.250 C 86.012 246.365, 85.219 247, 83.845 247 C 81.879 247, 81.823 247.153, 83.215 248.750 C 84.053 249.713, 84.556 250.999, 84.333 251.608 C 84.088 252.279, 85.131 252.674, 86.972 252.608 C 89.119 252.532, 89.862 252.094, 89.491 251.123 C 89.202 250.366, 89.761 249.142, 90.733 248.405 C 92.409 247.133, 92.403 247.062, 90.610 247.032 C 89.571 247.014, 88.123 246.213, 87.392 245.250 C 86.127 243.583, 86.062 243.583, 86.032 245.250 M 214.656 245.455 C 214.330 246.305, 213.374 247, 212.531 247 C 211.689 247, 211 247.450, 211 248 C 211 248.550, 211.502 249, 212.117 249 C 212.748 249, 213.002 249.886, 212.700 251.041 C 212.274 252.668, 212.537 252.964, 213.999 252.500 C 215.007 252.180, 216.121 252.387, 216.475 252.959 C 217.556 254.708, 218.843 254.117, 218.319 252.113 C 218.048 251.075, 218.315 249.923, 218.913 249.554 C 219.511 249.184, 220 248.432, 220 247.882 C 220 247.332, 219.581 247.141, 219.068 247.458 C 218.556 247.774, 217.487 247.106, 216.693 245.972 C 215.479 244.239, 215.154 244.156, 214.656 245.455 M 96.032 251.750 C 96.011 253.189, 95.387 254, 94.300 254 C 92.978 254, 92.867 254.267, 93.800 255.200 C 94.460 255.860, 95 257.265, 95 258.322 C 95 259.911, 95.259 260.030, 96.487 259.011 C 97.305 258.332, 98.705 258.057, 99.599 258.399 C 100.805 258.862, 101.061 258.601, 100.594 257.385 C 100.248 256.484, 100.478 255.129, 101.105 254.373 C 101.998 253.297, 101.863 253, 100.483 253 C 99.513 253, 98.123 252.213, 97.392 251.250 C 96.162 249.629, 96.061 249.666, 96.032 251.750 M 204.700 251.340 C 204.350 252.253, 203.094 253, 201.909 253 C 200.116 253, 199.962 253.249, 200.989 254.487 C 201.668 255.305, 201.943 256.705, 201.601 257.599 C 201.138 258.805, 201.399 259.061, 202.615 258.594 C 203.516 258.248, 204.871 258.478, 205.627 259.105 C 206.703 259.998, 207 259.863, 207 258.483 C 207 257.513, 207.787 256.123, 208.750 255.392 C 210.413 254.130, 210.411 254.062, 208.718 254.032 C 207.738 254.014, 206.576 253.028, 206.136 251.840 C 205.452 249.990, 205.245 249.918, 204.700 251.340 " stroke="none" fill="black" fill-rule="evenodd"/>
</svg>