<svg xmlns="http://www.w3.org/2000/svg" width="300" height="300" viewBox="0 0 300 300" version="1.1">
	<path d="M 222.698 49.040 C 211.579 51.819, 201.001 60.222, 196.872 69.556 C 194.223 75.546, 192.039 86.183, 192.017 93.203 L 192 98.906 195.750 99.983 C 197.813 100.575, 203.125 101.544, 207.557 102.138 C 227.159 104.763, 243.179 97.554, 250.360 82.877 C 255.582 72.203, 258.038 51.098, 254.250 49.455 C 251.566 48.290, 226.991 47.967, 222.698 49.040 M 120.914 56.956 C 116.582 58.268, 113.486 60.790, 111.189 64.877 C 109.167 68.475, 108.998 70.135, 108.976 86.636 C 108.944 110.522, 107.899 114.381, 100.010 119.750 C 96.870 121.887, 95.719 122.004, 77.102 122.076 C 55.513 122.160, 52.788 122.688, 47.553 127.807 C 43.009 132.250, 41.999 137.145, 42.006 154.693 C 42.012 171.036, 42.822 175.447, 46.658 180.005 C 51.356 185.589, 53.163 186, 73.008 186 C 94.115 186, 98.819 186.883, 103.525 191.728 C 108.091 196.430, 109 201.557, 109 222.599 C 109 241.544, 109.379 243.251, 114.661 248.114 C 119.175 252.270, 123.035 253, 140.500 253 C 157.966 253, 161.827 252.270, 166.336 248.114 C 171.295 243.543, 171.473 242.657, 172 219.925 C 172.494 198.625, 172.534 198.299, 175.161 194.331 C 179.807 187.314, 182.534 186.594, 206.680 186.011 C 230.161 185.444, 230.812 185.265, 235.750 178.010 C 237.897 174.855, 238 173.795, 238 154.802 C 238 133.615, 237.645 131.724, 232.845 127.375 C 227.796 122.800, 226.358 122.532, 204 122.006 C 183.521 121.524, 182.355 121.391, 179.436 119.199 C 172.973 114.347, 172.528 112.572, 172.232 90.500 C 172.084 79.500, 171.736 69.476, 171.457 68.225 C 170.638 64.552, 164.166 58.140, 160.152 57.025 C 155.919 55.850, 124.746 55.794, 120.914 56.956 " stroke="none" fill="black" fill-rule="evenodd"/>
</svg>