<svg xmlns="http://www.w3.org/2000/svg" width="300" height="300" viewBox="0 0 300 300" version="1.1">
	<path d="M 0 150.003 L 0 300.006 150.250 299.753 L 300.500 299.500 300.753 149.750 L 301.007 -0 150.503 -0 L 0 0 0 150.003 M 0.487 150.500 C 0.487 233, 0.605 266.602, 0.750 225.172 C 0.894 183.741, 0.894 116.241, 0.750 75.172 C 0.605 34.102, 0.487 68, 0.487 150.500 M 137.500 21.617 C 118.102 24.597, 107.253 27.869, 93 35.036 C 79.700 41.725, 70.038 48.795, 58.994 59.922 C 34.783 84.314, 22 115.445, 22.005 150 C 22.010 186.073, 36.168 218.903, 62.446 243.777 C 76.769 257.335, 92.160 266.540, 110.404 272.461 C 125.970 277.512, 132.683 278.504, 151 278.461 C 174.027 278.407, 187.743 275.180, 207.762 265.106 C 250.177 243.763, 276.864 202.320, 278.733 154.895 C 280.334 114.273, 261.749 73.690, 230.530 49.636 C 212.498 35.741, 198.921 29.213, 178 24.378 C 167.740 22.006, 145.039 20.459, 137.500 21.617 M 131.500 35.532 C 120.608 37.578, 113.876 39.536, 114.202 40.562 C 114.366 41.077, 115.843 42.174, 117.485 42.999 C 119.127 43.825, 121.441 46.245, 122.628 48.377 L 124.786 52.254 126.488 48.667 C 128.139 45.187, 133.896 39.268, 139 35.802 C 141.969 33.787, 140.978 33.751, 131.500 35.532 M 160 34.799 C 160 35.326, 161.365 36.323, 163.034 37.014 C 166.612 38.496, 173.794 46.332, 174.631 49.667 C 175.275 52.233, 177 52.865, 177 50.535 C 177 48.249, 182.734 42.284, 185.629 41.557 C 187.063 41.197, 187.936 40.603, 187.570 40.236 C 186.708 39.374, 179.118 37.379, 171.500 36.011 C 168.200 35.419, 164.262 34.688, 162.750 34.388 C 161.238 34.087, 160 34.272, 160 34.799 M 145.500 44.222 C 137.264 47.141, 133.501 52.968, 134.223 61.679 C 134.488 64.867, 135.480 68.193, 136.644 69.791 C 139.093 73.153, 146.432 77, 150.396 77 C 155.478 77, 161.776 73.238, 164.514 68.566 C 169.804 59.540, 166.390 49.455, 156.500 44.890 C 152.002 42.814, 149.840 42.683, 145.500 44.222 M 92.479 49.632 C 83.487 54.853, 78.563 58.642, 68.704 67.928 C 59.535 76.564, 58.596 78.762, 66.269 73.626 C 74.787 67.924, 81.525 65.875, 93.799 65.254 L 104.098 64.733 102.025 62.527 C 98.012 58.255, 97.566 50.638, 101.080 46.403 C 103.111 43.956, 100.691 44.865, 92.479 49.632 M 199.032 45.750 C 199.049 46.163, 199.724 47.374, 200.532 48.441 C 201.339 49.509, 202 51.894, 202 53.741 C 202 57.373, 199.553 63, 197.974 63 C 197.438 63, 197 63.391, 197 63.869 C 197 64.347, 201.613 64.952, 207.250 65.214 C 218.786 65.750, 228.473 68.856, 235.316 74.213 C 241.949 79.406, 240.700 76.197, 233.330 69.115 C 224.461 60.590, 216.538 54.512, 207.326 49.164 C 199.915 44.863, 198.978 44.477, 199.032 45.750 M 106.699 49.780 C 104.571 52.131, 104.536 54.892, 106.595 57.832 C 108.928 61.162, 114.856 60.544, 116.969 56.750 C 118.344 54.280, 118.344 53.720, 116.969 51.250 C 115.007 47.727, 109.297 46.910, 106.699 49.780 M 184.699 49.780 C 181.102 53.754, 183.791 60.018, 189.079 59.985 C 193.991 59.954, 196.854 55.563, 194.788 51.231 C 193.112 47.717, 187.320 46.884, 184.699 49.780 M 121.239 61.887 C 119.996 63.571, 117.521 65.345, 115.739 65.830 L 112.500 66.711 118.122 69.244 C 121.214 70.637, 124.053 72.277, 124.431 72.888 C 124.809 73.500, 125.777 74, 126.582 74 C 127.857 74, 127.852 73.703, 126.545 71.709 C 125.719 70.449, 124.696 67.034, 124.272 64.121 L 123.500 58.825 121.239 61.887 M 176.596 63.988 C 176.261 66.509, 175.270 69.598, 174.392 70.851 C 173.514 72.104, 172.954 73.287, 173.148 73.481 C 173.703 74.035, 186.956 67.586, 186.979 66.750 C 186.991 66.338, 186.280 66, 185.400 66 C 184.520 66, 182.316 64.516, 180.502 62.702 L 177.204 59.404 176.596 63.988 M 81.472 76.830 C 74.098 79.564, 69.074 83.044, 63.163 89.512 C 56.754 96.525, 54.766 100.308, 52.443 109.915 C 50.177 119.284, 51.296 128.761, 55.805 138.398 C 64.104 156.132, 83.896 166.483, 103.182 163.175 C 111.538 161.743, 122.259 156.378, 127.443 151.037 C 135.101 143.145, 141 129.090, 141 118.735 C 141 113.051, 137.412 101.318, 134.093 96.145 C 129.623 89.179, 121.497 81.853, 114.500 78.482 C 109.201 75.929, 107.216 75.555, 97.500 75.279 C 88.673 75.028, 85.507 75.335, 81.472 76.830 M 191.446 76.436 C 176.651 81.266, 165.455 93.199, 161.361 108.500 C 155.210 131.493, 170.604 156.924, 194.014 162.442 C 202.569 164.458, 208.138 164.390, 216.144 162.170 C 227.785 158.942, 237.511 151.628, 243.299 141.752 C 250.139 130.082, 250.934 113.115, 245.222 100.718 C 241.069 91.707, 232.445 83.052, 223.302 78.722 C 217.122 75.795, 215.539 75.482, 206 75.306 C 199.478 75.186, 193.964 75.614, 191.446 76.436 M 141.507 89.443 C 145.291 95.358, 148.152 102.581, 149.453 109.500 L 150.206 113.500 152.033 106.347 C 154.013 98.598, 156.830 92.365, 160.665 87.250 C 163.490 83.483, 163.475 83.477, 156.835 85.649 C 151.841 87.282, 145.123 86.836, 139.676 84.509 C 138.330 83.933, 138.810 85.227, 141.507 89.443 M 39.052 118.031 C 35.847 129.911, 35.012 136.252, 35.006 148.783 L 35 160.067 38.533 156.533 C 41.983 153.084, 44.078 152.434, 50.213 152.908 L 52.925 153.118 49.426 147.309 C 44.024 138.341, 41.775 130.073, 41.791 119.250 C 41.799 114.162, 41.673 110, 41.512 110 C 41.351 110, 40.244 113.614, 39.052 118.031 M 258.406 120.830 C 258.301 132.762, 256.407 139.644, 251.036 147.601 C 249.366 150.076, 248 152.251, 248 152.435 C 248 152.619, 250.209 152.769, 252.909 152.769 C 258.094 152.769, 262.446 155.012, 263.542 158.250 C 263.868 159.213, 264.621 160, 265.214 160 C 267.209 160, 265.410 132.694, 262.744 122.500 C 259.177 108.867, 258.514 108.612, 258.406 120.830 M 149.119 131 C 147.233 139.648, 141.411 150.372, 135.262 156.521 C 132.248 159.534, 130.169 161.995, 130.641 161.989 C 131.114 161.983, 133.709 161.308, 136.409 160.489 C 139.225 159.635, 145.232 159, 150.500 159 C 155.768 159, 161.775 159.635, 164.591 160.489 C 167.291 161.308, 169.650 161.983, 169.834 161.989 C 170.018 161.995, 167.734 159.310, 164.759 156.023 C 158.390 148.985, 154.176 141.105, 151.935 132.044 L 150.317 125.500 149.119 131 M 43 161 C 40.597 163.403, 40.462 165.786, 42.557 168.777 C 44.538 171.606, 49.282 171.718, 52 169 C 54.550 166.450, 54.538 163.954, 51.961 161.189 C 49.418 158.459, 45.621 158.379, 43 161 M 249.061 160.939 C 245.131 164.869, 247.591 171.019, 253.079 170.985 C 256.105 170.966, 257.365 170.138, 258.952 167.125 C 260.021 165.098, 259.918 164.366, 258.253 162.125 C 255.746 158.751, 251.763 158.237, 249.061 160.939 M 59.707 163.856 C 59.992 165.977, 59.688 168.715, 59.031 169.941 C 57.501 172.802, 58.226 173.484, 61.140 171.925 C 62.411 171.245, 65.937 170.421, 68.975 170.094 L 74.500 169.500 68.967 166.364 C 65.924 164.639, 62.831 162.502, 62.095 161.614 C 59.931 159.007, 59.155 159.736, 59.707 163.856 M 235.079 164.086 C 232.098 166.238, 229.060 168, 228.329 168 C 227.598 168, 227 168.450, 227 169 C 227 169.550, 228.814 170, 231.032 170 C 233.250 170, 236.680 170.675, 238.654 171.500 C 240.629 172.325, 242.391 173, 242.571 173 C 242.751 173, 242.220 171.378, 241.392 169.396 C 240.497 167.253, 240.144 164.620, 240.523 162.896 C 240.873 161.303, 241.011 160.038, 240.829 160.086 C 240.648 160.133, 238.061 161.933, 235.079 164.086 M 144 168.670 C 139.763 169.343, 129.687 173.172, 126.002 175.509 C 120.409 179.055, 113.149 187.506, 110.029 194.103 C 101.896 211.299, 105.084 229.850, 118.609 244.029 C 133.262 259.391, 156.302 262.055, 174.530 250.496 C 199.156 234.879, 202.065 199.984, 180.404 180.019 C 171.075 171.419, 156.090 166.748, 144 168.670 M 110.500 171.728 C 107.768 172.811, 103.113 173.332, 95.817 173.369 L 85.135 173.424 88.980 176.714 C 93.225 180.348, 97 187.193, 97 191.257 C 97 195.911, 98.554 195.035, 101.733 188.587 C 103.442 185.122, 107.399 179.522, 110.528 176.144 C 116.628 169.554, 116.627 169.297, 110.500 171.728 M 188.816 174.210 C 193.777 179.382, 200.999 190.669, 200.999 193.250 C 201 194.213, 201.450 195, 202 195 C 202.550 195, 203.004 193.988, 203.010 192.750 C 203.020 190.379, 206.978 181.565, 209.195 178.977 C 209.913 178.139, 211.833 176.424, 213.462 175.166 L 216.425 172.878 208.962 173.526 C 201.955 174.135, 192.439 172.854, 186.500 170.502 C 185.272 170.016, 186.167 171.447, 188.816 174.210 M 37 174.320 C 37 175.013, 38.359 179.928, 40.021 185.244 C 43.036 194.890, 45 198.240, 45 193.737 C 45 190.036, 47.910 182.391, 50.060 180.446 C 52.921 177.856, 52.447 177.132, 48.250 177.684 C 45.339 178.067, 43.661 177.605, 40.750 175.619 C 38.422 174.031, 37 173.538, 37 174.320 M 260.675 175.366 C 258.644 176.900, 256.483 177.480, 252.986 177.428 L 248.122 177.357 250.552 180.245 C 251.889 181.833, 253.694 185.691, 254.564 188.817 C 255.434 191.942, 256.284 194.950, 256.453 195.500 C 256.623 196.050, 257.298 195.150, 257.954 193.500 C 259.517 189.570, 264.100 173.757, 263.762 173.462 C 263.618 173.336, 262.229 174.193, 260.675 175.366 M 62.337 182.060 C 53.642 187.630, 51.992 199.083, 58.730 207.091 C 69.145 219.468, 89.425 210.635, 87.602 194.514 C 86.971 188.932, 84.891 185.572, 80.010 182.250 C 75.593 179.244, 66.879 179.150, 62.337 182.060 M 220.922 182.274 C 215.664 185.817, 213 190.499, 213 196.198 C 213 202.190, 214.882 206.045, 219.541 209.599 C 226.760 215.106, 237.767 213.350, 243.115 205.838 C 246.567 200.990, 246.898 192.561, 243.815 188.024 C 240.093 182.547, 235.549 180, 229.500 180 C 225.743 180, 223.358 180.632, 220.922 182.274 M 204.365 215.929 L 204.231 224.984 207.192 222.492 C 208.937 221.023, 211.411 220, 213.216 220 L 216.278 220 211.889 215.687 C 209.475 213.314, 206.825 210.361, 206 209.124 C 204.608 207.035, 204.490 207.524, 204.365 215.929 M 93.656 210.550 C 92.646 212.173, 90.173 214.956, 88.160 216.735 C 84.514 219.958, 84.510 219.970, 87.110 219.985 C 88.546 219.993, 91.256 221.042, 93.133 222.315 L 96.545 224.631 96.220 217.565 C 95.751 207.357, 95.711 207.248, 93.656 210.550 M 61.818 224.750 C 64.020 227.363, 67.374 230.990, 69.271 232.811 L 72.720 236.121 73.286 231.907 C 73.597 229.589, 74.782 226.434, 75.920 224.894 L 77.989 222.096 73.245 222.644 C 70.179 222.998, 66.908 222.633, 64 221.611 C 57.511 219.330, 57.393 219.501, 61.818 224.750 M 238.518 221.210 C 237.428 221.842, 233.535 222.391, 229.867 222.429 C 223.110 222.501, 222.820 222.771, 225.788 226.229 C 226.605 227.181, 227.273 229.768, 227.273 231.979 C 227.273 234.191, 227.633 236, 228.073 236 C 228.950 236, 241.295 222.504, 241.833 220.958 C 242.274 219.692, 240.964 219.792, 238.518 221.210 M 83.235 227.037 C 81.990 227.537, 80.505 229.171, 79.936 230.668 C 77.807 236.267, 85.621 241.463, 90.088 237.420 C 92.656 235.096, 92.522 230.565, 89.811 228.039 C 87.413 225.804, 86.608 225.682, 83.235 227.037 M 210.455 228.455 C 207.384 231.526, 207.342 234.033, 210.314 236.826 C 213.202 239.538, 216.398 239.602, 219 237 C 221.655 234.345, 221.530 230.847, 218.686 228.174 C 215.682 225.352, 213.482 225.427, 210.455 228.455 M 98.139 236.103 C 96.703 240.425, 93.310 243.823, 89.381 244.873 C 87.796 245.297, 86.547 246.062, 86.604 246.572 C 86.661 247.082, 91.068 249.790, 96.398 252.588 C 106.315 257.795, 119.603 262.648, 126.585 263.613 L 130.500 264.154 125.194 261.327 C 122.275 259.772, 117.947 256.925, 115.576 255 C 110.500 250.880, 102.767 240.966, 100.755 236 L 99.336 232.500 98.139 236.103 M 198.477 238.676 C 194.822 246.196, 184.309 256.782, 176.492 260.814 C 169.598 264.369, 171.086 264.815, 180.834 262.113 C 193.272 258.667, 215.723 247.980, 214.542 246.068 C 214.267 245.623, 212.767 245.003, 211.209 244.692 C 207.133 243.877, 204.118 241.064, 202.616 236.676 L 201.307 232.852 198.477 238.676 " stroke="none" fill="black" fill-rule="evenodd"/>
</svg>