<svg xmlns="http://www.w3.org/2000/svg" width="300" height="300" viewBox="0 0 300 300" version="1.1">
	<path d="M 205 115.496 C 184.918 119.537, 167.478 130.557, 145.353 153.186 L 133.205 165.610 120.853 154.327 C 114.059 148.121, 108.162 143.033, 107.750 143.022 C 105.863 142.967, 107.781 145.400, 118.725 156.937 L 130.450 169.299 120.835 178.457 C 105.399 193.158, 91.924 198.602, 77.048 196.145 C 68.439 194.723, 64.524 193.038, 59.210 188.466 C 47.375 178.285, 45.706 158.953, 55.759 148.490 C 59.260 144.848, 65.528 141.009, 70.393 139.529 C 71.434 139.212, 72.011 138.678, 71.674 138.341 C 70.236 136.902, 56.855 142.375, 52.554 146.162 C 45.861 152.053, 42.641 159.444, 42.658 168.874 C 42.676 178.399, 45.003 184.008, 52.010 191.417 C 60.883 200.799, 73.640 204.717, 89.515 202.937 C 102.319 201.501, 111.624 196.230, 126.284 182.110 L 135.067 173.650 139.284 177.646 C 155.959 193.449, 173.198 202.494, 194.250 206.488 C 204.543 208.440, 225.492 208.444, 233.760 206.494 C 257.073 200.998, 269.061 183.486, 267.777 156.807 C 267.355 148.057, 266.913 146.209, 263.676 139.660 C 253.992 120.064, 230.459 110.373, 205 115.496 M 202.322 123.098 C 183.581 126.227, 161.590 141.024, 142.665 163.239 C 140.005 166.361, 138.079 169.318, 138.383 169.811 C 140.644 173.469, 168.947 189.841, 180 193.885 C 197.882 200.427, 216.455 201.957, 229.414 197.954 C 242.972 193.766, 251.753 182.768, 254.106 167.028 C 255.577 157.186, 254.643 149.878, 250.943 142.292 C 243.334 126.689, 224.753 119.353, 202.322 123.098 M 85.190 130.298 C 84.002 131.562, 82.746 134.019, 82.398 135.758 C 81.866 138.418, 82.268 139.422, 84.929 142.083 C 87.680 144.834, 88.572 145.169, 91.772 144.650 C 96.215 143.929, 98.947 140.727, 98.978 136.205 C 99.026 129.091, 89.969 125.211, 85.190 130.298 " stroke="none" fill="black" fill-rule="evenodd"/>
</svg>