<svg xmlns="http://www.w3.org/2000/svg" width="300" height="300" viewBox="0 0 300 300" version="1.1">
	<path d="M 0 150 L 0 300 148.918 300 C 230.823 300, 298.548 299.727, 299.418 299.393 C 300.851 298.843, 301 284.697, 301 149.393 L 301 0 150.500 0 L 0 0 0 150 M 0.487 150.500 C 0.487 233, 0.605 266.602, 0.750 225.172 C 0.894 183.741, 0.894 116.241, 0.750 75.172 C 0.605 34.102, 0.487 68, 0.487 150.500 M 39.013 133.187 C 39.021 133.909, 43.001 141.700, 47.859 150.500 L 56.691 166.500 61.095 166.500 L 65.500 166.500 65.500 149.500 L 65.500 132.500 62.500 132.500 L 59.500 132.500 59 144.414 L 58.500 156.328 51.895 144.414 C 45.822 133.459, 45.037 132.475, 42.145 132.187 C 40.051 131.978, 39.004 132.312, 39.013 133.187 M 72.226 149.185 L 72.500 166.500 75.500 166.500 L 78.500 166.500 78.500 149.500 L 78.500 132.500 75.226 132.185 L 71.952 131.870 72.226 149.185 M 85.226 149.250 L 85.500 166.500 95.043 166.396 C 105.669 166.280, 108.244 165.362, 110.571 160.863 C 112.323 157.474, 111.831 153.595, 109.290 150.776 C 107.884 149.215, 107.891 148.815, 109.368 146.561 C 111.389 143.477, 111.435 140.743, 109.530 137.059 C 107.579 133.286, 103.462 132, 93.327 132 L 84.953 132 85.226 149.250 M 116.667 132.667 C 116.300 133.033, 116 140.675, 116 149.648 C 116 168.799, 114.694 167.254, 130.500 166.792 L 140.500 166.500 140.813 163.250 L 141.127 160 132.063 160 L 123 160 123 156.042 L 123 152.084 130.750 151.792 L 138.500 151.500 138.500 148.549 L 138.500 145.599 131 145.549 L 123.500 145.500 123.500 142 L 123.500 138.500 132.250 138.211 L 141 137.922 141 134.961 L 141 132 129.167 132 C 122.658 132, 117.033 132.300, 116.667 132.667 M 147.226 149.250 L 147.500 166.500 150.250 166.816 C 151.994 167.017, 153.025 166.651, 153.069 165.816 C 153.107 165.092, 153.220 162.040, 153.319 159.034 C 153.500 153.582, 153.509 153.567, 156.825 153.397 C 159.985 153.235, 160.310 153.556, 163.353 159.863 C 165.774 164.879, 167.127 166.582, 168.893 166.835 C 172.862 167.403, 173.165 165.729, 170.297 159.083 C 167.887 153.496, 167.754 152.652, 169.126 151.641 C 173.424 148.472, 174.408 139.889, 170.904 136.127 C 167.806 132.802, 164.797 132, 155.411 132 L 146.953 132 147.226 149.250 M 184.166 148.801 C 179.125 158.094, 175 165.895, 175 166.136 C 175 166.377, 176.316 166.675, 177.925 166.797 C 181.406 167.063, 182.367 165.856, 190.108 151.500 L 195.500 141.500 195.784 153.484 C 195.940 160.075, 196.469 165.869, 196.961 166.361 C 197.452 166.852, 199.022 166.960, 200.451 166.602 L 203.048 165.950 202.774 149.225 L 202.500 132.500 197.916 132.202 L 193.332 131.904 184.166 148.801 M 207 134.943 C 207 137.689, 207.283 137.905, 211.250 138.193 L 215.500 138.500 215.778 152.149 L 216.055 165.797 218.574 166.429 C 219.959 166.777, 221.479 166.822, 221.952 166.530 C 222.425 166.238, 222.836 160.486, 222.867 153.749 C 222.897 147.012, 222.939 140.713, 222.961 139.750 C 222.991 138.386, 223.869 138, 226.941 138 C 231.295 138, 232.448 136.986, 231.497 133.991 C 230.913 132.150, 229.969 132, 218.933 132 L 207 132 207 134.943 M 236.226 149.219 L 236.500 166.500 248.500 166.500 L 260.500 166.500 260.500 163.500 L 260.500 160.500 251.750 160.211 L 243 159.922 242.998 155.711 L 242.995 151.500 250.498 151.829 L 258 152.158 258 149.079 L 258 146 250.500 146 L 243 146 243 142.039 L 243 138.078 251.750 137.789 C 260.340 137.505, 260.500 137.454, 260.500 135 L 260.500 132.500 248.226 132.219 L 235.953 131.938 236.226 149.219 M 92 142 L 92 146.105 97.147 145.802 C 100.728 145.592, 102.628 144.968, 103.392 143.750 C 105.337 140.650, 102.963 138.539, 97.147 138.198 L 92 137.895 92 142 M 153.436 140.398 C 153.105 141.717, 152.984 143.855, 153.167 145.148 C 153.455 147.183, 154.133 147.541, 158.197 147.803 C 161.867 148.039, 163.344 147.656, 164.947 146.053 C 167.508 143.492, 167.516 142.516, 165 140 C 163.595 138.595, 161.667 138, 158.519 138 C 154.624 138, 153.959 138.314, 153.436 140.398 M 95.750 151.798 C 92.097 152.112, 92 152.224, 92 156.110 L 92 160.100 97.646 159.800 C 103.887 159.468, 106.404 157.450, 104.447 154.347 C 103.087 152.191, 100.383 151.399, 95.750 151.798 " stroke="none" fill="black" fill-rule="evenodd"/>
</svg>